%TF.GenerationSoftware,KiCad,Pcbnew,9.0.0*%
%TF.CreationDate,2025-04-06T22:46:27+05:30*%
%TF.ProjectId,display,64697370-6c61-4792-9e6b-696361645f70,rev?*%
%TF.SameCoordinates,Original*%
%TF.FileFunction,Drillmap*%
%TF.FilePolarity,Positive*%
%FSLAX45Y45*%
G04 Gerber Fmt 4.5, Leading zero omitted, Abs format (unit mm)*
G04 Created by KiCad (PCBNEW 9.0.0) date 2025-04-06 22:46:27*
%MOMM*%
%LPD*%
G01*
G04 APERTURE LIST*
%ADD10C,0.050000*%
%ADD11C,0.200000*%
%ADD12C,0.100000*%
G04 APERTURE END LIST*
D10*
X45200000Y-26500000D02*
G75*
G02*
X44800000Y-26500000I-200000J0D01*
G01*
X44800000Y-26500000D02*
G75*
G02*
X45200000Y-26500000I200000J0D01*
G01*
X45200000Y-23500000D02*
G75*
G02*
X44800000Y-23500000I-200000J0D01*
G01*
X44800000Y-23500000D02*
G75*
G02*
X45200000Y-23500000I200000J0D01*
G01*
X54000000Y-25000000D02*
G75*
G02*
X36000000Y-25000000I-9000000J0D01*
G01*
X36000000Y-25000000D02*
G75*
G02*
X54000000Y-25000000I9000000J0D01*
G01*
D11*
D12*
X42917500Y-32556250D02*
X42982500Y-32621250D01*
X42982500Y-32556250D02*
X42917500Y-32621250D01*
X43517500Y-32556250D02*
X43582500Y-32621250D01*
X43582500Y-32556250D02*
X43517500Y-32621250D01*
X46428500Y-32561250D02*
X46493500Y-32626250D01*
X46493500Y-32561250D02*
X46428500Y-32626250D01*
X47006500Y-32561250D02*
X47071500Y-32626250D01*
X47071500Y-32561250D02*
X47006500Y-32626250D01*
D11*
X36258277Y-34313984D02*
X36258277Y-34113984D01*
X36258277Y-34113984D02*
X36305896Y-34113984D01*
X36305896Y-34113984D02*
X36334467Y-34123508D01*
X36334467Y-34123508D02*
X36353515Y-34142555D01*
X36353515Y-34142555D02*
X36363039Y-34161603D01*
X36363039Y-34161603D02*
X36372563Y-34199698D01*
X36372563Y-34199698D02*
X36372563Y-34228270D01*
X36372563Y-34228270D02*
X36363039Y-34266365D01*
X36363039Y-34266365D02*
X36353515Y-34285412D01*
X36353515Y-34285412D02*
X36334467Y-34304460D01*
X36334467Y-34304460D02*
X36305896Y-34313984D01*
X36305896Y-34313984D02*
X36258277Y-34313984D01*
X36458277Y-34313984D02*
X36458277Y-34180650D01*
X36458277Y-34218746D02*
X36467801Y-34199698D01*
X36467801Y-34199698D02*
X36477324Y-34190174D01*
X36477324Y-34190174D02*
X36496372Y-34180650D01*
X36496372Y-34180650D02*
X36515420Y-34180650D01*
X36582086Y-34313984D02*
X36582086Y-34180650D01*
X36582086Y-34113984D02*
X36572563Y-34123508D01*
X36572563Y-34123508D02*
X36582086Y-34133031D01*
X36582086Y-34133031D02*
X36591610Y-34123508D01*
X36591610Y-34123508D02*
X36582086Y-34113984D01*
X36582086Y-34113984D02*
X36582086Y-34133031D01*
X36705896Y-34313984D02*
X36686848Y-34304460D01*
X36686848Y-34304460D02*
X36677324Y-34285412D01*
X36677324Y-34285412D02*
X36677324Y-34113984D01*
X36810658Y-34313984D02*
X36791610Y-34304460D01*
X36791610Y-34304460D02*
X36782086Y-34285412D01*
X36782086Y-34285412D02*
X36782086Y-34113984D01*
X37039229Y-34313984D02*
X37039229Y-34113984D01*
X37039229Y-34113984D02*
X37105896Y-34256841D01*
X37105896Y-34256841D02*
X37172563Y-34113984D01*
X37172563Y-34113984D02*
X37172563Y-34313984D01*
X37353515Y-34313984D02*
X37353515Y-34209222D01*
X37353515Y-34209222D02*
X37343991Y-34190174D01*
X37343991Y-34190174D02*
X37324944Y-34180650D01*
X37324944Y-34180650D02*
X37286848Y-34180650D01*
X37286848Y-34180650D02*
X37267801Y-34190174D01*
X37353515Y-34304460D02*
X37334467Y-34313984D01*
X37334467Y-34313984D02*
X37286848Y-34313984D01*
X37286848Y-34313984D02*
X37267801Y-34304460D01*
X37267801Y-34304460D02*
X37258277Y-34285412D01*
X37258277Y-34285412D02*
X37258277Y-34266365D01*
X37258277Y-34266365D02*
X37267801Y-34247317D01*
X37267801Y-34247317D02*
X37286848Y-34237793D01*
X37286848Y-34237793D02*
X37334467Y-34237793D01*
X37334467Y-34237793D02*
X37353515Y-34228270D01*
X37448753Y-34180650D02*
X37448753Y-34380650D01*
X37448753Y-34190174D02*
X37467801Y-34180650D01*
X37467801Y-34180650D02*
X37505896Y-34180650D01*
X37505896Y-34180650D02*
X37524944Y-34190174D01*
X37524944Y-34190174D02*
X37534467Y-34199698D01*
X37534467Y-34199698D02*
X37543991Y-34218746D01*
X37543991Y-34218746D02*
X37543991Y-34275889D01*
X37543991Y-34275889D02*
X37534467Y-34294936D01*
X37534467Y-34294936D02*
X37524944Y-34304460D01*
X37524944Y-34304460D02*
X37505896Y-34313984D01*
X37505896Y-34313984D02*
X37467801Y-34313984D01*
X37467801Y-34313984D02*
X37448753Y-34304460D01*
X37629705Y-34294936D02*
X37639229Y-34304460D01*
X37639229Y-34304460D02*
X37629705Y-34313984D01*
X37629705Y-34313984D02*
X37620182Y-34304460D01*
X37620182Y-34304460D02*
X37629705Y-34294936D01*
X37629705Y-34294936D02*
X37629705Y-34313984D01*
X37629705Y-34190174D02*
X37639229Y-34199698D01*
X37639229Y-34199698D02*
X37629705Y-34209222D01*
X37629705Y-34209222D02*
X37620182Y-34199698D01*
X37620182Y-34199698D02*
X37629705Y-34190174D01*
X37629705Y-34190174D02*
X37629705Y-34209222D01*
D12*
X35932500Y-34610000D02*
X35997500Y-34675000D01*
X35997500Y-34610000D02*
X35932500Y-34675000D01*
D11*
X36296372Y-34533984D02*
X36315420Y-34533984D01*
X36315420Y-34533984D02*
X36334467Y-34543508D01*
X36334467Y-34543508D02*
X36343991Y-34553031D01*
X36343991Y-34553031D02*
X36353515Y-34572079D01*
X36353515Y-34572079D02*
X36363039Y-34610174D01*
X36363039Y-34610174D02*
X36363039Y-34657793D01*
X36363039Y-34657793D02*
X36353515Y-34695889D01*
X36353515Y-34695889D02*
X36343991Y-34714936D01*
X36343991Y-34714936D02*
X36334467Y-34724460D01*
X36334467Y-34724460D02*
X36315420Y-34733984D01*
X36315420Y-34733984D02*
X36296372Y-34733984D01*
X36296372Y-34733984D02*
X36277324Y-34724460D01*
X36277324Y-34724460D02*
X36267801Y-34714936D01*
X36267801Y-34714936D02*
X36258277Y-34695889D01*
X36258277Y-34695889D02*
X36248753Y-34657793D01*
X36248753Y-34657793D02*
X36248753Y-34610174D01*
X36248753Y-34610174D02*
X36258277Y-34572079D01*
X36258277Y-34572079D02*
X36267801Y-34553031D01*
X36267801Y-34553031D02*
X36277324Y-34543508D01*
X36277324Y-34543508D02*
X36296372Y-34533984D01*
X36448753Y-34714936D02*
X36458277Y-34724460D01*
X36458277Y-34724460D02*
X36448753Y-34733984D01*
X36448753Y-34733984D02*
X36439229Y-34724460D01*
X36439229Y-34724460D02*
X36448753Y-34714936D01*
X36448753Y-34714936D02*
X36448753Y-34733984D01*
X36629705Y-34533984D02*
X36591610Y-34533984D01*
X36591610Y-34533984D02*
X36572563Y-34543508D01*
X36572563Y-34543508D02*
X36563039Y-34553031D01*
X36563039Y-34553031D02*
X36543991Y-34581603D01*
X36543991Y-34581603D02*
X36534467Y-34619698D01*
X36534467Y-34619698D02*
X36534467Y-34695889D01*
X36534467Y-34695889D02*
X36543991Y-34714936D01*
X36543991Y-34714936D02*
X36553515Y-34724460D01*
X36553515Y-34724460D02*
X36572563Y-34733984D01*
X36572563Y-34733984D02*
X36610658Y-34733984D01*
X36610658Y-34733984D02*
X36629705Y-34724460D01*
X36629705Y-34724460D02*
X36639229Y-34714936D01*
X36639229Y-34714936D02*
X36648753Y-34695889D01*
X36648753Y-34695889D02*
X36648753Y-34648270D01*
X36648753Y-34648270D02*
X36639229Y-34629222D01*
X36639229Y-34629222D02*
X36629705Y-34619698D01*
X36629705Y-34619698D02*
X36610658Y-34610174D01*
X36610658Y-34610174D02*
X36572563Y-34610174D01*
X36572563Y-34610174D02*
X36553515Y-34619698D01*
X36553515Y-34619698D02*
X36543991Y-34629222D01*
X36543991Y-34629222D02*
X36534467Y-34648270D01*
X36829705Y-34533984D02*
X36734467Y-34533984D01*
X36734467Y-34533984D02*
X36724944Y-34629222D01*
X36724944Y-34629222D02*
X36734467Y-34619698D01*
X36734467Y-34619698D02*
X36753515Y-34610174D01*
X36753515Y-34610174D02*
X36801134Y-34610174D01*
X36801134Y-34610174D02*
X36820182Y-34619698D01*
X36820182Y-34619698D02*
X36829705Y-34629222D01*
X36829705Y-34629222D02*
X36839229Y-34648270D01*
X36839229Y-34648270D02*
X36839229Y-34695889D01*
X36839229Y-34695889D02*
X36829705Y-34714936D01*
X36829705Y-34714936D02*
X36820182Y-34724460D01*
X36820182Y-34724460D02*
X36801134Y-34733984D01*
X36801134Y-34733984D02*
X36753515Y-34733984D01*
X36753515Y-34733984D02*
X36734467Y-34724460D01*
X36734467Y-34724460D02*
X36724944Y-34714936D01*
X36963039Y-34533984D02*
X36982086Y-34533984D01*
X36982086Y-34533984D02*
X37001134Y-34543508D01*
X37001134Y-34543508D02*
X37010658Y-34553031D01*
X37010658Y-34553031D02*
X37020182Y-34572079D01*
X37020182Y-34572079D02*
X37029705Y-34610174D01*
X37029705Y-34610174D02*
X37029705Y-34657793D01*
X37029705Y-34657793D02*
X37020182Y-34695889D01*
X37020182Y-34695889D02*
X37010658Y-34714936D01*
X37010658Y-34714936D02*
X37001134Y-34724460D01*
X37001134Y-34724460D02*
X36982086Y-34733984D01*
X36982086Y-34733984D02*
X36963039Y-34733984D01*
X36963039Y-34733984D02*
X36943991Y-34724460D01*
X36943991Y-34724460D02*
X36934467Y-34714936D01*
X36934467Y-34714936D02*
X36924944Y-34695889D01*
X36924944Y-34695889D02*
X36915420Y-34657793D01*
X36915420Y-34657793D02*
X36915420Y-34610174D01*
X36915420Y-34610174D02*
X36924944Y-34572079D01*
X36924944Y-34572079D02*
X36934467Y-34553031D01*
X36934467Y-34553031D02*
X36943991Y-34543508D01*
X36943991Y-34543508D02*
X36963039Y-34533984D01*
X37115420Y-34733984D02*
X37115420Y-34600650D01*
X37115420Y-34619698D02*
X37124944Y-34610174D01*
X37124944Y-34610174D02*
X37143991Y-34600650D01*
X37143991Y-34600650D02*
X37172563Y-34600650D01*
X37172563Y-34600650D02*
X37191610Y-34610174D01*
X37191610Y-34610174D02*
X37201134Y-34629222D01*
X37201134Y-34629222D02*
X37201134Y-34733984D01*
X37201134Y-34629222D02*
X37210658Y-34610174D01*
X37210658Y-34610174D02*
X37229705Y-34600650D01*
X37229705Y-34600650D02*
X37258277Y-34600650D01*
X37258277Y-34600650D02*
X37277325Y-34610174D01*
X37277325Y-34610174D02*
X37286848Y-34629222D01*
X37286848Y-34629222D02*
X37286848Y-34733984D01*
X37382086Y-34733984D02*
X37382086Y-34600650D01*
X37382086Y-34619698D02*
X37391610Y-34610174D01*
X37391610Y-34610174D02*
X37410658Y-34600650D01*
X37410658Y-34600650D02*
X37439229Y-34600650D01*
X37439229Y-34600650D02*
X37458277Y-34610174D01*
X37458277Y-34610174D02*
X37467801Y-34629222D01*
X37467801Y-34629222D02*
X37467801Y-34733984D01*
X37467801Y-34629222D02*
X37477325Y-34610174D01*
X37477325Y-34610174D02*
X37496372Y-34600650D01*
X37496372Y-34600650D02*
X37524944Y-34600650D01*
X37524944Y-34600650D02*
X37543991Y-34610174D01*
X37543991Y-34610174D02*
X37553515Y-34629222D01*
X37553515Y-34629222D02*
X37553515Y-34733984D01*
X37943991Y-34524460D02*
X37772563Y-34781603D01*
X38201134Y-34533984D02*
X38220182Y-34533984D01*
X38220182Y-34533984D02*
X38239229Y-34543508D01*
X38239229Y-34543508D02*
X38248753Y-34553031D01*
X38248753Y-34553031D02*
X38258277Y-34572079D01*
X38258277Y-34572079D02*
X38267801Y-34610174D01*
X38267801Y-34610174D02*
X38267801Y-34657793D01*
X38267801Y-34657793D02*
X38258277Y-34695889D01*
X38258277Y-34695889D02*
X38248753Y-34714936D01*
X38248753Y-34714936D02*
X38239229Y-34724460D01*
X38239229Y-34724460D02*
X38220182Y-34733984D01*
X38220182Y-34733984D02*
X38201134Y-34733984D01*
X38201134Y-34733984D02*
X38182087Y-34724460D01*
X38182087Y-34724460D02*
X38172563Y-34714936D01*
X38172563Y-34714936D02*
X38163039Y-34695889D01*
X38163039Y-34695889D02*
X38153515Y-34657793D01*
X38153515Y-34657793D02*
X38153515Y-34610174D01*
X38153515Y-34610174D02*
X38163039Y-34572079D01*
X38163039Y-34572079D02*
X38172563Y-34553031D01*
X38172563Y-34553031D02*
X38182087Y-34543508D01*
X38182087Y-34543508D02*
X38201134Y-34533984D01*
X38353515Y-34714936D02*
X38363039Y-34724460D01*
X38363039Y-34724460D02*
X38353515Y-34733984D01*
X38353515Y-34733984D02*
X38343991Y-34724460D01*
X38343991Y-34724460D02*
X38353515Y-34714936D01*
X38353515Y-34714936D02*
X38353515Y-34733984D01*
X38486848Y-34533984D02*
X38505896Y-34533984D01*
X38505896Y-34533984D02*
X38524944Y-34543508D01*
X38524944Y-34543508D02*
X38534468Y-34553031D01*
X38534468Y-34553031D02*
X38543991Y-34572079D01*
X38543991Y-34572079D02*
X38553515Y-34610174D01*
X38553515Y-34610174D02*
X38553515Y-34657793D01*
X38553515Y-34657793D02*
X38543991Y-34695889D01*
X38543991Y-34695889D02*
X38534468Y-34714936D01*
X38534468Y-34714936D02*
X38524944Y-34724460D01*
X38524944Y-34724460D02*
X38505896Y-34733984D01*
X38505896Y-34733984D02*
X38486848Y-34733984D01*
X38486848Y-34733984D02*
X38467801Y-34724460D01*
X38467801Y-34724460D02*
X38458277Y-34714936D01*
X38458277Y-34714936D02*
X38448753Y-34695889D01*
X38448753Y-34695889D02*
X38439229Y-34657793D01*
X38439229Y-34657793D02*
X38439229Y-34610174D01*
X38439229Y-34610174D02*
X38448753Y-34572079D01*
X38448753Y-34572079D02*
X38458277Y-34553031D01*
X38458277Y-34553031D02*
X38467801Y-34543508D01*
X38467801Y-34543508D02*
X38486848Y-34533984D01*
X38629706Y-34553031D02*
X38639229Y-34543508D01*
X38639229Y-34543508D02*
X38658277Y-34533984D01*
X38658277Y-34533984D02*
X38705896Y-34533984D01*
X38705896Y-34533984D02*
X38724944Y-34543508D01*
X38724944Y-34543508D02*
X38734468Y-34553031D01*
X38734468Y-34553031D02*
X38743991Y-34572079D01*
X38743991Y-34572079D02*
X38743991Y-34591127D01*
X38743991Y-34591127D02*
X38734468Y-34619698D01*
X38734468Y-34619698D02*
X38620182Y-34733984D01*
X38620182Y-34733984D02*
X38743991Y-34733984D01*
X38924944Y-34533984D02*
X38829706Y-34533984D01*
X38829706Y-34533984D02*
X38820182Y-34629222D01*
X38820182Y-34629222D02*
X38829706Y-34619698D01*
X38829706Y-34619698D02*
X38848753Y-34610174D01*
X38848753Y-34610174D02*
X38896372Y-34610174D01*
X38896372Y-34610174D02*
X38915420Y-34619698D01*
X38915420Y-34619698D02*
X38924944Y-34629222D01*
X38924944Y-34629222D02*
X38934468Y-34648270D01*
X38934468Y-34648270D02*
X38934468Y-34695889D01*
X38934468Y-34695889D02*
X38924944Y-34714936D01*
X38924944Y-34714936D02*
X38915420Y-34724460D01*
X38915420Y-34724460D02*
X38896372Y-34733984D01*
X38896372Y-34733984D02*
X38848753Y-34733984D01*
X38848753Y-34733984D02*
X38829706Y-34724460D01*
X38829706Y-34724460D02*
X38820182Y-34714936D01*
X39105896Y-34533984D02*
X39067801Y-34533984D01*
X39067801Y-34533984D02*
X39048753Y-34543508D01*
X39048753Y-34543508D02*
X39039229Y-34553031D01*
X39039229Y-34553031D02*
X39020182Y-34581603D01*
X39020182Y-34581603D02*
X39010658Y-34619698D01*
X39010658Y-34619698D02*
X39010658Y-34695889D01*
X39010658Y-34695889D02*
X39020182Y-34714936D01*
X39020182Y-34714936D02*
X39029706Y-34724460D01*
X39029706Y-34724460D02*
X39048753Y-34733984D01*
X39048753Y-34733984D02*
X39086849Y-34733984D01*
X39086849Y-34733984D02*
X39105896Y-34724460D01*
X39105896Y-34724460D02*
X39115420Y-34714936D01*
X39115420Y-34714936D02*
X39124944Y-34695889D01*
X39124944Y-34695889D02*
X39124944Y-34648270D01*
X39124944Y-34648270D02*
X39115420Y-34629222D01*
X39115420Y-34629222D02*
X39105896Y-34619698D01*
X39105896Y-34619698D02*
X39086849Y-34610174D01*
X39086849Y-34610174D02*
X39048753Y-34610174D01*
X39048753Y-34610174D02*
X39029706Y-34619698D01*
X39029706Y-34619698D02*
X39020182Y-34629222D01*
X39020182Y-34629222D02*
X39010658Y-34648270D01*
X39201134Y-34533984D02*
X39201134Y-34572079D01*
X39277325Y-34533984D02*
X39277325Y-34572079D01*
X39572563Y-34810174D02*
X39563039Y-34800650D01*
X39563039Y-34800650D02*
X39543991Y-34772079D01*
X39543991Y-34772079D02*
X39534468Y-34753031D01*
X39534468Y-34753031D02*
X39524944Y-34724460D01*
X39524944Y-34724460D02*
X39515420Y-34676841D01*
X39515420Y-34676841D02*
X39515420Y-34638746D01*
X39515420Y-34638746D02*
X39524944Y-34591127D01*
X39524944Y-34591127D02*
X39534468Y-34562555D01*
X39534468Y-34562555D02*
X39543991Y-34543508D01*
X39543991Y-34543508D02*
X39563039Y-34514936D01*
X39563039Y-34514936D02*
X39572563Y-34505412D01*
X39734468Y-34600650D02*
X39734468Y-34733984D01*
X39686849Y-34524460D02*
X39639230Y-34667317D01*
X39639230Y-34667317D02*
X39763039Y-34667317D01*
X39991611Y-34733984D02*
X39991611Y-34533984D01*
X40077325Y-34733984D02*
X40077325Y-34629222D01*
X40077325Y-34629222D02*
X40067801Y-34610174D01*
X40067801Y-34610174D02*
X40048753Y-34600650D01*
X40048753Y-34600650D02*
X40020182Y-34600650D01*
X40020182Y-34600650D02*
X40001134Y-34610174D01*
X40001134Y-34610174D02*
X39991611Y-34619698D01*
X40201134Y-34733984D02*
X40182087Y-34724460D01*
X40182087Y-34724460D02*
X40172563Y-34714936D01*
X40172563Y-34714936D02*
X40163039Y-34695889D01*
X40163039Y-34695889D02*
X40163039Y-34638746D01*
X40163039Y-34638746D02*
X40172563Y-34619698D01*
X40172563Y-34619698D02*
X40182087Y-34610174D01*
X40182087Y-34610174D02*
X40201134Y-34600650D01*
X40201134Y-34600650D02*
X40229706Y-34600650D01*
X40229706Y-34600650D02*
X40248753Y-34610174D01*
X40248753Y-34610174D02*
X40258277Y-34619698D01*
X40258277Y-34619698D02*
X40267801Y-34638746D01*
X40267801Y-34638746D02*
X40267801Y-34695889D01*
X40267801Y-34695889D02*
X40258277Y-34714936D01*
X40258277Y-34714936D02*
X40248753Y-34724460D01*
X40248753Y-34724460D02*
X40229706Y-34733984D01*
X40229706Y-34733984D02*
X40201134Y-34733984D01*
X40382087Y-34733984D02*
X40363039Y-34724460D01*
X40363039Y-34724460D02*
X40353515Y-34705412D01*
X40353515Y-34705412D02*
X40353515Y-34533984D01*
X40534468Y-34724460D02*
X40515420Y-34733984D01*
X40515420Y-34733984D02*
X40477325Y-34733984D01*
X40477325Y-34733984D02*
X40458277Y-34724460D01*
X40458277Y-34724460D02*
X40448753Y-34705412D01*
X40448753Y-34705412D02*
X40448753Y-34629222D01*
X40448753Y-34629222D02*
X40458277Y-34610174D01*
X40458277Y-34610174D02*
X40477325Y-34600650D01*
X40477325Y-34600650D02*
X40515420Y-34600650D01*
X40515420Y-34600650D02*
X40534468Y-34610174D01*
X40534468Y-34610174D02*
X40543992Y-34629222D01*
X40543992Y-34629222D02*
X40543992Y-34648270D01*
X40543992Y-34648270D02*
X40448753Y-34667317D01*
X40620182Y-34724460D02*
X40639230Y-34733984D01*
X40639230Y-34733984D02*
X40677325Y-34733984D01*
X40677325Y-34733984D02*
X40696373Y-34724460D01*
X40696373Y-34724460D02*
X40705896Y-34705412D01*
X40705896Y-34705412D02*
X40705896Y-34695889D01*
X40705896Y-34695889D02*
X40696373Y-34676841D01*
X40696373Y-34676841D02*
X40677325Y-34667317D01*
X40677325Y-34667317D02*
X40648753Y-34667317D01*
X40648753Y-34667317D02*
X40629706Y-34657793D01*
X40629706Y-34657793D02*
X40620182Y-34638746D01*
X40620182Y-34638746D02*
X40620182Y-34629222D01*
X40620182Y-34629222D02*
X40629706Y-34610174D01*
X40629706Y-34610174D02*
X40648753Y-34600650D01*
X40648753Y-34600650D02*
X40677325Y-34600650D01*
X40677325Y-34600650D02*
X40696373Y-34610174D01*
X40772563Y-34810174D02*
X40782087Y-34800650D01*
X40782087Y-34800650D02*
X40801134Y-34772079D01*
X40801134Y-34772079D02*
X40810658Y-34753031D01*
X40810658Y-34753031D02*
X40820182Y-34724460D01*
X40820182Y-34724460D02*
X40829706Y-34676841D01*
X40829706Y-34676841D02*
X40829706Y-34638746D01*
X40829706Y-34638746D02*
X40820182Y-34591127D01*
X40820182Y-34591127D02*
X40810658Y-34562555D01*
X40810658Y-34562555D02*
X40801134Y-34543508D01*
X40801134Y-34543508D02*
X40782087Y-34514936D01*
X40782087Y-34514936D02*
X40772563Y-34505412D01*
X41134468Y-34810174D02*
X41124944Y-34800650D01*
X41124944Y-34800650D02*
X41105896Y-34772079D01*
X41105896Y-34772079D02*
X41096373Y-34753031D01*
X41096373Y-34753031D02*
X41086849Y-34724460D01*
X41086849Y-34724460D02*
X41077325Y-34676841D01*
X41077325Y-34676841D02*
X41077325Y-34638746D01*
X41077325Y-34638746D02*
X41086849Y-34591127D01*
X41086849Y-34591127D02*
X41096373Y-34562555D01*
X41096373Y-34562555D02*
X41105896Y-34543508D01*
X41105896Y-34543508D02*
X41124944Y-34514936D01*
X41124944Y-34514936D02*
X41134468Y-34505412D01*
X41210658Y-34600650D02*
X41210658Y-34733984D01*
X41210658Y-34619698D02*
X41220182Y-34610174D01*
X41220182Y-34610174D02*
X41239230Y-34600650D01*
X41239230Y-34600650D02*
X41267801Y-34600650D01*
X41267801Y-34600650D02*
X41286849Y-34610174D01*
X41286849Y-34610174D02*
X41296373Y-34629222D01*
X41296373Y-34629222D02*
X41296373Y-34733984D01*
X41420182Y-34733984D02*
X41401134Y-34724460D01*
X41401134Y-34724460D02*
X41391611Y-34714936D01*
X41391611Y-34714936D02*
X41382087Y-34695889D01*
X41382087Y-34695889D02*
X41382087Y-34638746D01*
X41382087Y-34638746D02*
X41391611Y-34619698D01*
X41391611Y-34619698D02*
X41401134Y-34610174D01*
X41401134Y-34610174D02*
X41420182Y-34600650D01*
X41420182Y-34600650D02*
X41448754Y-34600650D01*
X41448754Y-34600650D02*
X41467801Y-34610174D01*
X41467801Y-34610174D02*
X41477325Y-34619698D01*
X41477325Y-34619698D02*
X41486849Y-34638746D01*
X41486849Y-34638746D02*
X41486849Y-34695889D01*
X41486849Y-34695889D02*
X41477325Y-34714936D01*
X41477325Y-34714936D02*
X41467801Y-34724460D01*
X41467801Y-34724460D02*
X41448754Y-34733984D01*
X41448754Y-34733984D02*
X41420182Y-34733984D01*
X41543992Y-34600650D02*
X41620182Y-34600650D01*
X41572563Y-34533984D02*
X41572563Y-34705412D01*
X41572563Y-34705412D02*
X41582087Y-34724460D01*
X41582087Y-34724460D02*
X41601134Y-34733984D01*
X41601134Y-34733984D02*
X41620182Y-34733984D01*
X41839230Y-34600650D02*
X41839230Y-34800650D01*
X41839230Y-34610174D02*
X41858277Y-34600650D01*
X41858277Y-34600650D02*
X41896373Y-34600650D01*
X41896373Y-34600650D02*
X41915420Y-34610174D01*
X41915420Y-34610174D02*
X41924944Y-34619698D01*
X41924944Y-34619698D02*
X41934468Y-34638746D01*
X41934468Y-34638746D02*
X41934468Y-34695889D01*
X41934468Y-34695889D02*
X41924944Y-34714936D01*
X41924944Y-34714936D02*
X41915420Y-34724460D01*
X41915420Y-34724460D02*
X41896373Y-34733984D01*
X41896373Y-34733984D02*
X41858277Y-34733984D01*
X41858277Y-34733984D02*
X41839230Y-34724460D01*
X42048754Y-34733984D02*
X42029706Y-34724460D01*
X42029706Y-34724460D02*
X42020182Y-34705412D01*
X42020182Y-34705412D02*
X42020182Y-34533984D01*
X42210658Y-34733984D02*
X42210658Y-34629222D01*
X42210658Y-34629222D02*
X42201135Y-34610174D01*
X42201135Y-34610174D02*
X42182087Y-34600650D01*
X42182087Y-34600650D02*
X42143992Y-34600650D01*
X42143992Y-34600650D02*
X42124944Y-34610174D01*
X42210658Y-34724460D02*
X42191611Y-34733984D01*
X42191611Y-34733984D02*
X42143992Y-34733984D01*
X42143992Y-34733984D02*
X42124944Y-34724460D01*
X42124944Y-34724460D02*
X42115420Y-34705412D01*
X42115420Y-34705412D02*
X42115420Y-34686365D01*
X42115420Y-34686365D02*
X42124944Y-34667317D01*
X42124944Y-34667317D02*
X42143992Y-34657793D01*
X42143992Y-34657793D02*
X42191611Y-34657793D01*
X42191611Y-34657793D02*
X42210658Y-34648270D01*
X42277325Y-34600650D02*
X42353515Y-34600650D01*
X42305896Y-34533984D02*
X42305896Y-34705412D01*
X42305896Y-34705412D02*
X42315420Y-34724460D01*
X42315420Y-34724460D02*
X42334468Y-34733984D01*
X42334468Y-34733984D02*
X42353515Y-34733984D01*
X42496373Y-34724460D02*
X42477325Y-34733984D01*
X42477325Y-34733984D02*
X42439230Y-34733984D01*
X42439230Y-34733984D02*
X42420182Y-34724460D01*
X42420182Y-34724460D02*
X42410658Y-34705412D01*
X42410658Y-34705412D02*
X42410658Y-34629222D01*
X42410658Y-34629222D02*
X42420182Y-34610174D01*
X42420182Y-34610174D02*
X42439230Y-34600650D01*
X42439230Y-34600650D02*
X42477325Y-34600650D01*
X42477325Y-34600650D02*
X42496373Y-34610174D01*
X42496373Y-34610174D02*
X42505896Y-34629222D01*
X42505896Y-34629222D02*
X42505896Y-34648270D01*
X42505896Y-34648270D02*
X42410658Y-34667317D01*
X42677325Y-34733984D02*
X42677325Y-34533984D01*
X42677325Y-34724460D02*
X42658277Y-34733984D01*
X42658277Y-34733984D02*
X42620182Y-34733984D01*
X42620182Y-34733984D02*
X42601135Y-34724460D01*
X42601135Y-34724460D02*
X42591611Y-34714936D01*
X42591611Y-34714936D02*
X42582087Y-34695889D01*
X42582087Y-34695889D02*
X42582087Y-34638746D01*
X42582087Y-34638746D02*
X42591611Y-34619698D01*
X42591611Y-34619698D02*
X42601135Y-34610174D01*
X42601135Y-34610174D02*
X42620182Y-34600650D01*
X42620182Y-34600650D02*
X42658277Y-34600650D01*
X42658277Y-34600650D02*
X42677325Y-34610174D01*
X42753516Y-34810174D02*
X42763039Y-34800650D01*
X42763039Y-34800650D02*
X42782087Y-34772079D01*
X42782087Y-34772079D02*
X42791611Y-34753031D01*
X42791611Y-34753031D02*
X42801135Y-34724460D01*
X42801135Y-34724460D02*
X42810658Y-34676841D01*
X42810658Y-34676841D02*
X42810658Y-34638746D01*
X42810658Y-34638746D02*
X42801135Y-34591127D01*
X42801135Y-34591127D02*
X42791611Y-34562555D01*
X42791611Y-34562555D02*
X42782087Y-34543508D01*
X42782087Y-34543508D02*
X42763039Y-34514936D01*
X42763039Y-34514936D02*
X42753516Y-34505412D01*
M02*
