%TF.GenerationSoftware,KiCad,Pcbnew,9.0.0*%
%TF.CreationDate,2025-04-06T22:46:27+05:30*%
%TF.ProjectId,display,64697370-6c61-4792-9e6b-696361645f70,rev?*%
%TF.SameCoordinates,Original*%
%TF.FileFunction,Drillmap*%
%TF.FilePolarity,Positive*%
%FSLAX45Y45*%
G04 Gerber Fmt 4.5, Leading zero omitted, Abs format (unit mm)*
G04 Created by KiCad (PCBNEW 9.0.0) date 2025-04-06 22:46:27*
%MOMM*%
%LPD*%
G01*
G04 APERTURE LIST*
%ADD10C,0.050000*%
%ADD11C,0.200000*%
%ADD12C,0.100000*%
G04 APERTURE END LIST*
D10*
X45200000Y-26500000D02*
G75*
G02*
X44800000Y-26500000I-200000J0D01*
G01*
X44800000Y-26500000D02*
G75*
G02*
X45200000Y-26500000I200000J0D01*
G01*
X45200000Y-23500000D02*
G75*
G02*
X44800000Y-23500000I-200000J0D01*
G01*
X44800000Y-23500000D02*
G75*
G02*
X45200000Y-23500000I200000J0D01*
G01*
X54000000Y-25000000D02*
G75*
G02*
X36000000Y-25000000I-9000000J0D01*
G01*
X36000000Y-25000000D02*
G75*
G02*
X54000000Y-25000000I9000000J0D01*
G01*
D11*
D12*
X37117400Y-24274200D02*
X37147400Y-24304200D01*
X37147400Y-24274200D02*
X37117400Y-24304200D01*
X37226800Y-24433700D02*
X37256800Y-24463700D01*
X37256800Y-24433700D02*
X37226800Y-24463700D01*
X37427600Y-23318900D02*
X37457600Y-23348900D01*
X37457600Y-23318900D02*
X37427600Y-23348900D01*
X37435500Y-24686000D02*
X37465500Y-24716000D01*
X37465500Y-24686000D02*
X37435500Y-24716000D01*
X37468800Y-24946600D02*
X37498800Y-24976600D01*
X37498800Y-24946600D02*
X37468800Y-24976600D01*
X37515200Y-25962400D02*
X37545200Y-25992400D01*
X37545200Y-25962400D02*
X37515200Y-25992400D01*
X37621800Y-25159600D02*
X37651800Y-25189600D01*
X37651800Y-25159600D02*
X37621800Y-25189600D01*
X37720100Y-24139600D02*
X37750100Y-24169600D01*
X37750100Y-24139600D02*
X37720100Y-24169600D01*
X37735000Y-22935000D02*
X37765000Y-22965000D01*
X37765000Y-22935000D02*
X37735000Y-22965000D01*
X37768000Y-23727100D02*
X37798000Y-23757100D01*
X37798000Y-23727100D02*
X37768000Y-23757100D01*
X37805700Y-24109000D02*
X37835700Y-24139000D01*
X37835700Y-24109000D02*
X37805700Y-24139000D01*
X37810600Y-22863200D02*
X37840600Y-22893200D01*
X37840600Y-22863200D02*
X37810600Y-22893200D01*
X37814000Y-25881300D02*
X37844000Y-25911300D01*
X37844000Y-25881300D02*
X37814000Y-25911300D01*
X37877500Y-23782700D02*
X37907500Y-23812700D01*
X37907500Y-23782700D02*
X37877500Y-23812700D01*
X37893400Y-23189300D02*
X37923400Y-23219300D01*
X37923400Y-23189300D02*
X37893400Y-23219300D01*
X37899500Y-24178500D02*
X37929500Y-24208500D01*
X37929500Y-24178500D02*
X37899500Y-24208500D01*
X37908900Y-22776100D02*
X37938900Y-22806100D01*
X37938900Y-22776100D02*
X37908900Y-22806100D01*
X37920000Y-22935000D02*
X37950000Y-22965000D01*
X37950000Y-22935000D02*
X37920000Y-22965000D01*
X37942000Y-25008600D02*
X37972000Y-25038600D01*
X37972000Y-25008600D02*
X37942000Y-25038600D01*
X37960000Y-23783300D02*
X37990000Y-23813300D01*
X37990000Y-23783300D02*
X37960000Y-23813300D01*
X37962900Y-27064400D02*
X37992900Y-27094400D01*
X37992900Y-27064400D02*
X37962900Y-27094400D01*
X38022900Y-28514500D02*
X38052900Y-28544500D01*
X38052900Y-28514500D02*
X38022900Y-28544500D01*
X38078200Y-23193000D02*
X38108200Y-23223000D01*
X38108200Y-23193000D02*
X38078200Y-23223000D01*
X38112800Y-20801400D02*
X38142800Y-20831400D01*
X38142800Y-20801400D02*
X38112800Y-20831400D01*
X38112800Y-21399000D02*
X38142800Y-21429000D01*
X38142800Y-21399000D02*
X38112800Y-21429000D01*
X38112800Y-28644300D02*
X38142800Y-28674300D01*
X38142800Y-28644300D02*
X38112800Y-28674300D01*
X38116800Y-24050700D02*
X38146800Y-24080700D01*
X38146800Y-24050700D02*
X38116800Y-24080700D01*
X38160000Y-23781400D02*
X38190000Y-23811400D01*
X38190000Y-23781400D02*
X38160000Y-23811400D01*
X38191100Y-22295400D02*
X38221100Y-22325400D01*
X38221100Y-22295400D02*
X38191100Y-22325400D01*
X38211100Y-23256600D02*
X38241100Y-23286600D01*
X38241100Y-23256600D02*
X38211100Y-23286600D01*
X38231200Y-24711200D02*
X38261200Y-24741200D01*
X38261200Y-24711200D02*
X38231200Y-24741200D01*
X38281300Y-21996600D02*
X38311300Y-22026600D01*
X38311300Y-21996600D02*
X38281300Y-22026600D01*
X38411600Y-24654000D02*
X38441600Y-24684000D01*
X38441600Y-24654000D02*
X38411600Y-24684000D01*
X38417400Y-24381400D02*
X38447400Y-24411400D01*
X38447400Y-24381400D02*
X38417400Y-24411400D01*
X38418800Y-23847800D02*
X38448800Y-23877800D01*
X38448800Y-23847800D02*
X38418800Y-23877800D01*
X38445600Y-30032200D02*
X38475600Y-30062200D01*
X38475600Y-30032200D02*
X38445600Y-30062200D01*
X38460000Y-25002300D02*
X38490000Y-25032300D01*
X38490000Y-25002300D02*
X38460000Y-25032300D01*
X38501400Y-24658400D02*
X38531400Y-24688400D01*
X38531400Y-24658400D02*
X38501400Y-24688400D01*
X38574900Y-23626200D02*
X38604900Y-23656200D01*
X38604900Y-23626200D02*
X38574900Y-23656200D01*
X38581100Y-23417500D02*
X38611100Y-23447500D01*
X38611100Y-23417500D02*
X38581100Y-23447500D01*
X38646700Y-24218100D02*
X38676700Y-24248100D01*
X38676700Y-24218100D02*
X38646700Y-24248100D01*
X38650300Y-23731000D02*
X38680300Y-23761000D01*
X38680300Y-23731000D02*
X38650300Y-23761000D01*
X38660600Y-25179400D02*
X38690600Y-25209400D01*
X38690600Y-25179400D02*
X38660600Y-25209400D01*
X38710400Y-23265200D02*
X38740400Y-23295200D01*
X38740400Y-23265200D02*
X38710400Y-23295200D01*
X38725000Y-28925500D02*
X38755000Y-28955500D01*
X38755000Y-28925500D02*
X38725000Y-28955500D01*
X38733700Y-23822100D02*
X38763700Y-23852100D01*
X38763700Y-23822100D02*
X38733700Y-23852100D01*
X38742400Y-24686000D02*
X38772400Y-24716000D01*
X38772400Y-24686000D02*
X38742400Y-24716000D01*
X38777000Y-30064800D02*
X38807000Y-30094800D01*
X38807000Y-30064800D02*
X38777000Y-30094800D01*
X38787800Y-25208100D02*
X38817800Y-25238100D01*
X38817800Y-25208100D02*
X38787800Y-25238100D01*
X38793500Y-23225700D02*
X38823500Y-23255700D01*
X38823500Y-23225700D02*
X38793500Y-23255700D01*
X38842100Y-23533600D02*
X38872100Y-23563600D01*
X38872100Y-23533600D02*
X38842100Y-23563600D01*
X38953100Y-23692100D02*
X38983100Y-23722100D01*
X38983100Y-23692100D02*
X38953100Y-23722100D01*
X38960000Y-25001200D02*
X38990000Y-25031200D01*
X38990000Y-25001200D02*
X38960000Y-25031200D01*
X38976900Y-29750100D02*
X39006900Y-29780100D01*
X39006900Y-29750100D02*
X38976900Y-29780100D01*
X38985000Y-30735000D02*
X39015000Y-30765000D01*
X39015000Y-30735000D02*
X38985000Y-30765000D01*
X39030300Y-24804800D02*
X39060300Y-24834800D01*
X39060300Y-24804800D02*
X39030300Y-24834800D01*
X39070400Y-23817800D02*
X39100400Y-23847800D01*
X39100400Y-23817800D02*
X39070400Y-23847800D01*
X39242300Y-29697000D02*
X39272300Y-29727000D01*
X39272300Y-29697000D02*
X39242300Y-29727000D01*
X39280100Y-24795400D02*
X39310100Y-24825400D01*
X39310100Y-24795400D02*
X39280100Y-24825400D01*
X39308000Y-25283600D02*
X39338000Y-25313600D01*
X39338000Y-25283600D02*
X39308000Y-25313600D01*
X39399600Y-30276800D02*
X39429600Y-30306800D01*
X39429600Y-30276800D02*
X39399600Y-30306800D01*
X39606900Y-23484400D02*
X39636900Y-23514400D01*
X39636900Y-23484400D02*
X39606900Y-23514400D01*
X39606900Y-25283600D02*
X39636900Y-25313600D01*
X39636900Y-25283600D02*
X39606900Y-25313600D01*
X39631200Y-24360600D02*
X39661200Y-24390600D01*
X39661200Y-24360600D02*
X39631200Y-24390600D01*
X39726100Y-23742100D02*
X39756100Y-23772100D01*
X39756100Y-23742100D02*
X39726100Y-23772100D01*
X39819300Y-24735700D02*
X39849300Y-24765700D01*
X39849300Y-24735700D02*
X39819300Y-24765700D01*
X39842600Y-23258400D02*
X39872600Y-23288400D01*
X39872600Y-23258400D02*
X39842600Y-23288400D01*
X39857000Y-24387200D02*
X39887000Y-24417200D01*
X39887000Y-24387200D02*
X39857000Y-24417200D01*
X39868400Y-25182100D02*
X39898400Y-25212100D01*
X39898400Y-25182100D02*
X39868400Y-25212100D01*
X39880200Y-24304100D02*
X39910200Y-24334100D01*
X39910200Y-24304100D02*
X39880200Y-24334100D01*
X39891000Y-25269000D02*
X39921000Y-25299000D01*
X39921000Y-25269000D02*
X39891000Y-25299000D01*
X39927400Y-23598100D02*
X39957400Y-23628100D01*
X39957400Y-23598100D02*
X39927400Y-23628100D01*
X39931000Y-23250100D02*
X39961000Y-23280100D01*
X39961000Y-23250100D02*
X39931000Y-23280100D01*
X39938000Y-23444000D02*
X39968000Y-23474000D01*
X39968000Y-23444000D02*
X39938000Y-23474000D01*
X39985000Y-31185000D02*
X40015000Y-31215000D01*
X40015000Y-31185000D02*
X39985000Y-31215000D01*
X40002300Y-24313800D02*
X40032300Y-24343800D01*
X40032300Y-24313800D02*
X40002300Y-24343800D01*
X40112800Y-23103500D02*
X40142800Y-23133500D01*
X40142800Y-23103500D02*
X40112800Y-23133500D01*
X40120100Y-24711600D02*
X40150100Y-24741600D01*
X40150100Y-24711600D02*
X40120100Y-24741600D01*
X40179600Y-22843400D02*
X40209600Y-22873400D01*
X40209600Y-22843400D02*
X40179600Y-22873400D01*
X40183200Y-24051500D02*
X40213200Y-24081500D01*
X40213200Y-24051500D02*
X40183200Y-24081500D01*
X40184800Y-31502200D02*
X40214800Y-31532200D01*
X40214800Y-31502200D02*
X40184800Y-31532200D01*
X40185000Y-31857700D02*
X40215000Y-31887700D01*
X40215000Y-31857700D02*
X40185000Y-31887700D01*
X40229700Y-23213600D02*
X40259700Y-23243600D01*
X40259700Y-23213600D02*
X40229700Y-23243600D01*
X40242900Y-23448200D02*
X40272900Y-23478200D01*
X40272900Y-23448200D02*
X40242900Y-23478200D01*
X40273400Y-28612500D02*
X40303400Y-28642500D01*
X40303400Y-28612500D02*
X40273400Y-28642500D01*
X40294200Y-25211800D02*
X40324200Y-25241800D01*
X40324200Y-25211800D02*
X40294200Y-25241800D01*
X40296900Y-24739000D02*
X40326900Y-24769000D01*
X40326900Y-24739000D02*
X40296900Y-24769000D01*
X40301000Y-24031700D02*
X40331000Y-24061700D01*
X40331000Y-24031700D02*
X40301000Y-24061700D01*
X40303400Y-23760100D02*
X40333400Y-23790100D01*
X40333400Y-23760100D02*
X40303400Y-23790100D01*
X40313700Y-23193100D02*
X40343700Y-23223100D01*
X40343700Y-23193100D02*
X40313700Y-23223100D01*
X40346300Y-24112900D02*
X40376300Y-24142900D01*
X40376300Y-24112900D02*
X40346300Y-24142900D01*
X40381100Y-22833800D02*
X40411100Y-22863800D01*
X40411100Y-22833800D02*
X40381100Y-22863800D01*
X40394400Y-24188500D02*
X40424400Y-24218500D01*
X40424400Y-24188500D02*
X40394400Y-24218500D01*
X40426800Y-22916600D02*
X40456800Y-22946600D01*
X40456800Y-22916600D02*
X40426800Y-22946600D01*
X40444800Y-23757900D02*
X40474800Y-23787900D01*
X40474800Y-23757900D02*
X40444800Y-23787900D01*
X40460000Y-23187900D02*
X40490000Y-23217900D01*
X40490000Y-23187900D02*
X40460000Y-23217900D01*
X40501800Y-29467100D02*
X40531800Y-29497100D01*
X40531800Y-29467100D02*
X40501800Y-29497100D01*
X40503300Y-25199200D02*
X40533300Y-25229200D01*
X40533300Y-25199200D02*
X40503300Y-25229200D01*
X40535000Y-29235000D02*
X40565000Y-29265000D01*
X40565000Y-29235000D02*
X40535000Y-29265000D01*
X40542900Y-30959000D02*
X40572900Y-30989000D01*
X40572900Y-30959000D02*
X40542900Y-30989000D01*
X40561800Y-21350900D02*
X40591800Y-21380900D01*
X40591800Y-21350900D02*
X40561800Y-21380900D01*
X40564200Y-24168600D02*
X40594200Y-24198600D01*
X40594200Y-24168600D02*
X40564200Y-24198600D01*
X40571300Y-24399700D02*
X40601300Y-24429700D01*
X40601300Y-24399700D02*
X40571300Y-24429700D01*
X40598200Y-28964100D02*
X40628200Y-28994100D01*
X40628200Y-28964100D02*
X40598200Y-28994100D01*
X40605700Y-31362400D02*
X40635700Y-31392400D01*
X40635700Y-31362400D02*
X40605700Y-31392400D01*
X40635000Y-21685000D02*
X40665000Y-21715000D01*
X40665000Y-21685000D02*
X40635000Y-21715000D01*
X40654200Y-22594300D02*
X40684200Y-22624300D01*
X40684200Y-22594300D02*
X40654200Y-22624300D01*
X40685000Y-21585000D02*
X40715000Y-21615000D01*
X40715000Y-21585000D02*
X40685000Y-21615000D01*
X40714900Y-28494900D02*
X40744900Y-28524900D01*
X40744900Y-28494900D02*
X40714900Y-28524900D01*
X40727100Y-23518400D02*
X40757100Y-23548400D01*
X40757100Y-23518400D02*
X40727100Y-23548400D01*
X40732100Y-25310800D02*
X40762100Y-25340800D01*
X40762100Y-25310800D02*
X40732100Y-25340800D01*
X40733900Y-23189400D02*
X40763900Y-23219400D01*
X40763900Y-23189400D02*
X40733900Y-23219400D01*
X40750200Y-25205800D02*
X40780200Y-25235800D01*
X40780200Y-25205800D02*
X40750200Y-25235800D01*
X40750400Y-24125000D02*
X40780400Y-24155000D01*
X40780400Y-24125000D02*
X40750400Y-24155000D01*
X40777800Y-21585000D02*
X40807800Y-21615000D01*
X40807800Y-21585000D02*
X40777800Y-21615000D01*
X40783700Y-23688400D02*
X40813700Y-23718400D01*
X40813700Y-23688400D02*
X40783700Y-23718400D01*
X40784100Y-23431900D02*
X40814100Y-23461900D01*
X40814100Y-23431900D02*
X40784100Y-23461900D01*
X40800000Y-26478900D02*
X40830000Y-26508900D01*
X40830000Y-26478900D02*
X40800000Y-26508900D01*
X40838000Y-21478700D02*
X40868000Y-21508700D01*
X40868000Y-21478700D02*
X40838000Y-21508700D01*
X40879900Y-24642500D02*
X40909900Y-24672500D01*
X40909900Y-24642500D02*
X40879900Y-24672500D01*
X40892700Y-25255800D02*
X40922700Y-25285800D01*
X40922700Y-25255800D02*
X40892700Y-25285800D01*
X40906400Y-27881100D02*
X40936400Y-27911100D01*
X40936400Y-27881100D02*
X40906400Y-27911100D01*
X40988900Y-23124300D02*
X41018900Y-23154300D01*
X41018900Y-23124300D02*
X40988900Y-23154300D01*
X41028400Y-25174000D02*
X41058400Y-25204000D01*
X41058400Y-25174000D02*
X41028400Y-25204000D01*
X41048100Y-26478900D02*
X41078100Y-26508900D01*
X41078100Y-26478900D02*
X41048100Y-26508900D01*
X41049000Y-29129300D02*
X41079000Y-29159300D01*
X41079000Y-29129300D02*
X41049000Y-29159300D01*
X41053600Y-23178400D02*
X41083600Y-23208400D01*
X41083600Y-23178400D02*
X41053600Y-23208400D01*
X41055800Y-23955300D02*
X41085800Y-23985300D01*
X41085800Y-23955300D02*
X41055800Y-23985300D01*
X41109000Y-26835000D02*
X41139000Y-26865000D01*
X41139000Y-26835000D02*
X41109000Y-26865000D01*
X41133800Y-24387300D02*
X41163800Y-24417300D01*
X41163800Y-24387300D02*
X41133800Y-24417300D01*
X41133800Y-24655700D02*
X41163800Y-24685700D01*
X41163800Y-24655700D02*
X41133800Y-24685700D01*
X41153500Y-25181000D02*
X41183500Y-25211000D01*
X41183500Y-25181000D02*
X41153500Y-25211000D01*
X41156800Y-23068000D02*
X41186800Y-23098000D01*
X41186800Y-23068000D02*
X41156800Y-23098000D01*
X41170900Y-28941000D02*
X41200900Y-28971000D01*
X41200900Y-28941000D02*
X41170900Y-28971000D01*
X41218800Y-23775500D02*
X41248800Y-23805500D01*
X41248800Y-23775500D02*
X41218800Y-23805500D01*
X41229500Y-23516800D02*
X41259500Y-23546800D01*
X41259500Y-23516800D02*
X41229500Y-23546800D01*
X41229600Y-23281600D02*
X41259600Y-23311600D01*
X41259600Y-23281600D02*
X41229600Y-23311600D01*
X41262100Y-23159400D02*
X41292100Y-23189400D01*
X41292100Y-23159400D02*
X41262100Y-23189400D01*
X41285000Y-26285000D02*
X41315000Y-26315000D01*
X41315000Y-26285000D02*
X41285000Y-26315000D01*
X41299300Y-24785100D02*
X41329300Y-24815100D01*
X41329300Y-24785100D02*
X41299300Y-24815100D01*
X41321500Y-25207200D02*
X41351500Y-25237200D01*
X41351500Y-25207200D02*
X41321500Y-25237200D01*
X41336700Y-27780400D02*
X41366700Y-27810400D01*
X41366700Y-27780400D02*
X41336700Y-27810400D01*
X41362500Y-24387200D02*
X41392500Y-24417200D01*
X41392500Y-24387200D02*
X41362500Y-24417200D01*
X41399700Y-28612500D02*
X41429700Y-28642500D01*
X41429700Y-28612500D02*
X41399700Y-28642500D01*
X41425600Y-26705600D02*
X41455600Y-26735600D01*
X41455600Y-26705600D02*
X41425600Y-26735600D01*
X41492400Y-21697600D02*
X41522400Y-21727600D01*
X41522400Y-21697600D02*
X41492400Y-21727600D01*
X41492400Y-23688400D02*
X41522400Y-23718400D01*
X41522400Y-23688400D02*
X41492400Y-23718400D01*
X41593500Y-25195200D02*
X41623500Y-25225200D01*
X41623500Y-25195200D02*
X41593500Y-25225200D01*
X41604700Y-22090100D02*
X41634700Y-22120100D01*
X41634700Y-22090100D02*
X41604700Y-22120100D01*
X41609700Y-32405100D02*
X41639700Y-32435100D01*
X41639700Y-32405100D02*
X41609700Y-32435100D01*
X41624100Y-21906700D02*
X41654100Y-21936700D01*
X41654100Y-21906700D02*
X41624100Y-21936700D01*
X41640000Y-31606200D02*
X41670000Y-31636200D01*
X41670000Y-31606200D02*
X41640000Y-31636200D01*
X41640000Y-31853000D02*
X41670000Y-31883000D01*
X41670000Y-31853000D02*
X41640000Y-31883000D01*
X41667500Y-30007400D02*
X41697500Y-30037400D01*
X41697500Y-30007400D02*
X41667500Y-30037400D01*
X41678800Y-25195400D02*
X41708800Y-25225400D01*
X41708800Y-25195400D02*
X41678800Y-25225400D01*
X41698500Y-26478900D02*
X41728500Y-26508900D01*
X41728500Y-26478900D02*
X41698500Y-26508900D01*
X41698700Y-24663200D02*
X41728700Y-24693200D01*
X41728700Y-24663200D02*
X41698700Y-24693200D01*
X41807000Y-25582500D02*
X41837000Y-25612500D01*
X41837000Y-25582500D02*
X41807000Y-25612500D01*
X41860700Y-21972800D02*
X41890700Y-22002800D01*
X41890700Y-21972800D02*
X41860700Y-22002800D01*
X41943200Y-21199000D02*
X41973200Y-21229000D01*
X41973200Y-21199000D02*
X41943200Y-21229000D01*
X41943200Y-21996600D02*
X41973200Y-22026600D01*
X41973200Y-21996600D02*
X41943200Y-22026600D01*
X41985000Y-29193600D02*
X42015000Y-29223600D01*
X42015000Y-29193600D02*
X41985000Y-29223600D01*
X41997300Y-20801400D02*
X42027300Y-20831400D01*
X42027300Y-20801400D02*
X41997300Y-20831400D01*
X41997300Y-23990300D02*
X42027300Y-24020300D01*
X42027300Y-23990300D02*
X41997300Y-24020300D01*
X42203700Y-28178600D02*
X42233700Y-28208600D01*
X42233700Y-28178600D02*
X42203700Y-28208600D01*
X42240200Y-28271800D02*
X42270200Y-28301800D01*
X42270200Y-28271800D02*
X42240200Y-28301800D01*
X42244600Y-23343500D02*
X42274600Y-23373500D01*
X42274600Y-23343500D02*
X42244600Y-23373500D01*
X42244600Y-23605800D02*
X42274600Y-23635800D01*
X42274600Y-23605800D02*
X42244600Y-23635800D01*
X42244600Y-25165700D02*
X42274600Y-25195700D01*
X42274600Y-25165700D02*
X42244600Y-25195700D01*
X42276700Y-24020400D02*
X42306700Y-24050400D01*
X42306700Y-24020400D02*
X42276700Y-24050400D01*
X42296200Y-19307200D02*
X42326200Y-19337200D01*
X42326200Y-19307200D02*
X42296200Y-19337200D01*
X42358500Y-31647900D02*
X42388500Y-31677900D01*
X42388500Y-31647900D02*
X42358500Y-31677900D01*
X42394000Y-30603200D02*
X42424000Y-30633200D01*
X42424000Y-30603200D02*
X42394000Y-30633200D01*
X42404000Y-23302200D02*
X42434000Y-23332200D01*
X42434000Y-23302200D02*
X42404000Y-23332200D01*
X42413900Y-24632400D02*
X42443900Y-24662400D01*
X42443900Y-24632400D02*
X42413900Y-24662400D01*
X42420300Y-24795900D02*
X42450300Y-24825900D01*
X42450300Y-24795900D02*
X42420300Y-24825900D01*
X42510900Y-23529400D02*
X42540900Y-23559400D01*
X42540900Y-23529400D02*
X42510900Y-23559400D01*
X42526300Y-23888400D02*
X42556300Y-23918400D01*
X42556300Y-23888400D02*
X42526300Y-23918400D01*
X42551800Y-23371700D02*
X42581800Y-23401700D01*
X42581800Y-23371700D02*
X42551800Y-23401700D01*
X42599100Y-29209900D02*
X42629100Y-29239900D01*
X42629100Y-29209900D02*
X42599100Y-29239900D01*
X42616100Y-24001500D02*
X42646100Y-24031500D01*
X42646100Y-24001500D02*
X42616100Y-24031500D01*
X42634000Y-23457400D02*
X42664000Y-23487400D01*
X42664000Y-23457400D02*
X42634000Y-23487400D01*
X42647200Y-23191900D02*
X42677200Y-23221900D01*
X42677200Y-23191900D02*
X42647200Y-23221900D01*
X42688300Y-23398000D02*
X42718300Y-23428000D01*
X42718300Y-23398000D02*
X42688300Y-23428000D01*
X42710200Y-24701700D02*
X42740200Y-24731700D01*
X42740200Y-24701700D02*
X42710200Y-24731700D01*
X42735000Y-18985000D02*
X42765000Y-19015000D01*
X42765000Y-18985000D02*
X42735000Y-19015000D01*
X42799700Y-24795400D02*
X42829700Y-24825400D01*
X42829700Y-24795400D02*
X42799700Y-24825400D01*
X42831300Y-25177900D02*
X42861300Y-25207900D01*
X42861300Y-25177900D02*
X42831300Y-25207900D01*
X42835000Y-20135000D02*
X42865000Y-20165000D01*
X42865000Y-20135000D02*
X42835000Y-20165000D01*
X42835000Y-21135000D02*
X42865000Y-21165000D01*
X42865000Y-21135000D02*
X42835000Y-21165000D01*
X42845400Y-22925900D02*
X42875400Y-22955900D01*
X42875400Y-22925900D02*
X42845400Y-22955900D01*
X42868200Y-25258000D02*
X42898200Y-25288000D01*
X42898200Y-25258000D02*
X42868200Y-25288000D01*
X42893800Y-22295400D02*
X42923800Y-22325400D01*
X42923800Y-22295400D02*
X42893800Y-22325400D01*
X42895800Y-24147400D02*
X42925800Y-24177400D01*
X42925800Y-24147400D02*
X42895800Y-24177400D01*
X42935900Y-23433800D02*
X42965900Y-23463800D01*
X42965900Y-23433800D02*
X42935900Y-23463800D01*
X42959000Y-25137700D02*
X42989000Y-25167700D01*
X42989000Y-25137700D02*
X42959000Y-25167700D01*
X42984100Y-31782600D02*
X43014100Y-31812600D01*
X43014100Y-31782600D02*
X42984100Y-31812600D01*
X42988800Y-23316400D02*
X43018800Y-23346400D01*
X43018800Y-23316400D02*
X42988800Y-23346400D01*
X43034100Y-24601400D02*
X43064100Y-24631400D01*
X43064100Y-24601400D02*
X43034100Y-24631400D01*
X43046300Y-23203700D02*
X43076300Y-23233700D01*
X43076300Y-23203700D02*
X43046300Y-23233700D01*
X43065700Y-24686000D02*
X43095700Y-24716000D01*
X43095700Y-24686000D02*
X43065700Y-24716000D01*
X43069400Y-23746800D02*
X43099400Y-23776800D01*
X43099400Y-23746800D02*
X43069400Y-23776800D01*
X43094100Y-24051700D02*
X43124100Y-24081700D01*
X43124100Y-24051700D02*
X43094100Y-24081700D01*
X43101200Y-22833900D02*
X43131200Y-22863900D01*
X43131200Y-22833900D02*
X43101200Y-22863900D01*
X43160800Y-23781400D02*
X43190800Y-23811400D01*
X43190800Y-23781400D02*
X43160800Y-23811400D01*
X43170100Y-29467100D02*
X43200100Y-29497100D01*
X43200100Y-29467100D02*
X43170100Y-29497100D01*
X43174800Y-24031600D02*
X43204800Y-24061600D01*
X43204800Y-24031600D02*
X43174800Y-24061600D01*
X43174900Y-28862100D02*
X43204900Y-28892100D01*
X43204900Y-28862100D02*
X43174900Y-28892100D01*
X43179200Y-31319300D02*
X43209200Y-31349300D01*
X43209200Y-31319300D02*
X43179200Y-31349300D01*
X43192600Y-18410800D02*
X43222600Y-18440800D01*
X43222600Y-18410800D02*
X43192600Y-18440800D01*
X43192600Y-20721600D02*
X43222600Y-20751600D01*
X43222600Y-20721600D02*
X43192600Y-20751600D01*
X43200900Y-25147700D02*
X43230900Y-25177700D01*
X43230900Y-25147700D02*
X43200900Y-25177700D01*
X43210000Y-23187200D02*
X43240000Y-23217200D01*
X43240000Y-23187200D02*
X43210000Y-23217200D01*
X43261200Y-23763300D02*
X43291200Y-23793300D01*
X43291200Y-23763300D02*
X43261200Y-23793300D01*
X43261700Y-21996600D02*
X43291700Y-22026600D01*
X43291700Y-21996600D02*
X43261700Y-22026600D01*
X43287400Y-24483200D02*
X43317400Y-24513200D01*
X43317400Y-24483200D02*
X43287400Y-24513200D01*
X43291000Y-23194200D02*
X43321000Y-23224200D01*
X43321000Y-23194200D02*
X43291000Y-23224200D01*
X43340500Y-31902700D02*
X43370500Y-31932700D01*
X43370500Y-31902700D02*
X43340500Y-31932700D01*
X43374400Y-28986500D02*
X43404400Y-29016500D01*
X43404400Y-28986500D02*
X43374400Y-29016500D01*
X43389500Y-24032700D02*
X43419500Y-24062700D01*
X43419500Y-24032700D02*
X43389500Y-24062700D01*
X43391500Y-24489700D02*
X43421500Y-24519700D01*
X43421500Y-24489700D02*
X43391500Y-24519700D01*
X43392400Y-23188500D02*
X43422400Y-23218500D01*
X43422400Y-23188500D02*
X43392400Y-23218500D01*
X43392700Y-23747200D02*
X43422700Y-23777200D01*
X43422700Y-23747200D02*
X43392700Y-23777200D01*
X43392700Y-27076700D02*
X43422700Y-27106700D01*
X43422700Y-27076700D02*
X43392700Y-27106700D01*
X43402300Y-25219900D02*
X43432300Y-25249900D01*
X43432300Y-25219900D02*
X43402300Y-25249900D01*
X43414900Y-28759300D02*
X43444900Y-28789300D01*
X43444900Y-28759300D02*
X43414900Y-28789300D01*
X43444600Y-29686700D02*
X43474600Y-29716700D01*
X43474600Y-29686700D02*
X43444600Y-29716700D01*
X43459100Y-24386600D02*
X43489100Y-24416600D01*
X43489100Y-24386600D02*
X43459100Y-24416600D01*
X43466800Y-19904900D02*
X43496800Y-19934900D01*
X43496800Y-19904900D02*
X43466800Y-19934900D01*
X43485000Y-18946700D02*
X43515000Y-18976700D01*
X43515000Y-18946700D02*
X43485000Y-18976700D01*
X43491400Y-25582500D02*
X43521400Y-25612500D01*
X43521400Y-25582500D02*
X43491400Y-25612500D01*
X43492200Y-23218000D02*
X43522200Y-23248000D01*
X43522200Y-23218000D02*
X43492200Y-23248000D01*
X43515700Y-23385900D02*
X43545700Y-23415900D01*
X43545700Y-23385900D02*
X43515700Y-23415900D01*
X43520700Y-23593500D02*
X43550700Y-23623500D01*
X43550700Y-23593500D02*
X43520700Y-23623500D01*
X43530400Y-22794700D02*
X43560400Y-22824700D01*
X43560400Y-22794700D02*
X43530400Y-22824700D01*
X43532100Y-23722000D02*
X43562100Y-23752000D01*
X43562100Y-23722000D02*
X43532100Y-23752000D01*
X43552000Y-25169400D02*
X43582000Y-25199400D01*
X43582000Y-25169400D02*
X43552000Y-25199400D01*
X43574500Y-19988000D02*
X43604500Y-20018000D01*
X43604500Y-19988000D02*
X43574500Y-20018000D01*
X43604900Y-29740800D02*
X43634900Y-29770800D01*
X43634900Y-29740800D02*
X43604900Y-29770800D01*
X43693100Y-20206000D02*
X43723100Y-20236000D01*
X43723100Y-20206000D02*
X43693100Y-20236000D01*
X43699900Y-24393900D02*
X43729900Y-24423900D01*
X43729900Y-24393900D02*
X43699900Y-24423900D01*
X43740000Y-25283600D02*
X43770000Y-25313600D01*
X43770000Y-25283600D02*
X43740000Y-25313600D01*
X43747700Y-23119500D02*
X43777700Y-23149500D01*
X43777700Y-23119500D02*
X43747700Y-23149500D01*
X43759800Y-23957000D02*
X43789800Y-23987000D01*
X43789800Y-23957000D02*
X43759800Y-23987000D01*
X43770500Y-24327700D02*
X43800500Y-24357700D01*
X43800500Y-24327700D02*
X43770500Y-24357700D01*
X43781300Y-24439100D02*
X43811300Y-24469100D01*
X43811300Y-24439100D02*
X43781300Y-24469100D01*
X43783000Y-24685900D02*
X43813000Y-24715900D01*
X43813000Y-24685900D02*
X43783000Y-24715900D01*
X43785000Y-24775600D02*
X43815000Y-24805600D01*
X43815000Y-24775600D02*
X43785000Y-24805600D01*
X43789200Y-29362600D02*
X43819200Y-29392600D01*
X43819200Y-29362600D02*
X43789200Y-29392600D01*
X43790200Y-21124800D02*
X43820200Y-21154800D01*
X43820200Y-21124800D02*
X43790200Y-21154800D01*
X43790200Y-30399900D02*
X43820200Y-30429900D01*
X43820200Y-30399900D02*
X43790200Y-30429900D01*
X43869900Y-30090700D02*
X43899900Y-30120700D01*
X43899900Y-30090700D02*
X43869900Y-30120700D01*
X43920500Y-23577500D02*
X43950500Y-23607500D01*
X43950500Y-23577500D02*
X43920500Y-23607500D01*
X43924300Y-22594100D02*
X43954300Y-22624100D01*
X43954300Y-22594100D02*
X43924300Y-22624100D01*
X43940900Y-29129300D02*
X43970900Y-29159300D01*
X43970900Y-29129300D02*
X43940900Y-29159300D01*
X43985000Y-30185000D02*
X44015000Y-30215000D01*
X44015000Y-30185000D02*
X43985000Y-30215000D01*
X43992900Y-24387200D02*
X44022900Y-24417200D01*
X44022900Y-24387200D02*
X43992900Y-24417200D01*
X44061000Y-19375400D02*
X44091000Y-19405400D01*
X44091000Y-19375400D02*
X44061000Y-19405400D01*
X44080400Y-28671300D02*
X44110400Y-28701300D01*
X44110400Y-28671300D02*
X44080400Y-28701300D01*
X44101300Y-22944600D02*
X44131300Y-22974600D01*
X44131300Y-22944600D02*
X44101300Y-22974600D01*
X44121800Y-24693700D02*
X44151800Y-24723700D01*
X44151800Y-24693700D02*
X44121800Y-24723700D01*
X44135000Y-29577600D02*
X44165000Y-29607600D01*
X44165000Y-29577600D02*
X44135000Y-29607600D01*
X44135000Y-29697600D02*
X44165000Y-29727600D01*
X44165000Y-29697600D02*
X44135000Y-29727600D01*
X44135000Y-29785000D02*
X44165000Y-29815000D01*
X44165000Y-29785000D02*
X44135000Y-29815000D01*
X44135000Y-29882100D02*
X44165000Y-29912100D01*
X44165000Y-29882100D02*
X44135000Y-29912100D01*
X44171100Y-29445000D02*
X44201100Y-29475000D01*
X44201100Y-29445000D02*
X44171100Y-29475000D01*
X44171200Y-27913000D02*
X44201200Y-27943000D01*
X44201200Y-27913000D02*
X44171200Y-27943000D01*
X44205800Y-24050500D02*
X44235800Y-24080500D01*
X44235800Y-24050500D02*
X44205800Y-24080500D01*
X44235000Y-22735000D02*
X44265000Y-22765000D01*
X44265000Y-22735000D02*
X44235000Y-22765000D01*
X44249800Y-24395300D02*
X44279800Y-24425300D01*
X44279800Y-24395300D02*
X44249800Y-24425300D01*
X44306400Y-21689600D02*
X44336400Y-21719600D01*
X44336400Y-21689600D02*
X44306400Y-21719600D01*
X44335000Y-20335000D02*
X44365000Y-20365000D01*
X44365000Y-20335000D02*
X44335000Y-20365000D01*
X44335000Y-20524800D02*
X44365000Y-20554800D01*
X44365000Y-20524800D02*
X44335000Y-20554800D01*
X44351000Y-29751000D02*
X44381000Y-29781000D01*
X44381000Y-29751000D02*
X44351000Y-29781000D01*
X44405700Y-28074700D02*
X44435700Y-28104700D01*
X44435700Y-28074700D02*
X44405700Y-28104700D01*
X44409100Y-28279700D02*
X44439100Y-28309700D01*
X44439100Y-28279700D02*
X44409100Y-28309700D01*
X44409200Y-23167400D02*
X44439200Y-23197400D01*
X44439200Y-23167400D02*
X44409200Y-23197400D01*
X44409200Y-25165600D02*
X44439200Y-25195600D01*
X44439200Y-25165600D02*
X44409200Y-25195600D01*
X44409200Y-27893300D02*
X44439200Y-27923300D01*
X44439200Y-27893300D02*
X44409200Y-27923300D01*
X44414300Y-20695500D02*
X44444300Y-20725500D01*
X44444300Y-20695500D02*
X44414300Y-20725500D01*
X44424300Y-24656300D02*
X44454300Y-24686300D01*
X44454300Y-24656300D02*
X44424300Y-24686300D01*
X44435000Y-20335000D02*
X44465000Y-20365000D01*
X44465000Y-20335000D02*
X44435000Y-20365000D01*
X44435000Y-20435000D02*
X44465000Y-20465000D01*
X44465000Y-20435000D02*
X44435000Y-20465000D01*
X44435000Y-20874300D02*
X44465000Y-20904300D01*
X44465000Y-20874300D02*
X44435000Y-20904300D01*
X44443400Y-29743400D02*
X44473400Y-29773400D01*
X44473400Y-29743400D02*
X44443400Y-29773400D01*
X44475200Y-28186100D02*
X44505200Y-28216100D01*
X44505200Y-28186100D02*
X44475200Y-28216100D01*
X44485000Y-20735000D02*
X44515000Y-20765000D01*
X44515000Y-20735000D02*
X44485000Y-20765000D01*
X44485000Y-21835000D02*
X44515000Y-21865000D01*
X44515000Y-21835000D02*
X44485000Y-21865000D01*
X44485000Y-21935000D02*
X44515000Y-21965000D01*
X44515000Y-21935000D02*
X44485000Y-21965000D01*
X44485000Y-22035000D02*
X44515000Y-22065000D01*
X44515000Y-22035000D02*
X44485000Y-22065000D01*
X44485000Y-27833300D02*
X44515000Y-27863300D01*
X44515000Y-27833300D02*
X44485000Y-27863300D01*
X44485000Y-28085000D02*
X44515000Y-28115000D01*
X44515000Y-28085000D02*
X44485000Y-28115000D01*
X44535800Y-29735800D02*
X44565800Y-29765800D01*
X44565800Y-29735800D02*
X44535800Y-29765800D01*
X44585000Y-20035000D02*
X44615000Y-20065000D01*
X44615000Y-20035000D02*
X44585000Y-20065000D01*
X44585000Y-20885000D02*
X44615000Y-20915000D01*
X44615000Y-20885000D02*
X44585000Y-20915000D01*
X44622900Y-24108300D02*
X44652900Y-24138300D01*
X44652900Y-24108300D02*
X44622900Y-24138300D01*
X44635000Y-23585000D02*
X44665000Y-23615000D01*
X44665000Y-23585000D02*
X44635000Y-23615000D01*
X44667800Y-31838900D02*
X44697800Y-31868900D01*
X44697800Y-31838900D02*
X44667800Y-31868900D01*
X44685000Y-20035000D02*
X44715000Y-20065000D01*
X44715000Y-20035000D02*
X44685000Y-20065000D01*
X44686600Y-25256400D02*
X44716600Y-25286400D01*
X44716600Y-25256400D02*
X44686600Y-25286400D01*
X44710700Y-24362800D02*
X44740700Y-24392800D01*
X44740700Y-24362800D02*
X44710700Y-24392800D01*
X44726400Y-18180100D02*
X44756400Y-18210100D01*
X44756400Y-18180100D02*
X44726400Y-18210100D01*
X44735000Y-19735000D02*
X44765000Y-19765000D01*
X44765000Y-19735000D02*
X44735000Y-19765000D01*
X44736200Y-19973500D02*
X44766200Y-20003500D01*
X44766200Y-19973500D02*
X44736200Y-20003500D01*
X44797900Y-24802100D02*
X44827900Y-24832100D01*
X44827900Y-24802100D02*
X44797900Y-24832100D01*
X44805000Y-29062000D02*
X44835000Y-29092000D01*
X44835000Y-29062000D02*
X44805000Y-29092000D01*
X44835000Y-19635000D02*
X44865000Y-19665000D01*
X44865000Y-19635000D02*
X44835000Y-19665000D01*
X44852400Y-22917600D02*
X44882400Y-22947600D01*
X44882400Y-22917600D02*
X44852400Y-22947600D01*
X44895500Y-19307200D02*
X44925500Y-19337200D01*
X44925500Y-19307200D02*
X44895500Y-19337200D01*
X44897500Y-28910400D02*
X44927500Y-28940400D01*
X44927500Y-28910400D02*
X44897500Y-28940400D01*
X44899800Y-25175700D02*
X44929800Y-25205700D01*
X44929800Y-25175700D02*
X44899800Y-25205700D01*
X44905000Y-19535000D02*
X44935000Y-19565000D01*
X44935000Y-19535000D02*
X44905000Y-19565000D01*
X44905000Y-20925000D02*
X44935000Y-20955000D01*
X44935000Y-20925000D02*
X44905000Y-20955000D01*
X44923000Y-29060600D02*
X44953000Y-29090600D01*
X44953000Y-29060600D02*
X44923000Y-29090600D01*
X44936000Y-31678600D02*
X44966000Y-31708600D01*
X44966000Y-31678600D02*
X44936000Y-31708600D01*
X44956400Y-20986300D02*
X44986400Y-21016300D01*
X44986400Y-20986300D02*
X44956400Y-21016300D01*
X44985000Y-23135000D02*
X45015000Y-23165000D01*
X45015000Y-23135000D02*
X44985000Y-23165000D01*
X44985000Y-32330600D02*
X45015000Y-32360600D01*
X45015000Y-32330600D02*
X44985000Y-32360600D01*
X44985300Y-30363600D02*
X45015300Y-30393600D01*
X45015300Y-30363600D02*
X44985300Y-30393600D01*
X44985300Y-31235700D02*
X45015300Y-31265700D01*
X45015300Y-31235700D02*
X44985300Y-31265700D01*
X44985400Y-21100200D02*
X45015400Y-21130200D01*
X45015400Y-21100200D02*
X44985400Y-21130200D01*
X44985400Y-25881300D02*
X45015400Y-25911300D01*
X45015400Y-25881300D02*
X44985400Y-25911300D01*
X45035000Y-20935000D02*
X45065000Y-20965000D01*
X45065000Y-20935000D02*
X45035000Y-20965000D01*
X45036900Y-19585000D02*
X45066900Y-19615000D01*
X45066900Y-19585000D02*
X45036900Y-19615000D01*
X45041600Y-23078400D02*
X45071600Y-23108400D01*
X45071600Y-23078400D02*
X45041600Y-23108400D01*
X45073500Y-31704500D02*
X45103500Y-31734500D01*
X45103500Y-31704500D02*
X45073500Y-31734500D01*
X45118000Y-32058800D02*
X45148000Y-32088800D01*
X45148000Y-32058800D02*
X45118000Y-32088800D01*
X45162300Y-32482100D02*
X45192300Y-32512100D01*
X45192300Y-32482100D02*
X45162300Y-32512100D01*
X45162600Y-20947400D02*
X45192600Y-20977400D01*
X45192600Y-20947400D02*
X45162600Y-20977400D01*
X45171600Y-25283600D02*
X45201600Y-25313600D01*
X45201600Y-25283600D02*
X45171600Y-25313600D01*
X45185000Y-19875000D02*
X45215000Y-19905000D01*
X45215000Y-19875000D02*
X45185000Y-19905000D01*
X45239700Y-29568400D02*
X45269700Y-29598400D01*
X45269700Y-29568400D02*
X45239700Y-29598400D01*
X45258500Y-24769700D02*
X45288500Y-24799700D01*
X45288500Y-24769700D02*
X45258500Y-24799700D01*
X45271500Y-26203000D02*
X45301500Y-26233000D01*
X45301500Y-26203000D02*
X45271500Y-26233000D01*
X45280900Y-23687300D02*
X45310900Y-23717300D01*
X45310900Y-23687300D02*
X45280900Y-23717300D01*
X45283300Y-25583400D02*
X45313300Y-25613400D01*
X45313300Y-25583400D02*
X45283300Y-25613400D01*
X45335000Y-29835000D02*
X45365000Y-29865000D01*
X45365000Y-29835000D02*
X45335000Y-29865000D01*
X45345500Y-21714500D02*
X45375500Y-21744500D01*
X45375500Y-21714500D02*
X45345500Y-21744500D01*
X45365000Y-19935000D02*
X45395000Y-19965000D01*
X45395000Y-19935000D02*
X45365000Y-19965000D01*
X45365000Y-20035000D02*
X45395000Y-20065000D01*
X45395000Y-20035000D02*
X45365000Y-20065000D01*
X45367600Y-26271300D02*
X45397600Y-26301300D01*
X45397600Y-26271300D02*
X45367600Y-26301300D01*
X45372300Y-23725700D02*
X45402300Y-23755700D01*
X45402300Y-23725700D02*
X45372300Y-23755700D01*
X45387300Y-24781200D02*
X45417300Y-24811200D01*
X45417300Y-24781200D02*
X45387300Y-24811200D01*
X45394200Y-23600600D02*
X45424200Y-23630600D01*
X45424200Y-23600600D02*
X45394200Y-23630600D01*
X45485000Y-21935000D02*
X45515000Y-21965000D01*
X45515000Y-21935000D02*
X45485000Y-21965000D01*
X45485000Y-22035000D02*
X45515000Y-22065000D01*
X45515000Y-22035000D02*
X45485000Y-22065000D01*
X45485000Y-22135000D02*
X45515000Y-22165000D01*
X45515000Y-22135000D02*
X45485000Y-22165000D01*
X45493800Y-29486800D02*
X45523800Y-29516800D01*
X45523800Y-29486800D02*
X45493800Y-29516800D01*
X45558000Y-19375400D02*
X45588000Y-19405400D01*
X45588000Y-19375400D02*
X45558000Y-19405400D01*
X45669600Y-29577500D02*
X45699600Y-29607500D01*
X45699600Y-29577500D02*
X45669600Y-29607500D01*
X45735000Y-22785000D02*
X45765000Y-22815000D01*
X45765000Y-22785000D02*
X45735000Y-22815000D01*
X45785000Y-29577500D02*
X45815000Y-29607500D01*
X45815000Y-29577500D02*
X45785000Y-29607500D01*
X45806700Y-24702800D02*
X45836700Y-24732800D01*
X45836700Y-24702800D02*
X45806700Y-24732800D01*
X45854400Y-28080900D02*
X45884400Y-28110900D01*
X45884400Y-28080900D02*
X45854400Y-28110900D01*
X45858700Y-31253800D02*
X45888700Y-31283800D01*
X45888700Y-31253800D02*
X45858700Y-31283800D01*
X45860300Y-25188000D02*
X45890300Y-25218000D01*
X45890300Y-25188000D02*
X45860300Y-25218000D01*
X45877600Y-26782000D02*
X45907600Y-26812000D01*
X45907600Y-26782000D02*
X45877600Y-26812000D01*
X45882600Y-26121900D02*
X45912600Y-26151900D01*
X45912600Y-26121900D02*
X45882600Y-26151900D01*
X45930900Y-27742400D02*
X45960900Y-27772400D01*
X45960900Y-27742400D02*
X45930900Y-27772400D01*
X45944300Y-25801600D02*
X45974300Y-25831600D01*
X45974300Y-25801600D02*
X45944300Y-25831600D01*
X46050000Y-25287800D02*
X46080000Y-25317800D01*
X46080000Y-25287800D02*
X46050000Y-25317800D01*
X46063300Y-26258100D02*
X46093300Y-26288100D01*
X46093300Y-26258100D02*
X46063300Y-26288100D01*
X46102800Y-25582500D02*
X46132800Y-25612500D01*
X46132800Y-25582500D02*
X46102800Y-25612500D01*
X46135400Y-26752800D02*
X46165400Y-26782800D01*
X46165400Y-26752800D02*
X46135400Y-26782800D01*
X46136300Y-26102000D02*
X46166300Y-26132000D01*
X46166300Y-26102000D02*
X46136300Y-26132000D01*
X46180700Y-29637500D02*
X46210700Y-29667500D01*
X46210700Y-29637500D02*
X46180700Y-29667500D01*
X46191400Y-24797400D02*
X46221400Y-24827400D01*
X46221400Y-24797400D02*
X46191400Y-24827400D01*
X46194700Y-25283700D02*
X46224700Y-25313700D01*
X46224700Y-25283700D02*
X46194700Y-25313700D01*
X46225100Y-20502500D02*
X46255100Y-20532500D01*
X46255100Y-20502500D02*
X46225100Y-20532500D01*
X46235600Y-23516800D02*
X46265600Y-23546800D01*
X46265600Y-23516800D02*
X46235600Y-23546800D01*
X46235600Y-24494000D02*
X46265600Y-24524000D01*
X46265600Y-24494000D02*
X46235600Y-24524000D01*
X46245300Y-26850300D02*
X46275300Y-26880300D01*
X46275300Y-26850300D02*
X46245300Y-26880300D01*
X46285000Y-24804100D02*
X46315000Y-24834100D01*
X46315000Y-24804100D02*
X46285000Y-24834100D01*
X46401600Y-25202700D02*
X46431600Y-25232700D01*
X46431600Y-25202700D02*
X46401600Y-25232700D01*
X46414200Y-28800200D02*
X46444200Y-28830200D01*
X46444200Y-28800200D02*
X46414200Y-28830200D01*
X46436800Y-26682300D02*
X46466800Y-26712300D01*
X46466800Y-26682300D02*
X46436800Y-26712300D01*
X46438800Y-26413000D02*
X46468800Y-26443000D01*
X46468800Y-26413000D02*
X46438800Y-26443000D01*
X46458200Y-27101700D02*
X46488200Y-27131700D01*
X46488200Y-27101700D02*
X46458200Y-27131700D01*
X46465000Y-27375400D02*
X46495000Y-27405400D01*
X46495000Y-27375400D02*
X46465000Y-27405400D01*
X46477500Y-24766400D02*
X46507500Y-24796400D01*
X46507500Y-24766400D02*
X46477500Y-24796400D01*
X46479500Y-19943200D02*
X46509500Y-19973200D01*
X46509500Y-19943200D02*
X46479500Y-19973200D01*
X46479500Y-28305900D02*
X46509500Y-28335900D01*
X46509500Y-28305900D02*
X46479500Y-28335900D01*
X46485000Y-19025500D02*
X46515000Y-19055500D01*
X46515000Y-19025500D02*
X46485000Y-19055500D01*
X46485000Y-32282000D02*
X46515000Y-32312000D01*
X46515000Y-32282000D02*
X46485000Y-32312000D01*
X46486800Y-20495200D02*
X46516800Y-20525200D01*
X46516800Y-20495200D02*
X46486800Y-20525200D01*
X46502300Y-29729300D02*
X46532300Y-29759300D01*
X46532300Y-29729300D02*
X46502300Y-29759300D01*
X46512100Y-25314600D02*
X46542100Y-25344600D01*
X46542100Y-25314600D02*
X46512100Y-25344600D01*
X46559800Y-25938900D02*
X46589800Y-25968900D01*
X46589800Y-25938900D02*
X46559800Y-25968900D01*
X46578900Y-25247000D02*
X46608900Y-25277000D01*
X46608900Y-25247000D02*
X46578900Y-25277000D01*
X46597100Y-26782500D02*
X46627100Y-26812500D01*
X46627100Y-26782500D02*
X46597100Y-26812500D01*
X46617100Y-26212600D02*
X46647100Y-26242600D01*
X46647100Y-26212600D02*
X46617100Y-26242600D01*
X46635000Y-18835000D02*
X46665000Y-18865000D01*
X46665000Y-18835000D02*
X46635000Y-18865000D01*
X46664900Y-29190700D02*
X46694900Y-29220700D01*
X46694900Y-29190700D02*
X46664900Y-29220700D01*
X46685000Y-29279300D02*
X46715000Y-29309300D01*
X46715000Y-29279300D02*
X46685000Y-29309300D01*
X46716400Y-25815800D02*
X46746400Y-25845800D01*
X46746400Y-25815800D02*
X46716400Y-25845800D01*
X46740000Y-26185800D02*
X46770000Y-26215800D01*
X46770000Y-26185800D02*
X46740000Y-26215800D01*
X46741500Y-25219400D02*
X46771500Y-25249400D01*
X46771500Y-25219400D02*
X46741500Y-25249400D01*
X46742500Y-30588400D02*
X46772500Y-30618400D01*
X46772500Y-30588400D02*
X46742500Y-30618400D01*
X46758200Y-32156500D02*
X46788200Y-32186500D01*
X46788200Y-32156500D02*
X46758200Y-32186500D01*
X46760000Y-26784200D02*
X46790000Y-26814200D01*
X46790000Y-26784200D02*
X46760000Y-26814200D01*
X46776200Y-32530500D02*
X46806200Y-32560500D01*
X46806200Y-32530500D02*
X46776200Y-32560500D01*
X46778300Y-24147300D02*
X46808300Y-24177300D01*
X46808300Y-24147300D02*
X46778300Y-24177300D01*
X46778300Y-30065000D02*
X46808300Y-30095000D01*
X46808300Y-30065000D02*
X46778300Y-30095000D01*
X46784600Y-24760900D02*
X46814600Y-24790900D01*
X46814600Y-24760900D02*
X46784600Y-24790900D01*
X46839800Y-26239900D02*
X46869800Y-26269900D01*
X46869800Y-26239900D02*
X46839800Y-26269900D01*
X46847900Y-26773000D02*
X46877900Y-26803000D01*
X46877900Y-26773000D02*
X46847900Y-26803000D01*
X46873000Y-25878800D02*
X46903000Y-25908800D01*
X46903000Y-25878800D02*
X46873000Y-25908800D01*
X46912100Y-27103400D02*
X46942100Y-27133400D01*
X46942100Y-27103400D02*
X46912100Y-27133400D01*
X46942500Y-25832300D02*
X46972500Y-25862300D01*
X46972500Y-25832300D02*
X46942500Y-25862300D01*
X46957300Y-26207300D02*
X46987300Y-26237300D01*
X46987300Y-26207300D02*
X46957300Y-26237300D01*
X46968900Y-26681500D02*
X46998900Y-26711500D01*
X46998900Y-26681500D02*
X46968900Y-26711500D01*
X46988800Y-19822000D02*
X47018800Y-19852000D01*
X47018800Y-19822000D02*
X46988800Y-19852000D01*
X47006300Y-26525600D02*
X47036300Y-26555600D01*
X47036300Y-26525600D02*
X47006300Y-26555600D01*
X47008800Y-25533600D02*
X47038800Y-25563600D01*
X47038800Y-25533600D02*
X47008800Y-25563600D01*
X47024000Y-24802800D02*
X47054000Y-24832800D01*
X47054000Y-24802800D02*
X47024000Y-24832800D01*
X47031100Y-23740500D02*
X47061100Y-23770500D01*
X47061100Y-23740500D02*
X47031100Y-23770500D01*
X47038600Y-29168500D02*
X47068600Y-29198500D01*
X47068600Y-29168500D02*
X47038600Y-29198500D01*
X47066200Y-27202800D02*
X47096200Y-27232800D01*
X47096200Y-27202800D02*
X47066200Y-27232800D01*
X47080000Y-19858300D02*
X47110000Y-19888300D01*
X47110000Y-19858300D02*
X47080000Y-19888300D01*
X47080000Y-21110200D02*
X47110000Y-21140200D01*
X47110000Y-21110200D02*
X47080000Y-21140200D01*
X47080000Y-21856200D02*
X47110000Y-21886200D01*
X47110000Y-21856200D02*
X47080000Y-21886200D01*
X47175600Y-25314400D02*
X47205600Y-25344400D01*
X47205600Y-25314400D02*
X47175600Y-25344400D01*
X47190500Y-24789500D02*
X47220500Y-24819500D01*
X47220500Y-24789500D02*
X47190500Y-24819500D01*
X47193200Y-26129200D02*
X47223200Y-26159200D01*
X47223200Y-26129200D02*
X47193200Y-26159200D01*
X47196900Y-25816000D02*
X47226900Y-25846000D01*
X47226900Y-25816000D02*
X47196900Y-25846000D01*
X47242000Y-25582500D02*
X47272000Y-25612500D01*
X47272000Y-25582500D02*
X47242000Y-25612500D01*
X47268200Y-25345200D02*
X47298200Y-25375200D01*
X47298200Y-25345200D02*
X47268200Y-25375200D01*
X47294700Y-24796300D02*
X47324700Y-24826300D01*
X47324700Y-24796300D02*
X47294700Y-24826300D01*
X47299600Y-25899900D02*
X47329600Y-25929900D01*
X47329600Y-25899900D02*
X47299600Y-25929900D01*
X47299800Y-29447200D02*
X47329800Y-29477200D01*
X47329800Y-29447200D02*
X47299800Y-29477200D01*
X47433100Y-25359800D02*
X47463100Y-25389800D01*
X47463100Y-25359800D02*
X47433100Y-25389800D01*
X47433500Y-25449600D02*
X47463500Y-25479600D01*
X47463500Y-25449600D02*
X47433500Y-25479600D01*
X47454100Y-24817500D02*
X47484100Y-24847500D01*
X47484100Y-24817500D02*
X47454100Y-24847500D01*
X47454100Y-27029900D02*
X47484100Y-27059900D01*
X47484100Y-27029900D02*
X47454100Y-27059900D01*
X47493600Y-25605700D02*
X47523600Y-25635700D01*
X47523600Y-25605700D02*
X47493600Y-25635700D01*
X47583500Y-30618100D02*
X47613500Y-30648100D01*
X47613500Y-30618100D02*
X47583500Y-30648100D01*
X47611900Y-31601000D02*
X47641900Y-31631000D01*
X47641900Y-31601000D02*
X47611900Y-31631000D01*
X47628200Y-26245600D02*
X47658200Y-26275600D01*
X47658200Y-26245600D02*
X47628200Y-26275600D01*
X47674400Y-26478900D02*
X47704400Y-26508900D01*
X47704400Y-26478900D02*
X47674400Y-26508900D01*
X47674700Y-18112000D02*
X47704700Y-18142000D01*
X47704700Y-18112000D02*
X47674700Y-18142000D01*
X47674700Y-29088700D02*
X47704700Y-29118700D01*
X47704700Y-29088700D02*
X47674700Y-29118700D01*
X47674700Y-30363800D02*
X47704700Y-30393800D01*
X47704700Y-30363800D02*
X47674700Y-30393800D01*
X47695700Y-19005500D02*
X47725700Y-19035500D01*
X47725700Y-19005500D02*
X47695700Y-19035500D01*
X47704200Y-26577900D02*
X47734200Y-26607900D01*
X47734200Y-26577900D02*
X47704200Y-26607900D01*
X47735000Y-18754400D02*
X47765000Y-18784400D01*
X47765000Y-18754400D02*
X47735000Y-18784400D01*
X47854000Y-25991800D02*
X47884000Y-26021800D01*
X47884000Y-25991800D02*
X47854000Y-26021800D01*
X47893800Y-26787800D02*
X47923800Y-26817800D01*
X47923800Y-26787800D02*
X47893800Y-26817800D01*
X47918200Y-24794200D02*
X47948200Y-24824200D01*
X47948200Y-24794200D02*
X47918200Y-24824200D01*
X47945800Y-21996600D02*
X47975800Y-22026600D01*
X47975800Y-21996600D02*
X47945800Y-22026600D01*
X47946100Y-21163000D02*
X47976100Y-21193000D01*
X47976100Y-21163000D02*
X47946100Y-21193000D01*
X47946800Y-20502500D02*
X47976800Y-20532500D01*
X47976800Y-20502500D02*
X47946800Y-20532500D01*
X47949600Y-31857700D02*
X47979600Y-31887700D01*
X47979600Y-31857700D02*
X47949600Y-31887700D01*
X47973500Y-27043400D02*
X48003500Y-27073400D01*
X48003500Y-27043400D02*
X47973500Y-27073400D01*
X47973500Y-32455300D02*
X48003500Y-32485300D01*
X48003500Y-32455300D02*
X47973500Y-32485300D01*
X48074900Y-24488200D02*
X48104900Y-24518200D01*
X48104900Y-24488200D02*
X48074900Y-24518200D01*
X48077400Y-24744000D02*
X48107400Y-24774000D01*
X48107400Y-24744000D02*
X48077400Y-24774000D01*
X48085400Y-24567500D02*
X48115400Y-24597500D01*
X48115400Y-24567500D02*
X48085400Y-24597500D01*
X48161500Y-25582500D02*
X48191500Y-25612500D01*
X48191500Y-25582500D02*
X48161500Y-25612500D01*
X48199800Y-20734800D02*
X48229800Y-20764800D01*
X48229800Y-20734800D02*
X48199800Y-20764800D01*
X48207200Y-22855800D02*
X48237200Y-22885800D01*
X48237200Y-22855800D02*
X48207200Y-22885800D01*
X48226000Y-21425200D02*
X48256000Y-21455200D01*
X48256000Y-21425200D02*
X48226000Y-21455200D01*
X48234200Y-23904200D02*
X48264200Y-23934200D01*
X48264200Y-23904200D02*
X48234200Y-23934200D01*
X48234900Y-23676000D02*
X48264900Y-23706000D01*
X48264900Y-23676000D02*
X48234900Y-23706000D01*
X48239000Y-29766000D02*
X48269000Y-29796000D01*
X48269000Y-29766000D02*
X48239000Y-29796000D01*
X48249800Y-25498800D02*
X48279800Y-25528800D01*
X48279800Y-25498800D02*
X48249800Y-25528800D01*
X48301800Y-24798100D02*
X48331800Y-24828100D01*
X48331800Y-24798100D02*
X48301800Y-24828100D01*
X48308300Y-20203700D02*
X48338300Y-20233700D01*
X48338300Y-20203700D02*
X48308300Y-20233700D01*
X48330000Y-19612100D02*
X48360000Y-19642100D01*
X48360000Y-19612100D02*
X48330000Y-19642100D01*
X48330000Y-31560400D02*
X48360000Y-31590400D01*
X48360000Y-31560400D02*
X48330000Y-31590400D01*
X48356100Y-24137000D02*
X48386100Y-24167000D01*
X48386100Y-24137000D02*
X48356100Y-24167000D01*
X48360000Y-24428200D02*
X48390000Y-24458200D01*
X48390000Y-24428200D02*
X48360000Y-24458200D01*
X48382300Y-29347600D02*
X48412300Y-29377600D01*
X48412300Y-29347600D02*
X48382300Y-29377600D01*
X48393000Y-25651200D02*
X48423000Y-25681200D01*
X48423000Y-25651200D02*
X48393000Y-25681200D01*
X48400500Y-26137700D02*
X48430500Y-26167700D01*
X48430500Y-26137700D02*
X48400500Y-26167700D01*
X48401400Y-23599200D02*
X48431400Y-23629200D01*
X48431400Y-23599200D02*
X48401400Y-23629200D01*
X48430600Y-24237200D02*
X48460600Y-24267200D01*
X48460600Y-24237200D02*
X48430600Y-24267200D01*
X48435800Y-25314300D02*
X48465800Y-25344300D01*
X48465800Y-25314300D02*
X48435800Y-25344300D01*
X48490900Y-22996600D02*
X48520900Y-23026600D01*
X48520900Y-22996600D02*
X48490900Y-23026600D01*
X48522700Y-24004400D02*
X48552700Y-24034400D01*
X48552700Y-24004400D02*
X48522700Y-24034400D01*
X48554400Y-24386000D02*
X48584400Y-24416000D01*
X48584400Y-24386000D02*
X48554400Y-24416000D01*
X48562700Y-31521900D02*
X48592700Y-31551900D01*
X48592700Y-31521900D02*
X48562700Y-31551900D01*
X48570500Y-25370900D02*
X48600500Y-25400900D01*
X48600500Y-25370900D02*
X48570500Y-25400900D01*
X48571000Y-26828300D02*
X48601000Y-26858300D01*
X48601000Y-26828300D02*
X48571000Y-26858300D01*
X48571200Y-21100200D02*
X48601200Y-21130200D01*
X48601200Y-21100200D02*
X48571200Y-21130200D01*
X48583600Y-24689000D02*
X48613600Y-24719000D01*
X48613600Y-24689000D02*
X48583600Y-24719000D01*
X48640000Y-32058600D02*
X48670000Y-32088600D01*
X48670000Y-32058600D02*
X48640000Y-32088600D01*
X48646000Y-19857700D02*
X48676000Y-19887700D01*
X48676000Y-19857700D02*
X48646000Y-19887700D01*
X48677800Y-27237400D02*
X48707800Y-27267400D01*
X48707800Y-27237400D02*
X48677800Y-27267400D01*
X48685000Y-25943200D02*
X48715000Y-25973200D01*
X48715000Y-25943200D02*
X48685000Y-25973200D01*
X48688000Y-23424100D02*
X48718000Y-23454100D01*
X48718000Y-23424100D02*
X48688000Y-23454100D01*
X48688000Y-23508100D02*
X48718000Y-23538100D01*
X48718000Y-23508100D02*
X48688000Y-23538100D01*
X48695500Y-26166700D02*
X48725500Y-26196700D01*
X48725500Y-26166700D02*
X48695500Y-26196700D01*
X48737100Y-25317900D02*
X48767100Y-25347900D01*
X48767100Y-25317900D02*
X48737100Y-25347900D01*
X48737300Y-23737300D02*
X48767300Y-23767300D01*
X48767300Y-23737300D02*
X48737300Y-23767300D01*
X48754600Y-24208000D02*
X48784600Y-24238000D01*
X48784600Y-24208000D02*
X48754600Y-24238000D01*
X48756400Y-23295400D02*
X48786400Y-23325400D01*
X48786400Y-23295400D02*
X48756400Y-23325400D01*
X48798900Y-23223100D02*
X48828900Y-23253100D01*
X48828900Y-23223100D02*
X48798900Y-23253100D01*
X48820600Y-24733400D02*
X48850600Y-24763400D01*
X48850600Y-24733400D02*
X48820600Y-24763400D01*
X48824200Y-26537800D02*
X48854200Y-26567800D01*
X48854200Y-26537800D02*
X48824200Y-26567800D01*
X48855600Y-25596100D02*
X48885600Y-25626100D01*
X48885600Y-25596100D02*
X48855600Y-25626100D01*
X48859200Y-19059400D02*
X48889200Y-19089400D01*
X48889200Y-19059400D02*
X48859200Y-19089400D01*
X48860000Y-24130900D02*
X48890000Y-24160900D01*
X48890000Y-24130900D02*
X48860000Y-24160900D01*
X48860900Y-18600700D02*
X48890900Y-18630700D01*
X48890900Y-18600700D02*
X48860900Y-18630700D01*
X48870000Y-20847800D02*
X48900000Y-20877800D01*
X48900000Y-20847800D02*
X48870000Y-20877800D01*
X48870000Y-27169500D02*
X48900000Y-27199500D01*
X48900000Y-27169500D02*
X48870000Y-27199500D01*
X48883800Y-25499600D02*
X48913800Y-25529600D01*
X48913800Y-25499600D02*
X48883800Y-25529600D01*
X48896400Y-22818700D02*
X48926400Y-22848700D01*
X48926400Y-22818700D02*
X48896400Y-22848700D01*
X48896800Y-25324800D02*
X48926800Y-25354800D01*
X48926800Y-25324800D02*
X48896800Y-25354800D01*
X48909300Y-23222800D02*
X48939300Y-23252800D01*
X48939300Y-23222800D02*
X48909300Y-23252800D01*
X48922200Y-28958200D02*
X48952200Y-28988200D01*
X48952200Y-28958200D02*
X48922200Y-28988200D01*
X48925200Y-24059400D02*
X48955200Y-24089400D01*
X48955200Y-24059400D02*
X48925200Y-24089400D01*
X48933200Y-26573000D02*
X48963200Y-26603000D01*
X48963200Y-26573000D02*
X48933200Y-26603000D01*
X48938200Y-23747200D02*
X48968200Y-23777200D01*
X48968200Y-23747200D02*
X48938200Y-23777200D01*
X48944900Y-26007100D02*
X48974900Y-26037100D01*
X48974900Y-26007100D02*
X48944900Y-26037100D01*
X48957800Y-31509800D02*
X48987800Y-31539800D01*
X48987800Y-31509800D02*
X48957800Y-31539800D01*
X48969700Y-22924400D02*
X48999700Y-22954400D01*
X48999700Y-22924400D02*
X48969700Y-22954400D01*
X48978100Y-26093200D02*
X49008100Y-26123200D01*
X49008100Y-26093200D02*
X48978100Y-26123200D01*
X49014900Y-23724500D02*
X49044900Y-23754500D01*
X49044900Y-23724500D02*
X49014900Y-23754500D01*
X49062700Y-25933800D02*
X49092700Y-25963800D01*
X49092700Y-25933800D02*
X49062700Y-25963800D01*
X49071800Y-24776200D02*
X49101800Y-24806200D01*
X49101800Y-24776200D02*
X49071800Y-24806200D01*
X49087800Y-22936300D02*
X49117800Y-22966300D01*
X49117800Y-22936300D02*
X49087800Y-22966300D01*
X49090000Y-24035000D02*
X49120000Y-24065000D01*
X49120000Y-24035000D02*
X49090000Y-24065000D01*
X49103600Y-21354400D02*
X49133600Y-21384400D01*
X49133600Y-21354400D02*
X49103600Y-21384400D01*
X49128100Y-30715900D02*
X49158100Y-30745900D01*
X49158100Y-30715900D02*
X49128100Y-30745900D01*
X49128100Y-31113100D02*
X49158100Y-31143100D01*
X49158100Y-31113100D02*
X49128100Y-31143100D01*
X49148500Y-23186600D02*
X49178500Y-23216600D01*
X49178500Y-23186600D02*
X49148500Y-23216600D01*
X49152100Y-27375400D02*
X49182100Y-27405400D01*
X49182100Y-27375400D02*
X49152100Y-27405400D01*
X49173200Y-25860500D02*
X49203200Y-25890500D01*
X49203200Y-25860500D02*
X49173200Y-25890500D01*
X49180200Y-28209200D02*
X49210200Y-28239200D01*
X49210200Y-28209200D02*
X49180200Y-28239200D01*
X49185800Y-26560400D02*
X49215800Y-26590400D01*
X49215800Y-26560400D02*
X49185800Y-26590400D01*
X49186400Y-26216400D02*
X49216400Y-26246400D01*
X49216400Y-26216400D02*
X49186400Y-26246400D01*
X49189100Y-18692600D02*
X49219100Y-18722600D01*
X49219100Y-18692600D02*
X49189100Y-18722600D01*
X49192200Y-26680800D02*
X49222200Y-26710800D01*
X49222200Y-26680800D02*
X49192200Y-26710800D01*
X49201400Y-20266600D02*
X49231400Y-20296600D01*
X49231400Y-20266600D02*
X49201400Y-20296600D01*
X49215800Y-27973000D02*
X49245800Y-28003000D01*
X49245800Y-27973000D02*
X49215800Y-28003000D01*
X49250700Y-24796100D02*
X49280700Y-24826100D01*
X49280700Y-24796100D02*
X49250700Y-24826100D01*
X49252700Y-25317600D02*
X49282700Y-25347600D01*
X49282700Y-25317600D02*
X49252700Y-25347600D01*
X49262400Y-23584800D02*
X49292400Y-23614800D01*
X49292400Y-23584800D02*
X49262400Y-23614800D01*
X49284000Y-23384300D02*
X49314000Y-23414300D01*
X49314000Y-23384300D02*
X49284000Y-23414300D01*
X49284000Y-23464400D02*
X49314000Y-23494400D01*
X49314000Y-23464400D02*
X49284000Y-23494400D01*
X49286600Y-26185900D02*
X49316600Y-26215900D01*
X49316600Y-26185900D02*
X49286600Y-26215900D01*
X49376000Y-24735800D02*
X49406000Y-24765800D01*
X49406000Y-24735800D02*
X49376000Y-24765800D01*
X49422100Y-25837900D02*
X49452100Y-25867900D01*
X49452100Y-25837900D02*
X49422100Y-25867900D01*
X49435300Y-25330200D02*
X49465300Y-25360200D01*
X49465300Y-25330200D02*
X49435300Y-25360200D01*
X49442800Y-27252200D02*
X49472800Y-27282200D01*
X49472800Y-27252200D02*
X49442800Y-27282200D01*
X49459600Y-26213900D02*
X49489600Y-26243900D01*
X49489600Y-26213900D02*
X49459600Y-26243900D01*
X49485000Y-27973000D02*
X49515000Y-28003000D01*
X49515000Y-27973000D02*
X49485000Y-28003000D01*
X49497400Y-23119500D02*
X49527400Y-23149500D01*
X49527400Y-23119500D02*
X49497400Y-23149500D01*
X49497500Y-24685800D02*
X49527500Y-24715800D01*
X49527500Y-24685800D02*
X49497500Y-24715800D01*
X49510000Y-27032600D02*
X49540000Y-27062600D01*
X49540000Y-27032600D02*
X49510000Y-27062600D01*
X49513600Y-26716000D02*
X49543600Y-26746000D01*
X49543600Y-26716000D02*
X49513600Y-26746000D01*
X49548800Y-23280700D02*
X49578800Y-23310700D01*
X49578800Y-23280700D02*
X49548800Y-23310700D01*
X49549000Y-26186300D02*
X49579000Y-26216300D01*
X49579000Y-26186300D02*
X49549000Y-26216300D01*
X49549300Y-23570100D02*
X49579300Y-23600100D01*
X49579300Y-23570100D02*
X49549300Y-23600100D01*
X49551200Y-27187700D02*
X49581200Y-27217700D01*
X49581200Y-27187700D02*
X49551200Y-27217700D01*
X49555800Y-25365300D02*
X49585800Y-25395300D01*
X49585800Y-25365300D02*
X49555800Y-25395300D01*
X49610400Y-26778300D02*
X49640400Y-26808300D01*
X49640400Y-26778300D02*
X49610400Y-26808300D01*
X49645000Y-24474600D02*
X49675000Y-24504600D01*
X49675000Y-24474600D02*
X49645000Y-24504600D01*
X49648300Y-24394700D02*
X49678300Y-24424700D01*
X49678300Y-24394700D02*
X49648300Y-24424700D01*
X49667500Y-27170300D02*
X49697500Y-27200300D01*
X49697500Y-27170300D02*
X49667500Y-27200300D01*
X49681100Y-23164800D02*
X49711100Y-23194800D01*
X49711100Y-23164800D02*
X49681100Y-23194800D01*
X49686500Y-25740400D02*
X49716500Y-25770400D01*
X49716500Y-25740400D02*
X49686500Y-25770400D01*
X49703800Y-31260000D02*
X49733800Y-31290000D01*
X49733800Y-31260000D02*
X49703800Y-31290000D01*
X49713100Y-23296800D02*
X49743100Y-23326800D01*
X49743100Y-23296800D02*
X49713100Y-23326800D01*
X49718000Y-26435000D02*
X49748000Y-26465000D01*
X49748000Y-26435000D02*
X49718000Y-26465000D01*
X49718200Y-26350300D02*
X49748200Y-26380300D01*
X49748200Y-26350300D02*
X49718200Y-26380300D01*
X49728200Y-21714100D02*
X49758200Y-21744100D01*
X49758200Y-21714100D02*
X49728200Y-21744100D01*
X49735000Y-24385000D02*
X49765000Y-24415000D01*
X49765000Y-24385000D02*
X49735000Y-24415000D01*
X49742100Y-24675200D02*
X49772100Y-24705200D01*
X49772100Y-24675200D02*
X49742100Y-24705200D01*
X49748900Y-23477200D02*
X49778900Y-23507200D01*
X49778900Y-23477200D02*
X49748900Y-23507200D01*
X49750200Y-26508800D02*
X49780200Y-26538800D01*
X49780200Y-26508800D02*
X49750200Y-26538800D01*
X49757500Y-18697700D02*
X49787500Y-18727700D01*
X49787500Y-18697700D02*
X49757500Y-18727700D01*
X49764000Y-26694400D02*
X49794000Y-26724400D01*
X49794000Y-26694400D02*
X49764000Y-26724400D01*
X49766300Y-23235500D02*
X49796300Y-23265500D01*
X49796300Y-23235500D02*
X49766300Y-23265500D01*
X49766400Y-30064800D02*
X49796400Y-30094800D01*
X49796400Y-30064800D02*
X49766400Y-30094800D01*
X49784100Y-31810700D02*
X49814100Y-31840700D01*
X49814100Y-31810700D02*
X49784100Y-31840700D01*
X49811700Y-25314700D02*
X49841700Y-25344700D01*
X49841700Y-25314700D02*
X49811700Y-25344700D01*
X49833000Y-20798400D02*
X49863000Y-20828400D01*
X49863000Y-20798400D02*
X49833000Y-20828400D01*
X49847900Y-26850300D02*
X49877900Y-26880300D01*
X49877900Y-26850300D02*
X49847900Y-26880300D01*
X49950800Y-24800600D02*
X49980800Y-24830600D01*
X49980800Y-24800600D02*
X49950800Y-24830600D01*
X49985000Y-31173600D02*
X50015000Y-31203600D01*
X50015000Y-31173600D02*
X49985000Y-31203600D01*
X50015600Y-26850300D02*
X50045600Y-26880300D01*
X50045600Y-26850300D02*
X50015600Y-26880300D01*
X50033800Y-26484400D02*
X50063800Y-26514400D01*
X50063800Y-26484400D02*
X50033800Y-26514400D01*
X50059400Y-26646500D02*
X50089400Y-26676500D01*
X50089400Y-26646500D02*
X50059400Y-26676500D01*
X50065200Y-22907800D02*
X50095200Y-22937800D01*
X50095200Y-22907800D02*
X50065200Y-22937800D01*
X50065200Y-27455100D02*
X50095200Y-27485100D01*
X50095200Y-27455100D02*
X50065200Y-27485100D01*
X50065200Y-28260500D02*
X50095200Y-28290500D01*
X50095200Y-28260500D02*
X50065200Y-28290500D01*
X50076400Y-24790400D02*
X50106400Y-24820400D01*
X50106400Y-24790400D02*
X50076400Y-24820400D01*
X50110800Y-19059400D02*
X50140800Y-19089400D01*
X50140800Y-19059400D02*
X50110800Y-19089400D01*
X50116200Y-26107800D02*
X50146200Y-26137800D01*
X50146200Y-26107800D02*
X50116200Y-26137800D01*
X50128400Y-19872300D02*
X50158400Y-19902300D01*
X50158400Y-19872300D02*
X50128400Y-19902300D01*
X50131100Y-30873400D02*
X50161100Y-30903400D01*
X50161100Y-30873400D02*
X50131100Y-30903400D01*
X50141100Y-24675400D02*
X50171100Y-24705400D01*
X50171100Y-24675400D02*
X50141100Y-24705400D01*
X50141500Y-25172700D02*
X50171500Y-25202700D01*
X50171500Y-25172700D02*
X50141500Y-25202700D01*
X50171900Y-25947300D02*
X50201900Y-25977300D01*
X50201900Y-25947300D02*
X50171900Y-25977300D01*
X50244200Y-24569300D02*
X50274200Y-24599300D01*
X50274200Y-24569300D02*
X50244200Y-24599300D01*
X50273700Y-24694400D02*
X50303700Y-24724400D01*
X50303700Y-24694400D02*
X50273700Y-24724400D01*
X50298500Y-25952100D02*
X50328500Y-25982100D01*
X50328500Y-25952100D02*
X50298500Y-25982100D01*
X50337700Y-21094200D02*
X50367700Y-21124200D01*
X50367700Y-21094200D02*
X50337700Y-21124200D01*
X50358200Y-29467100D02*
X50388200Y-29497100D01*
X50388200Y-29467100D02*
X50358200Y-29497100D01*
X50382500Y-25910800D02*
X50412500Y-25940800D01*
X50412500Y-25910800D02*
X50382500Y-25940800D01*
X50497600Y-24643600D02*
X50527600Y-24673600D01*
X50527600Y-24643600D02*
X50497600Y-24673600D01*
X50534900Y-25612900D02*
X50564900Y-25642900D01*
X50564900Y-25612900D02*
X50534900Y-25642900D01*
X50570000Y-20738600D02*
X50600000Y-20768600D01*
X50600000Y-20738600D02*
X50570000Y-20768600D01*
X50576200Y-21704000D02*
X50606200Y-21734000D01*
X50606200Y-21704000D02*
X50576200Y-21734000D01*
X50581200Y-25347800D02*
X50611200Y-25377800D01*
X50611200Y-25347800D02*
X50581200Y-25377800D01*
X50604300Y-26370600D02*
X50634300Y-26400600D01*
X50634300Y-26370600D02*
X50604300Y-26400600D01*
X50660200Y-25232600D02*
X50690200Y-25262600D01*
X50690200Y-25232600D02*
X50660200Y-25262600D01*
X50662800Y-19969900D02*
X50692800Y-19999900D01*
X50692800Y-19969900D02*
X50662800Y-19999900D01*
X50662800Y-26558500D02*
X50692800Y-26588500D01*
X50692800Y-26558500D02*
X50662800Y-26588500D01*
X50662800Y-29467100D02*
X50692800Y-29497100D01*
X50692800Y-29467100D02*
X50662800Y-29497100D01*
X50751500Y-21197200D02*
X50781500Y-21227200D01*
X50781500Y-21197200D02*
X50751500Y-21227200D01*
X50850000Y-24793400D02*
X50880000Y-24823400D01*
X50880000Y-24793400D02*
X50850000Y-24823400D01*
X50890700Y-25419300D02*
X50920700Y-25449300D01*
X50920700Y-25419300D02*
X50890700Y-25449300D01*
X50957400Y-24681100D02*
X50987400Y-24711100D01*
X50987400Y-24681100D02*
X50957400Y-24711100D01*
X50961600Y-29467100D02*
X50991600Y-29497100D01*
X50991600Y-29467100D02*
X50961600Y-29497100D01*
X50985000Y-28869500D02*
X51015000Y-28899500D01*
X51015000Y-28869500D02*
X50985000Y-28899500D01*
X50993800Y-24758100D02*
X51023800Y-24788100D01*
X51023800Y-24758100D02*
X50993800Y-24788100D01*
X50993900Y-25536100D02*
X51023900Y-25566100D01*
X51023900Y-25536100D02*
X50993900Y-25566100D01*
X51163000Y-23870500D02*
X51193000Y-23900500D01*
X51193000Y-23870500D02*
X51163000Y-23900500D01*
X51217500Y-26181700D02*
X51247500Y-26211700D01*
X51247500Y-26181700D02*
X51217500Y-26211700D01*
X51243500Y-24269700D02*
X51273500Y-24299700D01*
X51273500Y-24269700D02*
X51243500Y-24299700D01*
X51260400Y-23293400D02*
X51290400Y-23323400D01*
X51290400Y-23293400D02*
X51260400Y-23323400D01*
X51308200Y-26383800D02*
X51338200Y-26413800D01*
X51338200Y-26383800D02*
X51308200Y-26413800D01*
X51340300Y-25872200D02*
X51370300Y-25902200D01*
X51370300Y-25872200D02*
X51340300Y-25902200D01*
X51422200Y-26442000D02*
X51452200Y-26472000D01*
X51452200Y-26442000D02*
X51422200Y-26472000D01*
X51429600Y-25692700D02*
X51459600Y-25722700D01*
X51459600Y-25692700D02*
X51429600Y-25722700D01*
X51460000Y-24977900D02*
X51490000Y-25007900D01*
X51490000Y-24977900D02*
X51460000Y-25007900D01*
X51497200Y-30455800D02*
X51527200Y-30485800D01*
X51527200Y-30455800D02*
X51497200Y-30485800D01*
X51517400Y-24088400D02*
X51547400Y-24118400D01*
X51547400Y-24088400D02*
X51517400Y-24118400D01*
X51547400Y-25276500D02*
X51577400Y-25306500D01*
X51577400Y-25276500D02*
X51547400Y-25306500D01*
X51559300Y-29757500D02*
X51589300Y-29787500D01*
X51589300Y-29757500D02*
X51559300Y-29787500D01*
X51585000Y-25735000D02*
X51615000Y-25765000D01*
X51615000Y-25735000D02*
X51585000Y-25765000D01*
X51613800Y-24093400D02*
X51643800Y-24123400D01*
X51643800Y-24093400D02*
X51613800Y-24123400D01*
X51636400Y-23440500D02*
X51666400Y-23470500D01*
X51666400Y-23440500D02*
X51636400Y-23470500D01*
X51725900Y-26673000D02*
X51755900Y-26703000D01*
X51755900Y-26673000D02*
X51725900Y-26703000D01*
X51741800Y-24573600D02*
X51771800Y-24603600D01*
X51771800Y-24573600D02*
X51741800Y-24603600D01*
X51748500Y-26385500D02*
X51778500Y-26415500D01*
X51778500Y-26385500D02*
X51748500Y-26415500D01*
X51753400Y-23444200D02*
X51783400Y-23474200D01*
X51783400Y-23444200D02*
X51753400Y-23474200D01*
X51797100Y-23095500D02*
X51827100Y-23125500D01*
X51827100Y-23095500D02*
X51797100Y-23125500D01*
X51804300Y-26783400D02*
X51834300Y-26813400D01*
X51834300Y-26783400D02*
X51804300Y-26813400D01*
X51858100Y-23463800D02*
X51888100Y-23493800D01*
X51888100Y-23463800D02*
X51858100Y-23493800D01*
X51860000Y-26185000D02*
X51890000Y-26215000D01*
X51890000Y-26185000D02*
X51860000Y-26215000D01*
X51886800Y-25905600D02*
X51916800Y-25935600D01*
X51916800Y-25905600D02*
X51886800Y-25935600D01*
X51895900Y-28858200D02*
X51925900Y-28888200D01*
X51925900Y-28858200D02*
X51895900Y-28888200D01*
X51909100Y-27303800D02*
X51939100Y-27333800D01*
X51939100Y-27303800D02*
X51909100Y-27333800D01*
X52010000Y-26188100D02*
X52040000Y-26218100D01*
X52040000Y-26188100D02*
X52010000Y-26218100D01*
X52010000Y-26783900D02*
X52040000Y-26813900D01*
X52040000Y-26783900D02*
X52010000Y-26813900D01*
X52034400Y-24277400D02*
X52064400Y-24307400D01*
X52064400Y-24277400D02*
X52034400Y-24307400D01*
X52053700Y-27103300D02*
X52083700Y-27133300D01*
X52083700Y-27103300D02*
X52053700Y-27133300D01*
X52090000Y-26784900D02*
X52120000Y-26814900D01*
X52120000Y-26784900D02*
X52090000Y-26814900D01*
X52090600Y-27375400D02*
X52120600Y-27405400D01*
X52120600Y-27375400D02*
X52090600Y-27405400D01*
X52096200Y-26257500D02*
X52126200Y-26287500D01*
X52126200Y-26257500D02*
X52096200Y-26287500D01*
X52099600Y-24745500D02*
X52129600Y-24775500D01*
X52129600Y-24745500D02*
X52099600Y-24775500D01*
X52107300Y-25919900D02*
X52137300Y-25949900D01*
X52137300Y-25919900D02*
X52107300Y-25949900D01*
X52123100Y-27674200D02*
X52153100Y-27704200D01*
X52153100Y-27674200D02*
X52123100Y-27704200D01*
X52152900Y-26722800D02*
X52182900Y-26752800D01*
X52182900Y-26722800D02*
X52152900Y-26752800D01*
X52166800Y-24365700D02*
X52196800Y-24395700D01*
X52196800Y-24365700D02*
X52166800Y-24395700D01*
X52212900Y-26795400D02*
X52242900Y-26825400D01*
X52242900Y-26795400D02*
X52212900Y-26825400D01*
X52230300Y-26435000D02*
X52260300Y-26465000D01*
X52260300Y-26435000D02*
X52230300Y-26465000D01*
X52263100Y-26273200D02*
X52293100Y-26303200D01*
X52293100Y-26273200D02*
X52263100Y-26303200D01*
X52409300Y-26824200D02*
X52439300Y-26854200D01*
X52439300Y-26824200D02*
X52409300Y-26854200D01*
X52412800Y-25279300D02*
X52442800Y-25309300D01*
X52442800Y-25279300D02*
X52412800Y-25309300D01*
X52452700Y-26104800D02*
X52482700Y-26134800D01*
X52482700Y-26104800D02*
X52452700Y-26134800D01*
X52455700Y-23737300D02*
X52485700Y-23767300D01*
X52485700Y-23737300D02*
X52455700Y-23767300D01*
X52455700Y-24686000D02*
X52485700Y-24716000D01*
X52485700Y-24686000D02*
X52455700Y-24716000D01*
X52455700Y-25881300D02*
X52485700Y-25911300D01*
X52485700Y-25881300D02*
X52455700Y-25911300D01*
X52524200Y-25074500D02*
X52554200Y-25104500D01*
X52554200Y-25074500D02*
X52524200Y-25104500D01*
X52531000Y-26550800D02*
X52561000Y-26580800D01*
X52561000Y-26550800D02*
X52531000Y-26580800D01*
X52535400Y-25594000D02*
X52565400Y-25624000D01*
X52565400Y-25594000D02*
X52535400Y-25624000D01*
X52597300Y-26432200D02*
X52627300Y-26462200D01*
X52627300Y-26432200D02*
X52597300Y-26462200D01*
X52744300Y-26481600D02*
X52774300Y-26511600D01*
X52774300Y-26481600D02*
X52744300Y-26511600D01*
X37270000Y-27240400D02*
G75*
G02*
X37230000Y-27240400I-20000J0D01*
G01*
X37230000Y-27240400D02*
G75*
G02*
X37270000Y-27240400I20000J0D01*
G01*
X37270000Y-27759600D02*
G75*
G02*
X37230000Y-27759600I-20000J0D01*
G01*
X37230000Y-27759600D02*
G75*
G02*
X37270000Y-27759600I20000J0D01*
G01*
X37520000Y-27245900D02*
G75*
G02*
X37480000Y-27245900I-20000J0D01*
G01*
X37480000Y-27245900D02*
G75*
G02*
X37520000Y-27245900I20000J0D01*
G01*
X37520000Y-27760800D02*
G75*
G02*
X37480000Y-27760800I-20000J0D01*
G01*
X37480000Y-27760800D02*
G75*
G02*
X37520000Y-27760800I20000J0D01*
G01*
X37615200Y-27760500D02*
G75*
G02*
X37575200Y-27760500I-20000J0D01*
G01*
X37575200Y-27760500D02*
G75*
G02*
X37615200Y-27760500I20000J0D01*
G01*
X37678100Y-23010600D02*
G75*
G02*
X37638100Y-23010600I-20000J0D01*
G01*
X37638100Y-23010600D02*
G75*
G02*
X37678100Y-23010600I20000J0D01*
G01*
X37741500Y-24052300D02*
G75*
G02*
X37701500Y-24052300I-20000J0D01*
G01*
X37701500Y-24052300D02*
G75*
G02*
X37741500Y-24052300I20000J0D01*
G01*
X37770000Y-27239900D02*
G75*
G02*
X37730000Y-27239900I-20000J0D01*
G01*
X37730000Y-27239900D02*
G75*
G02*
X37770000Y-27239900I20000J0D01*
G01*
X38015000Y-27246600D02*
G75*
G02*
X37975000Y-27246600I-20000J0D01*
G01*
X37975000Y-27246600D02*
G75*
G02*
X38015000Y-27246600I20000J0D01*
G01*
X38049900Y-22965700D02*
G75*
G02*
X38009900Y-22965700I-20000J0D01*
G01*
X38009900Y-22965700D02*
G75*
G02*
X38049900Y-22965700I20000J0D01*
G01*
X38055000Y-27760400D02*
G75*
G02*
X38015000Y-27760400I-20000J0D01*
G01*
X38015000Y-27760400D02*
G75*
G02*
X38055000Y-27760400I20000J0D01*
G01*
X38058000Y-24051700D02*
G75*
G02*
X38018000Y-24051700I-20000J0D01*
G01*
X38018000Y-24051700D02*
G75*
G02*
X38058000Y-24051700I20000J0D01*
G01*
X38163200Y-24818500D02*
G75*
G02*
X38123200Y-24818500I-20000J0D01*
G01*
X38123200Y-24818500D02*
G75*
G02*
X38163200Y-24818500I20000J0D01*
G01*
X38240600Y-27760400D02*
G75*
G02*
X38200600Y-27760400I-20000J0D01*
G01*
X38200600Y-27760400D02*
G75*
G02*
X38240600Y-27760400I20000J0D01*
G01*
X38295000Y-24350000D02*
G75*
G02*
X38255000Y-24350000I-20000J0D01*
G01*
X38255000Y-24350000D02*
G75*
G02*
X38295000Y-24350000I20000J0D01*
G01*
X38370000Y-22938200D02*
G75*
G02*
X38330000Y-22938200I-20000J0D01*
G01*
X38330000Y-22938200D02*
G75*
G02*
X38370000Y-22938200I20000J0D01*
G01*
X38393600Y-27257400D02*
G75*
G02*
X38353600Y-27257400I-20000J0D01*
G01*
X38353600Y-27257400D02*
G75*
G02*
X38393600Y-27257400I20000J0D01*
G01*
X38420000Y-24816400D02*
G75*
G02*
X38380000Y-24816400I-20000J0D01*
G01*
X38380000Y-24816400D02*
G75*
G02*
X38420000Y-24816400I20000J0D01*
G01*
X38520000Y-27243800D02*
G75*
G02*
X38480000Y-27243800I-20000J0D01*
G01*
X38480000Y-27243800D02*
G75*
G02*
X38520000Y-27243800I20000J0D01*
G01*
X38520000Y-27759200D02*
G75*
G02*
X38480000Y-27759200I-20000J0D01*
G01*
X38480000Y-27759200D02*
G75*
G02*
X38520000Y-27759200I20000J0D01*
G01*
X38670000Y-24819700D02*
G75*
G02*
X38630000Y-24819700I-20000J0D01*
G01*
X38630000Y-24819700D02*
G75*
G02*
X38670000Y-24819700I20000J0D01*
G01*
X38770000Y-27241800D02*
G75*
G02*
X38730000Y-27241800I-20000J0D01*
G01*
X38730000Y-27241800D02*
G75*
G02*
X38770000Y-27241800I20000J0D01*
G01*
X38770000Y-27756900D02*
G75*
G02*
X38730000Y-27756900I-20000J0D01*
G01*
X38730000Y-27756900D02*
G75*
G02*
X38770000Y-27756900I20000J0D01*
G01*
X38778900Y-30443300D02*
G75*
G02*
X38738900Y-30443300I-20000J0D01*
G01*
X38738900Y-30443300D02*
G75*
G02*
X38778900Y-30443300I20000J0D01*
G01*
X38960500Y-24819700D02*
G75*
G02*
X38920500Y-24819700I-20000J0D01*
G01*
X38920500Y-24819700D02*
G75*
G02*
X38960500Y-24819700I20000J0D01*
G01*
X38975000Y-20958500D02*
G75*
G02*
X38935000Y-20958500I-20000J0D01*
G01*
X38935000Y-20958500D02*
G75*
G02*
X38975000Y-20958500I20000J0D01*
G01*
X39020000Y-27243100D02*
G75*
G02*
X38980000Y-27243100I-20000J0D01*
G01*
X38980000Y-27243100D02*
G75*
G02*
X39020000Y-27243100I20000J0D01*
G01*
X39020000Y-27760500D02*
G75*
G02*
X38980000Y-27760500I-20000J0D01*
G01*
X38980000Y-27760500D02*
G75*
G02*
X39020000Y-27760500I20000J0D01*
G01*
X39069800Y-30438400D02*
G75*
G02*
X39029800Y-30438400I-20000J0D01*
G01*
X39029800Y-30438400D02*
G75*
G02*
X39069800Y-30438400I20000J0D01*
G01*
X39170000Y-24818100D02*
G75*
G02*
X39130000Y-24818100I-20000J0D01*
G01*
X39130000Y-24818100D02*
G75*
G02*
X39170000Y-24818100I20000J0D01*
G01*
X39270000Y-27242900D02*
G75*
G02*
X39230000Y-27242900I-20000J0D01*
G01*
X39230000Y-27242900D02*
G75*
G02*
X39270000Y-27242900I20000J0D01*
G01*
X39298600Y-27760400D02*
G75*
G02*
X39258600Y-27760400I-20000J0D01*
G01*
X39258600Y-27760400D02*
G75*
G02*
X39298600Y-27760400I20000J0D01*
G01*
X39360000Y-30371300D02*
G75*
G02*
X39320000Y-30371300I-20000J0D01*
G01*
X39320000Y-30371300D02*
G75*
G02*
X39360000Y-30371300I20000J0D01*
G01*
X39420000Y-24817600D02*
G75*
G02*
X39380000Y-24817600I-20000J0D01*
G01*
X39380000Y-24817600D02*
G75*
G02*
X39420000Y-24817600I20000J0D01*
G01*
X39520000Y-27239500D02*
G75*
G02*
X39480000Y-27239500I-20000J0D01*
G01*
X39480000Y-27239500D02*
G75*
G02*
X39520000Y-27239500I20000J0D01*
G01*
X39520000Y-27756500D02*
G75*
G02*
X39480000Y-27756500I-20000J0D01*
G01*
X39480000Y-27756500D02*
G75*
G02*
X39520000Y-27756500I20000J0D01*
G01*
X39647500Y-30931800D02*
G75*
G02*
X39607500Y-30931800I-20000J0D01*
G01*
X39607500Y-30931800D02*
G75*
G02*
X39647500Y-30931800I20000J0D01*
G01*
X39670000Y-24818300D02*
G75*
G02*
X39630000Y-24818300I-20000J0D01*
G01*
X39630000Y-24818300D02*
G75*
G02*
X39670000Y-24818300I20000J0D01*
G01*
X39716600Y-27756300D02*
G75*
G02*
X39676600Y-27756300I-20000J0D01*
G01*
X39676600Y-27756300D02*
G75*
G02*
X39716600Y-27756300I20000J0D01*
G01*
X39770000Y-27239700D02*
G75*
G02*
X39730000Y-27239700I-20000J0D01*
G01*
X39730000Y-27239700D02*
G75*
G02*
X39770000Y-27239700I20000J0D01*
G01*
X39808000Y-19872800D02*
G75*
G02*
X39768000Y-19872800I-20000J0D01*
G01*
X39768000Y-19872800D02*
G75*
G02*
X39808000Y-19872800I20000J0D01*
G01*
X39920000Y-24800400D02*
G75*
G02*
X39880000Y-24800400I-20000J0D01*
G01*
X39880000Y-24800400D02*
G75*
G02*
X39920000Y-24800400I20000J0D01*
G01*
X39930000Y-31617800D02*
G75*
G02*
X39890000Y-31617800I-20000J0D01*
G01*
X39890000Y-31617800D02*
G75*
G02*
X39930000Y-31617800I20000J0D01*
G01*
X39930000Y-31768100D02*
G75*
G02*
X39890000Y-31768100I-20000J0D01*
G01*
X39890000Y-31768100D02*
G75*
G02*
X39930000Y-31768100I20000J0D01*
G01*
X39988200Y-27760400D02*
G75*
G02*
X39948200Y-27760400I-20000J0D01*
G01*
X39948200Y-27760400D02*
G75*
G02*
X39988200Y-27760400I20000J0D01*
G01*
X40020000Y-30783600D02*
G75*
G02*
X39980000Y-30783600I-20000J0D01*
G01*
X39980000Y-30783600D02*
G75*
G02*
X40020000Y-30783600I20000J0D01*
G01*
X40088400Y-27242300D02*
G75*
G02*
X40048400Y-27242300I-20000J0D01*
G01*
X40048400Y-27242300D02*
G75*
G02*
X40088400Y-27242300I20000J0D01*
G01*
X40170000Y-24819000D02*
G75*
G02*
X40130000Y-24819000I-20000J0D01*
G01*
X40130000Y-24819000D02*
G75*
G02*
X40170000Y-24819000I20000J0D01*
G01*
X40179500Y-23031100D02*
G75*
G02*
X40139500Y-23031100I-20000J0D01*
G01*
X40139500Y-23031100D02*
G75*
G02*
X40179500Y-23031100I20000J0D01*
G01*
X40181300Y-23900000D02*
G75*
G02*
X40141300Y-23900000I-20000J0D01*
G01*
X40141300Y-23900000D02*
G75*
G02*
X40181300Y-23900000I20000J0D01*
G01*
X40270000Y-27239300D02*
G75*
G02*
X40230000Y-27239300I-20000J0D01*
G01*
X40230000Y-27239300D02*
G75*
G02*
X40270000Y-27239300I20000J0D01*
G01*
X40270000Y-27758700D02*
G75*
G02*
X40230000Y-27758700I-20000J0D01*
G01*
X40230000Y-27758700D02*
G75*
G02*
X40270000Y-27758700I20000J0D01*
G01*
X40301800Y-21752700D02*
G75*
G02*
X40261800Y-21752700I-20000J0D01*
G01*
X40261800Y-21752700D02*
G75*
G02*
X40301800Y-21752700I20000J0D01*
G01*
X40420000Y-24819500D02*
G75*
G02*
X40380000Y-24819500I-20000J0D01*
G01*
X40380000Y-24819500D02*
G75*
G02*
X40420000Y-24819500I20000J0D01*
G01*
X40520000Y-27238900D02*
G75*
G02*
X40480000Y-27238900I-20000J0D01*
G01*
X40480000Y-27238900D02*
G75*
G02*
X40520000Y-27238900I20000J0D01*
G01*
X40520000Y-27757800D02*
G75*
G02*
X40480000Y-27757800I-20000J0D01*
G01*
X40480000Y-27757800D02*
G75*
G02*
X40520000Y-27757800I20000J0D01*
G01*
X40524500Y-26768500D02*
G75*
G02*
X40484500Y-26768500I-20000J0D01*
G01*
X40484500Y-26768500D02*
G75*
G02*
X40524500Y-26768500I20000J0D01*
G01*
X40545000Y-22874500D02*
G75*
G02*
X40505000Y-22874500I-20000J0D01*
G01*
X40505000Y-22874500D02*
G75*
G02*
X40545000Y-22874500I20000J0D01*
G01*
X40548700Y-28958600D02*
G75*
G02*
X40508700Y-28958600I-20000J0D01*
G01*
X40508700Y-28958600D02*
G75*
G02*
X40548700Y-28958600I20000J0D01*
G01*
X40570000Y-24050000D02*
G75*
G02*
X40530000Y-24050000I-20000J0D01*
G01*
X40530000Y-24050000D02*
G75*
G02*
X40570000Y-24050000I20000J0D01*
G01*
X40573900Y-31937600D02*
G75*
G02*
X40533900Y-31937600I-20000J0D01*
G01*
X40533900Y-31937600D02*
G75*
G02*
X40573900Y-31937600I20000J0D01*
G01*
X40710200Y-24818800D02*
G75*
G02*
X40670200Y-24818800I-20000J0D01*
G01*
X40670200Y-24818800D02*
G75*
G02*
X40710200Y-24818800I20000J0D01*
G01*
X40747400Y-27758500D02*
G75*
G02*
X40707400Y-27758500I-20000J0D01*
G01*
X40707400Y-27758500D02*
G75*
G02*
X40747400Y-27758500I20000J0D01*
G01*
X40748500Y-24059800D02*
G75*
G02*
X40708500Y-24059800I-20000J0D01*
G01*
X40708500Y-24059800D02*
G75*
G02*
X40748500Y-24059800I20000J0D01*
G01*
X40770000Y-27244000D02*
G75*
G02*
X40730000Y-27244000I-20000J0D01*
G01*
X40730000Y-27244000D02*
G75*
G02*
X40770000Y-27244000I20000J0D01*
G01*
X40792900Y-20586900D02*
G75*
G02*
X40752900Y-20586900I-20000J0D01*
G01*
X40752900Y-20586900D02*
G75*
G02*
X40792900Y-20586900I20000J0D01*
G01*
X40857600Y-31615700D02*
G75*
G02*
X40817600Y-31615700I-20000J0D01*
G01*
X40817600Y-31615700D02*
G75*
G02*
X40857600Y-31615700I20000J0D01*
G01*
X40892900Y-30877200D02*
G75*
G02*
X40852900Y-30877200I-20000J0D01*
G01*
X40852900Y-30877200D02*
G75*
G02*
X40892900Y-30877200I20000J0D01*
G01*
X40905100Y-21341200D02*
G75*
G02*
X40865100Y-21341200I-20000J0D01*
G01*
X40865100Y-21341200D02*
G75*
G02*
X40905100Y-21341200I20000J0D01*
G01*
X40920000Y-23050000D02*
G75*
G02*
X40880000Y-23050000I-20000J0D01*
G01*
X40880000Y-23050000D02*
G75*
G02*
X40920000Y-23050000I20000J0D01*
G01*
X40920000Y-24818800D02*
G75*
G02*
X40880000Y-24818800I-20000J0D01*
G01*
X40880000Y-24818800D02*
G75*
G02*
X40920000Y-24818800I20000J0D01*
G01*
X41020000Y-27240300D02*
G75*
G02*
X40980000Y-27240300I-20000J0D01*
G01*
X40980000Y-27240300D02*
G75*
G02*
X41020000Y-27240300I20000J0D01*
G01*
X41020000Y-27758900D02*
G75*
G02*
X40980000Y-27758900I-20000J0D01*
G01*
X40980000Y-27758900D02*
G75*
G02*
X41020000Y-27758900I20000J0D01*
G01*
X41070000Y-32250000D02*
G75*
G02*
X41030000Y-32250000I-20000J0D01*
G01*
X41030000Y-32250000D02*
G75*
G02*
X41070000Y-32250000I20000J0D01*
G01*
X41169400Y-28635800D02*
G75*
G02*
X41129400Y-28635800I-20000J0D01*
G01*
X41129400Y-28635800D02*
G75*
G02*
X41169400Y-28635800I20000J0D01*
G01*
X41170200Y-24819800D02*
G75*
G02*
X41130200Y-24819800I-20000J0D01*
G01*
X41130200Y-24819800D02*
G75*
G02*
X41170200Y-24819800I20000J0D01*
G01*
X41220100Y-27756300D02*
G75*
G02*
X41180100Y-27756300I-20000J0D01*
G01*
X41180100Y-27756300D02*
G75*
G02*
X41220100Y-27756300I20000J0D01*
G01*
X41270200Y-27237700D02*
G75*
G02*
X41230200Y-27237700I-20000J0D01*
G01*
X41230200Y-27237700D02*
G75*
G02*
X41270200Y-27237700I20000J0D01*
G01*
X41331600Y-26720500D02*
G75*
G02*
X41291600Y-26720500I-20000J0D01*
G01*
X41291600Y-26720500D02*
G75*
G02*
X41331600Y-26720500I20000J0D01*
G01*
X41393100Y-31868700D02*
G75*
G02*
X41353100Y-31868700I-20000J0D01*
G01*
X41353100Y-31868700D02*
G75*
G02*
X41393100Y-31868700I20000J0D01*
G01*
X41400100Y-24733000D02*
G75*
G02*
X41360100Y-24733000I-20000J0D01*
G01*
X41360100Y-24733000D02*
G75*
G02*
X41400100Y-24733000I20000J0D01*
G01*
X41462700Y-32206300D02*
G75*
G02*
X41422700Y-32206300I-20000J0D01*
G01*
X41422700Y-32206300D02*
G75*
G02*
X41462700Y-32206300I20000J0D01*
G01*
X41466200Y-31260000D02*
G75*
G02*
X41426200Y-31260000I-20000J0D01*
G01*
X41426200Y-31260000D02*
G75*
G02*
X41466200Y-31260000I20000J0D01*
G01*
X41488000Y-27756300D02*
G75*
G02*
X41448000Y-27756300I-20000J0D01*
G01*
X41448000Y-27756300D02*
G75*
G02*
X41488000Y-27756300I20000J0D01*
G01*
X41520000Y-27238200D02*
G75*
G02*
X41480000Y-27238200I-20000J0D01*
G01*
X41480000Y-27238200D02*
G75*
G02*
X41520000Y-27238200I20000J0D01*
G01*
X41733600Y-24834800D02*
G75*
G02*
X41693600Y-24834800I-20000J0D01*
G01*
X41693600Y-24834800D02*
G75*
G02*
X41733600Y-24834800I20000J0D01*
G01*
X41736100Y-24598200D02*
G75*
G02*
X41696100Y-24598200I-20000J0D01*
G01*
X41696100Y-24598200D02*
G75*
G02*
X41736100Y-24598200I20000J0D01*
G01*
X41746600Y-27760400D02*
G75*
G02*
X41706600Y-27760400I-20000J0D01*
G01*
X41706600Y-27760400D02*
G75*
G02*
X41746600Y-27760400I20000J0D01*
G01*
X41770000Y-27241700D02*
G75*
G02*
X41730000Y-27241700I-20000J0D01*
G01*
X41730000Y-27241700D02*
G75*
G02*
X41770000Y-27241700I20000J0D01*
G01*
X41770000Y-32710200D02*
G75*
G02*
X41730000Y-32710200I-20000J0D01*
G01*
X41730000Y-32710200D02*
G75*
G02*
X41770000Y-32710200I20000J0D01*
G01*
X41865000Y-19630600D02*
G75*
G02*
X41825000Y-19630600I-20000J0D01*
G01*
X41825000Y-19630600D02*
G75*
G02*
X41865000Y-19630600I20000J0D01*
G01*
X41865000Y-31623100D02*
G75*
G02*
X41825000Y-31623100I-20000J0D01*
G01*
X41825000Y-31623100D02*
G75*
G02*
X41865000Y-31623100I20000J0D01*
G01*
X41865000Y-31863900D02*
G75*
G02*
X41825000Y-31863900I-20000J0D01*
G01*
X41825000Y-31863900D02*
G75*
G02*
X41865000Y-31863900I20000J0D01*
G01*
X42020000Y-27245400D02*
G75*
G02*
X41980000Y-27245400I-20000J0D01*
G01*
X41980000Y-27245400D02*
G75*
G02*
X42020000Y-27245400I20000J0D01*
G01*
X42020000Y-27758600D02*
G75*
G02*
X41980000Y-27758600I-20000J0D01*
G01*
X41980000Y-27758600D02*
G75*
G02*
X42020000Y-27758600I20000J0D01*
G01*
X42020000Y-28782400D02*
G75*
G02*
X41980000Y-28782400I-20000J0D01*
G01*
X41980000Y-28782400D02*
G75*
G02*
X42020000Y-28782400I20000J0D01*
G01*
X42170000Y-24818600D02*
G75*
G02*
X42130000Y-24818600I-20000J0D01*
G01*
X42130000Y-24818600D02*
G75*
G02*
X42170000Y-24818600I20000J0D01*
G01*
X42193200Y-25181200D02*
G75*
G02*
X42153200Y-25181200I-20000J0D01*
G01*
X42153200Y-25181200D02*
G75*
G02*
X42193200Y-25181200I20000J0D01*
G01*
X42270000Y-27237300D02*
G75*
G02*
X42230000Y-27237300I-20000J0D01*
G01*
X42230000Y-27237300D02*
G75*
G02*
X42270000Y-27237300I20000J0D01*
G01*
X42270000Y-27757000D02*
G75*
G02*
X42230000Y-27757000I-20000J0D01*
G01*
X42230000Y-27757000D02*
G75*
G02*
X42270000Y-27757000I20000J0D01*
G01*
X42315900Y-21183400D02*
G75*
G02*
X42275900Y-21183400I-20000J0D01*
G01*
X42275900Y-21183400D02*
G75*
G02*
X42315900Y-21183400I20000J0D01*
G01*
X42316200Y-20513200D02*
G75*
G02*
X42276200Y-20513200I-20000J0D01*
G01*
X42276200Y-20513200D02*
G75*
G02*
X42316200Y-20513200I20000J0D01*
G01*
X42317700Y-22011600D02*
G75*
G02*
X42277700Y-22011600I-20000J0D01*
G01*
X42277700Y-22011600D02*
G75*
G02*
X42317700Y-22011600I20000J0D01*
G01*
X42520000Y-27243200D02*
G75*
G02*
X42480000Y-27243200I-20000J0D01*
G01*
X42480000Y-27243200D02*
G75*
G02*
X42520000Y-27243200I20000J0D01*
G01*
X42564300Y-27756300D02*
G75*
G02*
X42524300Y-27756300I-20000J0D01*
G01*
X42524300Y-27756300D02*
G75*
G02*
X42564300Y-27756300I20000J0D01*
G01*
X42670000Y-24819000D02*
G75*
G02*
X42630000Y-24819000I-20000J0D01*
G01*
X42630000Y-24819000D02*
G75*
G02*
X42670000Y-24819000I20000J0D01*
G01*
X42742700Y-27760400D02*
G75*
G02*
X42702700Y-27760400I-20000J0D01*
G01*
X42702700Y-27760400D02*
G75*
G02*
X42742700Y-27760400I20000J0D01*
G01*
X42770000Y-27246600D02*
G75*
G02*
X42730000Y-27246600I-20000J0D01*
G01*
X42730000Y-27246600D02*
G75*
G02*
X42770000Y-27246600I20000J0D01*
G01*
X42902500Y-31859600D02*
G75*
G02*
X42862500Y-31859600I-20000J0D01*
G01*
X42862500Y-31859600D02*
G75*
G02*
X42902500Y-31859600I20000J0D01*
G01*
X42920000Y-24750000D02*
G75*
G02*
X42880000Y-24750000I-20000J0D01*
G01*
X42880000Y-24750000D02*
G75*
G02*
X42920000Y-24750000I20000J0D01*
G01*
X42928400Y-23989100D02*
G75*
G02*
X42888400Y-23989100I-20000J0D01*
G01*
X42888400Y-23989100D02*
G75*
G02*
X42928400Y-23989100I20000J0D01*
G01*
X42930600Y-23052900D02*
G75*
G02*
X42890600Y-23052900I-20000J0D01*
G01*
X42890600Y-23052900D02*
G75*
G02*
X42930600Y-23052900I20000J0D01*
G01*
X42950000Y-32320000D02*
G75*
G02*
X42910000Y-32320000I-20000J0D01*
G01*
X42910000Y-32320000D02*
G75*
G02*
X42950000Y-32320000I20000J0D01*
G01*
X42982300Y-27760400D02*
G75*
G02*
X42942300Y-27760400I-20000J0D01*
G01*
X42942300Y-27760400D02*
G75*
G02*
X42982300Y-27760400I20000J0D01*
G01*
X43020000Y-18000000D02*
G75*
G02*
X42980000Y-18000000I-20000J0D01*
G01*
X42980000Y-18000000D02*
G75*
G02*
X43020000Y-18000000I20000J0D01*
G01*
X43020000Y-27241700D02*
G75*
G02*
X42980000Y-27241700I-20000J0D01*
G01*
X42980000Y-27241700D02*
G75*
G02*
X43020000Y-27241700I20000J0D01*
G01*
X43020000Y-29862400D02*
G75*
G02*
X42980000Y-29862400I-20000J0D01*
G01*
X42980000Y-29862400D02*
G75*
G02*
X43020000Y-29862400I20000J0D01*
G01*
X43170000Y-24817800D02*
G75*
G02*
X43130000Y-24817800I-20000J0D01*
G01*
X43130000Y-24817800D02*
G75*
G02*
X43170000Y-24817800I20000J0D01*
G01*
X43256300Y-27240400D02*
G75*
G02*
X43216300Y-27240400I-20000J0D01*
G01*
X43216300Y-27240400D02*
G75*
G02*
X43256300Y-27240400I20000J0D01*
G01*
X43278300Y-22947600D02*
G75*
G02*
X43238300Y-22947600I-20000J0D01*
G01*
X43238300Y-22947600D02*
G75*
G02*
X43278300Y-22947600I20000J0D01*
G01*
X43290400Y-27756300D02*
G75*
G02*
X43250400Y-27756300I-20000J0D01*
G01*
X43250400Y-27756300D02*
G75*
G02*
X43290400Y-27756300I20000J0D01*
G01*
X43298500Y-24046400D02*
G75*
G02*
X43258500Y-24046400I-20000J0D01*
G01*
X43258500Y-24046400D02*
G75*
G02*
X43298500Y-24046400I20000J0D01*
G01*
X43380200Y-31275900D02*
G75*
G02*
X43340200Y-31275900I-20000J0D01*
G01*
X43340200Y-31275900D02*
G75*
G02*
X43380200Y-31275900I20000J0D01*
G01*
X43404500Y-29314100D02*
G75*
G02*
X43364500Y-29314100I-20000J0D01*
G01*
X43364500Y-29314100D02*
G75*
G02*
X43404500Y-29314100I20000J0D01*
G01*
X43425200Y-24818600D02*
G75*
G02*
X43385200Y-24818600I-20000J0D01*
G01*
X43385200Y-24818600D02*
G75*
G02*
X43425200Y-24818600I20000J0D01*
G01*
X43430600Y-27756300D02*
G75*
G02*
X43390600Y-27756300I-20000J0D01*
G01*
X43390600Y-27756300D02*
G75*
G02*
X43430600Y-27756300I20000J0D01*
G01*
X43520000Y-27243300D02*
G75*
G02*
X43480000Y-27243300I-20000J0D01*
G01*
X43480000Y-27243300D02*
G75*
G02*
X43520000Y-27243300I20000J0D01*
G01*
X43539200Y-24117400D02*
G75*
G02*
X43499200Y-24117400I-20000J0D01*
G01*
X43499200Y-24117400D02*
G75*
G02*
X43539200Y-24117400I20000J0D01*
G01*
X43611900Y-23136200D02*
G75*
G02*
X43571900Y-23136200I-20000J0D01*
G01*
X43571900Y-23136200D02*
G75*
G02*
X43611900Y-23136200I20000J0D01*
G01*
X43659800Y-17882800D02*
G75*
G02*
X43619800Y-17882800I-20000J0D01*
G01*
X43619800Y-17882800D02*
G75*
G02*
X43659800Y-17882800I20000J0D01*
G01*
X43659800Y-18117800D02*
G75*
G02*
X43619800Y-18117800I-20000J0D01*
G01*
X43619800Y-18117800D02*
G75*
G02*
X43659800Y-18117800I20000J0D01*
G01*
X43670000Y-24818800D02*
G75*
G02*
X43630000Y-24818800I-20000J0D01*
G01*
X43630000Y-24818800D02*
G75*
G02*
X43670000Y-24818800I20000J0D01*
G01*
X43770000Y-27242900D02*
G75*
G02*
X43730000Y-27242900I-20000J0D01*
G01*
X43730000Y-27242900D02*
G75*
G02*
X43770000Y-27242900I20000J0D01*
G01*
X43770000Y-27759900D02*
G75*
G02*
X43730000Y-27759900I-20000J0D01*
G01*
X43730000Y-27759900D02*
G75*
G02*
X43770000Y-27759900I20000J0D01*
G01*
X43841400Y-31758400D02*
G75*
G02*
X43801400Y-31758400I-20000J0D01*
G01*
X43801400Y-31758400D02*
G75*
G02*
X43841400Y-31758400I20000J0D01*
G01*
X43948400Y-24819600D02*
G75*
G02*
X43908400Y-24819600I-20000J0D01*
G01*
X43908400Y-24819600D02*
G75*
G02*
X43948400Y-24819600I20000J0D01*
G01*
X44019800Y-27242400D02*
G75*
G02*
X43979800Y-27242400I-20000J0D01*
G01*
X43979800Y-27242400D02*
G75*
G02*
X44019800Y-27242400I20000J0D01*
G01*
X44020000Y-27758200D02*
G75*
G02*
X43980000Y-27758200I-20000J0D01*
G01*
X43980000Y-27758200D02*
G75*
G02*
X44020000Y-27758200I20000J0D01*
G01*
X44170000Y-24819700D02*
G75*
G02*
X44130000Y-24819700I-20000J0D01*
G01*
X44130000Y-24819700D02*
G75*
G02*
X44170000Y-24819700I20000J0D01*
G01*
X44420000Y-24819200D02*
G75*
G02*
X44380000Y-24819200I-20000J0D01*
G01*
X44380000Y-24819200D02*
G75*
G02*
X44420000Y-24819200I20000J0D01*
G01*
X44450200Y-19393100D02*
G75*
G02*
X44410200Y-19393100I-20000J0D01*
G01*
X44410200Y-19393100D02*
G75*
G02*
X44450200Y-19393100I20000J0D01*
G01*
X44577000Y-22273000D02*
G75*
G02*
X44537000Y-22273000I-20000J0D01*
G01*
X44537000Y-22273000D02*
G75*
G02*
X44577000Y-22273000I20000J0D01*
G01*
X44659500Y-28272200D02*
G75*
G02*
X44619500Y-28272200I-20000J0D01*
G01*
X44619500Y-28272200D02*
G75*
G02*
X44659500Y-28272200I20000J0D01*
G01*
X44670000Y-24817500D02*
G75*
G02*
X44630000Y-24817500I-20000J0D01*
G01*
X44630000Y-24817500D02*
G75*
G02*
X44670000Y-24817500I20000J0D01*
G01*
X44920000Y-24816600D02*
G75*
G02*
X44880000Y-24816600I-20000J0D01*
G01*
X44880000Y-24816600D02*
G75*
G02*
X44920000Y-24816600I20000J0D01*
G01*
X45040900Y-29754900D02*
G75*
G02*
X45000900Y-29754900I-20000J0D01*
G01*
X45000900Y-29754900D02*
G75*
G02*
X45040900Y-29754900I20000J0D01*
G01*
X45060200Y-17907200D02*
G75*
G02*
X45020200Y-17907200I-20000J0D01*
G01*
X45020200Y-17907200D02*
G75*
G02*
X45060200Y-17907200I20000J0D01*
G01*
X45063400Y-20294800D02*
G75*
G02*
X45023400Y-20294800I-20000J0D01*
G01*
X45023400Y-20294800D02*
G75*
G02*
X45063400Y-20294800I20000J0D01*
G01*
X45070000Y-25180200D02*
G75*
G02*
X45030000Y-25180200I-20000J0D01*
G01*
X45030000Y-25180200D02*
G75*
G02*
X45070000Y-25180200I20000J0D01*
G01*
X45107500Y-28924500D02*
G75*
G02*
X45067500Y-28924500I-20000J0D01*
G01*
X45067500Y-28924500D02*
G75*
G02*
X45107500Y-28924500I20000J0D01*
G01*
X45110000Y-19122700D02*
G75*
G02*
X45070000Y-19122700I-20000J0D01*
G01*
X45070000Y-19122700D02*
G75*
G02*
X45110000Y-19122700I20000J0D01*
G01*
X45110000Y-30626800D02*
G75*
G02*
X45070000Y-30626800I-20000J0D01*
G01*
X45070000Y-30626800D02*
G75*
G02*
X45110000Y-30626800I20000J0D01*
G01*
X45115000Y-33132300D02*
G75*
G02*
X45075000Y-33132300I-20000J0D01*
G01*
X45075000Y-33132300D02*
G75*
G02*
X45115000Y-33132300I20000J0D01*
G01*
X45261700Y-31519000D02*
G75*
G02*
X45221700Y-31519000I-20000J0D01*
G01*
X45221700Y-31519000D02*
G75*
G02*
X45261700Y-31519000I20000J0D01*
G01*
X45262600Y-32250000D02*
G75*
G02*
X45222600Y-32250000I-20000J0D01*
G01*
X45222600Y-32250000D02*
G75*
G02*
X45262600Y-32250000I20000J0D01*
G01*
X45276100Y-18198100D02*
G75*
G02*
X45236100Y-18198100I-20000J0D01*
G01*
X45236100Y-18198100D02*
G75*
G02*
X45276100Y-18198100I20000J0D01*
G01*
X45320000Y-25182800D02*
G75*
G02*
X45280000Y-25182800I-20000J0D01*
G01*
X45280000Y-25182800D02*
G75*
G02*
X45320000Y-25182800I20000J0D01*
G01*
X45570000Y-25180800D02*
G75*
G02*
X45530000Y-25180800I-20000J0D01*
G01*
X45530000Y-25180800D02*
G75*
G02*
X45570000Y-25180800I20000J0D01*
G01*
X45833700Y-25136300D02*
G75*
G02*
X45793700Y-25136300I-20000J0D01*
G01*
X45793700Y-25136300D02*
G75*
G02*
X45833700Y-25136300I20000J0D01*
G01*
X45879600Y-22319400D02*
G75*
G02*
X45839600Y-22319400I-20000J0D01*
G01*
X45839600Y-22319400D02*
G75*
G02*
X45879600Y-22319400I20000J0D01*
G01*
X45947200Y-19393000D02*
G75*
G02*
X45907200Y-19393000I-20000J0D01*
G01*
X45907200Y-19393000D02*
G75*
G02*
X45947200Y-19393000I20000J0D01*
G01*
X46013100Y-31765400D02*
G75*
G02*
X45973100Y-31765400I-20000J0D01*
G01*
X45973100Y-31765400D02*
G75*
G02*
X46013100Y-31765400I20000J0D01*
G01*
X46020000Y-22758900D02*
G75*
G02*
X45980000Y-22758900I-20000J0D01*
G01*
X45980000Y-22758900D02*
G75*
G02*
X46020000Y-22758900I20000J0D01*
G01*
X46070000Y-25182000D02*
G75*
G02*
X46030000Y-25182000I-20000J0D01*
G01*
X46030000Y-25182000D02*
G75*
G02*
X46070000Y-25182000I20000J0D01*
G01*
X46209543Y-28660460D02*
G75*
G02*
X46169543Y-28660460I-20000J0D01*
G01*
X46169543Y-28660460D02*
G75*
G02*
X46209543Y-28660460I20000J0D01*
G01*
X46215700Y-18100000D02*
G75*
G02*
X46175700Y-18100000I-20000J0D01*
G01*
X46175700Y-18100000D02*
G75*
G02*
X46215700Y-18100000I20000J0D01*
G01*
X46250800Y-22240900D02*
G75*
G02*
X46210800Y-22240900I-20000J0D01*
G01*
X46210800Y-22240900D02*
G75*
G02*
X46250800Y-22240900I20000J0D01*
G01*
X46270000Y-22758400D02*
G75*
G02*
X46230000Y-22758400I-20000J0D01*
G01*
X46230000Y-22758400D02*
G75*
G02*
X46270000Y-22758400I20000J0D01*
G01*
X46345600Y-25180300D02*
G75*
G02*
X46305600Y-25180300I-20000J0D01*
G01*
X46305600Y-25180300D02*
G75*
G02*
X46345600Y-25180300I20000J0D01*
G01*
X46370000Y-27800000D02*
G75*
G02*
X46330000Y-27800000I-20000J0D01*
G01*
X46330000Y-27800000D02*
G75*
G02*
X46370000Y-27800000I20000J0D01*
G01*
X46380200Y-31283000D02*
G75*
G02*
X46340200Y-31283000I-20000J0D01*
G01*
X46340200Y-31283000D02*
G75*
G02*
X46380200Y-31283000I20000J0D01*
G01*
X46392900Y-32281400D02*
G75*
G02*
X46352900Y-32281400I-20000J0D01*
G01*
X46352900Y-32281400D02*
G75*
G02*
X46392900Y-32281400I20000J0D01*
G01*
X46404500Y-29324900D02*
G75*
G02*
X46364500Y-29324900I-20000J0D01*
G01*
X46364500Y-29324900D02*
G75*
G02*
X46404500Y-29324900I20000J0D01*
G01*
X46430600Y-26865300D02*
G75*
G02*
X46390600Y-26865300I-20000J0D01*
G01*
X46390600Y-26865300D02*
G75*
G02*
X46430600Y-26865300I20000J0D01*
G01*
X46495200Y-25952400D02*
G75*
G02*
X46455200Y-25952400I-20000J0D01*
G01*
X46455200Y-25952400D02*
G75*
G02*
X46495200Y-25952400I20000J0D01*
G01*
X46520000Y-22239200D02*
G75*
G02*
X46480000Y-22239200I-20000J0D01*
G01*
X46480000Y-22239200D02*
G75*
G02*
X46520000Y-22239200I20000J0D01*
G01*
X46520000Y-22753300D02*
G75*
G02*
X46480000Y-22753300I-20000J0D01*
G01*
X46480000Y-22753300D02*
G75*
G02*
X46520000Y-22753300I20000J0D01*
G01*
X46570000Y-25181200D02*
G75*
G02*
X46530000Y-25181200I-20000J0D01*
G01*
X46530000Y-25181200D02*
G75*
G02*
X46570000Y-25181200I20000J0D01*
G01*
X46659800Y-17882800D02*
G75*
G02*
X46619800Y-17882800I-20000J0D01*
G01*
X46619800Y-17882800D02*
G75*
G02*
X46659800Y-17882800I20000J0D01*
G01*
X46659800Y-18117400D02*
G75*
G02*
X46619800Y-18117400I-20000J0D01*
G01*
X46619800Y-18117400D02*
G75*
G02*
X46659800Y-18117400I20000J0D01*
G01*
X46745000Y-25944900D02*
G75*
G02*
X46705000Y-25944900I-20000J0D01*
G01*
X46705000Y-25944900D02*
G75*
G02*
X46745000Y-25944900I20000J0D01*
G01*
X46745000Y-27053500D02*
G75*
G02*
X46705000Y-27053500I-20000J0D01*
G01*
X46705000Y-27053500D02*
G75*
G02*
X46745000Y-27053500I20000J0D01*
G01*
X46765500Y-25000300D02*
G75*
G02*
X46725500Y-25000300I-20000J0D01*
G01*
X46725500Y-25000300D02*
G75*
G02*
X46765500Y-25000300I20000J0D01*
G01*
X46770000Y-22759600D02*
G75*
G02*
X46730000Y-22759600I-20000J0D01*
G01*
X46730000Y-22759600D02*
G75*
G02*
X46770000Y-22759600I20000J0D01*
G01*
X46805800Y-19960400D02*
G75*
G02*
X46765800Y-19960400I-20000J0D01*
G01*
X46765800Y-19960400D02*
G75*
G02*
X46805800Y-19960400I20000J0D01*
G01*
X46858100Y-31863500D02*
G75*
G02*
X46818100Y-31863500I-20000J0D01*
G01*
X46818100Y-31863500D02*
G75*
G02*
X46858100Y-31863500I20000J0D01*
G01*
X46881100Y-22242900D02*
G75*
G02*
X46841100Y-22242900I-20000J0D01*
G01*
X46841100Y-22242900D02*
G75*
G02*
X46881100Y-22242900I20000J0D01*
G01*
X46925000Y-21129800D02*
G75*
G02*
X46885000Y-21129800I-20000J0D01*
G01*
X46885000Y-21129800D02*
G75*
G02*
X46925000Y-21129800I20000J0D01*
G01*
X46925000Y-21868400D02*
G75*
G02*
X46885000Y-21868400I-20000J0D01*
G01*
X46885000Y-21868400D02*
G75*
G02*
X46925000Y-21868400I20000J0D01*
G01*
X47020000Y-22760500D02*
G75*
G02*
X46980000Y-22760500I-20000J0D01*
G01*
X46980000Y-22760500D02*
G75*
G02*
X47020000Y-22760500I20000J0D01*
G01*
X47048500Y-25950300D02*
G75*
G02*
X47008500Y-25950300I-20000J0D01*
G01*
X47008500Y-25950300D02*
G75*
G02*
X47048500Y-25950300I20000J0D01*
G01*
X47057400Y-22242900D02*
G75*
G02*
X47017400Y-22242900I-20000J0D01*
G01*
X47017400Y-22242900D02*
G75*
G02*
X47057400Y-22242900I20000J0D01*
G01*
X47070000Y-25182300D02*
G75*
G02*
X47030000Y-25182300I-20000J0D01*
G01*
X47030000Y-25182300D02*
G75*
G02*
X47070000Y-25182300I20000J0D01*
G01*
X47122000Y-30145300D02*
G75*
G02*
X47082000Y-30145300I-20000J0D01*
G01*
X47082000Y-30145300D02*
G75*
G02*
X47122000Y-30145300I20000J0D01*
G01*
X47244800Y-26950000D02*
G75*
G02*
X47204800Y-26950000I-20000J0D01*
G01*
X47204800Y-26950000D02*
G75*
G02*
X47244800Y-26950000I20000J0D01*
G01*
X47270000Y-22756200D02*
G75*
G02*
X47230000Y-22756200I-20000J0D01*
G01*
X47230000Y-22756200D02*
G75*
G02*
X47270000Y-22756200I20000J0D01*
G01*
X47298300Y-22238900D02*
G75*
G02*
X47258300Y-22238900I-20000J0D01*
G01*
X47258300Y-22238900D02*
G75*
G02*
X47298300Y-22238900I20000J0D01*
G01*
X47320000Y-25181600D02*
G75*
G02*
X47280000Y-25181600I-20000J0D01*
G01*
X47280000Y-25181600D02*
G75*
G02*
X47320000Y-25181600I20000J0D01*
G01*
X47425000Y-18869300D02*
G75*
G02*
X47385000Y-18869300I-20000J0D01*
G01*
X47385000Y-18869300D02*
G75*
G02*
X47425000Y-18869300I20000J0D01*
G01*
X47484200Y-22754800D02*
G75*
G02*
X47444200Y-22754800I-20000J0D01*
G01*
X47444200Y-22754800D02*
G75*
G02*
X47484200Y-22754800I20000J0D01*
G01*
X47489200Y-22238500D02*
G75*
G02*
X47449200Y-22238500I-20000J0D01*
G01*
X47449200Y-22238500D02*
G75*
G02*
X47489200Y-22238500I20000J0D01*
G01*
X47575000Y-25273800D02*
G75*
G02*
X47535000Y-25273800I-20000J0D01*
G01*
X47535000Y-25273800D02*
G75*
G02*
X47575000Y-25273800I20000J0D01*
G01*
X47644400Y-18415400D02*
G75*
G02*
X47604400Y-18415400I-20000J0D01*
G01*
X47604400Y-18415400D02*
G75*
G02*
X47644400Y-18415400I20000J0D01*
G01*
X47675000Y-20626200D02*
G75*
G02*
X47635000Y-20626200I-20000J0D01*
G01*
X47635000Y-20626200D02*
G75*
G02*
X47675000Y-20626200I20000J0D01*
G01*
X47675000Y-21868200D02*
G75*
G02*
X47635000Y-21868200I-20000J0D01*
G01*
X47635000Y-21868200D02*
G75*
G02*
X47675000Y-21868200I20000J0D01*
G01*
X47717200Y-21121000D02*
G75*
G02*
X47677200Y-21121000I-20000J0D01*
G01*
X47677200Y-21121000D02*
G75*
G02*
X47717200Y-21121000I20000J0D01*
G01*
X47747200Y-22238900D02*
G75*
G02*
X47707200Y-22238900I-20000J0D01*
G01*
X47707200Y-22238900D02*
G75*
G02*
X47747200Y-22238900I20000J0D01*
G01*
X47770000Y-22755800D02*
G75*
G02*
X47730000Y-22755800I-20000J0D01*
G01*
X47730000Y-22755800D02*
G75*
G02*
X47770000Y-22755800I20000J0D01*
G01*
X47820000Y-25182100D02*
G75*
G02*
X47780000Y-25182100I-20000J0D01*
G01*
X47780000Y-25182100D02*
G75*
G02*
X47820000Y-25182100I20000J0D01*
G01*
X48020000Y-22237800D02*
G75*
G02*
X47980000Y-22237800I-20000J0D01*
G01*
X47980000Y-22237800D02*
G75*
G02*
X48020000Y-22237800I20000J0D01*
G01*
X48020000Y-28954900D02*
G75*
G02*
X47980000Y-28954900I-20000J0D01*
G01*
X47980000Y-28954900D02*
G75*
G02*
X48020000Y-28954900I20000J0D01*
G01*
X48070000Y-25182500D02*
G75*
G02*
X48030000Y-25182500I-20000J0D01*
G01*
X48030000Y-25182500D02*
G75*
G02*
X48070000Y-25182500I20000J0D01*
G01*
X48107600Y-22754800D02*
G75*
G02*
X48067600Y-22754800I-20000J0D01*
G01*
X48067600Y-22754800D02*
G75*
G02*
X48107600Y-22754800I20000J0D01*
G01*
X48175000Y-19627100D02*
G75*
G02*
X48135000Y-19627100I-20000J0D01*
G01*
X48135000Y-19627100D02*
G75*
G02*
X48175000Y-19627100I20000J0D01*
G01*
X48229000Y-31582100D02*
G75*
G02*
X48189000Y-31582100I-20000J0D01*
G01*
X48189000Y-31582100D02*
G75*
G02*
X48229000Y-31582100I20000J0D01*
G01*
X48257900Y-22242000D02*
G75*
G02*
X48217900Y-22242000I-20000J0D01*
G01*
X48217900Y-22242000D02*
G75*
G02*
X48257900Y-22242000I20000J0D01*
G01*
X48270000Y-22757400D02*
G75*
G02*
X48230000Y-22757400I-20000J0D01*
G01*
X48230000Y-22757400D02*
G75*
G02*
X48270000Y-22757400I20000J0D01*
G01*
X48293100Y-32189800D02*
G75*
G02*
X48253100Y-32189800I-20000J0D01*
G01*
X48253100Y-32189800D02*
G75*
G02*
X48293100Y-32189800I20000J0D01*
G01*
X48312600Y-25247100D02*
G75*
G02*
X48272600Y-25247100I-20000J0D01*
G01*
X48272600Y-25247100D02*
G75*
G02*
X48312600Y-25247100I20000J0D01*
G01*
X48365000Y-32077000D02*
G75*
G02*
X48325000Y-32077000I-20000J0D01*
G01*
X48325000Y-32077000D02*
G75*
G02*
X48365000Y-32077000I20000J0D01*
G01*
X48520000Y-22756000D02*
G75*
G02*
X48480000Y-22756000I-20000J0D01*
G01*
X48480000Y-22756000D02*
G75*
G02*
X48520000Y-22756000I20000J0D01*
G01*
X48555100Y-22240900D02*
G75*
G02*
X48515100Y-22240900I-20000J0D01*
G01*
X48515100Y-22240900D02*
G75*
G02*
X48555100Y-22240900I20000J0D01*
G01*
X48570000Y-25180300D02*
G75*
G02*
X48530000Y-25180300I-20000J0D01*
G01*
X48530000Y-25180300D02*
G75*
G02*
X48570000Y-25180300I20000J0D01*
G01*
X48620000Y-23100000D02*
G75*
G02*
X48580000Y-23100000I-20000J0D01*
G01*
X48580000Y-23100000D02*
G75*
G02*
X48620000Y-23100000I20000J0D01*
G01*
X48661800Y-20132900D02*
G75*
G02*
X48621800Y-20132900I-20000J0D01*
G01*
X48621800Y-20132900D02*
G75*
G02*
X48661800Y-20132900I20000J0D01*
G01*
X48664600Y-20896100D02*
G75*
G02*
X48624600Y-20896100I-20000J0D01*
G01*
X48624600Y-20896100D02*
G75*
G02*
X48664600Y-20896100I20000J0D01*
G01*
X48723100Y-21353600D02*
G75*
G02*
X48683100Y-21353600I-20000J0D01*
G01*
X48683100Y-21353600D02*
G75*
G02*
X48723100Y-21353600I20000J0D01*
G01*
X48745000Y-24054900D02*
G75*
G02*
X48705000Y-24054900I-20000J0D01*
G01*
X48705000Y-24054900D02*
G75*
G02*
X48745000Y-24054900I20000J0D01*
G01*
X48748800Y-22757200D02*
G75*
G02*
X48708800Y-22757200I-20000J0D01*
G01*
X48708800Y-22757200D02*
G75*
G02*
X48748800Y-22757200I20000J0D01*
G01*
X48756800Y-22240900D02*
G75*
G02*
X48716800Y-22240900I-20000J0D01*
G01*
X48716800Y-22240900D02*
G75*
G02*
X48756800Y-22240900I20000J0D01*
G01*
X48857000Y-25199000D02*
G75*
G02*
X48817000Y-25199000I-20000J0D01*
G01*
X48817000Y-25199000D02*
G75*
G02*
X48857000Y-25199000I20000J0D01*
G01*
X48865000Y-31330900D02*
G75*
G02*
X48825000Y-31330900I-20000J0D01*
G01*
X48825000Y-31330900D02*
G75*
G02*
X48865000Y-31330900I20000J0D01*
G01*
X48872000Y-28639300D02*
G75*
G02*
X48832000Y-28639300I-20000J0D01*
G01*
X48832000Y-28639300D02*
G75*
G02*
X48872000Y-28639300I20000J0D01*
G01*
X48892100Y-18917800D02*
G75*
G02*
X48852100Y-18917800I-20000J0D01*
G01*
X48852100Y-18917800D02*
G75*
G02*
X48892100Y-18917800I20000J0D01*
G01*
X48895600Y-18415400D02*
G75*
G02*
X48855600Y-18415400I-20000J0D01*
G01*
X48855600Y-18415400D02*
G75*
G02*
X48895600Y-18415400I20000J0D01*
G01*
X48910200Y-28826300D02*
G75*
G02*
X48870200Y-28826300I-20000J0D01*
G01*
X48870200Y-28826300D02*
G75*
G02*
X48910200Y-28826300I20000J0D01*
G01*
X48969800Y-22238900D02*
G75*
G02*
X48929800Y-22238900I-20000J0D01*
G01*
X48929800Y-22238900D02*
G75*
G02*
X48969800Y-22238900I20000J0D01*
G01*
X48981200Y-32182500D02*
G75*
G02*
X48941200Y-32182500I-20000J0D01*
G01*
X48941200Y-32182500D02*
G75*
G02*
X48981200Y-32182500I20000J0D01*
G01*
X49045000Y-24049900D02*
G75*
G02*
X49005000Y-24049900I-20000J0D01*
G01*
X49005000Y-24049900D02*
G75*
G02*
X49045000Y-24049900I20000J0D01*
G01*
X49059100Y-23204800D02*
G75*
G02*
X49019100Y-23204800I-20000J0D01*
G01*
X49019100Y-23204800D02*
G75*
G02*
X49059100Y-23204800I20000J0D01*
G01*
X49105300Y-25181500D02*
G75*
G02*
X49065300Y-25181500I-20000J0D01*
G01*
X49065300Y-25181500D02*
G75*
G02*
X49105300Y-25181500I20000J0D01*
G01*
X49122900Y-22799400D02*
G75*
G02*
X49082900Y-22799400I-20000J0D01*
G01*
X49082900Y-22799400D02*
G75*
G02*
X49122900Y-22799400I20000J0D01*
G01*
X49176600Y-26990900D02*
G75*
G02*
X49136600Y-26990900I-20000J0D01*
G01*
X49136600Y-26990900D02*
G75*
G02*
X49176600Y-26990900I20000J0D01*
G01*
X49245000Y-25953900D02*
G75*
G02*
X49205000Y-25953900I-20000J0D01*
G01*
X49205000Y-25953900D02*
G75*
G02*
X49245000Y-25953900I20000J0D01*
G01*
X49270000Y-22237200D02*
G75*
G02*
X49230000Y-22237200I-20000J0D01*
G01*
X49230000Y-22237200D02*
G75*
G02*
X49270000Y-22237200I20000J0D01*
G01*
X49288400Y-20880300D02*
G75*
G02*
X49248400Y-20880300I-20000J0D01*
G01*
X49248400Y-20880300D02*
G75*
G02*
X49288400Y-20880300I20000J0D01*
G01*
X49296300Y-23854500D02*
G75*
G02*
X49256300Y-23854500I-20000J0D01*
G01*
X49256300Y-23854500D02*
G75*
G02*
X49296300Y-23854500I20000J0D01*
G01*
X49352800Y-25180300D02*
G75*
G02*
X49312800Y-25180300I-20000J0D01*
G01*
X49312800Y-25180300D02*
G75*
G02*
X49352800Y-25180300I20000J0D01*
G01*
X49359400Y-23101000D02*
G75*
G02*
X49319400Y-23101000I-20000J0D01*
G01*
X49319400Y-23101000D02*
G75*
G02*
X49359400Y-23101000I20000J0D01*
G01*
X49428300Y-26762100D02*
G75*
G02*
X49388300Y-26762100I-20000J0D01*
G01*
X49388300Y-26762100D02*
G75*
G02*
X49428300Y-26762100I20000J0D01*
G01*
X49482200Y-31012000D02*
G75*
G02*
X49442200Y-31012000I-20000J0D01*
G01*
X49442200Y-31012000D02*
G75*
G02*
X49482200Y-31012000I20000J0D01*
G01*
X49483400Y-21471500D02*
G75*
G02*
X49443400Y-21471500I-20000J0D01*
G01*
X49443400Y-21471500D02*
G75*
G02*
X49483400Y-21471500I20000J0D01*
G01*
X49484300Y-31974300D02*
G75*
G02*
X49444300Y-31974300I-20000J0D01*
G01*
X49444300Y-31974300D02*
G75*
G02*
X49484300Y-31974300I20000J0D01*
G01*
X49495000Y-25950600D02*
G75*
G02*
X49455000Y-25950600I-20000J0D01*
G01*
X49455000Y-25950600D02*
G75*
G02*
X49495000Y-25950600I20000J0D01*
G01*
X49520000Y-22241600D02*
G75*
G02*
X49480000Y-22241600I-20000J0D01*
G01*
X49480000Y-22241600D02*
G75*
G02*
X49520000Y-22241600I20000J0D01*
G01*
X49520000Y-22756600D02*
G75*
G02*
X49480000Y-22756600I-20000J0D01*
G01*
X49480000Y-22756600D02*
G75*
G02*
X49520000Y-22756600I20000J0D01*
G01*
X49520000Y-28752100D02*
G75*
G02*
X49480000Y-28752100I-20000J0D01*
G01*
X49480000Y-28752100D02*
G75*
G02*
X49520000Y-28752100I20000J0D01*
G01*
X49590300Y-25180400D02*
G75*
G02*
X49550300Y-25180400I-20000J0D01*
G01*
X49550300Y-25180400D02*
G75*
G02*
X49590300Y-25180400I20000J0D01*
G01*
X49768600Y-27988000D02*
G75*
G02*
X49728600Y-27988000I-20000J0D01*
G01*
X49728600Y-27988000D02*
G75*
G02*
X49768600Y-27988000I20000J0D01*
G01*
X49770000Y-18289400D02*
G75*
G02*
X49730000Y-18289400I-20000J0D01*
G01*
X49730000Y-18289400D02*
G75*
G02*
X49770000Y-18289400I20000J0D01*
G01*
X49770000Y-22243300D02*
G75*
G02*
X49730000Y-22243300I-20000J0D01*
G01*
X49730000Y-22243300D02*
G75*
G02*
X49770000Y-22243300I20000J0D01*
G01*
X49770000Y-22758000D02*
G75*
G02*
X49730000Y-22758000I-20000J0D01*
G01*
X49730000Y-22758000D02*
G75*
G02*
X49770000Y-22758000I20000J0D01*
G01*
X49771900Y-28551500D02*
G75*
G02*
X49731900Y-28551500I-20000J0D01*
G01*
X49731900Y-28551500D02*
G75*
G02*
X49771900Y-28551500I20000J0D01*
G01*
X49783400Y-26796400D02*
G75*
G02*
X49743400Y-26796400I-20000J0D01*
G01*
X49743400Y-26796400D02*
G75*
G02*
X49783400Y-26796400I20000J0D01*
G01*
X49820000Y-25181300D02*
G75*
G02*
X49780000Y-25181300I-20000J0D01*
G01*
X49780000Y-25181300D02*
G75*
G02*
X49820000Y-25181300I20000J0D01*
G01*
X49859100Y-26050300D02*
G75*
G02*
X49819100Y-26050300I-20000J0D01*
G01*
X49819100Y-26050300D02*
G75*
G02*
X49859100Y-26050300I20000J0D01*
G01*
X50043300Y-22758200D02*
G75*
G02*
X50003300Y-22758200I-20000J0D01*
G01*
X50003300Y-22758200D02*
G75*
G02*
X50043300Y-22758200I20000J0D01*
G01*
X50052100Y-22240900D02*
G75*
G02*
X50012100Y-22240900I-20000J0D01*
G01*
X50012100Y-22240900D02*
G75*
G02*
X50052100Y-22240900I20000J0D01*
G01*
X50073900Y-25180700D02*
G75*
G02*
X50033900Y-25180700I-20000J0D01*
G01*
X50033900Y-25180700D02*
G75*
G02*
X50073900Y-25180700I20000J0D01*
G01*
X50130000Y-31820200D02*
G75*
G02*
X50090000Y-31820200I-20000J0D01*
G01*
X50090000Y-31820200D02*
G75*
G02*
X50130000Y-31820200I20000J0D01*
G01*
X50147900Y-18917800D02*
G75*
G02*
X50107900Y-18917800I-20000J0D01*
G01*
X50107900Y-18917800D02*
G75*
G02*
X50147900Y-18917800I20000J0D01*
G01*
X50161800Y-20132900D02*
G75*
G02*
X50121800Y-20132900I-20000J0D01*
G01*
X50121800Y-20132900D02*
G75*
G02*
X50161800Y-20132900I20000J0D01*
G01*
X50167300Y-21895500D02*
G75*
G02*
X50127300Y-21895500I-20000J0D01*
G01*
X50127300Y-21895500D02*
G75*
G02*
X50167300Y-21895500I20000J0D01*
G01*
X50291700Y-22240900D02*
G75*
G02*
X50251700Y-22240900I-20000J0D01*
G01*
X50251700Y-22240900D02*
G75*
G02*
X50291700Y-22240900I20000J0D01*
G01*
X50314600Y-20891000D02*
G75*
G02*
X50274600Y-20891000I-20000J0D01*
G01*
X50274600Y-20891000D02*
G75*
G02*
X50314600Y-20891000I20000J0D01*
G01*
X50320000Y-25183300D02*
G75*
G02*
X50280000Y-25183300I-20000J0D01*
G01*
X50280000Y-25183300D02*
G75*
G02*
X50320000Y-25183300I20000J0D01*
G01*
X50342100Y-22758200D02*
G75*
G02*
X50302100Y-22758200I-20000J0D01*
G01*
X50302100Y-22758200D02*
G75*
G02*
X50342100Y-22758200I20000J0D01*
G01*
X50467500Y-22240900D02*
G75*
G02*
X50427500Y-22240900I-20000J0D01*
G01*
X50427500Y-22240900D02*
G75*
G02*
X50467500Y-22240900I20000J0D01*
G01*
X50540800Y-22756700D02*
G75*
G02*
X50500800Y-22756700I-20000J0D01*
G01*
X50500800Y-22756700D02*
G75*
G02*
X50540800Y-22756700I20000J0D01*
G01*
X50570000Y-25181300D02*
G75*
G02*
X50530000Y-25181300I-20000J0D01*
G01*
X50530000Y-25181300D02*
G75*
G02*
X50570000Y-25181300I20000J0D01*
G01*
X50599100Y-30802200D02*
G75*
G02*
X50559100Y-30802200I-20000J0D01*
G01*
X50559100Y-30802200D02*
G75*
G02*
X50599100Y-30802200I20000J0D01*
G01*
X50667300Y-21102800D02*
G75*
G02*
X50627300Y-21102800I-20000J0D01*
G01*
X50627300Y-21102800D02*
G75*
G02*
X50667300Y-21102800I20000J0D01*
G01*
X50711000Y-22240900D02*
G75*
G02*
X50671000Y-22240900I-20000J0D01*
G01*
X50671000Y-22240900D02*
G75*
G02*
X50711000Y-22240900I20000J0D01*
G01*
X50722700Y-29763900D02*
G75*
G02*
X50682700Y-29763900I-20000J0D01*
G01*
X50682700Y-29763900D02*
G75*
G02*
X50722700Y-29763900I20000J0D01*
G01*
X50732100Y-20248100D02*
G75*
G02*
X50692100Y-20248100I-20000J0D01*
G01*
X50692100Y-20248100D02*
G75*
G02*
X50732100Y-20248100I20000J0D01*
G01*
X50770000Y-22756500D02*
G75*
G02*
X50730000Y-22756500I-20000J0D01*
G01*
X50730000Y-22756500D02*
G75*
G02*
X50770000Y-22756500I20000J0D01*
G01*
X50820000Y-25181900D02*
G75*
G02*
X50780000Y-25181900I-20000J0D01*
G01*
X50780000Y-25181900D02*
G75*
G02*
X50820000Y-25181900I20000J0D01*
G01*
X50872000Y-28858000D02*
G75*
G02*
X50832000Y-28858000I-20000J0D01*
G01*
X50832000Y-28858000D02*
G75*
G02*
X50872000Y-28858000I20000J0D01*
G01*
X50897400Y-30899000D02*
G75*
G02*
X50857400Y-30899000I-20000J0D01*
G01*
X50857400Y-30899000D02*
G75*
G02*
X50897400Y-30899000I20000J0D01*
G01*
X51014600Y-21894700D02*
G75*
G02*
X50974600Y-21894700I-20000J0D01*
G01*
X50974600Y-21894700D02*
G75*
G02*
X51014600Y-21894700I20000J0D01*
G01*
X51020000Y-22239300D02*
G75*
G02*
X50980000Y-22239300I-20000J0D01*
G01*
X50980000Y-22239300D02*
G75*
G02*
X51020000Y-22239300I20000J0D01*
G01*
X51020000Y-22756600D02*
G75*
G02*
X50980000Y-22756600I-20000J0D01*
G01*
X50980000Y-22756600D02*
G75*
G02*
X51020000Y-22756600I20000J0D01*
G01*
X51037300Y-20891600D02*
G75*
G02*
X50997300Y-20891600I-20000J0D01*
G01*
X50997300Y-20891600D02*
G75*
G02*
X51037300Y-20891600I20000J0D01*
G01*
X51070000Y-25181800D02*
G75*
G02*
X51030000Y-25181800I-20000J0D01*
G01*
X51030000Y-25181800D02*
G75*
G02*
X51070000Y-25181800I20000J0D01*
G01*
X51270000Y-22241700D02*
G75*
G02*
X51230000Y-22241700I-20000J0D01*
G01*
X51230000Y-22241700D02*
G75*
G02*
X51270000Y-22241700I20000J0D01*
G01*
X51270000Y-22759100D02*
G75*
G02*
X51230000Y-22759100I-20000J0D01*
G01*
X51230000Y-22759100D02*
G75*
G02*
X51270000Y-22759100I20000J0D01*
G01*
X51320000Y-25183300D02*
G75*
G02*
X51280000Y-25183300I-20000J0D01*
G01*
X51280000Y-25183300D02*
G75*
G02*
X51320000Y-25183300I20000J0D01*
G01*
X51334400Y-30360300D02*
G75*
G02*
X51294400Y-30360300I-20000J0D01*
G01*
X51294400Y-30360300D02*
G75*
G02*
X51334400Y-30360300I20000J0D01*
G01*
X51372000Y-29856000D02*
G75*
G02*
X51332000Y-29856000I-20000J0D01*
G01*
X51332000Y-29856000D02*
G75*
G02*
X51372000Y-29856000I20000J0D01*
G01*
X51409300Y-22244500D02*
G75*
G02*
X51369300Y-22244500I-20000J0D01*
G01*
X51369300Y-22244500D02*
G75*
G02*
X51409300Y-22244500I20000J0D01*
G01*
X51520000Y-22759400D02*
G75*
G02*
X51480000Y-22759400I-20000J0D01*
G01*
X51480000Y-22759400D02*
G75*
G02*
X51520000Y-22759400I20000J0D01*
G01*
X51527600Y-21197200D02*
G75*
G02*
X51487600Y-21197200I-20000J0D01*
G01*
X51487600Y-21197200D02*
G75*
G02*
X51527600Y-21197200I20000J0D01*
G01*
X51570000Y-25183700D02*
G75*
G02*
X51530000Y-25183700I-20000J0D01*
G01*
X51530000Y-25183700D02*
G75*
G02*
X51570000Y-25183700I20000J0D01*
G01*
X51681200Y-26902000D02*
G75*
G02*
X51641200Y-26902000I-20000J0D01*
G01*
X51641200Y-26902000D02*
G75*
G02*
X51681200Y-26902000I20000J0D01*
G01*
X51783300Y-25701400D02*
G75*
G02*
X51743300Y-25701400I-20000J0D01*
G01*
X51743300Y-25701400D02*
G75*
G02*
X51783300Y-25701400I20000J0D01*
G01*
X51791500Y-26201300D02*
G75*
G02*
X51751500Y-26201300I-20000J0D01*
G01*
X51751500Y-26201300D02*
G75*
G02*
X51791500Y-26201300I20000J0D01*
G01*
X51820000Y-25182500D02*
G75*
G02*
X51780000Y-25182500I-20000J0D01*
G01*
X51780000Y-25182500D02*
G75*
G02*
X51820000Y-25182500I20000J0D01*
G01*
X51823500Y-22240900D02*
G75*
G02*
X51783500Y-22240900I-20000J0D01*
G01*
X51783500Y-22240900D02*
G75*
G02*
X51823500Y-22240900I20000J0D01*
G01*
X51857800Y-22758200D02*
G75*
G02*
X51817800Y-22758200I-20000J0D01*
G01*
X51817800Y-22758200D02*
G75*
G02*
X51857800Y-22758200I20000J0D01*
G01*
X51872000Y-28639700D02*
G75*
G02*
X51832000Y-28639700I-20000J0D01*
G01*
X51832000Y-28639700D02*
G75*
G02*
X51872000Y-28639700I20000J0D01*
G01*
X51972000Y-29248100D02*
G75*
G02*
X51932000Y-29248100I-20000J0D01*
G01*
X51932000Y-29248100D02*
G75*
G02*
X51972000Y-29248100I20000J0D01*
G01*
X51995000Y-27049800D02*
G75*
G02*
X51955000Y-27049800I-20000J0D01*
G01*
X51955000Y-27049800D02*
G75*
G02*
X51995000Y-27049800I20000J0D01*
G01*
X51999400Y-22240900D02*
G75*
G02*
X51959400Y-22240900I-20000J0D01*
G01*
X51959400Y-22240900D02*
G75*
G02*
X51999400Y-22240900I20000J0D01*
G01*
X52129600Y-23110300D02*
G75*
G02*
X52089600Y-23110300I-20000J0D01*
G01*
X52089600Y-23110300D02*
G75*
G02*
X52129600Y-23110300I20000J0D01*
G01*
X52238300Y-22238900D02*
G75*
G02*
X52198300Y-22238900I-20000J0D01*
G01*
X52198300Y-22238900D02*
G75*
G02*
X52238300Y-22238900I20000J0D01*
G01*
X52270000Y-22755100D02*
G75*
G02*
X52230000Y-22755100I-20000J0D01*
G01*
X52230000Y-22755100D02*
G75*
G02*
X52270000Y-22755100I20000J0D01*
G01*
X52305800Y-26201800D02*
G75*
G02*
X52265800Y-26201800I-20000J0D01*
G01*
X52265800Y-26201800D02*
G75*
G02*
X52305800Y-26201800I20000J0D01*
G01*
X52361800Y-26989300D02*
G75*
G02*
X52321800Y-26989300I-20000J0D01*
G01*
X52321800Y-26989300D02*
G75*
G02*
X52361800Y-26989300I20000J0D01*
G01*
X52520000Y-22242600D02*
G75*
G02*
X52480000Y-22242600I-20000J0D01*
G01*
X52480000Y-22242600D02*
G75*
G02*
X52520000Y-22242600I20000J0D01*
G01*
X52520000Y-22755900D02*
G75*
G02*
X52480000Y-22755900I-20000J0D01*
G01*
X52480000Y-22755900D02*
G75*
G02*
X52520000Y-22755900I20000J0D01*
G01*
X52520000Y-23498900D02*
G75*
G02*
X52480000Y-23498900I-20000J0D01*
G01*
X52480000Y-23498900D02*
G75*
G02*
X52520000Y-23498900I20000J0D01*
G01*
X52663200Y-22756200D02*
G75*
G02*
X52623200Y-22756200I-20000J0D01*
G01*
X52623200Y-22756200D02*
G75*
G02*
X52663200Y-22756200I20000J0D01*
G01*
X52770000Y-22242300D02*
G75*
G02*
X52730000Y-22242300I-20000J0D01*
G01*
X52730000Y-22242300D02*
G75*
G02*
X52770000Y-22242300I20000J0D01*
G01*
D11*
X36258277Y-34313984D02*
X36258277Y-34113984D01*
X36258277Y-34113984D02*
X36305896Y-34113984D01*
X36305896Y-34113984D02*
X36334467Y-34123508D01*
X36334467Y-34123508D02*
X36353515Y-34142555D01*
X36353515Y-34142555D02*
X36363039Y-34161603D01*
X36363039Y-34161603D02*
X36372563Y-34199698D01*
X36372563Y-34199698D02*
X36372563Y-34228270D01*
X36372563Y-34228270D02*
X36363039Y-34266365D01*
X36363039Y-34266365D02*
X36353515Y-34285412D01*
X36353515Y-34285412D02*
X36334467Y-34304460D01*
X36334467Y-34304460D02*
X36305896Y-34313984D01*
X36305896Y-34313984D02*
X36258277Y-34313984D01*
X36458277Y-34313984D02*
X36458277Y-34180650D01*
X36458277Y-34218746D02*
X36467801Y-34199698D01*
X36467801Y-34199698D02*
X36477324Y-34190174D01*
X36477324Y-34190174D02*
X36496372Y-34180650D01*
X36496372Y-34180650D02*
X36515420Y-34180650D01*
X36582086Y-34313984D02*
X36582086Y-34180650D01*
X36582086Y-34113984D02*
X36572563Y-34123508D01*
X36572563Y-34123508D02*
X36582086Y-34133031D01*
X36582086Y-34133031D02*
X36591610Y-34123508D01*
X36591610Y-34123508D02*
X36582086Y-34113984D01*
X36582086Y-34113984D02*
X36582086Y-34133031D01*
X36705896Y-34313984D02*
X36686848Y-34304460D01*
X36686848Y-34304460D02*
X36677324Y-34285412D01*
X36677324Y-34285412D02*
X36677324Y-34113984D01*
X36810658Y-34313984D02*
X36791610Y-34304460D01*
X36791610Y-34304460D02*
X36782086Y-34285412D01*
X36782086Y-34285412D02*
X36782086Y-34113984D01*
X37039229Y-34313984D02*
X37039229Y-34113984D01*
X37039229Y-34113984D02*
X37105896Y-34256841D01*
X37105896Y-34256841D02*
X37172563Y-34113984D01*
X37172563Y-34113984D02*
X37172563Y-34313984D01*
X37353515Y-34313984D02*
X37353515Y-34209222D01*
X37353515Y-34209222D02*
X37343991Y-34190174D01*
X37343991Y-34190174D02*
X37324944Y-34180650D01*
X37324944Y-34180650D02*
X37286848Y-34180650D01*
X37286848Y-34180650D02*
X37267801Y-34190174D01*
X37353515Y-34304460D02*
X37334467Y-34313984D01*
X37334467Y-34313984D02*
X37286848Y-34313984D01*
X37286848Y-34313984D02*
X37267801Y-34304460D01*
X37267801Y-34304460D02*
X37258277Y-34285412D01*
X37258277Y-34285412D02*
X37258277Y-34266365D01*
X37258277Y-34266365D02*
X37267801Y-34247317D01*
X37267801Y-34247317D02*
X37286848Y-34237793D01*
X37286848Y-34237793D02*
X37334467Y-34237793D01*
X37334467Y-34237793D02*
X37353515Y-34228270D01*
X37448753Y-34180650D02*
X37448753Y-34380650D01*
X37448753Y-34190174D02*
X37467801Y-34180650D01*
X37467801Y-34180650D02*
X37505896Y-34180650D01*
X37505896Y-34180650D02*
X37524944Y-34190174D01*
X37524944Y-34190174D02*
X37534467Y-34199698D01*
X37534467Y-34199698D02*
X37543991Y-34218746D01*
X37543991Y-34218746D02*
X37543991Y-34275889D01*
X37543991Y-34275889D02*
X37534467Y-34294936D01*
X37534467Y-34294936D02*
X37524944Y-34304460D01*
X37524944Y-34304460D02*
X37505896Y-34313984D01*
X37505896Y-34313984D02*
X37467801Y-34313984D01*
X37467801Y-34313984D02*
X37448753Y-34304460D01*
X37629705Y-34294936D02*
X37639229Y-34304460D01*
X37639229Y-34304460D02*
X37629705Y-34313984D01*
X37629705Y-34313984D02*
X37620182Y-34304460D01*
X37620182Y-34304460D02*
X37629705Y-34294936D01*
X37629705Y-34294936D02*
X37629705Y-34313984D01*
X37629705Y-34190174D02*
X37639229Y-34199698D01*
X37639229Y-34199698D02*
X37629705Y-34209222D01*
X37629705Y-34209222D02*
X37620182Y-34199698D01*
X37620182Y-34199698D02*
X37629705Y-34190174D01*
X37629705Y-34190174D02*
X37629705Y-34209222D01*
D12*
X35967500Y-34627500D02*
X35997500Y-34657500D01*
X35997500Y-34627500D02*
X35967500Y-34657500D01*
D11*
X36296372Y-34533984D02*
X36315420Y-34533984D01*
X36315420Y-34533984D02*
X36334467Y-34543508D01*
X36334467Y-34543508D02*
X36343991Y-34553031D01*
X36343991Y-34553031D02*
X36353515Y-34572079D01*
X36353515Y-34572079D02*
X36363039Y-34610174D01*
X36363039Y-34610174D02*
X36363039Y-34657793D01*
X36363039Y-34657793D02*
X36353515Y-34695889D01*
X36353515Y-34695889D02*
X36343991Y-34714936D01*
X36343991Y-34714936D02*
X36334467Y-34724460D01*
X36334467Y-34724460D02*
X36315420Y-34733984D01*
X36315420Y-34733984D02*
X36296372Y-34733984D01*
X36296372Y-34733984D02*
X36277324Y-34724460D01*
X36277324Y-34724460D02*
X36267801Y-34714936D01*
X36267801Y-34714936D02*
X36258277Y-34695889D01*
X36258277Y-34695889D02*
X36248753Y-34657793D01*
X36248753Y-34657793D02*
X36248753Y-34610174D01*
X36248753Y-34610174D02*
X36258277Y-34572079D01*
X36258277Y-34572079D02*
X36267801Y-34553031D01*
X36267801Y-34553031D02*
X36277324Y-34543508D01*
X36277324Y-34543508D02*
X36296372Y-34533984D01*
X36448753Y-34714936D02*
X36458277Y-34724460D01*
X36458277Y-34724460D02*
X36448753Y-34733984D01*
X36448753Y-34733984D02*
X36439229Y-34724460D01*
X36439229Y-34724460D02*
X36448753Y-34714936D01*
X36448753Y-34714936D02*
X36448753Y-34733984D01*
X36524944Y-34533984D02*
X36648753Y-34533984D01*
X36648753Y-34533984D02*
X36582086Y-34610174D01*
X36582086Y-34610174D02*
X36610658Y-34610174D01*
X36610658Y-34610174D02*
X36629705Y-34619698D01*
X36629705Y-34619698D02*
X36639229Y-34629222D01*
X36639229Y-34629222D02*
X36648753Y-34648270D01*
X36648753Y-34648270D02*
X36648753Y-34695889D01*
X36648753Y-34695889D02*
X36639229Y-34714936D01*
X36639229Y-34714936D02*
X36629705Y-34724460D01*
X36629705Y-34724460D02*
X36610658Y-34733984D01*
X36610658Y-34733984D02*
X36553515Y-34733984D01*
X36553515Y-34733984D02*
X36534467Y-34724460D01*
X36534467Y-34724460D02*
X36524944Y-34714936D01*
X36772563Y-34533984D02*
X36791610Y-34533984D01*
X36791610Y-34533984D02*
X36810658Y-34543508D01*
X36810658Y-34543508D02*
X36820182Y-34553031D01*
X36820182Y-34553031D02*
X36829705Y-34572079D01*
X36829705Y-34572079D02*
X36839229Y-34610174D01*
X36839229Y-34610174D02*
X36839229Y-34657793D01*
X36839229Y-34657793D02*
X36829705Y-34695889D01*
X36829705Y-34695889D02*
X36820182Y-34714936D01*
X36820182Y-34714936D02*
X36810658Y-34724460D01*
X36810658Y-34724460D02*
X36791610Y-34733984D01*
X36791610Y-34733984D02*
X36772563Y-34733984D01*
X36772563Y-34733984D02*
X36753515Y-34724460D01*
X36753515Y-34724460D02*
X36743991Y-34714936D01*
X36743991Y-34714936D02*
X36734467Y-34695889D01*
X36734467Y-34695889D02*
X36724944Y-34657793D01*
X36724944Y-34657793D02*
X36724944Y-34610174D01*
X36724944Y-34610174D02*
X36734467Y-34572079D01*
X36734467Y-34572079D02*
X36743991Y-34553031D01*
X36743991Y-34553031D02*
X36753515Y-34543508D01*
X36753515Y-34543508D02*
X36772563Y-34533984D01*
X36963039Y-34533984D02*
X36982086Y-34533984D01*
X36982086Y-34533984D02*
X37001134Y-34543508D01*
X37001134Y-34543508D02*
X37010658Y-34553031D01*
X37010658Y-34553031D02*
X37020182Y-34572079D01*
X37020182Y-34572079D02*
X37029705Y-34610174D01*
X37029705Y-34610174D02*
X37029705Y-34657793D01*
X37029705Y-34657793D02*
X37020182Y-34695889D01*
X37020182Y-34695889D02*
X37010658Y-34714936D01*
X37010658Y-34714936D02*
X37001134Y-34724460D01*
X37001134Y-34724460D02*
X36982086Y-34733984D01*
X36982086Y-34733984D02*
X36963039Y-34733984D01*
X36963039Y-34733984D02*
X36943991Y-34724460D01*
X36943991Y-34724460D02*
X36934467Y-34714936D01*
X36934467Y-34714936D02*
X36924944Y-34695889D01*
X36924944Y-34695889D02*
X36915420Y-34657793D01*
X36915420Y-34657793D02*
X36915420Y-34610174D01*
X36915420Y-34610174D02*
X36924944Y-34572079D01*
X36924944Y-34572079D02*
X36934467Y-34553031D01*
X36934467Y-34553031D02*
X36943991Y-34543508D01*
X36943991Y-34543508D02*
X36963039Y-34533984D01*
X37115420Y-34733984D02*
X37115420Y-34600650D01*
X37115420Y-34619698D02*
X37124944Y-34610174D01*
X37124944Y-34610174D02*
X37143991Y-34600650D01*
X37143991Y-34600650D02*
X37172563Y-34600650D01*
X37172563Y-34600650D02*
X37191610Y-34610174D01*
X37191610Y-34610174D02*
X37201134Y-34629222D01*
X37201134Y-34629222D02*
X37201134Y-34733984D01*
X37201134Y-34629222D02*
X37210658Y-34610174D01*
X37210658Y-34610174D02*
X37229705Y-34600650D01*
X37229705Y-34600650D02*
X37258277Y-34600650D01*
X37258277Y-34600650D02*
X37277325Y-34610174D01*
X37277325Y-34610174D02*
X37286848Y-34629222D01*
X37286848Y-34629222D02*
X37286848Y-34733984D01*
X37382086Y-34733984D02*
X37382086Y-34600650D01*
X37382086Y-34619698D02*
X37391610Y-34610174D01*
X37391610Y-34610174D02*
X37410658Y-34600650D01*
X37410658Y-34600650D02*
X37439229Y-34600650D01*
X37439229Y-34600650D02*
X37458277Y-34610174D01*
X37458277Y-34610174D02*
X37467801Y-34629222D01*
X37467801Y-34629222D02*
X37467801Y-34733984D01*
X37467801Y-34629222D02*
X37477325Y-34610174D01*
X37477325Y-34610174D02*
X37496372Y-34600650D01*
X37496372Y-34600650D02*
X37524944Y-34600650D01*
X37524944Y-34600650D02*
X37543991Y-34610174D01*
X37543991Y-34610174D02*
X37553515Y-34629222D01*
X37553515Y-34629222D02*
X37553515Y-34733984D01*
X37943991Y-34524460D02*
X37772563Y-34781603D01*
X38201134Y-34533984D02*
X38220182Y-34533984D01*
X38220182Y-34533984D02*
X38239229Y-34543508D01*
X38239229Y-34543508D02*
X38248753Y-34553031D01*
X38248753Y-34553031D02*
X38258277Y-34572079D01*
X38258277Y-34572079D02*
X38267801Y-34610174D01*
X38267801Y-34610174D02*
X38267801Y-34657793D01*
X38267801Y-34657793D02*
X38258277Y-34695889D01*
X38258277Y-34695889D02*
X38248753Y-34714936D01*
X38248753Y-34714936D02*
X38239229Y-34724460D01*
X38239229Y-34724460D02*
X38220182Y-34733984D01*
X38220182Y-34733984D02*
X38201134Y-34733984D01*
X38201134Y-34733984D02*
X38182087Y-34724460D01*
X38182087Y-34724460D02*
X38172563Y-34714936D01*
X38172563Y-34714936D02*
X38163039Y-34695889D01*
X38163039Y-34695889D02*
X38153515Y-34657793D01*
X38153515Y-34657793D02*
X38153515Y-34610174D01*
X38153515Y-34610174D02*
X38163039Y-34572079D01*
X38163039Y-34572079D02*
X38172563Y-34553031D01*
X38172563Y-34553031D02*
X38182087Y-34543508D01*
X38182087Y-34543508D02*
X38201134Y-34533984D01*
X38353515Y-34714936D02*
X38363039Y-34724460D01*
X38363039Y-34724460D02*
X38353515Y-34733984D01*
X38353515Y-34733984D02*
X38343991Y-34724460D01*
X38343991Y-34724460D02*
X38353515Y-34714936D01*
X38353515Y-34714936D02*
X38353515Y-34733984D01*
X38486848Y-34533984D02*
X38505896Y-34533984D01*
X38505896Y-34533984D02*
X38524944Y-34543508D01*
X38524944Y-34543508D02*
X38534468Y-34553031D01*
X38534468Y-34553031D02*
X38543991Y-34572079D01*
X38543991Y-34572079D02*
X38553515Y-34610174D01*
X38553515Y-34610174D02*
X38553515Y-34657793D01*
X38553515Y-34657793D02*
X38543991Y-34695889D01*
X38543991Y-34695889D02*
X38534468Y-34714936D01*
X38534468Y-34714936D02*
X38524944Y-34724460D01*
X38524944Y-34724460D02*
X38505896Y-34733984D01*
X38505896Y-34733984D02*
X38486848Y-34733984D01*
X38486848Y-34733984D02*
X38467801Y-34724460D01*
X38467801Y-34724460D02*
X38458277Y-34714936D01*
X38458277Y-34714936D02*
X38448753Y-34695889D01*
X38448753Y-34695889D02*
X38439229Y-34657793D01*
X38439229Y-34657793D02*
X38439229Y-34610174D01*
X38439229Y-34610174D02*
X38448753Y-34572079D01*
X38448753Y-34572079D02*
X38458277Y-34553031D01*
X38458277Y-34553031D02*
X38467801Y-34543508D01*
X38467801Y-34543508D02*
X38486848Y-34533984D01*
X38743991Y-34733984D02*
X38629706Y-34733984D01*
X38686848Y-34733984D02*
X38686848Y-34533984D01*
X38686848Y-34533984D02*
X38667801Y-34562555D01*
X38667801Y-34562555D02*
X38648753Y-34581603D01*
X38648753Y-34581603D02*
X38629706Y-34591127D01*
X38934468Y-34733984D02*
X38820182Y-34733984D01*
X38877325Y-34733984D02*
X38877325Y-34533984D01*
X38877325Y-34533984D02*
X38858277Y-34562555D01*
X38858277Y-34562555D02*
X38839229Y-34581603D01*
X38839229Y-34581603D02*
X38820182Y-34591127D01*
X39048753Y-34619698D02*
X39029706Y-34610174D01*
X39029706Y-34610174D02*
X39020182Y-34600650D01*
X39020182Y-34600650D02*
X39010658Y-34581603D01*
X39010658Y-34581603D02*
X39010658Y-34572079D01*
X39010658Y-34572079D02*
X39020182Y-34553031D01*
X39020182Y-34553031D02*
X39029706Y-34543508D01*
X39029706Y-34543508D02*
X39048753Y-34533984D01*
X39048753Y-34533984D02*
X39086849Y-34533984D01*
X39086849Y-34533984D02*
X39105896Y-34543508D01*
X39105896Y-34543508D02*
X39115420Y-34553031D01*
X39115420Y-34553031D02*
X39124944Y-34572079D01*
X39124944Y-34572079D02*
X39124944Y-34581603D01*
X39124944Y-34581603D02*
X39115420Y-34600650D01*
X39115420Y-34600650D02*
X39105896Y-34610174D01*
X39105896Y-34610174D02*
X39086849Y-34619698D01*
X39086849Y-34619698D02*
X39048753Y-34619698D01*
X39048753Y-34619698D02*
X39029706Y-34629222D01*
X39029706Y-34629222D02*
X39020182Y-34638746D01*
X39020182Y-34638746D02*
X39010658Y-34657793D01*
X39010658Y-34657793D02*
X39010658Y-34695889D01*
X39010658Y-34695889D02*
X39020182Y-34714936D01*
X39020182Y-34714936D02*
X39029706Y-34724460D01*
X39029706Y-34724460D02*
X39048753Y-34733984D01*
X39048753Y-34733984D02*
X39086849Y-34733984D01*
X39086849Y-34733984D02*
X39105896Y-34724460D01*
X39105896Y-34724460D02*
X39115420Y-34714936D01*
X39115420Y-34714936D02*
X39124944Y-34695889D01*
X39124944Y-34695889D02*
X39124944Y-34657793D01*
X39124944Y-34657793D02*
X39115420Y-34638746D01*
X39115420Y-34638746D02*
X39105896Y-34629222D01*
X39105896Y-34629222D02*
X39086849Y-34619698D01*
X39201134Y-34533984D02*
X39201134Y-34572079D01*
X39277325Y-34533984D02*
X39277325Y-34572079D01*
X39572563Y-34810174D02*
X39563039Y-34800650D01*
X39563039Y-34800650D02*
X39543991Y-34772079D01*
X39543991Y-34772079D02*
X39534468Y-34753031D01*
X39534468Y-34753031D02*
X39524944Y-34724460D01*
X39524944Y-34724460D02*
X39515420Y-34676841D01*
X39515420Y-34676841D02*
X39515420Y-34638746D01*
X39515420Y-34638746D02*
X39524944Y-34591127D01*
X39524944Y-34591127D02*
X39534468Y-34562555D01*
X39534468Y-34562555D02*
X39543991Y-34543508D01*
X39543991Y-34543508D02*
X39563039Y-34514936D01*
X39563039Y-34514936D02*
X39572563Y-34505412D01*
X39734468Y-34533984D02*
X39696372Y-34533984D01*
X39696372Y-34533984D02*
X39677325Y-34543508D01*
X39677325Y-34543508D02*
X39667801Y-34553031D01*
X39667801Y-34553031D02*
X39648753Y-34581603D01*
X39648753Y-34581603D02*
X39639230Y-34619698D01*
X39639230Y-34619698D02*
X39639230Y-34695889D01*
X39639230Y-34695889D02*
X39648753Y-34714936D01*
X39648753Y-34714936D02*
X39658277Y-34724460D01*
X39658277Y-34724460D02*
X39677325Y-34733984D01*
X39677325Y-34733984D02*
X39715420Y-34733984D01*
X39715420Y-34733984D02*
X39734468Y-34724460D01*
X39734468Y-34724460D02*
X39743991Y-34714936D01*
X39743991Y-34714936D02*
X39753515Y-34695889D01*
X39753515Y-34695889D02*
X39753515Y-34648270D01*
X39753515Y-34648270D02*
X39743991Y-34629222D01*
X39743991Y-34629222D02*
X39734468Y-34619698D01*
X39734468Y-34619698D02*
X39715420Y-34610174D01*
X39715420Y-34610174D02*
X39677325Y-34610174D01*
X39677325Y-34610174D02*
X39658277Y-34619698D01*
X39658277Y-34619698D02*
X39648753Y-34629222D01*
X39648753Y-34629222D02*
X39639230Y-34648270D01*
X39820182Y-34533984D02*
X39953515Y-34533984D01*
X39953515Y-34533984D02*
X39867801Y-34733984D01*
X40020182Y-34553031D02*
X40029706Y-34543508D01*
X40029706Y-34543508D02*
X40048753Y-34533984D01*
X40048753Y-34533984D02*
X40096372Y-34533984D01*
X40096372Y-34533984D02*
X40115420Y-34543508D01*
X40115420Y-34543508D02*
X40124944Y-34553031D01*
X40124944Y-34553031D02*
X40134468Y-34572079D01*
X40134468Y-34572079D02*
X40134468Y-34591127D01*
X40134468Y-34591127D02*
X40124944Y-34619698D01*
X40124944Y-34619698D02*
X40010658Y-34733984D01*
X40010658Y-34733984D02*
X40134468Y-34733984D01*
X40372563Y-34733984D02*
X40372563Y-34533984D01*
X40458277Y-34733984D02*
X40458277Y-34629222D01*
X40458277Y-34629222D02*
X40448753Y-34610174D01*
X40448753Y-34610174D02*
X40429706Y-34600650D01*
X40429706Y-34600650D02*
X40401134Y-34600650D01*
X40401134Y-34600650D02*
X40382087Y-34610174D01*
X40382087Y-34610174D02*
X40372563Y-34619698D01*
X40582087Y-34733984D02*
X40563039Y-34724460D01*
X40563039Y-34724460D02*
X40553515Y-34714936D01*
X40553515Y-34714936D02*
X40543992Y-34695889D01*
X40543992Y-34695889D02*
X40543992Y-34638746D01*
X40543992Y-34638746D02*
X40553515Y-34619698D01*
X40553515Y-34619698D02*
X40563039Y-34610174D01*
X40563039Y-34610174D02*
X40582087Y-34600650D01*
X40582087Y-34600650D02*
X40610658Y-34600650D01*
X40610658Y-34600650D02*
X40629706Y-34610174D01*
X40629706Y-34610174D02*
X40639230Y-34619698D01*
X40639230Y-34619698D02*
X40648753Y-34638746D01*
X40648753Y-34638746D02*
X40648753Y-34695889D01*
X40648753Y-34695889D02*
X40639230Y-34714936D01*
X40639230Y-34714936D02*
X40629706Y-34724460D01*
X40629706Y-34724460D02*
X40610658Y-34733984D01*
X40610658Y-34733984D02*
X40582087Y-34733984D01*
X40763039Y-34733984D02*
X40743992Y-34724460D01*
X40743992Y-34724460D02*
X40734468Y-34705412D01*
X40734468Y-34705412D02*
X40734468Y-34533984D01*
X40915420Y-34724460D02*
X40896373Y-34733984D01*
X40896373Y-34733984D02*
X40858277Y-34733984D01*
X40858277Y-34733984D02*
X40839230Y-34724460D01*
X40839230Y-34724460D02*
X40829706Y-34705412D01*
X40829706Y-34705412D02*
X40829706Y-34629222D01*
X40829706Y-34629222D02*
X40839230Y-34610174D01*
X40839230Y-34610174D02*
X40858277Y-34600650D01*
X40858277Y-34600650D02*
X40896373Y-34600650D01*
X40896373Y-34600650D02*
X40915420Y-34610174D01*
X40915420Y-34610174D02*
X40924944Y-34629222D01*
X40924944Y-34629222D02*
X40924944Y-34648270D01*
X40924944Y-34648270D02*
X40829706Y-34667317D01*
X41001134Y-34724460D02*
X41020182Y-34733984D01*
X41020182Y-34733984D02*
X41058277Y-34733984D01*
X41058277Y-34733984D02*
X41077325Y-34724460D01*
X41077325Y-34724460D02*
X41086849Y-34705412D01*
X41086849Y-34705412D02*
X41086849Y-34695889D01*
X41086849Y-34695889D02*
X41077325Y-34676841D01*
X41077325Y-34676841D02*
X41058277Y-34667317D01*
X41058277Y-34667317D02*
X41029706Y-34667317D01*
X41029706Y-34667317D02*
X41010658Y-34657793D01*
X41010658Y-34657793D02*
X41001134Y-34638746D01*
X41001134Y-34638746D02*
X41001134Y-34629222D01*
X41001134Y-34629222D02*
X41010658Y-34610174D01*
X41010658Y-34610174D02*
X41029706Y-34600650D01*
X41029706Y-34600650D02*
X41058277Y-34600650D01*
X41058277Y-34600650D02*
X41077325Y-34610174D01*
X41153515Y-34810174D02*
X41163039Y-34800650D01*
X41163039Y-34800650D02*
X41182087Y-34772079D01*
X41182087Y-34772079D02*
X41191611Y-34753031D01*
X41191611Y-34753031D02*
X41201134Y-34724460D01*
X41201134Y-34724460D02*
X41210658Y-34676841D01*
X41210658Y-34676841D02*
X41210658Y-34638746D01*
X41210658Y-34638746D02*
X41201134Y-34591127D01*
X41201134Y-34591127D02*
X41191611Y-34562555D01*
X41191611Y-34562555D02*
X41182087Y-34543508D01*
X41182087Y-34543508D02*
X41163039Y-34514936D01*
X41163039Y-34514936D02*
X41153515Y-34505412D01*
D12*
X35997500Y-34906500D02*
G75*
G02*
X35957500Y-34906500I-20000J0D01*
G01*
X35957500Y-34906500D02*
G75*
G02*
X35997500Y-34906500I20000J0D01*
G01*
D11*
X36296372Y-34797984D02*
X36315420Y-34797984D01*
X36315420Y-34797984D02*
X36334467Y-34807508D01*
X36334467Y-34807508D02*
X36343991Y-34817031D01*
X36343991Y-34817031D02*
X36353515Y-34836079D01*
X36353515Y-34836079D02*
X36363039Y-34874174D01*
X36363039Y-34874174D02*
X36363039Y-34921793D01*
X36363039Y-34921793D02*
X36353515Y-34959889D01*
X36353515Y-34959889D02*
X36343991Y-34978936D01*
X36343991Y-34978936D02*
X36334467Y-34988460D01*
X36334467Y-34988460D02*
X36315420Y-34997984D01*
X36315420Y-34997984D02*
X36296372Y-34997984D01*
X36296372Y-34997984D02*
X36277324Y-34988460D01*
X36277324Y-34988460D02*
X36267801Y-34978936D01*
X36267801Y-34978936D02*
X36258277Y-34959889D01*
X36258277Y-34959889D02*
X36248753Y-34921793D01*
X36248753Y-34921793D02*
X36248753Y-34874174D01*
X36248753Y-34874174D02*
X36258277Y-34836079D01*
X36258277Y-34836079D02*
X36267801Y-34817031D01*
X36267801Y-34817031D02*
X36277324Y-34807508D01*
X36277324Y-34807508D02*
X36296372Y-34797984D01*
X36448753Y-34978936D02*
X36458277Y-34988460D01*
X36458277Y-34988460D02*
X36448753Y-34997984D01*
X36448753Y-34997984D02*
X36439229Y-34988460D01*
X36439229Y-34988460D02*
X36448753Y-34978936D01*
X36448753Y-34978936D02*
X36448753Y-34997984D01*
X36629705Y-34864650D02*
X36629705Y-34997984D01*
X36582086Y-34788460D02*
X36534467Y-34931317D01*
X36534467Y-34931317D02*
X36658277Y-34931317D01*
X36772563Y-34797984D02*
X36791610Y-34797984D01*
X36791610Y-34797984D02*
X36810658Y-34807508D01*
X36810658Y-34807508D02*
X36820182Y-34817031D01*
X36820182Y-34817031D02*
X36829705Y-34836079D01*
X36829705Y-34836079D02*
X36839229Y-34874174D01*
X36839229Y-34874174D02*
X36839229Y-34921793D01*
X36839229Y-34921793D02*
X36829705Y-34959889D01*
X36829705Y-34959889D02*
X36820182Y-34978936D01*
X36820182Y-34978936D02*
X36810658Y-34988460D01*
X36810658Y-34988460D02*
X36791610Y-34997984D01*
X36791610Y-34997984D02*
X36772563Y-34997984D01*
X36772563Y-34997984D02*
X36753515Y-34988460D01*
X36753515Y-34988460D02*
X36743991Y-34978936D01*
X36743991Y-34978936D02*
X36734467Y-34959889D01*
X36734467Y-34959889D02*
X36724944Y-34921793D01*
X36724944Y-34921793D02*
X36724944Y-34874174D01*
X36724944Y-34874174D02*
X36734467Y-34836079D01*
X36734467Y-34836079D02*
X36743991Y-34817031D01*
X36743991Y-34817031D02*
X36753515Y-34807508D01*
X36753515Y-34807508D02*
X36772563Y-34797984D01*
X36963039Y-34797984D02*
X36982086Y-34797984D01*
X36982086Y-34797984D02*
X37001134Y-34807508D01*
X37001134Y-34807508D02*
X37010658Y-34817031D01*
X37010658Y-34817031D02*
X37020182Y-34836079D01*
X37020182Y-34836079D02*
X37029705Y-34874174D01*
X37029705Y-34874174D02*
X37029705Y-34921793D01*
X37029705Y-34921793D02*
X37020182Y-34959889D01*
X37020182Y-34959889D02*
X37010658Y-34978936D01*
X37010658Y-34978936D02*
X37001134Y-34988460D01*
X37001134Y-34988460D02*
X36982086Y-34997984D01*
X36982086Y-34997984D02*
X36963039Y-34997984D01*
X36963039Y-34997984D02*
X36943991Y-34988460D01*
X36943991Y-34988460D02*
X36934467Y-34978936D01*
X36934467Y-34978936D02*
X36924944Y-34959889D01*
X36924944Y-34959889D02*
X36915420Y-34921793D01*
X36915420Y-34921793D02*
X36915420Y-34874174D01*
X36915420Y-34874174D02*
X36924944Y-34836079D01*
X36924944Y-34836079D02*
X36934467Y-34817031D01*
X36934467Y-34817031D02*
X36943991Y-34807508D01*
X36943991Y-34807508D02*
X36963039Y-34797984D01*
X37115420Y-34997984D02*
X37115420Y-34864650D01*
X37115420Y-34883698D02*
X37124944Y-34874174D01*
X37124944Y-34874174D02*
X37143991Y-34864650D01*
X37143991Y-34864650D02*
X37172563Y-34864650D01*
X37172563Y-34864650D02*
X37191610Y-34874174D01*
X37191610Y-34874174D02*
X37201134Y-34893222D01*
X37201134Y-34893222D02*
X37201134Y-34997984D01*
X37201134Y-34893222D02*
X37210658Y-34874174D01*
X37210658Y-34874174D02*
X37229705Y-34864650D01*
X37229705Y-34864650D02*
X37258277Y-34864650D01*
X37258277Y-34864650D02*
X37277325Y-34874174D01*
X37277325Y-34874174D02*
X37286848Y-34893222D01*
X37286848Y-34893222D02*
X37286848Y-34997984D01*
X37382086Y-34997984D02*
X37382086Y-34864650D01*
X37382086Y-34883698D02*
X37391610Y-34874174D01*
X37391610Y-34874174D02*
X37410658Y-34864650D01*
X37410658Y-34864650D02*
X37439229Y-34864650D01*
X37439229Y-34864650D02*
X37458277Y-34874174D01*
X37458277Y-34874174D02*
X37467801Y-34893222D01*
X37467801Y-34893222D02*
X37467801Y-34997984D01*
X37467801Y-34893222D02*
X37477325Y-34874174D01*
X37477325Y-34874174D02*
X37496372Y-34864650D01*
X37496372Y-34864650D02*
X37524944Y-34864650D01*
X37524944Y-34864650D02*
X37543991Y-34874174D01*
X37543991Y-34874174D02*
X37553515Y-34893222D01*
X37553515Y-34893222D02*
X37553515Y-34997984D01*
X37943991Y-34788460D02*
X37772563Y-35045603D01*
X38201134Y-34797984D02*
X38220182Y-34797984D01*
X38220182Y-34797984D02*
X38239229Y-34807508D01*
X38239229Y-34807508D02*
X38248753Y-34817031D01*
X38248753Y-34817031D02*
X38258277Y-34836079D01*
X38258277Y-34836079D02*
X38267801Y-34874174D01*
X38267801Y-34874174D02*
X38267801Y-34921793D01*
X38267801Y-34921793D02*
X38258277Y-34959889D01*
X38258277Y-34959889D02*
X38248753Y-34978936D01*
X38248753Y-34978936D02*
X38239229Y-34988460D01*
X38239229Y-34988460D02*
X38220182Y-34997984D01*
X38220182Y-34997984D02*
X38201134Y-34997984D01*
X38201134Y-34997984D02*
X38182087Y-34988460D01*
X38182087Y-34988460D02*
X38172563Y-34978936D01*
X38172563Y-34978936D02*
X38163039Y-34959889D01*
X38163039Y-34959889D02*
X38153515Y-34921793D01*
X38153515Y-34921793D02*
X38153515Y-34874174D01*
X38153515Y-34874174D02*
X38163039Y-34836079D01*
X38163039Y-34836079D02*
X38172563Y-34817031D01*
X38172563Y-34817031D02*
X38182087Y-34807508D01*
X38182087Y-34807508D02*
X38201134Y-34797984D01*
X38353515Y-34978936D02*
X38363039Y-34988460D01*
X38363039Y-34988460D02*
X38353515Y-34997984D01*
X38353515Y-34997984D02*
X38343991Y-34988460D01*
X38343991Y-34988460D02*
X38353515Y-34978936D01*
X38353515Y-34978936D02*
X38353515Y-34997984D01*
X38486848Y-34797984D02*
X38505896Y-34797984D01*
X38505896Y-34797984D02*
X38524944Y-34807508D01*
X38524944Y-34807508D02*
X38534468Y-34817031D01*
X38534468Y-34817031D02*
X38543991Y-34836079D01*
X38543991Y-34836079D02*
X38553515Y-34874174D01*
X38553515Y-34874174D02*
X38553515Y-34921793D01*
X38553515Y-34921793D02*
X38543991Y-34959889D01*
X38543991Y-34959889D02*
X38534468Y-34978936D01*
X38534468Y-34978936D02*
X38524944Y-34988460D01*
X38524944Y-34988460D02*
X38505896Y-34997984D01*
X38505896Y-34997984D02*
X38486848Y-34997984D01*
X38486848Y-34997984D02*
X38467801Y-34988460D01*
X38467801Y-34988460D02*
X38458277Y-34978936D01*
X38458277Y-34978936D02*
X38448753Y-34959889D01*
X38448753Y-34959889D02*
X38439229Y-34921793D01*
X38439229Y-34921793D02*
X38439229Y-34874174D01*
X38439229Y-34874174D02*
X38448753Y-34836079D01*
X38448753Y-34836079D02*
X38458277Y-34817031D01*
X38458277Y-34817031D02*
X38467801Y-34807508D01*
X38467801Y-34807508D02*
X38486848Y-34797984D01*
X38743991Y-34997984D02*
X38629706Y-34997984D01*
X38686848Y-34997984D02*
X38686848Y-34797984D01*
X38686848Y-34797984D02*
X38667801Y-34826555D01*
X38667801Y-34826555D02*
X38648753Y-34845603D01*
X38648753Y-34845603D02*
X38629706Y-34855127D01*
X38924944Y-34797984D02*
X38829706Y-34797984D01*
X38829706Y-34797984D02*
X38820182Y-34893222D01*
X38820182Y-34893222D02*
X38829706Y-34883698D01*
X38829706Y-34883698D02*
X38848753Y-34874174D01*
X38848753Y-34874174D02*
X38896372Y-34874174D01*
X38896372Y-34874174D02*
X38915420Y-34883698D01*
X38915420Y-34883698D02*
X38924944Y-34893222D01*
X38924944Y-34893222D02*
X38934468Y-34912270D01*
X38934468Y-34912270D02*
X38934468Y-34959889D01*
X38934468Y-34959889D02*
X38924944Y-34978936D01*
X38924944Y-34978936D02*
X38915420Y-34988460D01*
X38915420Y-34988460D02*
X38896372Y-34997984D01*
X38896372Y-34997984D02*
X38848753Y-34997984D01*
X38848753Y-34997984D02*
X38829706Y-34988460D01*
X38829706Y-34988460D02*
X38820182Y-34978936D01*
X39001134Y-34797984D02*
X39134468Y-34797984D01*
X39134468Y-34797984D02*
X39048753Y-34997984D01*
X39201134Y-34797984D02*
X39201134Y-34836079D01*
X39277325Y-34797984D02*
X39277325Y-34836079D01*
X39572563Y-35074174D02*
X39563039Y-35064650D01*
X39563039Y-35064650D02*
X39543991Y-35036079D01*
X39543991Y-35036079D02*
X39534468Y-35017031D01*
X39534468Y-35017031D02*
X39524944Y-34988460D01*
X39524944Y-34988460D02*
X39515420Y-34940841D01*
X39515420Y-34940841D02*
X39515420Y-34902746D01*
X39515420Y-34902746D02*
X39524944Y-34855127D01*
X39524944Y-34855127D02*
X39534468Y-34826555D01*
X39534468Y-34826555D02*
X39543991Y-34807508D01*
X39543991Y-34807508D02*
X39563039Y-34778936D01*
X39563039Y-34778936D02*
X39572563Y-34769412D01*
X39629706Y-34797984D02*
X39753515Y-34797984D01*
X39753515Y-34797984D02*
X39686849Y-34874174D01*
X39686849Y-34874174D02*
X39715420Y-34874174D01*
X39715420Y-34874174D02*
X39734468Y-34883698D01*
X39734468Y-34883698D02*
X39743991Y-34893222D01*
X39743991Y-34893222D02*
X39753515Y-34912270D01*
X39753515Y-34912270D02*
X39753515Y-34959889D01*
X39753515Y-34959889D02*
X39743991Y-34978936D01*
X39743991Y-34978936D02*
X39734468Y-34988460D01*
X39734468Y-34988460D02*
X39715420Y-34997984D01*
X39715420Y-34997984D02*
X39658277Y-34997984D01*
X39658277Y-34997984D02*
X39639230Y-34988460D01*
X39639230Y-34988460D02*
X39629706Y-34978936D01*
X39829706Y-34817031D02*
X39839230Y-34807508D01*
X39839230Y-34807508D02*
X39858277Y-34797984D01*
X39858277Y-34797984D02*
X39905896Y-34797984D01*
X39905896Y-34797984D02*
X39924944Y-34807508D01*
X39924944Y-34807508D02*
X39934468Y-34817031D01*
X39934468Y-34817031D02*
X39943991Y-34836079D01*
X39943991Y-34836079D02*
X39943991Y-34855127D01*
X39943991Y-34855127D02*
X39934468Y-34883698D01*
X39934468Y-34883698D02*
X39820182Y-34997984D01*
X39820182Y-34997984D02*
X39943991Y-34997984D01*
X40010658Y-34797984D02*
X40134468Y-34797984D01*
X40134468Y-34797984D02*
X40067801Y-34874174D01*
X40067801Y-34874174D02*
X40096372Y-34874174D01*
X40096372Y-34874174D02*
X40115420Y-34883698D01*
X40115420Y-34883698D02*
X40124944Y-34893222D01*
X40124944Y-34893222D02*
X40134468Y-34912270D01*
X40134468Y-34912270D02*
X40134468Y-34959889D01*
X40134468Y-34959889D02*
X40124944Y-34978936D01*
X40124944Y-34978936D02*
X40115420Y-34988460D01*
X40115420Y-34988460D02*
X40096372Y-34997984D01*
X40096372Y-34997984D02*
X40039230Y-34997984D01*
X40039230Y-34997984D02*
X40020182Y-34988460D01*
X40020182Y-34988460D02*
X40010658Y-34978936D01*
X40372563Y-34997984D02*
X40372563Y-34797984D01*
X40458277Y-34997984D02*
X40458277Y-34893222D01*
X40458277Y-34893222D02*
X40448753Y-34874174D01*
X40448753Y-34874174D02*
X40429706Y-34864650D01*
X40429706Y-34864650D02*
X40401134Y-34864650D01*
X40401134Y-34864650D02*
X40382087Y-34874174D01*
X40382087Y-34874174D02*
X40372563Y-34883698D01*
X40582087Y-34997984D02*
X40563039Y-34988460D01*
X40563039Y-34988460D02*
X40553515Y-34978936D01*
X40553515Y-34978936D02*
X40543992Y-34959889D01*
X40543992Y-34959889D02*
X40543992Y-34902746D01*
X40543992Y-34902746D02*
X40553515Y-34883698D01*
X40553515Y-34883698D02*
X40563039Y-34874174D01*
X40563039Y-34874174D02*
X40582087Y-34864650D01*
X40582087Y-34864650D02*
X40610658Y-34864650D01*
X40610658Y-34864650D02*
X40629706Y-34874174D01*
X40629706Y-34874174D02*
X40639230Y-34883698D01*
X40639230Y-34883698D02*
X40648753Y-34902746D01*
X40648753Y-34902746D02*
X40648753Y-34959889D01*
X40648753Y-34959889D02*
X40639230Y-34978936D01*
X40639230Y-34978936D02*
X40629706Y-34988460D01*
X40629706Y-34988460D02*
X40610658Y-34997984D01*
X40610658Y-34997984D02*
X40582087Y-34997984D01*
X40763039Y-34997984D02*
X40743992Y-34988460D01*
X40743992Y-34988460D02*
X40734468Y-34969412D01*
X40734468Y-34969412D02*
X40734468Y-34797984D01*
X40915420Y-34988460D02*
X40896373Y-34997984D01*
X40896373Y-34997984D02*
X40858277Y-34997984D01*
X40858277Y-34997984D02*
X40839230Y-34988460D01*
X40839230Y-34988460D02*
X40829706Y-34969412D01*
X40829706Y-34969412D02*
X40829706Y-34893222D01*
X40829706Y-34893222D02*
X40839230Y-34874174D01*
X40839230Y-34874174D02*
X40858277Y-34864650D01*
X40858277Y-34864650D02*
X40896373Y-34864650D01*
X40896373Y-34864650D02*
X40915420Y-34874174D01*
X40915420Y-34874174D02*
X40924944Y-34893222D01*
X40924944Y-34893222D02*
X40924944Y-34912270D01*
X40924944Y-34912270D02*
X40829706Y-34931317D01*
X41001134Y-34988460D02*
X41020182Y-34997984D01*
X41020182Y-34997984D02*
X41058277Y-34997984D01*
X41058277Y-34997984D02*
X41077325Y-34988460D01*
X41077325Y-34988460D02*
X41086849Y-34969412D01*
X41086849Y-34969412D02*
X41086849Y-34959889D01*
X41086849Y-34959889D02*
X41077325Y-34940841D01*
X41077325Y-34940841D02*
X41058277Y-34931317D01*
X41058277Y-34931317D02*
X41029706Y-34931317D01*
X41029706Y-34931317D02*
X41010658Y-34921793D01*
X41010658Y-34921793D02*
X41001134Y-34902746D01*
X41001134Y-34902746D02*
X41001134Y-34893222D01*
X41001134Y-34893222D02*
X41010658Y-34874174D01*
X41010658Y-34874174D02*
X41029706Y-34864650D01*
X41029706Y-34864650D02*
X41058277Y-34864650D01*
X41058277Y-34864650D02*
X41077325Y-34874174D01*
X41153515Y-35074174D02*
X41163039Y-35064650D01*
X41163039Y-35064650D02*
X41182087Y-35036079D01*
X41182087Y-35036079D02*
X41191611Y-35017031D01*
X41191611Y-35017031D02*
X41201134Y-34988460D01*
X41201134Y-34988460D02*
X41210658Y-34940841D01*
X41210658Y-34940841D02*
X41210658Y-34902746D01*
X41210658Y-34902746D02*
X41201134Y-34855127D01*
X41201134Y-34855127D02*
X41191611Y-34826555D01*
X41191611Y-34826555D02*
X41182087Y-34807508D01*
X41182087Y-34807508D02*
X41163039Y-34778936D01*
X41163039Y-34778936D02*
X41153515Y-34769412D01*
M02*
