M48
; DRILL file {KiCad 9.0.0} date 2025-04-06T22:46:27+0530
; FORMAT={-:-/ absolute / metric / decimal}
; #@! TF.CreationDate,2025-04-06T22:46:27+05:30
; #@! TF.GenerationSoftware,Kicad,Pcbnew,9.0.0
; #@! TF.FileFunction,Plated,1,4,PTH
FMAT,2
METRIC
; #@! TA.AperFunction,Plated,PTH,ViaDrill
T1C0.300
; #@! TA.AperFunction,Plated,PTH,ViaDrill
T2C0.400
%
G90
G05
T1
X371.324Y-242.892
X372.418Y-244.487
X374.426Y-233.339
X374.505Y-247.01
X374.838Y-249.616
X375.302Y-259.774
X376.368Y-251.746
X377.351Y-241.546
X377.5Y-229.5
X377.83Y-237.421
X378.207Y-241.24
X378.256Y-228.782
X378.29Y-258.963
X378.925Y-237.977
X379.084Y-232.043
X379.145Y-241.935
X379.239Y-227.911
X379.35Y-229.5
X379.57Y-250.236
X379.75Y-237.983
X379.779Y-270.794
X380.379Y-285.295
X380.932Y-232.08
X381.278Y-208.164
X381.278Y-214.14
X381.278Y-286.593
X381.318Y-240.657
X381.75Y-237.964
X382.061Y-223.104
X382.261Y-232.716
X382.462Y-247.262
X382.963Y-220.116
X384.266Y-246.69
X384.324Y-243.964
X384.338Y-238.628
X384.606Y-300.472
X384.75Y-250.173
X385.164Y-246.734
X385.899Y-236.412
X385.961Y-234.325
X386.617Y-242.331
X386.653Y-237.46
X386.756Y-251.944
X387.254Y-232.802
X387.4Y-289.405
X387.487Y-238.371
X387.574Y-247.01
X387.92Y-300.798
X388.028Y-252.231
X388.085Y-232.407
X388.571Y-235.486
X389.681Y-237.071
X389.75Y-250.162
X389.919Y-297.651
X390.0Y-307.5
X390.453Y-248.198
X390.854Y-238.328
X392.573Y-297.12
X392.951Y-248.104
X393.23Y-252.986
X394.146Y-302.918
X396.219Y-234.994
X396.219Y-252.986
X396.462Y-243.756
X397.411Y-237.571
X398.343Y-247.507
X398.576Y-232.734
X398.72Y-244.022
X398.834Y-251.971
X398.952Y-243.191
X399.06Y-252.84
X399.424Y-236.131
X399.46Y-232.651
X399.53Y-234.59
X400.0Y-312.0
X400.173Y-243.288
X401.278Y-231.185
X401.351Y-247.266
X401.946Y-228.584
X401.982Y-240.665
X401.998Y-315.172
X402.0Y-318.727
X402.447Y-232.286
X402.579Y-234.632
X402.884Y-286.275
X403.092Y-252.268
X403.119Y-247.54
X403.16Y-240.467
X403.184Y-237.751
X403.287Y-232.081
X403.613Y-241.279
X403.961Y-228.488
X404.094Y-242.035
X404.418Y-229.316
X404.598Y-237.729
X404.75Y-232.029
X405.168Y-294.821
X405.183Y-252.142
X405.5Y-292.5
X405.579Y-309.74
X405.768Y-213.659
X405.792Y-241.836
X405.863Y-244.147
X406.132Y-289.791
X406.207Y-313.774
X406.5Y-217.0
X406.692Y-226.093
X407.0Y-216.0
X407.299Y-285.099
X407.421Y-235.334
X407.471Y-253.258
X407.489Y-232.044
X407.652Y-252.208
X407.654Y-241.4
X407.928Y-216.0
X407.987Y-237.034
X407.991Y-234.469
X408.15Y-264.939
X408.53Y-214.937
X408.949Y-246.575
X409.077Y-252.708
X409.214Y-278.961
X410.039Y-231.393
X410.434Y-251.89
X410.631Y-264.939
X410.64Y-291.443
X410.686Y-231.934
X410.708Y-239.703
X411.24Y-268.5
X411.488Y-244.023
X411.488Y-246.707
X411.685Y-251.96
X411.718Y-230.83
X411.859Y-289.56
X412.338Y-237.905
X412.445Y-235.318
X412.446Y-232.966
X412.771Y-231.744
X413.0Y-263.0
X413.143Y-248.001
X413.365Y-252.222
X413.517Y-277.954
X413.775Y-244.022
X414.147Y-286.275
X414.406Y-267.206
X415.074Y-217.126
X415.074Y-237.034
X416.085Y-252.102
X416.197Y-221.051
X416.247Y-324.201
X416.391Y-219.217
X416.55Y-316.212
X416.55Y-318.68
X416.825Y-300.224
X416.938Y-252.104
X417.135Y-264.939
X417.137Y-246.782
X418.22Y-255.975
X418.757Y-219.878
X419.582Y-212.14
X419.582Y-220.116
X420.0Y-292.086
X420.123Y-208.164
X420.123Y-240.053
X422.187Y-281.936
X422.552Y-282.868
X422.596Y-233.585
X422.596Y-236.208
X422.596Y-251.807
X422.917Y-240.354
X423.112Y-193.222
X423.735Y-316.629
X424.09Y-306.182
X424.19Y-233.172
X424.289Y-246.474
X424.353Y-248.109
X425.259Y-235.444
X425.413Y-239.034
X425.668Y-233.867
X426.141Y-292.249
X426.311Y-240.165
X426.49Y-234.724
X426.622Y-232.069
X427.033Y-234.13
X427.252Y-247.167
X427.5Y-190.0
X428.147Y-248.104
X428.463Y-251.929
X428.5Y-201.5
X428.5Y-211.5
X428.604Y-229.409
X428.832Y-252.73
X429.088Y-223.104
X429.108Y-241.624
X429.509Y-234.488
X429.74Y-251.527
X429.991Y-317.976
X430.038Y-233.314
X430.491Y-246.164
X430.613Y-232.187
X430.807Y-247.01
X430.844Y-237.618
X431.091Y-240.667
X431.162Y-228.489
X431.758Y-237.964
X431.851Y-294.821
X431.898Y-240.466
X431.899Y-288.771
X431.942Y-313.343
X432.076Y-184.258
X432.076Y-207.366
X432.159Y-251.627
X432.25Y-232.022
X432.762Y-237.783
X432.767Y-220.116
X433.024Y-244.982
X433.06Y-232.092
X433.555Y-319.177
X433.894Y-290.015
X434.045Y-240.477
X434.065Y-245.047
X434.074Y-232.035
X434.077Y-237.622
X434.077Y-270.917
X434.173Y-252.349
X434.299Y-287.743
X434.596Y-297.017
X434.741Y-244.016
X434.818Y-199.199
X435.0Y-189.617
X435.064Y-255.975
X435.072Y-232.33
X435.307Y-234.009
X435.357Y-236.085
X435.454Y-228.097
X435.471Y-237.37
X435.67Y-251.844
X435.895Y-200.03
X436.199Y-297.558
X437.081Y-202.21
X437.149Y-244.089
X437.55Y-252.986
X437.627Y-231.345
X437.748Y-239.72
X437.855Y-243.427
X437.963Y-244.541
X437.98Y-247.009
X438.0Y-247.906
X438.042Y-293.776
X438.052Y-211.398
X438.052Y-304.149
X438.849Y-301.057
X439.355Y-235.925
X439.393Y-226.091
X439.559Y-291.443
X440.0Y-302.0
X440.079Y-244.022
X440.76Y-193.904
X440.954Y-286.863
X441.163Y-229.596
X441.368Y-247.087
X441.5Y-295.926
X441.5Y-297.126
X441.5Y-298.0
X441.5Y-298.971
X441.861Y-294.6
X441.862Y-279.28
X442.208Y-240.655
X442.5Y-227.5
X442.648Y-244.103
X443.214Y-217.046
X443.5Y-203.5
X443.5Y-205.398
X443.66Y-297.66
X444.207Y-280.897
X444.241Y-282.947
X444.242Y-231.824
X444.242Y-251.806
X444.242Y-279.083
X444.293Y-207.105
X444.393Y-246.713
X444.5Y-203.5
X444.5Y-204.5
X444.5Y-208.893
X444.584Y-297.584
X444.902Y-282.011
X445.0Y-207.5
X445.0Y-218.5
X445.0Y-219.5
X445.0Y-220.5
X445.0Y-278.483
X445.0Y-281.0
X445.508Y-297.508
X446.0Y-200.5
X446.0Y-209.0
X446.379Y-241.233
X446.5Y-236.0
X446.828Y-318.539
X447.0Y-200.5
X447.016Y-252.714
X447.257Y-243.778
X447.414Y-181.951
X447.5Y-197.5
X447.512Y-199.885
X448.129Y-248.171
X448.2Y-290.77
X448.5Y-196.5
X448.674Y-229.326
X449.105Y-193.222
X449.125Y-289.254
X449.148Y-251.907
X449.2Y-195.5
X449.2Y-209.4
X449.38Y-290.756
X449.51Y-316.936
X449.714Y-210.013
X450.0Y-231.5
X450.0Y-323.456
X450.003Y-303.786
X450.003Y-312.507
X450.004Y-211.152
X450.004Y-258.963
X450.5Y-209.5
X450.519Y-196.0
X450.566Y-230.934
X450.885Y-317.195
X451.33Y-320.738
X451.773Y-324.971
X451.776Y-209.624
X451.866Y-252.986
X452.0Y-198.9
X452.547Y-295.834
X452.735Y-247.847
X452.865Y-262.18
X452.959Y-237.023
X452.983Y-255.984
X453.5Y-298.5
X453.605Y-217.295
X453.8Y-199.5
X453.8Y-200.5
X453.826Y-262.863
X453.873Y-237.407
X454.023Y-247.962
X454.092Y-236.156
X455.0Y-219.5
X455.0Y-220.5
X455.0Y-221.5
X455.088Y-295.018
X455.73Y-193.904
X456.846Y-295.925
X457.5Y-228.0
X458.0Y-295.925
X458.217Y-247.178
X458.694Y-280.959
X458.737Y-312.688
X458.753Y-252.03
X458.926Y-267.97
X458.976Y-261.369
X459.459Y-277.574
X459.593Y-258.166
X460.65Y-253.028
X460.783Y-262.731
X461.178Y-255.975
X461.504Y-267.678
X461.513Y-261.17
X461.957Y-296.525
X462.064Y-248.124
X462.097Y-252.987
X462.401Y-205.175
X462.506Y-235.318
X462.506Y-245.09
X462.603Y-268.653
X463.0Y-248.191
X464.166Y-252.177
X464.292Y-288.152
X464.518Y-266.973
X464.538Y-264.28
X464.732Y-271.167
X464.8Y-273.904
X464.925Y-247.814
X464.945Y-199.582
X464.945Y-283.209
X465.0Y-190.405
X465.0Y-322.97
X465.018Y-205.102
X465.173Y-297.443
X465.271Y-253.296
X465.748Y-259.539
X465.939Y-252.62
X466.121Y-267.975
X466.321Y-262.276
X466.5Y-188.5
X466.799Y-292.057
X467.0Y-292.943
X467.314Y-258.308
X467.55Y-262.008
X467.565Y-252.344
X467.575Y-306.034
X467.732Y-321.715
X467.75Y-267.992
X467.912Y-325.455
X467.933Y-241.623
X467.933Y-300.8
X467.996Y-247.759
X468.548Y-262.549
X468.629Y-267.88
X468.88Y-258.938
X469.271Y-271.184
X469.575Y-258.473
X469.723Y-262.223
X469.839Y-266.965
X470.038Y-198.37
X470.213Y-265.406
X470.238Y-255.486
X470.39Y-248.178
X470.461Y-237.555
X470.536Y-291.835
X470.812Y-272.178
X470.95Y-198.733
X470.95Y-211.252
X470.95Y-218.712
X471.906Y-253.294
X472.055Y-248.045
X472.082Y-261.442
X472.119Y-258.31
X472.57Y-255.975
X472.832Y-253.602
X473.097Y-248.113
X473.146Y-259.149
X473.148Y-294.622
X474.481Y-253.748
X474.485Y-254.646
X474.691Y-248.325
X474.691Y-270.449
X475.086Y-256.207
X475.985Y-306.331
X476.269Y-316.16
X476.432Y-262.606
X476.894Y-264.939
X476.897Y-181.27
X476.897Y-291.037
X476.897Y-303.788
X477.107Y-190.205
X477.192Y-265.929
X477.5Y-187.694
X478.69Y-260.068
X479.088Y-268.028
X479.332Y-248.092
X479.608Y-220.116
X479.611Y-211.78
X479.618Y-205.175
X479.646Y-318.727
X479.885Y-270.584
X479.885Y-324.703
X480.899Y-245.032
X480.924Y-247.59
X481.004Y-245.825
X481.765Y-255.975
X482.148Y-207.498
X482.222Y-228.708
X482.41Y-214.402
X482.492Y-239.192
X482.499Y-236.91
X482.54Y-297.81
X482.648Y-255.138
X483.168Y-248.131
X483.233Y-202.187
X483.45Y-196.271
X483.45Y-315.754
X483.711Y-241.52
X483.75Y-244.432
X483.973Y-293.626
X484.08Y-256.662
X484.155Y-261.527
X484.164Y-236.142
X484.456Y-242.522
X484.508Y-253.293
X485.059Y-230.116
X485.377Y-240.194
X485.694Y-244.01
X485.777Y-315.369
X485.855Y-253.859
X485.86Y-268.433
X485.862Y-211.152
X485.986Y-247.04
X486.55Y-320.736
X486.61Y-198.727
X486.928Y-272.524
X487.0Y-259.582
X487.03Y-234.391
X487.03Y-235.231
X487.105Y-261.817
X487.521Y-253.329
X487.523Y-237.523
X487.696Y-242.23
X487.714Y-233.104
X488.139Y-232.381
X488.356Y-247.484
X488.392Y-265.528
X488.706Y-256.111
X488.742Y-190.744
X488.75Y-241.459
X488.759Y-186.157
X488.85Y-208.628
X488.85Y-271.845
X488.988Y-255.146
X489.114Y-228.337
X489.118Y-253.398
X489.243Y-232.378
X489.372Y-289.732
X489.402Y-240.744
X489.482Y-265.88
X489.532Y-237.622
X489.599Y-260.221
X489.728Y-315.248
X489.847Y-229.394
X489.931Y-261.082
X490.299Y-237.395
X490.777Y-259.488
X490.868Y-247.912
X491.028Y-229.513
X491.05Y-240.5
X491.186Y-213.694
X491.431Y-307.309
X491.431Y-311.281
X491.635Y-232.016
X491.671Y-273.904
X491.882Y-258.755
X491.952Y-282.242
X492.008Y-265.754
X492.014Y-262.314
X492.041Y-187.076
X492.072Y-266.958
X492.164Y-202.816
X492.308Y-279.88
X492.657Y-248.111
X492.677Y-253.326
X492.774Y-235.998
X492.99Y-233.993
X492.99Y-234.794
X493.016Y-262.009
X493.91Y-247.508
X494.371Y-258.529
X494.503Y-253.452
X494.578Y-272.672
X494.746Y-262.289
X495.0Y-279.88
X495.124Y-231.345
X495.125Y-247.008
X495.25Y-270.476
X495.286Y-267.31
X495.638Y-232.957
X495.64Y-262.013
X495.643Y-235.851
X495.662Y-272.027
X495.708Y-253.803
X496.254Y-267.933
X496.6Y-244.896
X496.633Y-244.097
X496.825Y-271.853
X496.961Y-231.798
X497.015Y-257.554
X497.188Y-312.75
X497.281Y-233.118
X497.33Y-264.5
X497.332Y-263.653
X497.432Y-217.291
X497.5Y-244.0
X497.571Y-246.902
X497.639Y-234.922
X497.652Y-265.238
X497.725Y-187.127
X497.79Y-267.094
X497.813Y-232.505
X497.814Y-300.798
X497.991Y-318.257
X498.267Y-253.297
X498.48Y-208.134
X498.629Y-268.653
X499.658Y-248.156
X500.0Y-311.886
X500.306Y-268.653
X500.488Y-264.994
X500.744Y-266.615
X500.802Y-229.228
X500.802Y-274.701
X500.802Y-282.755
X500.914Y-248.054
X501.258Y-190.744
X501.312Y-261.228
X501.434Y-198.873
X501.461Y-308.884
X501.561Y-246.904
X501.565Y-251.877
X501.869Y-259.623
X502.592Y-245.843
X502.887Y-247.094
X503.135Y-259.671
X503.527Y-211.092
X503.732Y-294.821
X503.975Y-259.258
X505.126Y-246.586
X505.499Y-256.279
X505.85Y-207.536
X505.912Y-217.19
X505.962Y-253.628
X506.193Y-263.856
X506.752Y-252.476
X506.778Y-199.849
X506.778Y-265.735
X506.778Y-294.821
X507.665Y-212.122
X508.65Y-248.084
X509.057Y-254.343
X509.724Y-246.961
X509.766Y-294.821
X510.0Y-288.845
X510.088Y-247.731
X510.089Y-255.511
X511.78Y-238.855
X512.325Y-261.967
X512.585Y-242.847
X512.754Y-233.084
X513.232Y-263.988
X513.553Y-258.872
X514.372Y-264.57
X514.446Y-257.077
X514.75Y-249.929
X515.122Y-304.708
X515.324Y-241.034
X515.624Y-252.915
X515.743Y-297.725
X516.0Y-257.5
X516.288Y-241.084
X516.514Y-234.555
X517.409Y-266.88
X517.568Y-245.886
X517.635Y-264.005
X517.684Y-234.592
X518.121Y-231.105
X518.193Y-267.984
X518.731Y-234.788
X518.75Y-262.0
X519.018Y-259.206
X519.109Y-288.732
X519.241Y-273.188
X520.25Y-262.031
X520.25Y-267.989
X520.494Y-242.924
X520.687Y-271.183
X521.05Y-267.999
X521.056Y-273.904
X521.112Y-262.725
X521.146Y-247.605
X521.223Y-259.349
X521.381Y-276.892
X521.679Y-267.378
X521.818Y-243.807
X522.279Y-268.104
X522.453Y-264.5
X522.781Y-262.882
X524.243Y-268.392
X524.278Y-252.943
X524.677Y-261.198
X524.707Y-237.523
X524.707Y-247.01
X524.707Y-258.963
X525.392Y-250.895
X525.46Y-265.658
X525.504Y-256.09
X526.123Y-264.472
X527.593Y-264.966
T2
X372.5Y-272.404
X372.5Y-277.596
X375.0Y-272.459
X375.0Y-277.608
X375.952Y-277.605
X376.581Y-230.106
X377.215Y-240.523
X377.5Y-272.399
X379.95Y-272.466
X380.299Y-229.657
X380.35Y-277.604
X380.38Y-240.517
X381.432Y-248.185
X382.206Y-277.604
X382.75Y-243.5
X383.5Y-229.382
X383.736Y-272.574
X384.0Y-248.164
X385.0Y-272.438
X385.0Y-277.592
X386.5Y-248.197
X387.5Y-272.418
X387.5Y-277.569
X387.589Y-304.433
X389.405Y-248.197
X389.55Y-209.585
X390.0Y-272.431
X390.0Y-277.605
X390.498Y-304.384
X391.5Y-248.181
X392.5Y-272.429
X392.786Y-277.604
X393.4Y-303.713
X394.0Y-248.176
X395.0Y-272.395
X395.0Y-277.565
X396.275Y-309.318
X396.5Y-248.183
X396.966Y-277.563
X397.5Y-272.397
X397.88Y-198.728
X399.0Y-248.004
X399.1Y-316.178
X399.1Y-317.681
X399.682Y-277.604
X400.0Y-307.836
X400.684Y-272.423
X401.5Y-248.19
X401.595Y-230.311
X401.613Y-239.0
X402.5Y-272.393
X402.5Y-277.587
X402.818Y-217.527
X404.0Y-248.195
X405.0Y-272.389
X405.0Y-277.578
X405.045Y-267.685
X405.25Y-228.745
X405.287Y-289.586
X405.5Y-240.5
X405.539Y-319.376
X406.902Y-248.188
X407.274Y-277.585
X407.285Y-240.598
X407.5Y-272.44
X407.729Y-205.869
X408.376Y-316.157
X408.729Y-308.772
X408.851Y-213.412
X409.0Y-230.5
X409.0Y-248.188
X410.0Y-272.403
X410.0Y-277.589
X410.5Y-322.5
X411.494Y-286.358
X411.502Y-248.198
X412.001Y-277.563
X412.502Y-272.377
X413.116Y-267.205
X413.731Y-318.687
X413.801Y-247.33
X414.427Y-322.063
X414.462Y-312.6
X414.68Y-277.563
X415.0Y-272.382
X417.136Y-248.348
X417.161Y-245.982
X417.266Y-277.604
X417.5Y-272.417
X417.5Y-327.102
X418.45Y-196.306
X418.45Y-316.231
X418.45Y-318.639
X420.0Y-272.454
X420.0Y-277.586
X420.0Y-287.824
X421.5Y-248.186
X421.732Y-251.812
X422.5Y-272.373
X422.5Y-277.57
X422.959Y-211.834
X422.962Y-205.132
X422.977Y-220.116
X425.0Y-272.432
X425.443Y-277.563
X426.5Y-248.19
X427.227Y-277.604
X427.5Y-272.466
X428.825Y-318.596
X429.0Y-247.5
X429.084Y-239.891
X429.106Y-230.529
X429.3Y-323.2
X429.623Y-277.604
X430.0Y-180.0
X430.0Y-272.417
X430.0Y-298.624
X431.5Y-248.178
X432.363Y-272.404
X432.583Y-229.476
X432.704Y-277.563
X432.785Y-240.464
X433.602Y-312.759
X433.845Y-293.141
X434.052Y-248.186
X434.106Y-277.563
X435.0Y-272.433
X435.192Y-241.174
X435.919Y-231.362
X436.398Y-178.828
X436.398Y-181.178
X436.5Y-248.188
X437.5Y-272.429
X437.5Y-277.599
X438.214Y-317.584
X439.284Y-248.196
X439.998Y-272.424
X440.0Y-277.582
X441.5Y-248.197
X444.0Y-248.192
X444.302Y-193.931
X445.57Y-222.73
X446.395Y-282.722
X446.5Y-248.175
X449.0Y-248.166
X450.209Y-297.549
X450.402Y-179.072
X450.434Y-202.948
X450.5Y-251.802
X450.875Y-289.245
X450.9Y-191.227
X450.9Y-306.268
X450.95Y-331.323
X452.417Y-315.19
X452.426Y-322.5
X452.561Y-181.981
X453.0Y-251.828
X455.5Y-251.808
X458.137Y-251.363
X458.596Y-223.194
X459.272Y-193.93
X459.931Y-317.654
X460.0Y-227.589
X460.5Y-251.82
X461.895Y-286.605
X461.957Y-181.0
X462.308Y-222.409
X462.5Y-227.584
X463.256Y-251.803
X463.5Y-278.0
X463.602Y-312.83
X463.729Y-322.814
X463.845Y-293.249
X464.106Y-268.653
X464.752Y-259.524
X465.0Y-222.392
X465.0Y-227.533
X465.5Y-251.812
X466.398Y-178.828
X466.398Y-181.174
X467.25Y-259.449
X467.25Y-270.535
X467.455Y-250.003
X467.5Y-227.596
X467.858Y-199.604
X468.381Y-318.635
X468.611Y-222.429
X469.05Y-211.298
X469.05Y-218.684
X470.0Y-227.605
X470.285Y-259.503
X470.374Y-222.429
X470.5Y-251.823
X471.02Y-301.453
X472.248Y-269.5
X472.5Y-227.562
X472.783Y-222.389
X473.0Y-251.816
X474.05Y-188.693
X474.642Y-227.548
X474.692Y-222.385
X475.55Y-252.738
X476.244Y-184.154
X476.55Y-206.262
X476.55Y-218.682
X476.972Y-211.21
X477.272Y-222.389
X477.5Y-227.558
X478.0Y-251.821
X480.0Y-222.378
X480.0Y-289.549
X480.5Y-251.825
X480.876Y-227.548
X481.55Y-196.271
X482.09Y-315.821
X482.379Y-222.42
X482.5Y-227.574
X482.731Y-321.898
X482.926Y-252.471
X483.45Y-320.77
X485.0Y-227.56
X485.351Y-222.409
X485.5Y-251.803
X486.0Y-231.0
X486.418Y-201.329
X486.446Y-208.961
X487.031Y-213.536
X487.25Y-240.549
X487.288Y-227.572
X487.368Y-222.409
X488.37Y-251.99
X488.45Y-313.309
X488.52Y-286.393
X488.721Y-189.178
X488.756Y-184.154
X488.902Y-288.263
X489.498Y-222.389
X489.612Y-321.825
X490.25Y-240.499
X490.391Y-232.048
X490.853Y-251.815
X491.029Y-227.994
X491.566Y-269.909
X492.25Y-259.539
X492.5Y-222.372
X492.684Y-208.803
X492.763Y-238.545
X493.328Y-251.803
X493.394Y-231.01
X494.083Y-267.621
X494.622Y-310.12
X494.634Y-214.715
X494.643Y-319.743
X494.75Y-259.506
X495.0Y-222.416
X495.0Y-227.566
X495.0Y-287.521
X495.703Y-251.804
X497.486Y-279.88
X497.5Y-182.894
X497.5Y-222.433
X497.5Y-227.58
X497.519Y-285.515
X497.634Y-267.964
X498.0Y-251.813
X498.391Y-260.503
X500.233Y-227.582
X500.321Y-222.409
X500.539Y-251.807
X501.1Y-318.202
X501.279Y-189.178
X501.418Y-201.329
X501.473Y-218.955
X502.717Y-222.409
X502.946Y-208.91
X503.0Y-251.833
X503.221Y-227.582
X504.475Y-222.409
X505.208Y-227.567
X505.5Y-251.813
X505.791Y-308.022
X506.473Y-211.028
X506.91Y-222.409
X507.027Y-297.639
X507.121Y-202.481
X507.5Y-227.565
X508.0Y-251.819
X508.52Y-288.58
X508.774Y-308.99
X509.946Y-218.947
X510.0Y-222.393
X510.0Y-227.566
X510.173Y-208.916
X510.5Y-251.818
X512.5Y-222.417
X512.5Y-227.591
X513.0Y-251.833
X513.144Y-303.603
X513.52Y-298.56
X513.893Y-222.445
X515.0Y-227.594
X515.076Y-211.972
X515.5Y-251.837
X516.612Y-269.02
X517.633Y-257.014
X517.715Y-262.013
X518.0Y-251.825
X518.035Y-222.409
X518.378Y-227.582
X518.52Y-286.397
X519.52Y-292.481
X519.75Y-270.498
X519.794Y-222.409
X521.096Y-231.103
X522.183Y-222.389
X522.5Y-227.551
X522.858Y-262.018
X523.418Y-269.893
X525.0Y-222.426
X525.0Y-227.559
X525.0Y-234.989
X526.432Y-227.562
X527.5Y-222.423
M30
