G04*
G04 #@! TF.GenerationSoftware,Altium Limited,Altium Designer,25.4.2 (15)*
G04*
G04 Layer_Color=32768*
%FSLAX44Y44*%
%MOMM*%
G71*
G04*
G04 #@! TF.SameCoordinates,122F49FF-69CD-467C-8DFD-42ED72D14C47*
G04*
G04*
G04 #@! TF.FilePolarity,Positive*
G04*
G01*
G75*
%ADD30C,0.1778*%
D30*
X259990Y245914D02*
Y237450D01*
X261683Y235757D01*
X265068D01*
X266761Y237450D01*
Y245914D01*
X270147Y235757D02*
X273532D01*
X271840D01*
Y245914D01*
X270147Y244221D01*
X142327Y263316D02*
X144020Y261623D01*
X147405D01*
X149098Y263316D01*
Y270087D01*
X147405Y271780D01*
X144020D01*
X142327Y270087D01*
X132170Y271780D02*
X138941D01*
X132170Y265009D01*
Y263316D01*
X133863Y261623D01*
X137248D01*
X138941Y263316D01*
X383627Y237916D02*
X385320Y236223D01*
X388705D01*
X390398Y237916D01*
Y244687D01*
X388705Y246380D01*
X385320D01*
X383627Y244687D01*
X375163Y246380D02*
Y236223D01*
X380241Y241302D01*
X373470D01*
X142327Y237916D02*
X144020Y236223D01*
X147405D01*
X149098Y237916D01*
Y244687D01*
X147405Y246380D01*
X144020D01*
X142327Y244687D01*
X138941Y237916D02*
X137248Y236223D01*
X133863D01*
X132170Y237916D01*
Y239609D01*
X133863Y241302D01*
X135556D01*
X133863D01*
X132170Y242994D01*
Y244687D01*
X133863Y246380D01*
X137248D01*
X138941Y244687D01*
X97150Y68750D02*
Y58593D01*
X92072D01*
X90379Y60286D01*
Y63672D01*
X92072Y65364D01*
X97150D01*
X93764D02*
X90379Y68750D01*
X86993D02*
X83608D01*
X85301D01*
Y58593D01*
X86993Y60286D01*
X301734Y112761D02*
X300041Y111068D01*
Y107683D01*
X301734Y105990D01*
X303427D01*
X305119Y107683D01*
Y111068D01*
X306812Y112761D01*
X308505D01*
X310198Y111068D01*
Y107683D01*
X308505Y105990D01*
X300041Y116147D02*
X310198D01*
X306812Y119532D01*
X310198Y122918D01*
X300041D01*
X310198Y133074D02*
Y126303D01*
X303427Y133074D01*
X301734D01*
X300041Y131382D01*
Y127996D01*
X301734Y126303D01*
X256627Y149016D02*
X258320Y147323D01*
X261705D01*
X263398Y149016D01*
Y155787D01*
X261705Y157480D01*
X258320D01*
X256627Y155787D01*
X253241Y157480D02*
X249856D01*
X251549D01*
Y147323D01*
X253241Y149016D01*
X182250Y159850D02*
Y170007D01*
X187328D01*
X189021Y168314D01*
Y164928D01*
X187328Y163236D01*
X182250D01*
X185636D02*
X189021Y159850D01*
X197485D02*
Y170007D01*
X192407Y164928D01*
X199178D01*
X295166Y39639D02*
X296859Y41332D01*
Y44717D01*
X295166Y46410D01*
X293473D01*
X291780Y44717D01*
Y41332D01*
X290088Y39639D01*
X288395D01*
X286702Y41332D01*
Y44717D01*
X288395Y46410D01*
X296859Y36253D02*
X286702D01*
X290088Y32868D01*
X286702Y29482D01*
X296859D01*
X286702Y21018D02*
X296859D01*
X291780Y26097D01*
Y19326D01*
X214361Y41166D02*
X212668Y42859D01*
X209283D01*
X207590Y41166D01*
Y39473D01*
X209283Y37780D01*
X212668D01*
X214361Y36088D01*
Y34395D01*
X212668Y32702D01*
X209283D01*
X207590Y34395D01*
X217747Y42859D02*
Y32702D01*
X221132Y36088D01*
X224518Y32702D01*
Y42859D01*
X227903Y32702D02*
X231289D01*
X229596D01*
Y42859D01*
X227903Y41166D01*
X377934Y125461D02*
X376241Y123768D01*
Y120383D01*
X377934Y118690D01*
X379627D01*
X381320Y120383D01*
Y123768D01*
X383012Y125461D01*
X384705D01*
X386398Y123768D01*
Y120383D01*
X384705Y118690D01*
X376241Y128847D02*
X386398D01*
X383012Y132232D01*
X386398Y135618D01*
X376241D01*
X377934Y139003D02*
X376241Y140696D01*
Y144082D01*
X377934Y145774D01*
X379627D01*
X381320Y144082D01*
Y142389D01*
Y144082D01*
X383012Y145774D01*
X384705D01*
X386398Y144082D01*
Y140696D01*
X384705Y139003D01*
X372750Y185250D02*
Y195407D01*
X377828D01*
X379521Y193714D01*
Y190328D01*
X377828Y188636D01*
X372750D01*
X376136D02*
X379521Y185250D01*
X382907Y195407D02*
X389678D01*
Y193714D01*
X382907Y186943D01*
Y185250D01*
X29850Y121750D02*
Y131907D01*
X34928D01*
X36621Y130214D01*
Y126828D01*
X34928Y125136D01*
X29850D01*
X33236D02*
X36621Y121750D01*
X46778Y131907D02*
X40007D01*
Y126828D01*
X43392Y128521D01*
X45085D01*
X46778Y126828D01*
Y123443D01*
X45085Y121750D01*
X41700D01*
X40007Y123443D01*
X106050Y83650D02*
Y93807D01*
X111128D01*
X112821Y92114D01*
Y88728D01*
X111128Y87036D01*
X106050D01*
X109436D02*
X112821Y83650D01*
X116207Y92114D02*
X117900Y93807D01*
X121285D01*
X122978Y92114D01*
Y90421D01*
X121285Y88728D01*
X119592D01*
X121285D01*
X122978Y87036D01*
Y85343D01*
X121285Y83650D01*
X117900D01*
X116207Y85343D01*
X106050Y134450D02*
Y144607D01*
X111128D01*
X112821Y142914D01*
Y139528D01*
X111128Y137836D01*
X106050D01*
X109436D02*
X112821Y134450D01*
X122978D02*
X116207D01*
X122978Y141221D01*
Y142914D01*
X121285Y144607D01*
X117900D01*
X116207Y142914D01*
X118750Y185250D02*
Y195407D01*
X123828D01*
X125521Y193714D01*
Y190328D01*
X123828Y188636D01*
X118750D01*
X122136D02*
X125521Y185250D01*
X135678Y195407D02*
X132292Y193714D01*
X128907Y190328D01*
Y186943D01*
X130599Y185250D01*
X133985D01*
X135678Y186943D01*
Y188636D01*
X133985Y190328D01*
X128907D01*
X370927Y263316D02*
X372620Y261623D01*
X376005D01*
X377698Y263316D01*
Y270087D01*
X376005Y271780D01*
X372620D01*
X370927Y270087D01*
X360770Y261623D02*
X367541D01*
Y266702D01*
X364156Y265009D01*
X362463D01*
X360770Y266702D01*
Y270087D01*
X362463Y271780D01*
X365849D01*
X367541Y270087D01*
X182250Y109050D02*
Y119207D01*
X187328D01*
X189021Y117514D01*
Y114128D01*
X187328Y112436D01*
X182250D01*
X185636D02*
X189021Y109050D01*
X192407Y117514D02*
X194100Y119207D01*
X197485D01*
X199178Y117514D01*
Y115821D01*
X197485Y114128D01*
X199178Y112436D01*
Y110743D01*
X197485Y109050D01*
X194100D01*
X192407Y110743D01*
Y112436D01*
X194100Y114128D01*
X192407Y115821D01*
Y117514D01*
X194100Y114128D02*
X197485D01*
M02*
