G04*
G04 #@! TF.GenerationSoftware,Altium Limited,Altium Designer,25.4.2 (15)*
G04*
G04 Layer_Color=8388736*
%FSLAX44Y44*%
%MOMM*%
G71*
G04*
G04 #@! TF.SameCoordinates,122F49FF-69CD-467C-8DFD-42ED72D14C47*
G04*
G04*
G04 #@! TF.FilePolarity,Negative*
G04*
G01*
G75*
G04:AMPARAMS|DCode=13|XSize=1mm|YSize=1.6mm|CornerRadius=0.25mm|HoleSize=0mm|Usage=FLASHONLY|Rotation=0.000|XOffset=0mm|YOffset=0mm|HoleType=Round|Shape=RoundedRectangle|*
%AMROUNDEDRECTD13*
21,1,1.0000,1.1000,0,0,0.0*
21,1,0.5000,1.6000,0,0,0.0*
1,1,0.5000,0.2500,-0.5500*
1,1,0.5000,-0.2500,-0.5500*
1,1,0.5000,-0.2500,0.5500*
1,1,0.5000,0.2500,0.5500*
%
%ADD13ROUNDEDRECTD13*%
G04:AMPARAMS|DCode=14|XSize=1.6mm|YSize=1mm|CornerRadius=0.25mm|HoleSize=0mm|Usage=FLASHONLY|Rotation=0.000|XOffset=0mm|YOffset=0mm|HoleType=Round|Shape=RoundedRectangle|*
%AMROUNDEDRECTD14*
21,1,1.6000,0.5000,0,0,0.0*
21,1,1.1000,1.0000,0,0,0.0*
1,1,0.5000,0.5500,-0.2500*
1,1,0.5000,-0.5500,-0.2500*
1,1,0.5000,-0.5500,0.2500*
1,1,0.5000,0.5500,0.2500*
%
%ADD14ROUNDEDRECTD14*%
G04:AMPARAMS|DCode=19|XSize=0.9mm|YSize=1mm|CornerRadius=0.225mm|HoleSize=0mm|Usage=FLASHONLY|Rotation=0.000|XOffset=0mm|YOffset=0mm|HoleType=Round|Shape=RoundedRectangle|*
%AMROUNDEDRECTD19*
21,1,0.9000,0.5500,0,0,0.0*
21,1,0.4500,1.0000,0,0,0.0*
1,1,0.4500,0.2250,-0.2750*
1,1,0.4500,-0.2250,-0.2750*
1,1,0.4500,-0.2250,0.2750*
1,1,0.4500,0.2250,0.2750*
%
%ADD19ROUNDEDRECTD19*%
G04:AMPARAMS|DCode=20|XSize=1.128mm|YSize=1.228mm|CornerRadius=0.314mm|HoleSize=0mm|Usage=FLASHONLY|Rotation=90.000|XOffset=0mm|YOffset=0mm|HoleType=Round|Shape=RoundedRectangle|*
%AMROUNDEDRECTD20*
21,1,1.1280,0.6000,0,0,90.0*
21,1,0.5000,1.2280,0,0,90.0*
1,1,0.6280,0.3000,0.2500*
1,1,0.6280,0.3000,-0.2500*
1,1,0.6280,-0.3000,-0.2500*
1,1,0.6280,-0.3000,0.2500*
%
%ADD20ROUNDEDRECTD20*%
G04:AMPARAMS|DCode=21|XSize=1.028mm|YSize=1.078mm|CornerRadius=0.289mm|HoleSize=0mm|Usage=FLASHONLY|Rotation=90.000|XOffset=0mm|YOffset=0mm|HoleType=Round|Shape=RoundedRectangle|*
%AMROUNDEDRECTD21*
21,1,1.0280,0.5000,0,0,90.0*
21,1,0.4500,1.0780,0,0,90.0*
1,1,0.5780,0.2500,0.2250*
1,1,0.5780,0.2500,-0.2250*
1,1,0.5780,-0.2500,-0.2250*
1,1,0.5780,-0.2500,0.2250*
%
%ADD21ROUNDEDRECTD21*%
G04:AMPARAMS|DCode=22|XSize=0.8532mm|YSize=1.2532mm|CornerRadius=0.2641mm|HoleSize=0mm|Usage=FLASHONLY|Rotation=0.000|XOffset=0mm|YOffset=0mm|HoleType=Round|Shape=RoundedRectangle|*
%AMROUNDEDRECTD22*
21,1,0.8532,0.7250,0,0,0.0*
21,1,0.3250,1.2532,0,0,0.0*
1,1,0.5282,0.1625,-0.3625*
1,1,0.5282,-0.1625,-0.3625*
1,1,0.5282,-0.1625,0.3625*
1,1,0.5282,0.1625,0.3625*
%
%ADD22ROUNDEDRECTD22*%
G04:AMPARAMS|DCode=23|XSize=0.8532mm|YSize=1.2532mm|CornerRadius=0.2641mm|HoleSize=0mm|Usage=FLASHONLY|Rotation=270.000|XOffset=0mm|YOffset=0mm|HoleType=Round|Shape=RoundedRectangle|*
%AMROUNDEDRECTD23*
21,1,0.8532,0.7250,0,0,270.0*
21,1,0.3250,1.2532,0,0,270.0*
1,1,0.5282,-0.3625,-0.1625*
1,1,0.5282,-0.3625,0.1625*
1,1,0.5282,0.3625,0.1625*
1,1,0.5282,0.3625,-0.1625*
%
%ADD23ROUNDEDRECTD23*%
%ADD24C,0.7112*%
G36*
X220833Y225684D02*
X220931Y225661D01*
X221024Y225622D01*
X221110Y225569D01*
X221187Y225504D01*
X221252Y225427D01*
X221305Y225341D01*
X221343Y225248D01*
X221367Y225150D01*
X221375Y225050D01*
Y215050D01*
X221367Y214950D01*
X221343Y214852D01*
X221305Y214758D01*
X221252Y214673D01*
X221187Y214596D01*
X221110Y214531D01*
X221024Y214478D01*
X220931Y214439D01*
X220833Y214416D01*
X220733Y214408D01*
X205733D01*
X205724Y214409D01*
X205716Y214408D01*
X205454Y214415D01*
X205438Y214417D01*
X205421D01*
X205160Y214437D01*
X205143Y214440D01*
X205126Y214441D01*
X204867Y214475D01*
X204850Y214479D01*
X204834Y214480D01*
X204576Y214528D01*
X204560Y214532D01*
X204543Y214535D01*
X204289Y214596D01*
X204273Y214601D01*
X204256Y214605D01*
X204005Y214679D01*
X203990Y214685D01*
X203973Y214690D01*
X203727Y214777D01*
X203711Y214784D01*
X203695Y214789D01*
X203453Y214889D01*
X203438Y214897D01*
X203423Y214903D01*
X203186Y215016D01*
X203172Y215024D01*
X203156Y215031D01*
X202926Y215156D01*
X202912Y215165D01*
X202897Y215173D01*
X202674Y215309D01*
X202661Y215319D01*
X202646Y215328D01*
X202430Y215476D01*
X202417Y215486D01*
X202403Y215496D01*
X202195Y215655D01*
X202183Y215666D01*
X202169Y215676D01*
X201970Y215846D01*
X201958Y215858D01*
X201945Y215869D01*
X201755Y216049D01*
X201744Y216061D01*
X201731Y216073D01*
X201551Y216262D01*
X201541Y216276D01*
X201529Y216287D01*
X201359Y216486D01*
X201349Y216500D01*
X201338Y216513D01*
X201178Y216720D01*
X201169Y216734D01*
X201159Y216747D01*
X201010Y216963D01*
X201002Y216978D01*
X200992Y216991D01*
X200855Y217215D01*
X200848Y217229D01*
X200838Y217244D01*
X200714Y217474D01*
X200707Y217489D01*
X200698Y217504D01*
X200585Y217740D01*
X200579Y217756D01*
X200572Y217771D01*
X200472Y218013D01*
X200466Y218029D01*
X200460Y218044D01*
X200372Y218291D01*
X200368Y218307D01*
X200362Y218323D01*
X200287Y218574D01*
X200284Y218590D01*
X200279Y218606D01*
X200218Y218861D01*
X200215Y218877D01*
X200211Y218894D01*
X200163Y219151D01*
X200161Y219168D01*
X200158Y219184D01*
X200124Y219444D01*
X200123Y219460D01*
X200120Y219477D01*
X200100Y219738D01*
Y219755D01*
X200098Y219772D01*
X200091Y220033D01*
X200092Y220050D01*
X200091Y220067D01*
X200098Y220328D01*
X200100Y220345D01*
Y220362D01*
X200120Y220623D01*
X200123Y220640D01*
X200124Y220657D01*
X200158Y220916D01*
X200161Y220932D01*
X200163Y220949D01*
X200211Y221207D01*
X200215Y221223D01*
X200218Y221239D01*
X200279Y221494D01*
X200284Y221510D01*
X200287Y221527D01*
X200362Y221777D01*
X200368Y221793D01*
X200372Y221809D01*
X200460Y222056D01*
X200466Y222071D01*
X200472Y222087D01*
X200572Y222329D01*
X200579Y222344D01*
X200585Y222360D01*
X200698Y222596D01*
X200707Y222611D01*
X200714Y222626D01*
X200838Y222856D01*
X200848Y222871D01*
X200855Y222885D01*
X200992Y223109D01*
X201002Y223122D01*
X201010Y223137D01*
X201159Y223353D01*
X201169Y223365D01*
X201178Y223380D01*
X201338Y223587D01*
X201349Y223600D01*
X201359Y223613D01*
X201529Y223813D01*
X201541Y223825D01*
X201551Y223838D01*
X201731Y224028D01*
X201744Y224039D01*
X201755Y224051D01*
X201945Y224231D01*
X201958Y224242D01*
X201970Y224254D01*
X202169Y224424D01*
X202183Y224434D01*
X202195Y224445D01*
X202403Y224604D01*
X202417Y224614D01*
X202430Y224624D01*
X202646Y224772D01*
X202661Y224781D01*
X202674Y224791D01*
X202897Y224928D01*
X202912Y224935D01*
X202926Y224944D01*
X203157Y225069D01*
X203172Y225076D01*
X203186Y225084D01*
X203423Y225197D01*
X203438Y225203D01*
X203453Y225211D01*
X203695Y225311D01*
X203711Y225316D01*
X203727Y225323D01*
X203973Y225410D01*
X203990Y225415D01*
X204005Y225421D01*
X204256Y225495D01*
X204273Y225499D01*
X204289Y225504D01*
X204543Y225565D01*
X204560Y225568D01*
X204576Y225572D01*
X204834Y225620D01*
X204850Y225621D01*
X204867Y225625D01*
X205126Y225659D01*
X205143Y225660D01*
X205160Y225663D01*
X205421Y225683D01*
X205438D01*
X205454Y225685D01*
X205716Y225692D01*
X205724Y225691D01*
X205733Y225692D01*
X220733D01*
X220833Y225684D01*
D02*
G37*
G36*
X235833Y213184D02*
X235931Y213161D01*
X236024Y213122D01*
X236110Y213069D01*
X236187Y213004D01*
X236252Y212927D01*
X236305Y212841D01*
X236343Y212748D01*
X236367Y212650D01*
X236375Y212550D01*
Y197550D01*
X236374Y197542D01*
X236374Y197533D01*
X236368Y197272D01*
X236366Y197255D01*
Y197238D01*
X236345Y196977D01*
X236343Y196960D01*
X236342Y196944D01*
X236308Y196684D01*
X236304Y196668D01*
X236302Y196651D01*
X236255Y196394D01*
X236250Y196377D01*
X236248Y196361D01*
X236187Y196106D01*
X236181Y196090D01*
X236178Y196074D01*
X236103Y195823D01*
X236098Y195807D01*
X236093Y195791D01*
X236006Y195544D01*
X235999Y195529D01*
X235994Y195513D01*
X235894Y195271D01*
X235886Y195256D01*
X235880Y195240D01*
X235767Y195004D01*
X235759Y194989D01*
X235752Y194974D01*
X235627Y194744D01*
X235618Y194729D01*
X235610Y194715D01*
X235473Y194491D01*
X235464Y194478D01*
X235455Y194463D01*
X235307Y194247D01*
X235296Y194234D01*
X235287Y194220D01*
X235128Y194013D01*
X235117Y194000D01*
X235107Y193986D01*
X234937Y193787D01*
X234925Y193775D01*
X234914Y193762D01*
X234734Y193573D01*
X234721Y193561D01*
X234710Y193549D01*
X234520Y193369D01*
X234507Y193358D01*
X234495Y193346D01*
X234296Y193176D01*
X234283Y193166D01*
X234270Y193155D01*
X234062Y192996D01*
X234048Y192986D01*
X234035Y192976D01*
X233820Y192828D01*
X233805Y192819D01*
X233791Y192809D01*
X233568Y192673D01*
X233553Y192665D01*
X233539Y192656D01*
X233309Y192531D01*
X233294Y192524D01*
X233279Y192516D01*
X233043Y192403D01*
X233027Y192397D01*
X233012Y192389D01*
X232770Y192289D01*
X232754Y192284D01*
X232739Y192277D01*
X232492Y192190D01*
X232476Y192185D01*
X232460Y192179D01*
X232209Y192105D01*
X232193Y192101D01*
X232177Y192096D01*
X231922Y192035D01*
X231905Y192032D01*
X231889Y192028D01*
X231632Y191980D01*
X231615Y191979D01*
X231599Y191975D01*
X231339Y191941D01*
X231322Y191940D01*
X231306Y191937D01*
X231045Y191917D01*
X231028D01*
X231011Y191915D01*
X230749Y191908D01*
X230733Y191909D01*
X230716Y191908D01*
X230454Y191915D01*
X230438Y191917D01*
X230421D01*
X230160Y191937D01*
X230143Y191940D01*
X230126Y191941D01*
X229867Y191975D01*
X229850Y191979D01*
X229834Y191980D01*
X229576Y192028D01*
X229560Y192032D01*
X229543Y192035D01*
X229289Y192096D01*
X229273Y192101D01*
X229256Y192105D01*
X229005Y192179D01*
X228990Y192185D01*
X228973Y192190D01*
X228727Y192277D01*
X228711Y192284D01*
X228695Y192289D01*
X228453Y192389D01*
X228438Y192397D01*
X228423Y192403D01*
X228186Y192516D01*
X228172Y192524D01*
X228156Y192531D01*
X227926Y192656D01*
X227912Y192665D01*
X227897Y192673D01*
X227674Y192809D01*
X227661Y192819D01*
X227646Y192828D01*
X227430Y192976D01*
X227417Y192986D01*
X227403Y192996D01*
X227195Y193155D01*
X227183Y193166D01*
X227169Y193176D01*
X226970Y193346D01*
X226958Y193358D01*
X226945Y193369D01*
X226755Y193549D01*
X226744Y193561D01*
X226731Y193573D01*
X226551Y193762D01*
X226541Y193776D01*
X226529Y193787D01*
X226359Y193986D01*
X226349Y194000D01*
X226338Y194013D01*
X226178Y194220D01*
X226169Y194234D01*
X226159Y194247D01*
X226010Y194463D01*
X226002Y194478D01*
X225992Y194491D01*
X225855Y194715D01*
X225848Y194729D01*
X225838Y194744D01*
X225714Y194974D01*
X225707Y194989D01*
X225698Y195004D01*
X225585Y195240D01*
X225579Y195256D01*
X225572Y195271D01*
X225472Y195513D01*
X225466Y195529D01*
X225460Y195544D01*
X225372Y195791D01*
X225368Y195807D01*
X225362Y195823D01*
X225287Y196074D01*
X225284Y196090D01*
X225279Y196106D01*
X225218Y196361D01*
X225215Y196377D01*
X225211Y196394D01*
X225163Y196651D01*
X225161Y196668D01*
X225158Y196684D01*
X225124Y196944D01*
X225123Y196960D01*
X225120Y196977D01*
X225100Y197238D01*
Y197255D01*
X225098Y197272D01*
X225091Y197533D01*
X225091Y197542D01*
X225091Y197550D01*
Y212550D01*
X225099Y212650D01*
X225122Y212748D01*
X225161Y212841D01*
X225213Y212927D01*
X225279Y213004D01*
X225355Y213069D01*
X225441Y213122D01*
X225534Y213161D01*
X225632Y213184D01*
X225733Y213192D01*
X235733D01*
X235833Y213184D01*
D02*
G37*
G36*
X250833D02*
X250931Y213161D01*
X251024Y213122D01*
X251110Y213069D01*
X251187Y213004D01*
X251252Y212927D01*
X251305Y212841D01*
X251343Y212748D01*
X251367Y212650D01*
X251375Y212550D01*
Y197550D01*
X251374Y197542D01*
X251374Y197533D01*
X251368Y197271D01*
X251366Y197255D01*
Y197238D01*
X251345Y196977D01*
X251343Y196960D01*
X251342Y196944D01*
X251308Y196684D01*
X251304Y196668D01*
X251302Y196651D01*
X251255Y196394D01*
X251250Y196377D01*
X251248Y196361D01*
X251187Y196106D01*
X251181Y196090D01*
X251178Y196074D01*
X251103Y195823D01*
X251098Y195807D01*
X251093Y195791D01*
X251006Y195544D01*
X250999Y195529D01*
X250994Y195513D01*
X250894Y195271D01*
X250886Y195256D01*
X250880Y195240D01*
X250767Y195004D01*
X250759Y194989D01*
X250752Y194974D01*
X250627Y194744D01*
X250618Y194730D01*
X250610Y194715D01*
X250473Y194491D01*
X250464Y194478D01*
X250455Y194463D01*
X250307Y194247D01*
X250296Y194235D01*
X250287Y194220D01*
X250128Y194013D01*
X250117Y194000D01*
X250107Y193986D01*
X249937Y193787D01*
X249925Y193776D01*
X249914Y193762D01*
X249734Y193573D01*
X249721Y193561D01*
X249710Y193549D01*
X249520Y193369D01*
X249507Y193358D01*
X249495Y193346D01*
X249296Y193176D01*
X249283Y193166D01*
X249270Y193155D01*
X249062Y192996D01*
X249048Y192986D01*
X249035Y192976D01*
X248820Y192828D01*
X248805Y192819D01*
X248791Y192809D01*
X248568Y192673D01*
X248553Y192665D01*
X248539Y192656D01*
X248309Y192531D01*
X248294Y192524D01*
X248279Y192516D01*
X248043Y192403D01*
X248027Y192397D01*
X248012Y192389D01*
X247770Y192289D01*
X247754Y192284D01*
X247739Y192277D01*
X247492Y192190D01*
X247476Y192185D01*
X247460Y192179D01*
X247209Y192105D01*
X247193Y192101D01*
X247177Y192096D01*
X246922Y192035D01*
X246905Y192032D01*
X246889Y192028D01*
X246632Y191980D01*
X246615Y191979D01*
X246599Y191975D01*
X246339Y191941D01*
X246322Y191940D01*
X246306Y191937D01*
X246045Y191917D01*
X246028D01*
X246011Y191915D01*
X245749Y191908D01*
X245733Y191909D01*
X245716Y191908D01*
X245454Y191915D01*
X245438Y191917D01*
X245421D01*
X245160Y191937D01*
X245143Y191940D01*
X245126Y191941D01*
X244867Y191975D01*
X244850Y191979D01*
X244834Y191980D01*
X244576Y192028D01*
X244560Y192032D01*
X244543Y192035D01*
X244289Y192096D01*
X244273Y192101D01*
X244256Y192105D01*
X244005Y192179D01*
X243990Y192185D01*
X243973Y192190D01*
X243727Y192277D01*
X243711Y192284D01*
X243695Y192289D01*
X243453Y192389D01*
X243438Y192397D01*
X243423Y192403D01*
X243186Y192516D01*
X243172Y192524D01*
X243156Y192531D01*
X242926Y192656D01*
X242912Y192665D01*
X242897Y192673D01*
X242674Y192809D01*
X242661Y192819D01*
X242646Y192828D01*
X242430Y192976D01*
X242417Y192986D01*
X242403Y192996D01*
X242195Y193155D01*
X242183Y193166D01*
X242169Y193176D01*
X241970Y193346D01*
X241958Y193358D01*
X241945Y193369D01*
X241755Y193549D01*
X241744Y193561D01*
X241731Y193573D01*
X241551Y193762D01*
X241541Y193776D01*
X241529Y193787D01*
X241359Y193986D01*
X241349Y194000D01*
X241338Y194013D01*
X241178Y194220D01*
X241169Y194234D01*
X241159Y194247D01*
X241010Y194463D01*
X241002Y194478D01*
X240992Y194491D01*
X240855Y194715D01*
X240848Y194729D01*
X240838Y194744D01*
X240714Y194974D01*
X240707Y194989D01*
X240698Y195004D01*
X240585Y195240D01*
X240579Y195256D01*
X240572Y195271D01*
X240472Y195513D01*
X240466Y195529D01*
X240460Y195544D01*
X240372Y195791D01*
X240368Y195807D01*
X240362Y195823D01*
X240287Y196074D01*
X240284Y196090D01*
X240279Y196106D01*
X240218Y196361D01*
X240215Y196377D01*
X240211Y196394D01*
X240163Y196651D01*
X240161Y196668D01*
X240158Y196684D01*
X240124Y196944D01*
X240123Y196961D01*
X240120Y196977D01*
X240100Y197238D01*
Y197255D01*
X240098Y197271D01*
X240091Y197533D01*
X240091Y197542D01*
X240091Y197550D01*
Y212550D01*
X240099Y212650D01*
X240122Y212748D01*
X240161Y212841D01*
X240213Y212927D01*
X240279Y213004D01*
X240355Y213069D01*
X240441Y213122D01*
X240534Y213161D01*
X240632Y213184D01*
X240733Y213192D01*
X250733D01*
X250833Y213184D01*
D02*
G37*
G36*
X265833D02*
X265931Y213161D01*
X266024Y213122D01*
X266110Y213069D01*
X266187Y213004D01*
X266252Y212927D01*
X266305Y212841D01*
X266343Y212748D01*
X266367Y212650D01*
X266375Y212550D01*
Y197550D01*
X266374Y197542D01*
X266374Y197533D01*
X266368Y197271D01*
X266366Y197255D01*
Y197238D01*
X266345Y196977D01*
X266343Y196960D01*
X266342Y196944D01*
X266308Y196684D01*
X266304Y196668D01*
X266302Y196651D01*
X266255Y196394D01*
X266250Y196377D01*
X266248Y196361D01*
X266187Y196106D01*
X266181Y196090D01*
X266178Y196074D01*
X266103Y195823D01*
X266098Y195807D01*
X266093Y195791D01*
X266006Y195544D01*
X265999Y195529D01*
X265994Y195513D01*
X265893Y195271D01*
X265886Y195256D01*
X265880Y195240D01*
X265767Y195004D01*
X265759Y194989D01*
X265752Y194974D01*
X265627Y194744D01*
X265618Y194730D01*
X265610Y194715D01*
X265473Y194491D01*
X265464Y194478D01*
X265455Y194463D01*
X265307Y194247D01*
X265296Y194235D01*
X265287Y194220D01*
X265128Y194013D01*
X265117Y194000D01*
X265107Y193986D01*
X264937Y193787D01*
X264925Y193776D01*
X264914Y193762D01*
X264734Y193573D01*
X264721Y193561D01*
X264710Y193549D01*
X264520Y193369D01*
X264507Y193358D01*
X264495Y193346D01*
X264296Y193176D01*
X264283Y193166D01*
X264270Y193155D01*
X264062Y192996D01*
X264048Y192986D01*
X264035Y192976D01*
X263820Y192828D01*
X263805Y192819D01*
X263791Y192809D01*
X263568Y192673D01*
X263553Y192665D01*
X263539Y192656D01*
X263309Y192531D01*
X263294Y192524D01*
X263279Y192516D01*
X263043Y192403D01*
X263027Y192397D01*
X263012Y192389D01*
X262770Y192289D01*
X262754Y192284D01*
X262739Y192277D01*
X262492Y192190D01*
X262476Y192185D01*
X262460Y192179D01*
X262209Y192105D01*
X262193Y192101D01*
X262177Y192096D01*
X261922Y192035D01*
X261905Y192032D01*
X261889Y192028D01*
X261632Y191980D01*
X261615Y191979D01*
X261599Y191975D01*
X261339Y191941D01*
X261322Y191940D01*
X261306Y191937D01*
X261045Y191917D01*
X261028D01*
X261011Y191915D01*
X260749Y191908D01*
X260733Y191909D01*
X260716Y191908D01*
X260454Y191915D01*
X260438Y191917D01*
X260421D01*
X260160Y191937D01*
X260143Y191940D01*
X260126Y191941D01*
X259867Y191975D01*
X259850Y191979D01*
X259834Y191980D01*
X259576Y192028D01*
X259560Y192032D01*
X259543Y192035D01*
X259289Y192096D01*
X259273Y192101D01*
X259256Y192105D01*
X259005Y192179D01*
X258990Y192185D01*
X258973Y192190D01*
X258727Y192277D01*
X258711Y192284D01*
X258695Y192289D01*
X258453Y192389D01*
X258438Y192397D01*
X258423Y192403D01*
X258186Y192516D01*
X258172Y192524D01*
X258156Y192531D01*
X257926Y192656D01*
X257912Y192665D01*
X257897Y192673D01*
X257674Y192809D01*
X257661Y192819D01*
X257646Y192828D01*
X257430Y192976D01*
X257417Y192986D01*
X257403Y192996D01*
X257195Y193155D01*
X257183Y193166D01*
X257169Y193176D01*
X256970Y193346D01*
X256958Y193358D01*
X256945Y193369D01*
X256755Y193549D01*
X256744Y193561D01*
X256731Y193573D01*
X256551Y193762D01*
X256541Y193776D01*
X256529Y193787D01*
X256359Y193986D01*
X256349Y194000D01*
X256338Y194013D01*
X256178Y194220D01*
X256169Y194234D01*
X256159Y194247D01*
X256010Y194463D01*
X256002Y194478D01*
X255992Y194491D01*
X255855Y194715D01*
X255848Y194729D01*
X255838Y194744D01*
X255714Y194974D01*
X255707Y194989D01*
X255698Y195004D01*
X255585Y195240D01*
X255579Y195256D01*
X255572Y195271D01*
X255472Y195513D01*
X255466Y195529D01*
X255460Y195544D01*
X255372Y195791D01*
X255368Y195807D01*
X255362Y195823D01*
X255288Y196074D01*
X255284Y196090D01*
X255279Y196106D01*
X255218Y196361D01*
X255215Y196377D01*
X255211Y196394D01*
X255163Y196651D01*
X255161Y196667D01*
X255158Y196684D01*
X255124Y196943D01*
X255123Y196960D01*
X255120Y196977D01*
X255100Y197238D01*
Y197255D01*
X255098Y197271D01*
X255091Y197533D01*
X255091Y197542D01*
X255091Y197550D01*
Y212550D01*
X255099Y212650D01*
X255122Y212748D01*
X255161Y212841D01*
X255213Y212927D01*
X255279Y213004D01*
X255355Y213069D01*
X255441Y213122D01*
X255534Y213161D01*
X255632Y213184D01*
X255733Y213192D01*
X265733D01*
X265833Y213184D01*
D02*
G37*
G36*
X220833Y240684D02*
X220931Y240661D01*
X221024Y240622D01*
X221110Y240569D01*
X221187Y240504D01*
X221252Y240427D01*
X221305Y240341D01*
X221343Y240248D01*
X221367Y240150D01*
X221375Y240050D01*
Y230050D01*
X221367Y229950D01*
X221343Y229852D01*
X221305Y229758D01*
X221252Y229673D01*
X221187Y229596D01*
X221110Y229531D01*
X221024Y229478D01*
X220931Y229439D01*
X220833Y229416D01*
X220733Y229408D01*
X205733D01*
X205724Y229409D01*
X205716Y229408D01*
X205454Y229415D01*
X205438Y229417D01*
X205421D01*
X205160Y229437D01*
X205143Y229440D01*
X205126Y229441D01*
X204867Y229475D01*
X204850Y229479D01*
X204834Y229480D01*
X204576Y229528D01*
X204560Y229532D01*
X204543Y229535D01*
X204289Y229596D01*
X204273Y229601D01*
X204256Y229605D01*
X204005Y229679D01*
X203990Y229685D01*
X203973Y229690D01*
X203727Y229777D01*
X203711Y229784D01*
X203695Y229789D01*
X203453Y229889D01*
X203438Y229897D01*
X203423Y229903D01*
X203186Y230016D01*
X203172Y230024D01*
X203156Y230031D01*
X202926Y230156D01*
X202912Y230165D01*
X202897Y230173D01*
X202674Y230309D01*
X202661Y230319D01*
X202646Y230328D01*
X202430Y230476D01*
X202417Y230486D01*
X202403Y230496D01*
X202195Y230655D01*
X202183Y230666D01*
X202169Y230676D01*
X201970Y230846D01*
X201958Y230858D01*
X201945Y230869D01*
X201755Y231049D01*
X201744Y231061D01*
X201731Y231073D01*
X201551Y231262D01*
X201541Y231276D01*
X201529Y231287D01*
X201359Y231486D01*
X201349Y231500D01*
X201338Y231513D01*
X201178Y231720D01*
X201169Y231734D01*
X201159Y231747D01*
X201010Y231963D01*
X201002Y231978D01*
X200992Y231991D01*
X200855Y232215D01*
X200848Y232229D01*
X200838Y232244D01*
X200714Y232474D01*
X200707Y232489D01*
X200698Y232504D01*
X200585Y232740D01*
X200579Y232756D01*
X200572Y232771D01*
X200472Y233013D01*
X200466Y233029D01*
X200460Y233044D01*
X200372Y233291D01*
X200368Y233307D01*
X200362Y233323D01*
X200287Y233574D01*
X200284Y233590D01*
X200279Y233606D01*
X200218Y233861D01*
X200215Y233877D01*
X200211Y233894D01*
X200163Y234151D01*
X200161Y234168D01*
X200158Y234184D01*
X200124Y234444D01*
X200123Y234460D01*
X200120Y234477D01*
X200100Y234738D01*
Y234755D01*
X200098Y234772D01*
X200091Y235033D01*
X200092Y235050D01*
X200091Y235067D01*
X200098Y235329D01*
X200100Y235345D01*
Y235362D01*
X200120Y235623D01*
X200123Y235640D01*
X200124Y235657D01*
X200158Y235916D01*
X200161Y235932D01*
X200163Y235949D01*
X200211Y236207D01*
X200215Y236223D01*
X200218Y236239D01*
X200279Y236494D01*
X200284Y236510D01*
X200287Y236527D01*
X200362Y236777D01*
X200368Y236793D01*
X200372Y236809D01*
X200460Y237056D01*
X200466Y237071D01*
X200472Y237087D01*
X200572Y237329D01*
X200579Y237344D01*
X200586Y237360D01*
X200698Y237596D01*
X200707Y237611D01*
X200714Y237626D01*
X200838Y237856D01*
X200848Y237871D01*
X200855Y237885D01*
X200992Y238109D01*
X201002Y238122D01*
X201010Y238137D01*
X201159Y238353D01*
X201169Y238366D01*
X201178Y238380D01*
X201338Y238587D01*
X201349Y238600D01*
X201359Y238613D01*
X201529Y238813D01*
X201541Y238825D01*
X201551Y238838D01*
X201731Y239028D01*
X201744Y239039D01*
X201755Y239051D01*
X201945Y239231D01*
X201958Y239242D01*
X201970Y239254D01*
X202169Y239424D01*
X202183Y239434D01*
X202195Y239445D01*
X202403Y239604D01*
X202417Y239614D01*
X202430Y239624D01*
X202646Y239772D01*
X202661Y239781D01*
X202674Y239791D01*
X202897Y239928D01*
X202912Y239935D01*
X202926Y239944D01*
X203157Y240069D01*
X203172Y240076D01*
X203186Y240084D01*
X203423Y240197D01*
X203438Y240203D01*
X203453Y240211D01*
X203695Y240311D01*
X203711Y240316D01*
X203727Y240323D01*
X203973Y240410D01*
X203990Y240415D01*
X204005Y240421D01*
X204256Y240495D01*
X204273Y240499D01*
X204289Y240504D01*
X204543Y240565D01*
X204560Y240568D01*
X204576Y240572D01*
X204834Y240620D01*
X204850Y240621D01*
X204867Y240625D01*
X205126Y240659D01*
X205143Y240660D01*
X205160Y240663D01*
X205421Y240683D01*
X205438D01*
X205454Y240685D01*
X205716Y240692D01*
X205724Y240691D01*
X205733Y240692D01*
X220733D01*
X220833Y240684D01*
D02*
G37*
G36*
Y255684D02*
X220931Y255661D01*
X221024Y255622D01*
X221110Y255569D01*
X221187Y255504D01*
X221252Y255427D01*
X221305Y255341D01*
X221343Y255248D01*
X221367Y255150D01*
X221375Y255050D01*
Y245050D01*
X221367Y244950D01*
X221343Y244852D01*
X221305Y244758D01*
X221252Y244673D01*
X221187Y244596D01*
X221110Y244531D01*
X221024Y244478D01*
X220931Y244439D01*
X220833Y244416D01*
X220733Y244408D01*
X205733D01*
X205724Y244409D01*
X205716Y244408D01*
X205454Y244415D01*
X205438Y244417D01*
X205421D01*
X205160Y244437D01*
X205143Y244440D01*
X205126Y244441D01*
X204867Y244475D01*
X204850Y244479D01*
X204834Y244480D01*
X204576Y244528D01*
X204560Y244532D01*
X204543Y244535D01*
X204289Y244596D01*
X204273Y244601D01*
X204256Y244605D01*
X204005Y244679D01*
X203990Y244685D01*
X203973Y244690D01*
X203727Y244777D01*
X203711Y244784D01*
X203695Y244789D01*
X203453Y244889D01*
X203438Y244897D01*
X203423Y244903D01*
X203186Y245016D01*
X203172Y245024D01*
X203156Y245031D01*
X202926Y245156D01*
X202912Y245165D01*
X202897Y245173D01*
X202674Y245309D01*
X202661Y245319D01*
X202646Y245328D01*
X202430Y245476D01*
X202417Y245486D01*
X202403Y245496D01*
X202195Y245655D01*
X202183Y245666D01*
X202169Y245676D01*
X201970Y245846D01*
X201958Y245858D01*
X201945Y245869D01*
X201755Y246049D01*
X201744Y246061D01*
X201731Y246073D01*
X201551Y246262D01*
X201541Y246276D01*
X201529Y246287D01*
X201359Y246486D01*
X201349Y246500D01*
X201338Y246513D01*
X201178Y246720D01*
X201169Y246734D01*
X201159Y246747D01*
X201010Y246963D01*
X201002Y246978D01*
X200992Y246991D01*
X200855Y247215D01*
X200848Y247229D01*
X200838Y247244D01*
X200714Y247474D01*
X200707Y247489D01*
X200698Y247504D01*
X200585Y247740D01*
X200579Y247756D01*
X200572Y247771D01*
X200472Y248013D01*
X200466Y248029D01*
X200460Y248044D01*
X200372Y248291D01*
X200368Y248307D01*
X200362Y248323D01*
X200287Y248574D01*
X200284Y248590D01*
X200279Y248606D01*
X200218Y248861D01*
X200215Y248877D01*
X200211Y248894D01*
X200163Y249151D01*
X200161Y249168D01*
X200158Y249184D01*
X200124Y249444D01*
X200123Y249460D01*
X200120Y249477D01*
X200100Y249738D01*
Y249755D01*
X200098Y249772D01*
X200091Y250033D01*
X200092Y250050D01*
X200091Y250067D01*
X200098Y250329D01*
X200100Y250345D01*
Y250362D01*
X200120Y250623D01*
X200123Y250640D01*
X200124Y250656D01*
X200158Y250916D01*
X200161Y250932D01*
X200163Y250949D01*
X200211Y251207D01*
X200215Y251223D01*
X200218Y251239D01*
X200279Y251494D01*
X200284Y251510D01*
X200287Y251526D01*
X200362Y251777D01*
X200368Y251793D01*
X200372Y251809D01*
X200460Y252056D01*
X200466Y252071D01*
X200472Y252087D01*
X200572Y252329D01*
X200579Y252344D01*
X200585Y252360D01*
X200698Y252596D01*
X200707Y252611D01*
X200714Y252626D01*
X200838Y252856D01*
X200848Y252871D01*
X200855Y252885D01*
X200992Y253109D01*
X201002Y253122D01*
X201010Y253137D01*
X201159Y253353D01*
X201169Y253366D01*
X201178Y253380D01*
X201338Y253587D01*
X201349Y253600D01*
X201359Y253613D01*
X201529Y253813D01*
X201541Y253825D01*
X201551Y253838D01*
X201731Y254028D01*
X201744Y254039D01*
X201755Y254051D01*
X201945Y254231D01*
X201958Y254242D01*
X201970Y254254D01*
X202169Y254424D01*
X202183Y254434D01*
X202195Y254445D01*
X202403Y254604D01*
X202417Y254614D01*
X202430Y254624D01*
X202646Y254772D01*
X202661Y254781D01*
X202674Y254791D01*
X202897Y254928D01*
X202912Y254935D01*
X202926Y254944D01*
X203157Y255069D01*
X203172Y255076D01*
X203186Y255084D01*
X203423Y255197D01*
X203438Y255203D01*
X203453Y255211D01*
X203695Y255311D01*
X203711Y255316D01*
X203727Y255323D01*
X203973Y255410D01*
X203990Y255415D01*
X204005Y255421D01*
X204256Y255495D01*
X204273Y255499D01*
X204289Y255504D01*
X204543Y255565D01*
X204560Y255568D01*
X204576Y255572D01*
X204834Y255620D01*
X204850Y255621D01*
X204867Y255625D01*
X205126Y255659D01*
X205143Y255660D01*
X205160Y255663D01*
X205421Y255683D01*
X205438D01*
X205454Y255685D01*
X205716Y255692D01*
X205724Y255691D01*
X205733Y255692D01*
X220733D01*
X220833Y255684D01*
D02*
G37*
G36*
Y270684D02*
X220931Y270661D01*
X221024Y270622D01*
X221110Y270569D01*
X221187Y270504D01*
X221252Y270427D01*
X221305Y270341D01*
X221343Y270248D01*
X221367Y270150D01*
X221375Y270050D01*
Y260050D01*
X221367Y259950D01*
X221343Y259852D01*
X221305Y259758D01*
X221252Y259673D01*
X221187Y259596D01*
X221110Y259531D01*
X221024Y259478D01*
X220931Y259439D01*
X220833Y259416D01*
X220733Y259408D01*
X205733D01*
X205724Y259409D01*
X205716Y259408D01*
X205454Y259415D01*
X205438Y259417D01*
X205421D01*
X205160Y259437D01*
X205143Y259440D01*
X205126Y259441D01*
X204867Y259475D01*
X204850Y259479D01*
X204834Y259480D01*
X204576Y259528D01*
X204560Y259532D01*
X204543Y259535D01*
X204289Y259596D01*
X204273Y259601D01*
X204256Y259605D01*
X204005Y259679D01*
X203990Y259685D01*
X203973Y259690D01*
X203727Y259777D01*
X203711Y259784D01*
X203695Y259789D01*
X203453Y259889D01*
X203438Y259897D01*
X203423Y259903D01*
X203186Y260016D01*
X203172Y260024D01*
X203157Y260031D01*
X202926Y260156D01*
X202912Y260165D01*
X202897Y260173D01*
X202674Y260309D01*
X202661Y260319D01*
X202646Y260327D01*
X202430Y260476D01*
X202417Y260486D01*
X202403Y260496D01*
X202195Y260655D01*
X202183Y260666D01*
X202169Y260676D01*
X201970Y260846D01*
X201958Y260858D01*
X201945Y260869D01*
X201755Y261049D01*
X201744Y261061D01*
X201731Y261073D01*
X201551Y261262D01*
X201541Y261276D01*
X201529Y261287D01*
X201359Y261486D01*
X201349Y261500D01*
X201338Y261513D01*
X201178Y261720D01*
X201169Y261734D01*
X201159Y261747D01*
X201010Y261963D01*
X201002Y261978D01*
X200992Y261991D01*
X200855Y262215D01*
X200848Y262229D01*
X200838Y262244D01*
X200714Y262474D01*
X200707Y262489D01*
X200698Y262504D01*
X200585Y262740D01*
X200579Y262756D01*
X200572Y262771D01*
X200472Y263013D01*
X200466Y263029D01*
X200460Y263044D01*
X200372Y263291D01*
X200368Y263307D01*
X200362Y263323D01*
X200287Y263574D01*
X200284Y263590D01*
X200279Y263606D01*
X200218Y263861D01*
X200215Y263877D01*
X200211Y263894D01*
X200163Y264151D01*
X200161Y264168D01*
X200158Y264184D01*
X200124Y264444D01*
X200123Y264460D01*
X200120Y264477D01*
X200100Y264738D01*
Y264755D01*
X200098Y264772D01*
X200091Y265033D01*
X200092Y265050D01*
X200091Y265067D01*
X200098Y265329D01*
X200100Y265345D01*
Y265362D01*
X200120Y265623D01*
X200123Y265640D01*
X200124Y265656D01*
X200158Y265916D01*
X200161Y265932D01*
X200163Y265949D01*
X200211Y266207D01*
X200215Y266223D01*
X200218Y266239D01*
X200279Y266494D01*
X200284Y266510D01*
X200287Y266526D01*
X200362Y266777D01*
X200368Y266793D01*
X200372Y266809D01*
X200460Y267056D01*
X200466Y267071D01*
X200472Y267087D01*
X200572Y267329D01*
X200579Y267344D01*
X200585Y267360D01*
X200698Y267596D01*
X200707Y267611D01*
X200714Y267626D01*
X200838Y267856D01*
X200848Y267871D01*
X200855Y267885D01*
X200992Y268109D01*
X201002Y268122D01*
X201010Y268137D01*
X201159Y268353D01*
X201169Y268366D01*
X201178Y268380D01*
X201338Y268587D01*
X201349Y268600D01*
X201359Y268614D01*
X201529Y268813D01*
X201541Y268825D01*
X201551Y268838D01*
X201731Y269028D01*
X201744Y269039D01*
X201755Y269051D01*
X201945Y269231D01*
X201958Y269242D01*
X201970Y269254D01*
X202169Y269424D01*
X202183Y269434D01*
X202195Y269445D01*
X202403Y269604D01*
X202417Y269614D01*
X202430Y269624D01*
X202646Y269772D01*
X202661Y269781D01*
X202674Y269791D01*
X202897Y269928D01*
X202912Y269935D01*
X202926Y269944D01*
X203156Y270069D01*
X203172Y270076D01*
X203186Y270084D01*
X203423Y270197D01*
X203438Y270203D01*
X203453Y270211D01*
X203695Y270311D01*
X203711Y270316D01*
X203727Y270323D01*
X203973Y270410D01*
X203990Y270415D01*
X204005Y270421D01*
X204256Y270495D01*
X204273Y270499D01*
X204289Y270504D01*
X204543Y270565D01*
X204560Y270568D01*
X204576Y270572D01*
X204834Y270620D01*
X204850Y270621D01*
X204867Y270625D01*
X205126Y270659D01*
X205143Y270660D01*
X205160Y270663D01*
X205421Y270683D01*
X205438D01*
X205454Y270685D01*
X205716Y270692D01*
X205724Y270691D01*
X205733Y270692D01*
X220733D01*
X220833Y270684D01*
D02*
G37*
G36*
X211833Y285684D02*
X211931Y285661D01*
X212024Y285622D01*
X212110Y285569D01*
X212187Y285504D01*
X212252Y285427D01*
X212305Y285341D01*
X212343Y285248D01*
X212367Y285150D01*
X212375Y285050D01*
Y275050D01*
X212367Y274950D01*
X212343Y274852D01*
X212305Y274758D01*
X212252Y274673D01*
X212187Y274596D01*
X212110Y274531D01*
X212024Y274478D01*
X211931Y274439D01*
X211833Y274416D01*
X211733Y274408D01*
X205733D01*
X205724Y274409D01*
X205716Y274408D01*
X205454Y274415D01*
X205438Y274417D01*
X205421D01*
X205160Y274437D01*
X205143Y274440D01*
X205126Y274441D01*
X204867Y274475D01*
X204850Y274479D01*
X204834Y274480D01*
X204576Y274528D01*
X204560Y274532D01*
X204543Y274535D01*
X204289Y274596D01*
X204273Y274601D01*
X204256Y274605D01*
X204005Y274679D01*
X203990Y274685D01*
X203973Y274690D01*
X203727Y274777D01*
X203711Y274784D01*
X203695Y274789D01*
X203453Y274889D01*
X203438Y274897D01*
X203423Y274903D01*
X203186Y275016D01*
X203172Y275024D01*
X203157Y275031D01*
X202926Y275156D01*
X202912Y275165D01*
X202897Y275173D01*
X202674Y275309D01*
X202661Y275319D01*
X202646Y275327D01*
X202430Y275476D01*
X202417Y275486D01*
X202403Y275496D01*
X202195Y275655D01*
X202183Y275666D01*
X202169Y275676D01*
X201970Y275846D01*
X201958Y275858D01*
X201945Y275869D01*
X201755Y276049D01*
X201744Y276061D01*
X201731Y276073D01*
X201551Y276262D01*
X201541Y276276D01*
X201529Y276287D01*
X201359Y276486D01*
X201349Y276500D01*
X201338Y276513D01*
X201178Y276720D01*
X201169Y276734D01*
X201159Y276747D01*
X201010Y276963D01*
X201002Y276978D01*
X200992Y276991D01*
X200855Y277215D01*
X200848Y277229D01*
X200838Y277244D01*
X200714Y277474D01*
X200707Y277489D01*
X200698Y277504D01*
X200585Y277740D01*
X200579Y277756D01*
X200572Y277771D01*
X200472Y278013D01*
X200466Y278029D01*
X200460Y278044D01*
X200372Y278291D01*
X200368Y278307D01*
X200362Y278323D01*
X200287Y278574D01*
X200284Y278590D01*
X200279Y278606D01*
X200218Y278861D01*
X200215Y278877D01*
X200211Y278894D01*
X200163Y279151D01*
X200161Y279168D01*
X200158Y279184D01*
X200124Y279444D01*
X200123Y279460D01*
X200120Y279477D01*
X200100Y279738D01*
Y279755D01*
X200098Y279772D01*
X200091Y280033D01*
X200092Y280050D01*
X200091Y280067D01*
X200098Y280328D01*
X200100Y280345D01*
Y280362D01*
X200120Y280623D01*
X200123Y280640D01*
X200124Y280656D01*
X200158Y280916D01*
X200161Y280932D01*
X200163Y280949D01*
X200211Y281206D01*
X200215Y281223D01*
X200218Y281239D01*
X200279Y281494D01*
X200284Y281510D01*
X200287Y281526D01*
X200362Y281777D01*
X200368Y281793D01*
X200372Y281809D01*
X200460Y282056D01*
X200466Y282071D01*
X200472Y282087D01*
X200572Y282329D01*
X200579Y282344D01*
X200585Y282360D01*
X200698Y282596D01*
X200707Y282611D01*
X200714Y282626D01*
X200838Y282856D01*
X200848Y282871D01*
X200855Y282885D01*
X200992Y283109D01*
X201002Y283122D01*
X201010Y283137D01*
X201159Y283353D01*
X201169Y283365D01*
X201178Y283380D01*
X201338Y283587D01*
X201349Y283600D01*
X201359Y283614D01*
X201529Y283813D01*
X201541Y283825D01*
X201551Y283838D01*
X201731Y284027D01*
X201744Y284039D01*
X201755Y284051D01*
X201945Y284231D01*
X201958Y284242D01*
X201970Y284254D01*
X202169Y284424D01*
X202183Y284434D01*
X202195Y284445D01*
X202403Y284604D01*
X202417Y284614D01*
X202430Y284624D01*
X202646Y284772D01*
X202661Y284781D01*
X202674Y284791D01*
X202897Y284928D01*
X202912Y284935D01*
X202926Y284944D01*
X203156Y285069D01*
X203172Y285076D01*
X203186Y285084D01*
X203423Y285197D01*
X203438Y285203D01*
X203453Y285211D01*
X203695Y285311D01*
X203711Y285316D01*
X203727Y285323D01*
X203973Y285410D01*
X203990Y285415D01*
X204005Y285421D01*
X204256Y285495D01*
X204273Y285499D01*
X204289Y285504D01*
X204543Y285565D01*
X204560Y285568D01*
X204576Y285572D01*
X204834Y285620D01*
X204850Y285621D01*
X204867Y285625D01*
X205126Y285659D01*
X205143Y285660D01*
X205160Y285663D01*
X205421Y285683D01*
X205438D01*
X205454Y285685D01*
X205716Y285692D01*
X205724Y285691D01*
X205733Y285692D01*
X211733D01*
X211833Y285684D01*
D02*
G37*
G36*
X280833Y213184D02*
X280931Y213161D01*
X281024Y213122D01*
X281110Y213069D01*
X281187Y213004D01*
X281252Y212927D01*
X281305Y212841D01*
X281343Y212748D01*
X281367Y212650D01*
X281375Y212550D01*
Y197550D01*
X281374Y197542D01*
X281374Y197533D01*
X281368Y197271D01*
X281366Y197255D01*
Y197238D01*
X281345Y196977D01*
X281343Y196961D01*
X281342Y196943D01*
X281308Y196684D01*
X281304Y196667D01*
X281302Y196651D01*
X281255Y196394D01*
X281250Y196377D01*
X281248Y196361D01*
X281187Y196106D01*
X281181Y196090D01*
X281178Y196074D01*
X281103Y195823D01*
X281098Y195807D01*
X281093Y195791D01*
X281006Y195544D01*
X280999Y195529D01*
X280994Y195513D01*
X280893Y195271D01*
X280886Y195256D01*
X280880Y195240D01*
X280767Y195004D01*
X280759Y194989D01*
X280752Y194974D01*
X280627Y194744D01*
X280618Y194729D01*
X280610Y194715D01*
X280473Y194491D01*
X280464Y194478D01*
X280455Y194463D01*
X280307Y194247D01*
X280296Y194235D01*
X280287Y194220D01*
X280128Y194013D01*
X280117Y194000D01*
X280107Y193986D01*
X279937Y193787D01*
X279925Y193776D01*
X279914Y193762D01*
X279734Y193573D01*
X279721Y193561D01*
X279710Y193549D01*
X279520Y193369D01*
X279507Y193358D01*
X279495Y193346D01*
X279296Y193176D01*
X279283Y193166D01*
X279270Y193155D01*
X279062Y192996D01*
X279048Y192987D01*
X279035Y192976D01*
X278820Y192828D01*
X278805Y192819D01*
X278791Y192809D01*
X278568Y192673D01*
X278553Y192665D01*
X278539Y192656D01*
X278309Y192531D01*
X278294Y192524D01*
X278279Y192516D01*
X278043Y192403D01*
X278027Y192397D01*
X278012Y192389D01*
X277770Y192289D01*
X277754Y192284D01*
X277739Y192277D01*
X277492Y192190D01*
X277476Y192185D01*
X277460Y192179D01*
X277209Y192105D01*
X277193Y192101D01*
X277177Y192096D01*
X276922Y192035D01*
X276905Y192032D01*
X276889Y192028D01*
X276632Y191980D01*
X276615Y191979D01*
X276599Y191975D01*
X276339Y191941D01*
X276322Y191940D01*
X276306Y191937D01*
X276045Y191917D01*
X276028D01*
X276011Y191915D01*
X275749Y191908D01*
X275733Y191909D01*
X275716Y191908D01*
X275454Y191915D01*
X275438Y191917D01*
X275421D01*
X275160Y191937D01*
X275143Y191940D01*
X275126Y191941D01*
X274867Y191975D01*
X274850Y191979D01*
X274834Y191980D01*
X274576Y192028D01*
X274560Y192032D01*
X274543Y192035D01*
X274289Y192096D01*
X274273Y192101D01*
X274256Y192105D01*
X274005Y192179D01*
X273990Y192185D01*
X273973Y192190D01*
X273727Y192277D01*
X273711Y192284D01*
X273695Y192289D01*
X273453Y192389D01*
X273438Y192397D01*
X273423Y192403D01*
X273186Y192516D01*
X273172Y192524D01*
X273156Y192531D01*
X272926Y192656D01*
X272912Y192665D01*
X272897Y192673D01*
X272674Y192809D01*
X272661Y192819D01*
X272646Y192828D01*
X272430Y192976D01*
X272417Y192986D01*
X272403Y192996D01*
X272195Y193155D01*
X272183Y193166D01*
X272169Y193176D01*
X271970Y193346D01*
X271958Y193358D01*
X271945Y193369D01*
X271755Y193549D01*
X271744Y193561D01*
X271731Y193573D01*
X271551Y193762D01*
X271541Y193776D01*
X271529Y193787D01*
X271359Y193986D01*
X271349Y194000D01*
X271338Y194013D01*
X271178Y194220D01*
X271169Y194234D01*
X271159Y194247D01*
X271010Y194463D01*
X271002Y194478D01*
X270992Y194491D01*
X270855Y194715D01*
X270848Y194729D01*
X270838Y194744D01*
X270714Y194974D01*
X270707Y194989D01*
X270698Y195004D01*
X270585Y195240D01*
X270579Y195256D01*
X270572Y195271D01*
X270472Y195513D01*
X270466Y195529D01*
X270460Y195544D01*
X270372Y195791D01*
X270368Y195807D01*
X270362Y195823D01*
X270287Y196074D01*
X270284Y196090D01*
X270279Y196106D01*
X270218Y196361D01*
X270215Y196377D01*
X270211Y196394D01*
X270163Y196651D01*
X270161Y196668D01*
X270158Y196684D01*
X270124Y196944D01*
X270123Y196960D01*
X270120Y196977D01*
X270100Y197238D01*
Y197255D01*
X270098Y197271D01*
X270091Y197533D01*
X270091Y197542D01*
X270091Y197550D01*
Y212550D01*
X270099Y212650D01*
X270122Y212748D01*
X270161Y212841D01*
X270213Y212927D01*
X270279Y213004D01*
X270355Y213069D01*
X270441Y213122D01*
X270534Y213161D01*
X270632Y213184D01*
X270733Y213192D01*
X280733D01*
X280833Y213184D01*
D02*
G37*
G36*
X295833D02*
X295931Y213161D01*
X296024Y213122D01*
X296110Y213069D01*
X296187Y213004D01*
X296252Y212927D01*
X296305Y212841D01*
X296343Y212748D01*
X296367Y212650D01*
X296375Y212550D01*
Y197550D01*
X296374Y197542D01*
X296374Y197533D01*
X296368Y197271D01*
X296366Y197255D01*
Y197238D01*
X296345Y196977D01*
X296343Y196961D01*
X296342Y196944D01*
X296308Y196684D01*
X296304Y196668D01*
X296302Y196651D01*
X296255Y196394D01*
X296250Y196377D01*
X296248Y196361D01*
X296187Y196106D01*
X296181Y196090D01*
X296178Y196074D01*
X296103Y195823D01*
X296098Y195807D01*
X296093Y195791D01*
X296006Y195544D01*
X295999Y195529D01*
X295994Y195513D01*
X295894Y195271D01*
X295886Y195256D01*
X295880Y195240D01*
X295767Y195004D01*
X295759Y194989D01*
X295752Y194974D01*
X295627Y194744D01*
X295618Y194729D01*
X295610Y194715D01*
X295473Y194491D01*
X295464Y194478D01*
X295455Y194463D01*
X295307Y194247D01*
X295296Y194235D01*
X295287Y194220D01*
X295128Y194013D01*
X295117Y194000D01*
X295107Y193986D01*
X294937Y193787D01*
X294925Y193776D01*
X294914Y193762D01*
X294734Y193573D01*
X294721Y193561D01*
X294710Y193549D01*
X294520Y193369D01*
X294507Y193358D01*
X294495Y193346D01*
X294296Y193176D01*
X294283Y193166D01*
X294270Y193155D01*
X294062Y192996D01*
X294048Y192986D01*
X294035Y192976D01*
X293820Y192828D01*
X293805Y192819D01*
X293791Y192809D01*
X293568Y192673D01*
X293553Y192665D01*
X293539Y192656D01*
X293309Y192531D01*
X293294Y192524D01*
X293279Y192516D01*
X293043Y192403D01*
X293027Y192397D01*
X293012Y192389D01*
X292770Y192289D01*
X292754Y192284D01*
X292739Y192277D01*
X292492Y192190D01*
X292476Y192185D01*
X292460Y192179D01*
X292209Y192105D01*
X292193Y192101D01*
X292177Y192096D01*
X291922Y192035D01*
X291905Y192032D01*
X291889Y192028D01*
X291632Y191980D01*
X291615Y191979D01*
X291599Y191975D01*
X291339Y191941D01*
X291322Y191940D01*
X291306Y191937D01*
X291045Y191917D01*
X291028D01*
X291011Y191915D01*
X290749Y191908D01*
X290733Y191909D01*
X290716Y191908D01*
X290454Y191915D01*
X290438Y191917D01*
X290421D01*
X290160Y191937D01*
X290143Y191940D01*
X290126Y191941D01*
X289867Y191975D01*
X289850Y191979D01*
X289834Y191980D01*
X289576Y192028D01*
X289560Y192032D01*
X289543Y192035D01*
X289289Y192096D01*
X289273Y192101D01*
X289256Y192105D01*
X289005Y192179D01*
X288990Y192185D01*
X288973Y192190D01*
X288727Y192277D01*
X288711Y192284D01*
X288695Y192289D01*
X288453Y192389D01*
X288438Y192397D01*
X288423Y192403D01*
X288186Y192516D01*
X288172Y192524D01*
X288156Y192531D01*
X287926Y192656D01*
X287912Y192665D01*
X287897Y192673D01*
X287674Y192809D01*
X287660Y192819D01*
X287646Y192828D01*
X287430Y192976D01*
X287417Y192986D01*
X287403Y192996D01*
X287195Y193155D01*
X287183Y193166D01*
X287169Y193176D01*
X286970Y193346D01*
X286958Y193358D01*
X286945Y193369D01*
X286755Y193549D01*
X286744Y193561D01*
X286731Y193573D01*
X286551Y193762D01*
X286541Y193776D01*
X286529Y193787D01*
X286359Y193986D01*
X286349Y194000D01*
X286338Y194013D01*
X286178Y194220D01*
X286169Y194234D01*
X286159Y194247D01*
X286010Y194463D01*
X286002Y194478D01*
X285992Y194491D01*
X285855Y194715D01*
X285848Y194729D01*
X285838Y194744D01*
X285714Y194974D01*
X285707Y194989D01*
X285698Y195004D01*
X285585Y195240D01*
X285579Y195256D01*
X285572Y195271D01*
X285472Y195513D01*
X285466Y195529D01*
X285460Y195544D01*
X285372Y195791D01*
X285368Y195807D01*
X285362Y195823D01*
X285287Y196074D01*
X285284Y196090D01*
X285279Y196106D01*
X285218Y196361D01*
X285215Y196377D01*
X285211Y196394D01*
X285163Y196651D01*
X285161Y196668D01*
X285158Y196684D01*
X285124Y196944D01*
X285123Y196960D01*
X285120Y196977D01*
X285100Y197238D01*
Y197255D01*
X285098Y197271D01*
X285091Y197533D01*
X285091Y197542D01*
X285091Y197550D01*
Y212550D01*
X285099Y212650D01*
X285122Y212748D01*
X285161Y212841D01*
X285213Y212927D01*
X285279Y213004D01*
X285355Y213069D01*
X285441Y213122D01*
X285534Y213161D01*
X285632Y213184D01*
X285733Y213192D01*
X295733D01*
X295833Y213184D01*
D02*
G37*
G36*
X310833D02*
X310931Y213161D01*
X311024Y213122D01*
X311110Y213069D01*
X311187Y213004D01*
X311252Y212927D01*
X311305Y212841D01*
X311343Y212748D01*
X311367Y212650D01*
X311375Y212550D01*
Y197550D01*
X311374Y197542D01*
X311374Y197533D01*
X311368Y197272D01*
X311366Y197255D01*
Y197238D01*
X311345Y196977D01*
X311343Y196960D01*
X311342Y196944D01*
X311308Y196684D01*
X311304Y196668D01*
X311302Y196651D01*
X311255Y196394D01*
X311250Y196377D01*
X311248Y196361D01*
X311187Y196106D01*
X311181Y196090D01*
X311178Y196074D01*
X311103Y195823D01*
X311098Y195807D01*
X311093Y195791D01*
X311006Y195544D01*
X310999Y195529D01*
X310994Y195513D01*
X310894Y195271D01*
X310886Y195256D01*
X310880Y195240D01*
X310767Y195004D01*
X310759Y194989D01*
X310752Y194974D01*
X310627Y194744D01*
X310618Y194729D01*
X310610Y194715D01*
X310473Y194491D01*
X310464Y194478D01*
X310455Y194463D01*
X310307Y194247D01*
X310296Y194235D01*
X310287Y194220D01*
X310128Y194013D01*
X310117Y194000D01*
X310107Y193986D01*
X309937Y193787D01*
X309925Y193776D01*
X309914Y193762D01*
X309734Y193573D01*
X309721Y193561D01*
X309710Y193549D01*
X309520Y193369D01*
X309507Y193358D01*
X309495Y193346D01*
X309296Y193176D01*
X309283Y193166D01*
X309270Y193155D01*
X309062Y192996D01*
X309048Y192986D01*
X309035Y192976D01*
X308820Y192828D01*
X308805Y192819D01*
X308791Y192809D01*
X308568Y192673D01*
X308553Y192665D01*
X308539Y192656D01*
X308309Y192531D01*
X308294Y192524D01*
X308279Y192516D01*
X308043Y192403D01*
X308027Y192397D01*
X308012Y192389D01*
X307770Y192289D01*
X307754Y192284D01*
X307739Y192277D01*
X307492Y192190D01*
X307476Y192185D01*
X307460Y192179D01*
X307209Y192105D01*
X307193Y192101D01*
X307177Y192096D01*
X306922Y192035D01*
X306905Y192032D01*
X306889Y192028D01*
X306632Y191980D01*
X306615Y191979D01*
X306599Y191975D01*
X306339Y191941D01*
X306322Y191940D01*
X306306Y191937D01*
X306045Y191917D01*
X306028D01*
X306011Y191915D01*
X305749Y191908D01*
X305733Y191909D01*
X305716Y191908D01*
X305454Y191915D01*
X305438Y191917D01*
X305421D01*
X305160Y191937D01*
X305143Y191940D01*
X305126Y191941D01*
X304867Y191975D01*
X304850Y191979D01*
X304834Y191980D01*
X304576Y192028D01*
X304560Y192032D01*
X304543Y192035D01*
X304289Y192096D01*
X304273Y192101D01*
X304256Y192105D01*
X304005Y192179D01*
X303990Y192185D01*
X303973Y192190D01*
X303727Y192277D01*
X303711Y192284D01*
X303695Y192289D01*
X303453Y192389D01*
X303438Y192397D01*
X303423Y192403D01*
X303186Y192516D01*
X303172Y192524D01*
X303156Y192531D01*
X302926Y192656D01*
X302912Y192665D01*
X302897Y192673D01*
X302674Y192809D01*
X302661Y192819D01*
X302646Y192828D01*
X302430Y192976D01*
X302417Y192986D01*
X302403Y192996D01*
X302195Y193155D01*
X302183Y193166D01*
X302169Y193176D01*
X301970Y193346D01*
X301958Y193358D01*
X301945Y193369D01*
X301755Y193549D01*
X301744Y193561D01*
X301731Y193573D01*
X301551Y193762D01*
X301541Y193775D01*
X301529Y193787D01*
X301359Y193986D01*
X301349Y194000D01*
X301338Y194013D01*
X301178Y194220D01*
X301169Y194234D01*
X301159Y194247D01*
X301010Y194463D01*
X301002Y194478D01*
X300992Y194491D01*
X300855Y194715D01*
X300848Y194729D01*
X300838Y194744D01*
X300714Y194974D01*
X300707Y194989D01*
X300698Y195004D01*
X300585Y195240D01*
X300579Y195256D01*
X300572Y195271D01*
X300472Y195513D01*
X300466Y195529D01*
X300460Y195544D01*
X300372Y195791D01*
X300368Y195807D01*
X300362Y195823D01*
X300287Y196074D01*
X300284Y196090D01*
X300279Y196106D01*
X300218Y196361D01*
X300215Y196377D01*
X300211Y196394D01*
X300163Y196651D01*
X300161Y196668D01*
X300158Y196684D01*
X300124Y196944D01*
X300123Y196960D01*
X300120Y196977D01*
X300100Y197238D01*
Y197255D01*
X300098Y197272D01*
X300091Y197533D01*
X300091Y197542D01*
X300091Y197550D01*
Y212550D01*
X300099Y212650D01*
X300122Y212748D01*
X300161Y212841D01*
X300213Y212927D01*
X300279Y213004D01*
X300355Y213069D01*
X300441Y213122D01*
X300534Y213161D01*
X300632Y213184D01*
X300733Y213192D01*
X310733D01*
X310833Y213184D01*
D02*
G37*
G36*
X330741Y225691D02*
X330750Y225692D01*
X331011Y225685D01*
X331028Y225683D01*
X331045D01*
X331306Y225663D01*
X331322Y225660D01*
X331339Y225659D01*
X331599Y225625D01*
X331615Y225621D01*
X331632Y225620D01*
X331889Y225572D01*
X331906Y225568D01*
X331922Y225565D01*
X332177Y225504D01*
X332193Y225499D01*
X332209Y225495D01*
X332460Y225421D01*
X332476Y225415D01*
X332492Y225410D01*
X332739Y225323D01*
X332754Y225316D01*
X332770Y225311D01*
X333012Y225211D01*
X333027Y225203D01*
X333043Y225197D01*
X333279Y225084D01*
X333294Y225076D01*
X333309Y225069D01*
X333539Y224944D01*
X333553Y224935D01*
X333568Y224928D01*
X333791Y224791D01*
X333805Y224781D01*
X333820Y224772D01*
X334035Y224624D01*
X334048Y224614D01*
X334062Y224604D01*
X334270Y224445D01*
X334282Y224434D01*
X334296Y224424D01*
X334495Y224254D01*
X334507Y224242D01*
X334520Y224231D01*
X334710Y224051D01*
X334721Y224039D01*
X334734Y224028D01*
X334914Y223838D01*
X334925Y223825D01*
X334937Y223813D01*
X335107Y223613D01*
X335117Y223600D01*
X335128Y223587D01*
X335287Y223380D01*
X335296Y223366D01*
X335307Y223353D01*
X335455Y223137D01*
X335464Y223122D01*
X335474Y223109D01*
X335610Y222885D01*
X335618Y222871D01*
X335627Y222856D01*
X335752Y222626D01*
X335759Y222611D01*
X335767Y222596D01*
X335880Y222360D01*
X335886Y222344D01*
X335894Y222329D01*
X335994Y222087D01*
X335999Y222071D01*
X336006Y222056D01*
X336093Y221809D01*
X336097Y221793D01*
X336104Y221777D01*
X336178Y221527D01*
X336181Y221510D01*
X336187Y221494D01*
X336248Y221239D01*
X336250Y221223D01*
X336255Y221206D01*
X336302Y220949D01*
X336304Y220932D01*
X336308Y220916D01*
X336342Y220657D01*
X336343Y220640D01*
X336345Y220623D01*
X336366Y220362D01*
Y220345D01*
X336368Y220328D01*
X336375Y220067D01*
X336374Y220050D01*
X336375Y220033D01*
X336368Y219772D01*
X336366Y219755D01*
Y219738D01*
X336345Y219477D01*
X336343Y219460D01*
X336342Y219444D01*
X336308Y219184D01*
X336304Y219168D01*
X336302Y219151D01*
X336255Y218894D01*
X336250Y218877D01*
X336248Y218861D01*
X336187Y218606D01*
X336181Y218590D01*
X336178Y218574D01*
X336104Y218323D01*
X336097Y218307D01*
X336093Y218291D01*
X336006Y218044D01*
X335999Y218029D01*
X335994Y218013D01*
X335894Y217771D01*
X335886Y217756D01*
X335880Y217740D01*
X335767Y217504D01*
X335759Y217489D01*
X335752Y217474D01*
X335627Y217244D01*
X335618Y217229D01*
X335610Y217215D01*
X335474Y216991D01*
X335464Y216978D01*
X335455Y216963D01*
X335307Y216747D01*
X335296Y216735D01*
X335287Y216720D01*
X335128Y216513D01*
X335116Y216500D01*
X335107Y216486D01*
X334937Y216287D01*
X334925Y216276D01*
X334914Y216262D01*
X334734Y216073D01*
X334721Y216061D01*
X334710Y216049D01*
X334520Y215869D01*
X334507Y215858D01*
X334495Y215846D01*
X334296Y215676D01*
X334283Y215666D01*
X334270Y215655D01*
X334062Y215496D01*
X334048Y215486D01*
X334035Y215476D01*
X333820Y215328D01*
X333805Y215319D01*
X333791Y215309D01*
X333568Y215173D01*
X333553Y215165D01*
X333539Y215156D01*
X333309Y215031D01*
X333294Y215024D01*
X333279Y215016D01*
X333043Y214903D01*
X333027Y214897D01*
X333012Y214889D01*
X332770Y214789D01*
X332754Y214784D01*
X332739Y214777D01*
X332492Y214690D01*
X332476Y214685D01*
X332460Y214679D01*
X332209Y214605D01*
X332193Y214601D01*
X332177Y214596D01*
X331922Y214535D01*
X331906Y214532D01*
X331889Y214528D01*
X331632Y214480D01*
X331615Y214479D01*
X331599Y214475D01*
X331339Y214441D01*
X331322Y214440D01*
X331306Y214437D01*
X331045Y214417D01*
X331028D01*
X331011Y214415D01*
X330750Y214408D01*
X330741Y214409D01*
X330733Y214408D01*
X315733D01*
X315632Y214416D01*
X315534Y214439D01*
X315441Y214478D01*
X315355Y214531D01*
X315279Y214596D01*
X315213Y214673D01*
X315161Y214758D01*
X315122Y214852D01*
X315099Y214950D01*
X315091Y215050D01*
Y225050D01*
X315099Y225150D01*
X315122Y225248D01*
X315161Y225341D01*
X315213Y225427D01*
X315279Y225504D01*
X315355Y225569D01*
X315441Y225622D01*
X315534Y225661D01*
X315632Y225684D01*
X315733Y225692D01*
X330733D01*
X330741Y225691D01*
D02*
G37*
G36*
X330741Y240691D02*
X330750Y240692D01*
X331011Y240685D01*
X331028Y240683D01*
X331045D01*
X331306Y240663D01*
X331322Y240660D01*
X331339Y240659D01*
X331599Y240625D01*
X331615Y240621D01*
X331632Y240620D01*
X331889Y240572D01*
X331906Y240568D01*
X331922Y240565D01*
X332177Y240504D01*
X332193Y240499D01*
X332209Y240495D01*
X332460Y240421D01*
X332476Y240415D01*
X332492Y240410D01*
X332739Y240323D01*
X332754Y240316D01*
X332770Y240311D01*
X333012Y240211D01*
X333027Y240203D01*
X333043Y240197D01*
X333279Y240084D01*
X333294Y240076D01*
X333309Y240069D01*
X333539Y239944D01*
X333553Y239935D01*
X333568Y239928D01*
X333791Y239791D01*
X333805Y239781D01*
X333820Y239772D01*
X334035Y239624D01*
X334048Y239614D01*
X334062Y239604D01*
X334270Y239445D01*
X334283Y239434D01*
X334296Y239424D01*
X334495Y239254D01*
X334507Y239242D01*
X334520Y239231D01*
X334710Y239051D01*
X334721Y239039D01*
X334734Y239028D01*
X334914Y238838D01*
X334925Y238825D01*
X334937Y238813D01*
X335107Y238613D01*
X335117Y238600D01*
X335128Y238587D01*
X335287Y238380D01*
X335296Y238366D01*
X335307Y238353D01*
X335455Y238137D01*
X335463Y238122D01*
X335474Y238109D01*
X335610Y237885D01*
X335618Y237871D01*
X335627Y237856D01*
X335752Y237626D01*
X335759Y237611D01*
X335767Y237596D01*
X335880Y237360D01*
X335886Y237344D01*
X335894Y237329D01*
X335994Y237087D01*
X335999Y237071D01*
X336006Y237056D01*
X336093Y236809D01*
X336097Y236793D01*
X336104Y236777D01*
X336178Y236527D01*
X336181Y236510D01*
X336187Y236494D01*
X336248Y236239D01*
X336250Y236223D01*
X336255Y236206D01*
X336302Y235949D01*
X336304Y235932D01*
X336308Y235916D01*
X336342Y235657D01*
X336343Y235640D01*
X336345Y235623D01*
X336366Y235362D01*
Y235345D01*
X336368Y235329D01*
X336375Y235067D01*
X336374Y235050D01*
X336375Y235033D01*
X336368Y234772D01*
X336366Y234755D01*
Y234738D01*
X336345Y234477D01*
X336343Y234460D01*
X336342Y234444D01*
X336308Y234184D01*
X336304Y234168D01*
X336302Y234151D01*
X336255Y233894D01*
X336250Y233877D01*
X336248Y233861D01*
X336187Y233606D01*
X336181Y233590D01*
X336178Y233574D01*
X336104Y233323D01*
X336097Y233307D01*
X336093Y233291D01*
X336006Y233044D01*
X335999Y233029D01*
X335994Y233013D01*
X335894Y232771D01*
X335886Y232756D01*
X335880Y232740D01*
X335767Y232504D01*
X335759Y232489D01*
X335752Y232474D01*
X335627Y232244D01*
X335618Y232229D01*
X335610Y232215D01*
X335474Y231991D01*
X335464Y231978D01*
X335455Y231963D01*
X335307Y231747D01*
X335296Y231735D01*
X335287Y231720D01*
X335128Y231513D01*
X335116Y231500D01*
X335107Y231486D01*
X334937Y231287D01*
X334925Y231276D01*
X334914Y231262D01*
X334734Y231073D01*
X334721Y231061D01*
X334710Y231049D01*
X334520Y230869D01*
X334507Y230858D01*
X334495Y230846D01*
X334296Y230676D01*
X334283Y230666D01*
X334270Y230655D01*
X334062Y230496D01*
X334048Y230486D01*
X334035Y230476D01*
X333820Y230328D01*
X333805Y230319D01*
X333791Y230309D01*
X333568Y230173D01*
X333553Y230165D01*
X333539Y230156D01*
X333309Y230031D01*
X333294Y230024D01*
X333279Y230016D01*
X333043Y229903D01*
X333027Y229897D01*
X333012Y229889D01*
X332770Y229789D01*
X332754Y229784D01*
X332739Y229777D01*
X332492Y229690D01*
X332476Y229685D01*
X332460Y229679D01*
X332209Y229605D01*
X332193Y229601D01*
X332177Y229596D01*
X331922Y229535D01*
X331906Y229532D01*
X331889Y229528D01*
X331632Y229480D01*
X331615Y229479D01*
X331599Y229475D01*
X331339Y229441D01*
X331322Y229440D01*
X331306Y229437D01*
X331045Y229417D01*
X331028D01*
X331011Y229415D01*
X330750Y229408D01*
X330741Y229409D01*
X330733Y229408D01*
X315733D01*
X315632Y229416D01*
X315534Y229439D01*
X315441Y229478D01*
X315355Y229531D01*
X315279Y229596D01*
X315213Y229673D01*
X315161Y229758D01*
X315122Y229852D01*
X315099Y229950D01*
X315091Y230050D01*
Y240050D01*
X315099Y240150D01*
X315122Y240248D01*
X315161Y240341D01*
X315213Y240427D01*
X315279Y240504D01*
X315355Y240569D01*
X315441Y240622D01*
X315534Y240661D01*
X315632Y240684D01*
X315733Y240692D01*
X330733D01*
X330741Y240691D01*
D02*
G37*
G36*
Y255691D02*
X330750Y255692D01*
X331011Y255685D01*
X331028Y255683D01*
X331045D01*
X331306Y255663D01*
X331322Y255660D01*
X331339Y255659D01*
X331599Y255625D01*
X331615Y255621D01*
X331632Y255620D01*
X331889Y255572D01*
X331906Y255568D01*
X331922Y255565D01*
X332177Y255504D01*
X332193Y255499D01*
X332209Y255495D01*
X332460Y255421D01*
X332476Y255415D01*
X332492Y255410D01*
X332739Y255323D01*
X332754Y255316D01*
X332770Y255311D01*
X333012Y255211D01*
X333027Y255203D01*
X333043Y255197D01*
X333279Y255084D01*
X333294Y255076D01*
X333309Y255069D01*
X333539Y254944D01*
X333553Y254935D01*
X333568Y254928D01*
X333791Y254791D01*
X333805Y254781D01*
X333820Y254772D01*
X334035Y254624D01*
X334048Y254614D01*
X334062Y254604D01*
X334270Y254445D01*
X334283Y254434D01*
X334296Y254424D01*
X334495Y254254D01*
X334507Y254242D01*
X334520Y254231D01*
X334710Y254051D01*
X334721Y254039D01*
X334734Y254028D01*
X334914Y253838D01*
X334925Y253825D01*
X334937Y253813D01*
X335107Y253613D01*
X335117Y253600D01*
X335128Y253587D01*
X335287Y253380D01*
X335296Y253366D01*
X335307Y253353D01*
X335455Y253137D01*
X335464Y253122D01*
X335474Y253109D01*
X335610Y252885D01*
X335618Y252871D01*
X335627Y252856D01*
X335752Y252626D01*
X335759Y252611D01*
X335767Y252596D01*
X335880Y252360D01*
X335886Y252344D01*
X335894Y252329D01*
X335994Y252087D01*
X335999Y252071D01*
X336006Y252056D01*
X336093Y251809D01*
X336097Y251793D01*
X336104Y251777D01*
X336178Y251526D01*
X336181Y251510D01*
X336187Y251494D01*
X336248Y251239D01*
X336250Y251223D01*
X336255Y251207D01*
X336302Y250949D01*
X336304Y250932D01*
X336308Y250916D01*
X336342Y250656D01*
X336343Y250640D01*
X336345Y250623D01*
X336366Y250362D01*
Y250345D01*
X336368Y250329D01*
X336375Y250067D01*
X336374Y250050D01*
X336375Y250033D01*
X336368Y249772D01*
X336366Y249755D01*
Y249738D01*
X336345Y249477D01*
X336343Y249460D01*
X336342Y249444D01*
X336308Y249184D01*
X336304Y249168D01*
X336302Y249151D01*
X336255Y248894D01*
X336250Y248877D01*
X336248Y248861D01*
X336187Y248606D01*
X336181Y248590D01*
X336178Y248574D01*
X336104Y248323D01*
X336097Y248307D01*
X336093Y248291D01*
X336006Y248044D01*
X335999Y248029D01*
X335994Y248013D01*
X335894Y247771D01*
X335886Y247756D01*
X335880Y247740D01*
X335767Y247504D01*
X335759Y247489D01*
X335752Y247474D01*
X335627Y247244D01*
X335618Y247229D01*
X335610Y247215D01*
X335474Y246991D01*
X335464Y246978D01*
X335455Y246963D01*
X335307Y246747D01*
X335296Y246735D01*
X335287Y246720D01*
X335128Y246513D01*
X335117Y246500D01*
X335107Y246486D01*
X334937Y246287D01*
X334925Y246276D01*
X334914Y246262D01*
X334734Y246073D01*
X334721Y246061D01*
X334710Y246049D01*
X334520Y245869D01*
X334507Y245858D01*
X334495Y245846D01*
X334296Y245676D01*
X334283Y245666D01*
X334270Y245655D01*
X334062Y245496D01*
X334048Y245486D01*
X334035Y245476D01*
X333820Y245328D01*
X333805Y245319D01*
X333791Y245309D01*
X333568Y245173D01*
X333553Y245165D01*
X333539Y245156D01*
X333309Y245031D01*
X333294Y245024D01*
X333279Y245016D01*
X333043Y244903D01*
X333027Y244897D01*
X333012Y244889D01*
X332770Y244789D01*
X332754Y244784D01*
X332739Y244777D01*
X332492Y244690D01*
X332476Y244685D01*
X332460Y244679D01*
X332209Y244605D01*
X332193Y244601D01*
X332177Y244596D01*
X331922Y244535D01*
X331906Y244532D01*
X331889Y244528D01*
X331632Y244480D01*
X331615Y244479D01*
X331599Y244475D01*
X331339Y244441D01*
X331322Y244440D01*
X331306Y244437D01*
X331045Y244417D01*
X331028D01*
X331011Y244415D01*
X330750Y244408D01*
X330741Y244409D01*
X330733Y244408D01*
X315733D01*
X315632Y244416D01*
X315534Y244439D01*
X315441Y244478D01*
X315355Y244531D01*
X315279Y244596D01*
X315213Y244673D01*
X315161Y244758D01*
X315122Y244852D01*
X315099Y244950D01*
X315091Y245050D01*
Y255050D01*
X315099Y255150D01*
X315122Y255248D01*
X315161Y255341D01*
X315213Y255427D01*
X315279Y255504D01*
X315355Y255569D01*
X315441Y255622D01*
X315534Y255661D01*
X315632Y255684D01*
X315733Y255692D01*
X330733D01*
X330741Y255691D01*
D02*
G37*
G36*
Y270691D02*
X330750Y270692D01*
X331011Y270685D01*
X331028Y270683D01*
X331045D01*
X331306Y270663D01*
X331322Y270660D01*
X331339Y270659D01*
X331599Y270625D01*
X331615Y270621D01*
X331632Y270620D01*
X331889Y270572D01*
X331906Y270568D01*
X331922Y270565D01*
X332177Y270504D01*
X332193Y270499D01*
X332209Y270495D01*
X332460Y270421D01*
X332476Y270415D01*
X332492Y270410D01*
X332739Y270323D01*
X332754Y270316D01*
X332770Y270311D01*
X333012Y270211D01*
X333027Y270203D01*
X333043Y270197D01*
X333279Y270084D01*
X333294Y270076D01*
X333309Y270069D01*
X333539Y269944D01*
X333553Y269935D01*
X333568Y269928D01*
X333791Y269791D01*
X333805Y269781D01*
X333820Y269772D01*
X334035Y269624D01*
X334048Y269614D01*
X334062Y269604D01*
X334270Y269445D01*
X334283Y269434D01*
X334296Y269424D01*
X334495Y269254D01*
X334507Y269242D01*
X334520Y269231D01*
X334710Y269051D01*
X334721Y269039D01*
X334734Y269028D01*
X334914Y268838D01*
X334925Y268825D01*
X334937Y268813D01*
X335107Y268614D01*
X335117Y268600D01*
X335128Y268587D01*
X335287Y268380D01*
X335296Y268366D01*
X335307Y268353D01*
X335455Y268137D01*
X335464Y268122D01*
X335474Y268109D01*
X335610Y267885D01*
X335618Y267871D01*
X335627Y267856D01*
X335752Y267626D01*
X335759Y267611D01*
X335767Y267596D01*
X335880Y267360D01*
X335886Y267344D01*
X335894Y267329D01*
X335994Y267087D01*
X335999Y267071D01*
X336006Y267056D01*
X336093Y266809D01*
X336097Y266793D01*
X336104Y266777D01*
X336178Y266526D01*
X336181Y266510D01*
X336187Y266494D01*
X336248Y266239D01*
X336250Y266223D01*
X336255Y266207D01*
X336302Y265949D01*
X336304Y265932D01*
X336308Y265916D01*
X336342Y265656D01*
X336343Y265640D01*
X336345Y265623D01*
X336366Y265362D01*
Y265345D01*
X336368Y265329D01*
X336375Y265067D01*
X336374Y265050D01*
X336375Y265033D01*
X336368Y264772D01*
X336366Y264755D01*
Y264738D01*
X336345Y264477D01*
X336343Y264460D01*
X336342Y264444D01*
X336308Y264184D01*
X336304Y264168D01*
X336302Y264151D01*
X336255Y263894D01*
X336250Y263877D01*
X336248Y263861D01*
X336187Y263606D01*
X336181Y263590D01*
X336178Y263574D01*
X336104Y263323D01*
X336097Y263307D01*
X336093Y263291D01*
X336006Y263044D01*
X335999Y263029D01*
X335994Y263013D01*
X335894Y262771D01*
X335886Y262756D01*
X335880Y262740D01*
X335767Y262504D01*
X335759Y262489D01*
X335752Y262474D01*
X335627Y262244D01*
X335618Y262229D01*
X335610Y262215D01*
X335474Y261991D01*
X335463Y261978D01*
X335455Y261963D01*
X335307Y261747D01*
X335296Y261734D01*
X335287Y261720D01*
X335128Y261513D01*
X335116Y261500D01*
X335107Y261486D01*
X334937Y261287D01*
X334925Y261276D01*
X334914Y261262D01*
X334734Y261073D01*
X334721Y261061D01*
X334710Y261049D01*
X334520Y260869D01*
X334507Y260858D01*
X334495Y260846D01*
X334296Y260676D01*
X334283Y260666D01*
X334270Y260655D01*
X334062Y260496D01*
X334048Y260486D01*
X334035Y260476D01*
X333820Y260327D01*
X333805Y260319D01*
X333791Y260309D01*
X333568Y260173D01*
X333553Y260165D01*
X333539Y260156D01*
X333309Y260031D01*
X333294Y260024D01*
X333279Y260016D01*
X333043Y259903D01*
X333027Y259897D01*
X333012Y259889D01*
X332770Y259789D01*
X332754Y259784D01*
X332739Y259777D01*
X332492Y259690D01*
X332476Y259685D01*
X332460Y259679D01*
X332209Y259605D01*
X332193Y259601D01*
X332177Y259596D01*
X331922Y259535D01*
X331906Y259532D01*
X331889Y259528D01*
X331632Y259480D01*
X331615Y259479D01*
X331599Y259475D01*
X331339Y259441D01*
X331322Y259440D01*
X331306Y259437D01*
X331045Y259417D01*
X331028D01*
X331011Y259415D01*
X330750Y259408D01*
X330741Y259409D01*
X330733Y259408D01*
X315733D01*
X315632Y259416D01*
X315534Y259439D01*
X315441Y259478D01*
X315355Y259531D01*
X315279Y259596D01*
X315213Y259673D01*
X315161Y259758D01*
X315122Y259852D01*
X315099Y259950D01*
X315091Y260050D01*
Y270050D01*
X315099Y270150D01*
X315122Y270248D01*
X315161Y270341D01*
X315213Y270427D01*
X315279Y270504D01*
X315355Y270569D01*
X315441Y270622D01*
X315534Y270661D01*
X315632Y270684D01*
X315733Y270692D01*
X330733D01*
X330741Y270691D01*
D02*
G37*
G36*
Y285691D02*
X330750Y285692D01*
X331011Y285685D01*
X331028Y285683D01*
X331045D01*
X331306Y285663D01*
X331322Y285660D01*
X331339Y285659D01*
X331599Y285625D01*
X331615Y285621D01*
X331632Y285620D01*
X331889Y285572D01*
X331906Y285568D01*
X331922Y285565D01*
X332177Y285504D01*
X332193Y285499D01*
X332209Y285495D01*
X332460Y285421D01*
X332476Y285415D01*
X332492Y285410D01*
X332739Y285323D01*
X332754Y285316D01*
X332770Y285311D01*
X333012Y285211D01*
X333027Y285203D01*
X333043Y285197D01*
X333279Y285084D01*
X333294Y285076D01*
X333309Y285069D01*
X333539Y284944D01*
X333553Y284935D01*
X333568Y284928D01*
X333791Y284791D01*
X333805Y284781D01*
X333820Y284772D01*
X334035Y284624D01*
X334048Y284614D01*
X334062Y284604D01*
X334270Y284445D01*
X334283Y284434D01*
X334296Y284424D01*
X334495Y284254D01*
X334507Y284242D01*
X334520Y284231D01*
X334710Y284051D01*
X334721Y284039D01*
X334734Y284027D01*
X334914Y283838D01*
X334925Y283825D01*
X334937Y283813D01*
X335107Y283614D01*
X335117Y283600D01*
X335128Y283587D01*
X335287Y283380D01*
X335296Y283366D01*
X335307Y283353D01*
X335455Y283137D01*
X335464Y283122D01*
X335474Y283109D01*
X335610Y282885D01*
X335618Y282871D01*
X335627Y282856D01*
X335752Y282626D01*
X335759Y282611D01*
X335767Y282596D01*
X335880Y282360D01*
X335886Y282344D01*
X335894Y282329D01*
X335994Y282087D01*
X335999Y282071D01*
X336006Y282056D01*
X336093Y281809D01*
X336097Y281793D01*
X336104Y281777D01*
X336178Y281526D01*
X336181Y281510D01*
X336187Y281494D01*
X336248Y281239D01*
X336250Y281223D01*
X336255Y281206D01*
X336302Y280949D01*
X336304Y280932D01*
X336308Y280916D01*
X336342Y280656D01*
X336343Y280640D01*
X336345Y280623D01*
X336366Y280362D01*
Y280345D01*
X336368Y280328D01*
X336375Y280067D01*
X336374Y280050D01*
X336375Y280033D01*
X336368Y279772D01*
X336366Y279755D01*
Y279738D01*
X336345Y279477D01*
X336343Y279460D01*
X336342Y279444D01*
X336308Y279184D01*
X336304Y279168D01*
X336302Y279151D01*
X336255Y278893D01*
X336250Y278877D01*
X336248Y278861D01*
X336187Y278606D01*
X336181Y278590D01*
X336178Y278574D01*
X336104Y278323D01*
X336097Y278307D01*
X336093Y278291D01*
X336006Y278044D01*
X335999Y278029D01*
X335994Y278013D01*
X335894Y277771D01*
X335886Y277756D01*
X335880Y277740D01*
X335767Y277504D01*
X335759Y277489D01*
X335752Y277474D01*
X335627Y277244D01*
X335618Y277229D01*
X335610Y277215D01*
X335474Y276991D01*
X335463Y276978D01*
X335455Y276963D01*
X335307Y276747D01*
X335296Y276734D01*
X335287Y276720D01*
X335128Y276513D01*
X335116Y276500D01*
X335107Y276486D01*
X334937Y276287D01*
X334925Y276276D01*
X334914Y276262D01*
X334734Y276073D01*
X334721Y276061D01*
X334710Y276049D01*
X334520Y275869D01*
X334507Y275858D01*
X334495Y275846D01*
X334296Y275676D01*
X334283Y275666D01*
X334270Y275655D01*
X334062Y275496D01*
X334048Y275486D01*
X334035Y275476D01*
X333820Y275327D01*
X333805Y275319D01*
X333791Y275309D01*
X333568Y275173D01*
X333553Y275165D01*
X333539Y275156D01*
X333309Y275031D01*
X333294Y275024D01*
X333279Y275016D01*
X333043Y274903D01*
X333027Y274897D01*
X333012Y274889D01*
X332770Y274789D01*
X332754Y274784D01*
X332739Y274777D01*
X332492Y274690D01*
X332476Y274685D01*
X332460Y274679D01*
X332209Y274605D01*
X332193Y274601D01*
X332177Y274596D01*
X331922Y274535D01*
X331906Y274532D01*
X331889Y274528D01*
X331632Y274480D01*
X331615Y274479D01*
X331599Y274475D01*
X331339Y274441D01*
X331322Y274440D01*
X331306Y274437D01*
X331045Y274417D01*
X331028D01*
X331011Y274415D01*
X330750Y274408D01*
X330741Y274409D01*
X330733Y274408D01*
X315733D01*
X315632Y274416D01*
X315534Y274439D01*
X315441Y274478D01*
X315355Y274531D01*
X315279Y274596D01*
X315213Y274673D01*
X315161Y274758D01*
X315122Y274852D01*
X315099Y274950D01*
X315091Y275050D01*
Y285050D01*
X315099Y285150D01*
X315122Y285248D01*
X315161Y285341D01*
X315213Y285427D01*
X315279Y285504D01*
X315355Y285569D01*
X315441Y285622D01*
X315534Y285661D01*
X315632Y285684D01*
X315733Y285692D01*
X330733D01*
X330741Y285691D01*
D02*
G37*
D13*
X305733Y202550D02*
D03*
X290732D02*
D03*
X275733D02*
D03*
X260732D02*
D03*
X245733D02*
D03*
X230733D02*
D03*
D14*
X325733Y280050D02*
D03*
Y250050D02*
D03*
Y235050D02*
D03*
Y220050D02*
D03*
X210733D02*
D03*
Y235050D02*
D03*
Y250050D02*
D03*
Y265050D02*
D03*
X325733D02*
D03*
D19*
X207232Y280050D02*
D03*
D20*
X132450Y266700D02*
D03*
X146950D02*
D03*
X246750Y152400D02*
D03*
X373750Y241300D02*
D03*
X388250D02*
D03*
X132450D02*
D03*
X146950D02*
D03*
X261250Y152400D02*
D03*
X361050Y266700D02*
D03*
X375550D02*
D03*
D21*
X182750Y165100D02*
D03*
X106550Y139700D02*
D03*
Y88900D02*
D03*
X96650Y63500D02*
D03*
X81150D02*
D03*
X198250Y165100D02*
D03*
X388750Y190500D02*
D03*
X373250D02*
D03*
X45850Y127000D02*
D03*
X30350D02*
D03*
X122050Y88900D02*
D03*
Y139700D02*
D03*
X134750Y190500D02*
D03*
X119250D02*
D03*
X198250Y114300D02*
D03*
X182750D02*
D03*
D22*
X315550Y135050D02*
D03*
X294050D02*
D03*
Y93550D02*
D03*
X315550D02*
D03*
X281350Y17350D02*
D03*
X302850D02*
D03*
Y58850D02*
D03*
X281350D02*
D03*
X391750Y147750D02*
D03*
X370250D02*
D03*
Y106250D02*
D03*
X391750D02*
D03*
D23*
X236650Y27350D02*
D03*
Y48850D02*
D03*
X195150D02*
D03*
Y27350D02*
D03*
D24*
X139700Y127000D02*
D03*
X307848Y256794D02*
D03*
X391750Y88900D02*
D03*
X135128D02*
D03*
X309372Y107442D02*
D03*
X220980Y114300D02*
D03*
M02*
