G04*
G04 #@! TF.GenerationSoftware,Altium Limited,Altium Designer,25.4.2 (15)*
G04*
G04 Layer_Color=16711935*
%FSLAX44Y44*%
%MOMM*%
G71*
G04*
G04 #@! TF.SameCoordinates,122F49FF-69CD-467C-8DFD-42ED72D14C47*
G04*
G04*
G04 #@! TF.FilePolarity,Positive*
G04*
G01*
G75*
%ADD10C,0.2000*%
%ADD31C,0.1000*%
%ADD32C,0.1270*%
D10*
X196733Y280050D02*
G03*
X196733Y280050I-1000J0D01*
G01*
D31*
X205733Y299050D02*
X330733D01*
X205733Y197550D02*
Y299050D01*
Y197550D02*
X330733D01*
Y299050D01*
X205733Y342550D02*
X330733D01*
X130950Y261950D02*
Y271450D01*
X148450Y261950D02*
Y271450D01*
X130950D02*
X148450D01*
X130950Y261950D02*
X148450D01*
X372250Y236550D02*
Y246050D01*
X389750Y236550D02*
Y246050D01*
X372250D02*
X389750D01*
X372250Y236550D02*
X389750D01*
X130950D02*
Y246050D01*
X148450Y236550D02*
Y246050D01*
X130950D02*
X148450D01*
X130950Y236550D02*
X148450D01*
X79900Y68000D02*
X97900D01*
X79900Y59000D02*
X97900D01*
X79900D02*
Y68000D01*
X97900Y59000D02*
Y68000D01*
X320800Y93300D02*
Y135300D01*
X288800Y93300D02*
Y135300D01*
Y93300D02*
X320800D01*
X288800Y135300D02*
X320800D01*
X245250Y147650D02*
Y157150D01*
X262750Y147650D02*
Y157150D01*
X245250D02*
X262750D01*
X245250Y147650D02*
X262750D01*
X181500Y160600D02*
X199500D01*
X181500Y169600D02*
X199500D01*
Y160600D02*
Y169600D01*
X181500Y160600D02*
Y169600D01*
X276100Y17100D02*
Y59100D01*
X308100Y17100D02*
Y59100D01*
X276100D02*
X308100D01*
X276100Y17100D02*
X308100D01*
X194900Y22100D02*
X236900D01*
X194900Y54100D02*
X236900D01*
X194900Y22100D02*
Y54100D01*
X236900Y22100D02*
Y54100D01*
X397000Y106000D02*
Y148000D01*
X365000Y106000D02*
Y148000D01*
Y106000D02*
X397000D01*
X365000Y148000D02*
X397000D01*
X372000Y186000D02*
X390000D01*
X372000Y195000D02*
X390000D01*
Y186000D02*
Y195000D01*
X372000Y186000D02*
Y195000D01*
X29100Y122500D02*
X47100D01*
X29100Y131500D02*
X47100D01*
Y122500D02*
Y131500D01*
X29100Y122500D02*
Y131500D01*
X105300Y84400D02*
X123300D01*
X105300Y93400D02*
X123300D01*
Y84400D02*
Y93400D01*
X105300Y84400D02*
Y93400D01*
Y135200D02*
X123300D01*
X105300Y144200D02*
X123300D01*
Y135200D02*
Y144200D01*
X105300Y135200D02*
Y144200D01*
X118000Y186000D02*
X136000D01*
X118000Y195000D02*
X136000D01*
Y186000D02*
Y195000D01*
X118000Y186000D02*
Y195000D01*
X359550Y261950D02*
Y271450D01*
X377050Y261950D02*
Y271450D01*
X359550D02*
X377050D01*
X359550Y261950D02*
X377050D01*
X181500Y109800D02*
X199500D01*
X181500Y118800D02*
X199500D01*
Y109800D02*
Y118800D01*
X181500Y109800D02*
Y118800D01*
D32*
X205733Y299050D02*
Y342550D01*
X330733Y299050D02*
Y342550D01*
M02*
