G04*
G04 #@! TF.GenerationSoftware,Altium Limited,Altium Designer,25.4.2 (15)*
G04*
G04 Layer_Color=8421504*
%FSLAX44Y44*%
%MOMM*%
G71*
G04*
G04 #@! TF.SameCoordinates,122F49FF-69CD-467C-8DFD-42ED72D14C47*
G04*
G04*
G04 #@! TF.FilePolarity,Positive*
G04*
G01*
G75*
G04:AMPARAMS|DCode=13|XSize=1mm|YSize=1.6mm|CornerRadius=0.25mm|HoleSize=0mm|Usage=FLASHONLY|Rotation=0.000|XOffset=0mm|YOffset=0mm|HoleType=Round|Shape=RoundedRectangle|*
%AMROUNDEDRECTD13*
21,1,1.0000,1.1000,0,0,0.0*
21,1,0.5000,1.6000,0,0,0.0*
1,1,0.5000,0.2500,-0.5500*
1,1,0.5000,-0.2500,-0.5500*
1,1,0.5000,-0.2500,0.5500*
1,1,0.5000,0.2500,0.5500*
%
%ADD13ROUNDEDRECTD13*%
G04:AMPARAMS|DCode=14|XSize=1.6mm|YSize=1mm|CornerRadius=0.25mm|HoleSize=0mm|Usage=FLASHONLY|Rotation=0.000|XOffset=0mm|YOffset=0mm|HoleType=Round|Shape=RoundedRectangle|*
%AMROUNDEDRECTD14*
21,1,1.6000,0.5000,0,0,0.0*
21,1,1.1000,1.0000,0,0,0.0*
1,1,0.5000,0.5500,-0.2500*
1,1,0.5000,-0.5500,-0.2500*
1,1,0.5000,-0.5500,0.2500*
1,1,0.5000,0.5500,0.2500*
%
%ADD14ROUNDEDRECTD14*%
G04:AMPARAMS|DCode=15|XSize=1mm|YSize=1.1mm|CornerRadius=0.25mm|HoleSize=0mm|Usage=FLASHONLY|Rotation=90.000|XOffset=0mm|YOffset=0mm|HoleType=Round|Shape=RoundedRectangle|*
%AMROUNDEDRECTD15*
21,1,1.0000,0.6000,0,0,90.0*
21,1,0.5000,1.1000,0,0,90.0*
1,1,0.5000,0.3000,0.2500*
1,1,0.5000,0.3000,-0.2500*
1,1,0.5000,-0.3000,-0.2500*
1,1,0.5000,-0.3000,0.2500*
%
%ADD15ROUNDEDRECTD15*%
G04:AMPARAMS|DCode=16|XSize=0.9mm|YSize=0.95mm|CornerRadius=0.225mm|HoleSize=0mm|Usage=FLASHONLY|Rotation=90.000|XOffset=0mm|YOffset=0mm|HoleType=Round|Shape=RoundedRectangle|*
%AMROUNDEDRECTD16*
21,1,0.9000,0.5000,0,0,90.0*
21,1,0.4500,0.9500,0,0,90.0*
1,1,0.4500,0.2500,0.2250*
1,1,0.4500,0.2500,-0.2250*
1,1,0.4500,-0.2500,-0.2250*
1,1,0.4500,-0.2500,0.2250*
%
%ADD16ROUNDEDRECTD16*%
G04:AMPARAMS|DCode=17|XSize=0.65mm|YSize=1.05mm|CornerRadius=0.1625mm|HoleSize=0mm|Usage=FLASHONLY|Rotation=0.000|XOffset=0mm|YOffset=0mm|HoleType=Round|Shape=RoundedRectangle|*
%AMROUNDEDRECTD17*
21,1,0.6500,0.7250,0,0,0.0*
21,1,0.3250,1.0500,0,0,0.0*
1,1,0.3250,0.1625,-0.3625*
1,1,0.3250,-0.1625,-0.3625*
1,1,0.3250,-0.1625,0.3625*
1,1,0.3250,0.1625,0.3625*
%
%ADD17ROUNDEDRECTD17*%
G04:AMPARAMS|DCode=18|XSize=0.65mm|YSize=1.05mm|CornerRadius=0.1625mm|HoleSize=0mm|Usage=FLASHONLY|Rotation=270.000|XOffset=0mm|YOffset=0mm|HoleType=Round|Shape=RoundedRectangle|*
%AMROUNDEDRECTD18*
21,1,0.6500,0.7250,0,0,270.0*
21,1,0.3250,1.0500,0,0,270.0*
1,1,0.3250,-0.3625,-0.1625*
1,1,0.3250,-0.3625,0.1625*
1,1,0.3250,0.3625,0.1625*
1,1,0.3250,0.3625,-0.1625*
%
%ADD18ROUNDEDRECTD18*%
G36*
X235733Y197550D02*
X235726Y197288D01*
X235705Y197027D01*
X235671Y196768D01*
X235623Y196511D01*
X235562Y196256D01*
X235488Y196005D01*
X235401Y195758D01*
X235300Y195516D01*
X235188Y195280D01*
X235063Y195050D01*
X234926Y194827D01*
X234778Y194611D01*
X234618Y194403D01*
X234448Y194204D01*
X234268Y194014D01*
X234078Y193834D01*
X233879Y193664D01*
X233672Y193505D01*
X233456Y193357D01*
X233233Y193220D01*
X233003Y193095D01*
X232766Y192982D01*
X232525Y192882D01*
X232278Y192795D01*
X232027Y192720D01*
X231772Y192659D01*
X231515Y192612D01*
X231255Y192577D01*
X230994Y192557D01*
X230733Y192550D01*
X230471Y192557D01*
X230210Y192577D01*
X229951Y192612D01*
X229693Y192659D01*
X229439Y192720D01*
X229188Y192795D01*
X228941Y192882D01*
X228699Y192982D01*
X228463Y193095D01*
X228233Y193220D01*
X228009Y193357D01*
X227794Y193505D01*
X227586Y193664D01*
X227387Y193834D01*
X227197Y194014D01*
X227017Y194204D01*
X226847Y194403D01*
X226688Y194611D01*
X226539Y194827D01*
X226403Y195050D01*
X226278Y195280D01*
X226165Y195516D01*
X226065Y195758D01*
X225977Y196005D01*
X225903Y196256D01*
X225842Y196511D01*
X225794Y196768D01*
X225760Y197027D01*
X225740Y197288D01*
X225733Y197550D01*
Y212550D01*
X235733D01*
Y197550D01*
D02*
G37*
G36*
X250733D02*
X250726Y197288D01*
X250705Y197027D01*
X250671Y196768D01*
X250623Y196511D01*
X250562Y196256D01*
X250488Y196005D01*
X250401Y195758D01*
X250300Y195516D01*
X250188Y195280D01*
X250063Y195050D01*
X249926Y194827D01*
X249778Y194611D01*
X249618Y194403D01*
X249448Y194204D01*
X249268Y194014D01*
X249078Y193834D01*
X248879Y193664D01*
X248672Y193505D01*
X248456Y193357D01*
X248233Y193220D01*
X248003Y193095D01*
X247766Y192982D01*
X247525Y192882D01*
X247278Y192795D01*
X247027Y192720D01*
X246772Y192659D01*
X246515Y192612D01*
X246255Y192577D01*
X245994Y192557D01*
X245733Y192550D01*
X245471Y192557D01*
X245210Y192577D01*
X244951Y192612D01*
X244693Y192659D01*
X244439Y192720D01*
X244188Y192795D01*
X243941Y192882D01*
X243699Y192982D01*
X243463Y193095D01*
X243233Y193220D01*
X243009Y193357D01*
X242794Y193505D01*
X242586Y193664D01*
X242387Y193834D01*
X242197Y194014D01*
X242017Y194204D01*
X241847Y194403D01*
X241688Y194611D01*
X241539Y194827D01*
X241403Y195050D01*
X241278Y195280D01*
X241165Y195516D01*
X241065Y195758D01*
X240977Y196005D01*
X240903Y196256D01*
X240842Y196511D01*
X240794Y196768D01*
X240760Y197027D01*
X240740Y197288D01*
X240733Y197550D01*
Y212550D01*
X250733D01*
Y197550D01*
D02*
G37*
G36*
X265733D02*
X265726Y197288D01*
X265705Y197027D01*
X265671Y196768D01*
X265623Y196511D01*
X265562Y196256D01*
X265488Y196005D01*
X265401Y195758D01*
X265300Y195516D01*
X265188Y195280D01*
X265063Y195050D01*
X264926Y194827D01*
X264778Y194611D01*
X264618Y194403D01*
X264448Y194204D01*
X264268Y194014D01*
X264078Y193834D01*
X263879Y193664D01*
X263672Y193505D01*
X263456Y193357D01*
X263233Y193220D01*
X263003Y193095D01*
X262766Y192982D01*
X262525Y192882D01*
X262278Y192795D01*
X262027Y192720D01*
X261772Y192659D01*
X261515Y192612D01*
X261255Y192577D01*
X260994Y192557D01*
X260733Y192550D01*
X260471Y192557D01*
X260210Y192577D01*
X259951Y192612D01*
X259693Y192659D01*
X259439Y192720D01*
X259188Y192795D01*
X258941Y192882D01*
X258699Y192982D01*
X258463Y193095D01*
X258233Y193220D01*
X258009Y193357D01*
X257794Y193505D01*
X257586Y193664D01*
X257387Y193834D01*
X257197Y194014D01*
X257017Y194204D01*
X256847Y194403D01*
X256688Y194611D01*
X256539Y194827D01*
X256403Y195050D01*
X256278Y195280D01*
X256165Y195516D01*
X256065Y195758D01*
X255977Y196005D01*
X255903Y196256D01*
X255842Y196511D01*
X255794Y196768D01*
X255760Y197027D01*
X255740Y197288D01*
X255733Y197550D01*
Y212550D01*
X265733D01*
Y197550D01*
D02*
G37*
G36*
X220733Y215050D02*
X205733D01*
X205471Y215057D01*
X205210Y215077D01*
X204951Y215112D01*
X204693Y215159D01*
X204439Y215220D01*
X204188Y215295D01*
X203941Y215382D01*
X203699Y215482D01*
X203463Y215595D01*
X203233Y215720D01*
X203009Y215857D01*
X202794Y216005D01*
X202586Y216164D01*
X202387Y216334D01*
X202197Y216514D01*
X202017Y216704D01*
X201847Y216903D01*
X201688Y217111D01*
X201539Y217327D01*
X201403Y217550D01*
X201278Y217780D01*
X201165Y218016D01*
X201065Y218258D01*
X200977Y218505D01*
X200903Y218756D01*
X200842Y219011D01*
X200794Y219268D01*
X200760Y219527D01*
X200740Y219788D01*
X200733Y220050D01*
X200740Y220312D01*
X200760Y220573D01*
X200794Y220832D01*
X200842Y221090D01*
X200903Y221344D01*
X200977Y221595D01*
X201065Y221842D01*
X201165Y222084D01*
X201278Y222320D01*
X201403Y222550D01*
X201539Y222773D01*
X201688Y222989D01*
X201847Y223197D01*
X202017Y223396D01*
X202197Y223585D01*
X202387Y223766D01*
X202586Y223936D01*
X202794Y224095D01*
X203009Y224243D01*
X203233Y224380D01*
X203463Y224505D01*
X203699Y224618D01*
X203941Y224718D01*
X204188Y224805D01*
X204439Y224880D01*
X204693Y224941D01*
X204951Y224988D01*
X205210Y225023D01*
X205471Y225043D01*
X205733Y225050D01*
X220733D01*
Y215050D01*
D02*
G37*
G36*
Y230050D02*
X205733D01*
X205471Y230057D01*
X205210Y230077D01*
X204951Y230112D01*
X204693Y230159D01*
X204439Y230220D01*
X204188Y230295D01*
X203941Y230382D01*
X203699Y230482D01*
X203463Y230595D01*
X203233Y230720D01*
X203009Y230857D01*
X202794Y231005D01*
X202586Y231164D01*
X202387Y231334D01*
X202197Y231514D01*
X202017Y231704D01*
X201847Y231903D01*
X201688Y232111D01*
X201539Y232327D01*
X201403Y232550D01*
X201278Y232780D01*
X201165Y233016D01*
X201065Y233258D01*
X200977Y233505D01*
X200903Y233756D01*
X200842Y234011D01*
X200794Y234268D01*
X200760Y234527D01*
X200740Y234788D01*
X200733Y235050D01*
X200740Y235312D01*
X200760Y235573D01*
X200794Y235832D01*
X200842Y236090D01*
X200903Y236344D01*
X200977Y236595D01*
X201065Y236842D01*
X201165Y237084D01*
X201278Y237320D01*
X201403Y237550D01*
X201539Y237773D01*
X201688Y237989D01*
X201847Y238197D01*
X202017Y238396D01*
X202197Y238585D01*
X202387Y238766D01*
X202586Y238936D01*
X202794Y239095D01*
X203009Y239243D01*
X203233Y239380D01*
X203463Y239505D01*
X203699Y239618D01*
X203941Y239718D01*
X204188Y239805D01*
X204439Y239880D01*
X204693Y239941D01*
X204951Y239988D01*
X205210Y240023D01*
X205471Y240043D01*
X205733Y240050D01*
X220733D01*
Y230050D01*
D02*
G37*
G36*
Y245050D02*
X205733D01*
X205471Y245057D01*
X205210Y245077D01*
X204951Y245112D01*
X204693Y245159D01*
X204439Y245220D01*
X204188Y245295D01*
X203941Y245382D01*
X203699Y245482D01*
X203463Y245595D01*
X203233Y245720D01*
X203009Y245857D01*
X202794Y246005D01*
X202586Y246164D01*
X202387Y246334D01*
X202197Y246514D01*
X202017Y246704D01*
X201847Y246903D01*
X201688Y247111D01*
X201539Y247327D01*
X201403Y247550D01*
X201278Y247780D01*
X201165Y248016D01*
X201065Y248258D01*
X200977Y248505D01*
X200903Y248756D01*
X200842Y249010D01*
X200794Y249268D01*
X200760Y249527D01*
X200740Y249788D01*
X200733Y250050D01*
X200740Y250312D01*
X200760Y250573D01*
X200794Y250832D01*
X200842Y251090D01*
X200903Y251344D01*
X200977Y251595D01*
X201065Y251842D01*
X201165Y252084D01*
X201278Y252320D01*
X201403Y252550D01*
X201539Y252773D01*
X201688Y252989D01*
X201847Y253197D01*
X202017Y253396D01*
X202197Y253585D01*
X202387Y253766D01*
X202586Y253936D01*
X202794Y254095D01*
X203009Y254243D01*
X203233Y254380D01*
X203463Y254505D01*
X203699Y254618D01*
X203941Y254718D01*
X204188Y254805D01*
X204439Y254880D01*
X204693Y254941D01*
X204951Y254988D01*
X205210Y255023D01*
X205471Y255043D01*
X205733Y255050D01*
X220733D01*
Y245050D01*
D02*
G37*
G36*
X211733Y275050D02*
X205733D01*
X205471Y275057D01*
X205210Y275077D01*
X204951Y275112D01*
X204693Y275159D01*
X204439Y275220D01*
X204188Y275295D01*
X203941Y275382D01*
X203699Y275482D01*
X203463Y275595D01*
X203233Y275720D01*
X203009Y275857D01*
X202794Y276005D01*
X202586Y276164D01*
X202387Y276334D01*
X202197Y276514D01*
X202017Y276704D01*
X201847Y276903D01*
X201688Y277111D01*
X201539Y277327D01*
X201403Y277550D01*
X201278Y277780D01*
X201165Y278016D01*
X201065Y278258D01*
X200977Y278505D01*
X200903Y278756D01*
X200842Y279010D01*
X200794Y279268D01*
X200760Y279527D01*
X200740Y279788D01*
X200733Y280050D01*
X200740Y280312D01*
X200760Y280573D01*
X200794Y280832D01*
X200842Y281090D01*
X200903Y281344D01*
X200977Y281595D01*
X201065Y281842D01*
X201165Y282084D01*
X201278Y282320D01*
X201403Y282550D01*
X201539Y282773D01*
X201688Y282989D01*
X201847Y283197D01*
X202017Y283396D01*
X202197Y283585D01*
X202387Y283766D01*
X202586Y283936D01*
X202794Y284095D01*
X203009Y284243D01*
X203233Y284380D01*
X203463Y284505D01*
X203699Y284618D01*
X203941Y284718D01*
X204188Y284805D01*
X204439Y284880D01*
X204693Y284941D01*
X204951Y284988D01*
X205210Y285023D01*
X205471Y285043D01*
X205733Y285050D01*
X211733D01*
Y275050D01*
D02*
G37*
G36*
X280733Y197550D02*
X280726Y197288D01*
X280705Y197027D01*
X280671Y196768D01*
X280623Y196511D01*
X280562Y196256D01*
X280488Y196005D01*
X280401Y195758D01*
X280300Y195516D01*
X280188Y195280D01*
X280063Y195050D01*
X279926Y194827D01*
X279778Y194611D01*
X279618Y194403D01*
X279448Y194204D01*
X279268Y194014D01*
X279078Y193834D01*
X278879Y193664D01*
X278672Y193505D01*
X278456Y193357D01*
X278233Y193220D01*
X278003Y193095D01*
X277766Y192982D01*
X277525Y192882D01*
X277278Y192795D01*
X277027Y192720D01*
X276772Y192659D01*
X276515Y192612D01*
X276255Y192577D01*
X275994Y192557D01*
X275733Y192550D01*
X275471Y192557D01*
X275210Y192577D01*
X274951Y192612D01*
X274693Y192659D01*
X274439Y192720D01*
X274188Y192795D01*
X273941Y192882D01*
X273699Y192982D01*
X273463Y193095D01*
X273233Y193220D01*
X273009Y193357D01*
X272794Y193505D01*
X272586Y193664D01*
X272387Y193834D01*
X272197Y194014D01*
X272017Y194204D01*
X271847Y194403D01*
X271688Y194611D01*
X271539Y194827D01*
X271403Y195050D01*
X271278Y195280D01*
X271165Y195516D01*
X271065Y195758D01*
X270977Y196005D01*
X270903Y196256D01*
X270842Y196511D01*
X270794Y196768D01*
X270760Y197027D01*
X270740Y197288D01*
X270733Y197550D01*
Y212550D01*
X280733D01*
Y197550D01*
D02*
G37*
G36*
X295733D02*
X295726Y197288D01*
X295705Y197027D01*
X295671Y196768D01*
X295623Y196511D01*
X295562Y196256D01*
X295488Y196005D01*
X295401Y195758D01*
X295301Y195516D01*
X295188Y195280D01*
X295063Y195050D01*
X294926Y194827D01*
X294778Y194611D01*
X294618Y194403D01*
X294448Y194204D01*
X294268Y194014D01*
X294078Y193834D01*
X293879Y193664D01*
X293672Y193505D01*
X293456Y193357D01*
X293233Y193220D01*
X293003Y193095D01*
X292766Y192982D01*
X292525Y192882D01*
X292278Y192795D01*
X292027Y192720D01*
X291772Y192659D01*
X291515Y192612D01*
X291255Y192577D01*
X290994Y192557D01*
X290733Y192550D01*
X290471Y192557D01*
X290210Y192577D01*
X289951Y192612D01*
X289693Y192659D01*
X289439Y192720D01*
X289188Y192795D01*
X288941Y192882D01*
X288699Y192982D01*
X288463Y193095D01*
X288233Y193220D01*
X288009Y193357D01*
X287794Y193505D01*
X287586Y193664D01*
X287387Y193834D01*
X287197Y194014D01*
X287017Y194204D01*
X286847Y194403D01*
X286688Y194611D01*
X286539Y194827D01*
X286403Y195050D01*
X286278Y195280D01*
X286165Y195516D01*
X286065Y195758D01*
X285977Y196005D01*
X285903Y196256D01*
X285842Y196511D01*
X285794Y196768D01*
X285760Y197027D01*
X285740Y197288D01*
X285733Y197550D01*
Y212550D01*
X295733D01*
Y197550D01*
D02*
G37*
G36*
X310733D02*
X310726Y197288D01*
X310705Y197027D01*
X310671Y196768D01*
X310623Y196511D01*
X310562Y196256D01*
X310488Y196005D01*
X310401Y195758D01*
X310300Y195516D01*
X310188Y195280D01*
X310063Y195050D01*
X309926Y194827D01*
X309778Y194611D01*
X309618Y194403D01*
X309448Y194204D01*
X309268Y194014D01*
X309078Y193834D01*
X308879Y193664D01*
X308672Y193505D01*
X308456Y193357D01*
X308233Y193220D01*
X308003Y193095D01*
X307766Y192982D01*
X307525Y192882D01*
X307278Y192795D01*
X307027Y192720D01*
X306772Y192659D01*
X306515Y192612D01*
X306255Y192577D01*
X305994Y192557D01*
X305733Y192550D01*
X305471Y192557D01*
X305210Y192577D01*
X304951Y192612D01*
X304693Y192659D01*
X304439Y192720D01*
X304188Y192795D01*
X303941Y192882D01*
X303699Y192982D01*
X303463Y193095D01*
X303233Y193220D01*
X303009Y193357D01*
X302794Y193505D01*
X302586Y193664D01*
X302387Y193834D01*
X302197Y194014D01*
X302017Y194204D01*
X301847Y194403D01*
X301688Y194611D01*
X301539Y194827D01*
X301403Y195050D01*
X301278Y195280D01*
X301165Y195516D01*
X301065Y195758D01*
X300977Y196005D01*
X300903Y196256D01*
X300842Y196511D01*
X300794Y196768D01*
X300760Y197027D01*
X300740Y197288D01*
X300733Y197550D01*
Y212550D01*
X310733D01*
Y197550D01*
D02*
G37*
G36*
X330994Y225043D02*
X331255Y225023D01*
X331515Y224988D01*
X331772Y224941D01*
X332027Y224880D01*
X332278Y224805D01*
X332525Y224718D01*
X332766Y224618D01*
X333003Y224505D01*
X333233Y224380D01*
X333456Y224243D01*
X333672Y224095D01*
X333879Y223936D01*
X334078Y223766D01*
X334268Y223585D01*
X334448Y223396D01*
X334618Y223197D01*
X334778Y222989D01*
X334926Y222773D01*
X335063Y222550D01*
X335188Y222320D01*
X335300Y222084D01*
X335401Y221842D01*
X335488Y221595D01*
X335562Y221344D01*
X335624Y221090D01*
X335671Y220832D01*
X335705Y220573D01*
X335726Y220312D01*
X335733Y220050D01*
X335726Y219788D01*
X335705Y219527D01*
X335671Y219268D01*
X335624Y219011D01*
X335562Y218756D01*
X335488Y218505D01*
X335401Y218258D01*
X335300Y218016D01*
X335188Y217780D01*
X335063Y217550D01*
X334926Y217327D01*
X334778Y217111D01*
X334618Y216903D01*
X334448Y216704D01*
X334268Y216514D01*
X334078Y216334D01*
X333879Y216164D01*
X333672Y216005D01*
X333456Y215857D01*
X333233Y215720D01*
X333003Y215595D01*
X332766Y215482D01*
X332525Y215382D01*
X332278Y215295D01*
X332027Y215220D01*
X331772Y215159D01*
X331515Y215112D01*
X331255Y215077D01*
X330994Y215057D01*
X330733Y215050D01*
X315733D01*
Y225050D01*
X330733D01*
X330994Y225043D01*
D02*
G37*
G36*
Y240043D02*
X331255Y240023D01*
X331515Y239988D01*
X331772Y239941D01*
X332027Y239880D01*
X332278Y239805D01*
X332525Y239718D01*
X332766Y239618D01*
X333003Y239505D01*
X333233Y239380D01*
X333456Y239243D01*
X333672Y239095D01*
X333879Y238936D01*
X334078Y238766D01*
X334268Y238585D01*
X334448Y238396D01*
X334618Y238197D01*
X334778Y237989D01*
X334926Y237773D01*
X335063Y237550D01*
X335188Y237320D01*
X335300Y237084D01*
X335401Y236842D01*
X335488Y236595D01*
X335562Y236344D01*
X335624Y236090D01*
X335671Y235832D01*
X335705Y235573D01*
X335726Y235312D01*
X335733Y235050D01*
X335726Y234788D01*
X335705Y234527D01*
X335671Y234268D01*
X335624Y234011D01*
X335562Y233756D01*
X335488Y233505D01*
X335401Y233258D01*
X335300Y233016D01*
X335188Y232780D01*
X335063Y232550D01*
X334926Y232327D01*
X334778Y232111D01*
X334618Y231903D01*
X334448Y231704D01*
X334268Y231514D01*
X334078Y231334D01*
X333879Y231164D01*
X333672Y231005D01*
X333456Y230857D01*
X333233Y230720D01*
X333003Y230595D01*
X332766Y230482D01*
X332525Y230382D01*
X332278Y230295D01*
X332027Y230220D01*
X331772Y230159D01*
X331515Y230112D01*
X331255Y230077D01*
X330994Y230057D01*
X330733Y230050D01*
X315733D01*
Y240050D01*
X330733D01*
X330994Y240043D01*
D02*
G37*
G36*
Y255043D02*
X331255Y255023D01*
X331515Y254988D01*
X331772Y254941D01*
X332027Y254880D01*
X332278Y254805D01*
X332525Y254718D01*
X332766Y254618D01*
X333003Y254505D01*
X333233Y254380D01*
X333456Y254243D01*
X333672Y254095D01*
X333879Y253936D01*
X334078Y253766D01*
X334268Y253585D01*
X334448Y253396D01*
X334618Y253197D01*
X334778Y252989D01*
X334926Y252773D01*
X335063Y252550D01*
X335188Y252320D01*
X335300Y252084D01*
X335401Y251842D01*
X335488Y251595D01*
X335562Y251344D01*
X335624Y251090D01*
X335671Y250832D01*
X335705Y250573D01*
X335726Y250312D01*
X335733Y250050D01*
X335726Y249788D01*
X335705Y249527D01*
X335671Y249268D01*
X335624Y249010D01*
X335562Y248756D01*
X335488Y248505D01*
X335401Y248258D01*
X335300Y248016D01*
X335188Y247780D01*
X335063Y247550D01*
X334926Y247327D01*
X334778Y247111D01*
X334618Y246903D01*
X334448Y246704D01*
X334268Y246514D01*
X334078Y246334D01*
X333879Y246164D01*
X333672Y246005D01*
X333456Y245857D01*
X333233Y245720D01*
X333003Y245595D01*
X332766Y245482D01*
X332525Y245382D01*
X332278Y245295D01*
X332027Y245220D01*
X331772Y245159D01*
X331515Y245112D01*
X331255Y245077D01*
X330994Y245057D01*
X330733Y245050D01*
X315733D01*
Y255050D01*
X330733D01*
X330994Y255043D01*
D02*
G37*
G36*
Y270043D02*
X331255Y270023D01*
X331515Y269988D01*
X331772Y269941D01*
X332027Y269880D01*
X332278Y269805D01*
X332525Y269718D01*
X332766Y269618D01*
X333003Y269505D01*
X333233Y269380D01*
X333456Y269243D01*
X333672Y269095D01*
X333879Y268936D01*
X334078Y268766D01*
X334268Y268585D01*
X334448Y268396D01*
X334618Y268197D01*
X334778Y267989D01*
X334926Y267773D01*
X335063Y267550D01*
X335188Y267320D01*
X335300Y267084D01*
X335401Y266842D01*
X335488Y266595D01*
X335562Y266344D01*
X335624Y266090D01*
X335671Y265832D01*
X335705Y265573D01*
X335726Y265312D01*
X335733Y265050D01*
X335726Y264788D01*
X335705Y264527D01*
X335671Y264268D01*
X335624Y264010D01*
X335562Y263756D01*
X335488Y263505D01*
X335401Y263258D01*
X335300Y263016D01*
X335188Y262780D01*
X335063Y262550D01*
X334926Y262327D01*
X334778Y262111D01*
X334618Y261903D01*
X334448Y261704D01*
X334268Y261514D01*
X334078Y261334D01*
X333879Y261164D01*
X333672Y261005D01*
X333456Y260857D01*
X333233Y260720D01*
X333003Y260595D01*
X332766Y260482D01*
X332525Y260382D01*
X332278Y260295D01*
X332027Y260220D01*
X331772Y260159D01*
X331515Y260112D01*
X331255Y260077D01*
X330994Y260057D01*
X330733Y260050D01*
X315733D01*
Y270050D01*
X330733D01*
X330994Y270043D01*
D02*
G37*
G36*
Y285043D02*
X331255Y285023D01*
X331515Y284988D01*
X331772Y284941D01*
X332027Y284880D01*
X332278Y284805D01*
X332525Y284718D01*
X332766Y284618D01*
X333003Y284505D01*
X333233Y284380D01*
X333456Y284243D01*
X333672Y284095D01*
X333879Y283936D01*
X334078Y283766D01*
X334268Y283585D01*
X334448Y283396D01*
X334618Y283197D01*
X334778Y282989D01*
X334926Y282773D01*
X335063Y282550D01*
X335188Y282320D01*
X335300Y282084D01*
X335401Y281842D01*
X335488Y281595D01*
X335562Y281344D01*
X335624Y281090D01*
X335671Y280832D01*
X335705Y280573D01*
X335726Y280312D01*
X335733Y280050D01*
X335726Y279788D01*
X335705Y279527D01*
X335671Y279268D01*
X335624Y279010D01*
X335562Y278756D01*
X335488Y278505D01*
X335401Y278258D01*
X335300Y278016D01*
X335188Y277780D01*
X335063Y277550D01*
X334926Y277327D01*
X334778Y277111D01*
X334618Y276903D01*
X334448Y276704D01*
X334268Y276514D01*
X334078Y276334D01*
X333879Y276164D01*
X333672Y276005D01*
X333456Y275857D01*
X333233Y275720D01*
X333003Y275595D01*
X332766Y275482D01*
X332525Y275382D01*
X332278Y275295D01*
X332027Y275220D01*
X331772Y275159D01*
X331515Y275112D01*
X331255Y275077D01*
X330994Y275057D01*
X330733Y275050D01*
X315733D01*
Y285050D01*
X330733D01*
X330994Y285043D01*
D02*
G37*
D13*
X230733Y202550D02*
D03*
D14*
X210733Y220050D02*
D03*
Y235050D02*
D03*
Y250050D02*
D03*
Y265050D02*
D03*
D15*
X132450Y266700D02*
D03*
X146950D02*
D03*
X246750Y152400D02*
D03*
X373750Y241300D02*
D03*
X388250D02*
D03*
X132450D02*
D03*
X146950D02*
D03*
X261250Y152400D02*
D03*
X361050Y266700D02*
D03*
X375550D02*
D03*
D16*
X182750Y165100D02*
D03*
X106550Y139700D02*
D03*
Y88900D02*
D03*
X96650Y63500D02*
D03*
X81150D02*
D03*
X198250Y165100D02*
D03*
X388750Y190500D02*
D03*
X373250D02*
D03*
X45850Y127000D02*
D03*
X30350D02*
D03*
X122050Y88900D02*
D03*
Y139700D02*
D03*
X134750Y190500D02*
D03*
X119250D02*
D03*
X198250Y114300D02*
D03*
X182750D02*
D03*
D17*
X315550Y135050D02*
D03*
X294050D02*
D03*
Y93550D02*
D03*
X315550D02*
D03*
X281350Y17350D02*
D03*
X302850D02*
D03*
Y58850D02*
D03*
X281350D02*
D03*
X391750Y147750D02*
D03*
X370250D02*
D03*
Y106250D02*
D03*
X391750D02*
D03*
D18*
X236650Y27350D02*
D03*
Y48850D02*
D03*
X195150D02*
D03*
Y27350D02*
D03*
M02*
