G04*
G04 #@! TF.GenerationSoftware,Altium Limited,Altium Designer,25.4.2 (15)*
G04*
G04 Layer_Physical_Order=1*
G04 Layer_Color=255*
%FSLAX44Y44*%
%MOMM*%
G71*
G04*
G04 #@! TF.SameCoordinates,122F49FF-69CD-467C-8DFD-42ED72D14C47*
G04*
G04*
G04 #@! TF.FilePolarity,Positive*
G04*
G01*
G75*
%ADD12C,0.2540*%
G04:AMPARAMS|DCode=13|XSize=1mm|YSize=1.6mm|CornerRadius=0.25mm|HoleSize=0mm|Usage=FLASHONLY|Rotation=0.000|XOffset=0mm|YOffset=0mm|HoleType=Round|Shape=RoundedRectangle|*
%AMROUNDEDRECTD13*
21,1,1.0000,1.1000,0,0,0.0*
21,1,0.5000,1.6000,0,0,0.0*
1,1,0.5000,0.2500,-0.5500*
1,1,0.5000,-0.2500,-0.5500*
1,1,0.5000,-0.2500,0.5500*
1,1,0.5000,0.2500,0.5500*
%
%ADD13ROUNDEDRECTD13*%
G04:AMPARAMS|DCode=14|XSize=1.6mm|YSize=1mm|CornerRadius=0.25mm|HoleSize=0mm|Usage=FLASHONLY|Rotation=0.000|XOffset=0mm|YOffset=0mm|HoleType=Round|Shape=RoundedRectangle|*
%AMROUNDEDRECTD14*
21,1,1.6000,0.5000,0,0,0.0*
21,1,1.1000,1.0000,0,0,0.0*
1,1,0.5000,0.5500,-0.2500*
1,1,0.5000,-0.5500,-0.2500*
1,1,0.5000,-0.5500,0.2500*
1,1,0.5000,0.5500,0.2500*
%
%ADD14ROUNDEDRECTD14*%
G04:AMPARAMS|DCode=15|XSize=1mm|YSize=1.1mm|CornerRadius=0.25mm|HoleSize=0mm|Usage=FLASHONLY|Rotation=90.000|XOffset=0mm|YOffset=0mm|HoleType=Round|Shape=RoundedRectangle|*
%AMROUNDEDRECTD15*
21,1,1.0000,0.6000,0,0,90.0*
21,1,0.5000,1.1000,0,0,90.0*
1,1,0.5000,0.3000,0.2500*
1,1,0.5000,0.3000,-0.2500*
1,1,0.5000,-0.3000,-0.2500*
1,1,0.5000,-0.3000,0.2500*
%
%ADD15ROUNDEDRECTD15*%
G04:AMPARAMS|DCode=16|XSize=0.9mm|YSize=0.95mm|CornerRadius=0.225mm|HoleSize=0mm|Usage=FLASHONLY|Rotation=90.000|XOffset=0mm|YOffset=0mm|HoleType=Round|Shape=RoundedRectangle|*
%AMROUNDEDRECTD16*
21,1,0.9000,0.5000,0,0,90.0*
21,1,0.4500,0.9500,0,0,90.0*
1,1,0.4500,0.2500,0.2250*
1,1,0.4500,0.2500,-0.2250*
1,1,0.4500,-0.2500,-0.2250*
1,1,0.4500,-0.2500,0.2250*
%
%ADD16ROUNDEDRECTD16*%
G04:AMPARAMS|DCode=17|XSize=0.65mm|YSize=1.05mm|CornerRadius=0.1625mm|HoleSize=0mm|Usage=FLASHONLY|Rotation=0.000|XOffset=0mm|YOffset=0mm|HoleType=Round|Shape=RoundedRectangle|*
%AMROUNDEDRECTD17*
21,1,0.6500,0.7250,0,0,0.0*
21,1,0.3250,1.0500,0,0,0.0*
1,1,0.3250,0.1625,-0.3625*
1,1,0.3250,-0.1625,-0.3625*
1,1,0.3250,-0.1625,0.3625*
1,1,0.3250,0.1625,0.3625*
%
%ADD17ROUNDEDRECTD17*%
G04:AMPARAMS|DCode=18|XSize=0.65mm|YSize=1.05mm|CornerRadius=0.1625mm|HoleSize=0mm|Usage=FLASHONLY|Rotation=270.000|XOffset=0mm|YOffset=0mm|HoleType=Round|Shape=RoundedRectangle|*
%AMROUNDEDRECTD18*
21,1,0.6500,0.7250,0,0,270.0*
21,1,0.3250,1.0500,0,0,270.0*
1,1,0.3250,-0.3625,-0.1625*
1,1,0.3250,-0.3625,0.1625*
1,1,0.3250,0.3625,0.1625*
1,1,0.3250,0.3625,-0.1625*
%
%ADD18ROUNDEDRECTD18*%
G04:AMPARAMS|DCode=19|XSize=0.9mm|YSize=1mm|CornerRadius=0.225mm|HoleSize=0mm|Usage=FLASHONLY|Rotation=0.000|XOffset=0mm|YOffset=0mm|HoleType=Round|Shape=RoundedRectangle|*
%AMROUNDEDRECTD19*
21,1,0.9000,0.5500,0,0,0.0*
21,1,0.4500,1.0000,0,0,0.0*
1,1,0.4500,0.2250,-0.2750*
1,1,0.4500,-0.2250,-0.2750*
1,1,0.4500,-0.2250,0.2750*
1,1,0.4500,0.2250,0.2750*
%
%ADD19ROUNDEDRECTD19*%
%ADD25C,0.3810*%
%ADD26C,0.5080*%
G36*
X444500Y0D02*
X0D01*
Y304800D01*
X203661D01*
Y299050D01*
X203790Y298400D01*
X203794Y298208D01*
X202654Y295918D01*
X202598Y295860D01*
X186189D01*
X184912Y296114D01*
X134682D01*
X133146Y295809D01*
X131843Y294938D01*
X129611Y292707D01*
X128741Y291404D01*
X128436Y289868D01*
Y273619D01*
X127682Y273469D01*
X126182Y272467D01*
X125181Y270968D01*
X124829Y269200D01*
Y264200D01*
X124866Y264016D01*
X43012Y182162D01*
X42141Y180860D01*
X41836Y179324D01*
Y133315D01*
X41679Y133284D01*
X40263Y132337D01*
X39437Y131102D01*
X38100Y130953D01*
X36763Y131102D01*
X35937Y132337D01*
X34521Y133284D01*
X32850Y133616D01*
X27850D01*
X26179Y133284D01*
X24763Y132337D01*
X23816Y130921D01*
X23484Y129250D01*
Y124750D01*
X23816Y123079D01*
X24763Y121663D01*
X26179Y120716D01*
X26336Y120685D01*
Y73790D01*
X26641Y72254D01*
X27511Y70952D01*
X37802Y60662D01*
X39104Y59791D01*
X40640Y59486D01*
X74679D01*
X75563Y58163D01*
X76979Y57216D01*
X77136Y57185D01*
Y37640D01*
X77441Y36104D01*
X78312Y34802D01*
X88602Y24512D01*
X89904Y23642D01*
X91440Y23336D01*
X188723D01*
X188889Y23089D01*
X190098Y22280D01*
X191525Y21997D01*
X198775D01*
X200202Y22280D01*
X201412Y23089D01*
X202010Y23984D01*
X229790D01*
X230388Y23089D01*
X231598Y22280D01*
X233025Y21997D01*
X240275D01*
X241702Y22280D01*
X242911Y23089D01*
X243720Y24298D01*
X244003Y25725D01*
Y28975D01*
X243720Y30402D01*
X242911Y31612D01*
X241702Y32420D01*
X240989Y32562D01*
X241239Y35102D01*
X274828D01*
X275443Y35224D01*
X277599Y33903D01*
X277983Y33435D01*
Y24210D01*
X277089Y23612D01*
X276280Y22402D01*
X275997Y20975D01*
Y13725D01*
X276280Y12298D01*
X277089Y11089D01*
X278298Y10280D01*
X279725Y9997D01*
X282975D01*
X284402Y10280D01*
X285612Y11089D01*
X286420Y12298D01*
X286704Y13725D01*
Y20975D01*
X286420Y22402D01*
X285612Y23612D01*
X284717Y24210D01*
Y43590D01*
X285059Y44102D01*
X285364Y45638D01*
X285059Y47174D01*
X284717Y47686D01*
Y51990D01*
X285612Y52588D01*
X286420Y53798D01*
X286704Y55225D01*
Y62475D01*
X286420Y63902D01*
X285612Y65111D01*
X284402Y65920D01*
X282975Y66203D01*
X279725D01*
X278298Y65920D01*
X277089Y65111D01*
X276280Y63902D01*
X275997Y62475D01*
Y55225D01*
X276280Y53798D01*
X277089Y52588D01*
X277983Y51990D01*
Y47948D01*
X273165Y43130D01*
X254448D01*
X253678Y45670D01*
X254188Y46011D01*
X284108Y75931D01*
X284108Y75931D01*
X284108Y75931D01*
X287689Y79513D01*
X290036Y78541D01*
Y71374D01*
X290342Y69838D01*
X291212Y68536D01*
X291720Y68028D01*
X293022Y67157D01*
X294558Y66852D01*
X296929D01*
X297002Y66775D01*
X298054Y64312D01*
X297780Y63902D01*
X297496Y62475D01*
Y55225D01*
X297780Y53798D01*
X298588Y52588D01*
X299483Y51990D01*
Y24210D01*
X298588Y23612D01*
X297780Y22402D01*
X297496Y20975D01*
Y13725D01*
X297780Y12298D01*
X298588Y11089D01*
X299798Y10280D01*
X301225Y9997D01*
X304475D01*
X305902Y10280D01*
X307111Y11089D01*
X307920Y12298D01*
X308203Y13725D01*
Y20975D01*
X307920Y22402D01*
X307111Y23612D01*
X306217Y24210D01*
Y51990D01*
X307111Y52588D01*
X307920Y53798D01*
X308203Y55225D01*
Y58527D01*
X316529Y66852D01*
X386080D01*
X387616Y67157D01*
X388918Y68028D01*
X403142Y82252D01*
X404013Y83554D01*
X404318Y85090D01*
Y219710D01*
X404013Y221246D01*
X403142Y222548D01*
X393596Y232095D01*
X393510Y232459D01*
X394056Y235224D01*
X394518Y235533D01*
X395519Y237032D01*
X395871Y238800D01*
Y243800D01*
X395519Y245568D01*
X394518Y247067D01*
X393018Y248069D01*
X392264Y248219D01*
Y254000D01*
X391959Y255536D01*
X391089Y256838D01*
X383171Y264756D01*
Y269200D01*
X382819Y270968D01*
X381818Y272467D01*
X380318Y273469D01*
X378550Y273821D01*
X372550D01*
X370782Y273469D01*
X369283Y272467D01*
X367317D01*
X365818Y273469D01*
X364050Y273821D01*
X359606D01*
X350538Y282889D01*
X349236Y283759D01*
X347700Y284064D01*
X336553D01*
X336485Y284162D01*
X336446Y284201D01*
X336421Y284250D01*
X336262Y284458D01*
X336221Y284494D01*
X336194Y284542D01*
X336024Y284741D01*
X335981Y284775D01*
X335951Y284822D01*
X335771Y285012D01*
X335726Y285043D01*
X335694Y285088D01*
X335505Y285268D01*
X335458Y285298D01*
X335424Y285341D01*
X335225Y285511D01*
X335177Y285538D01*
X335141Y285579D01*
X334933Y285739D01*
X334883Y285763D01*
X334845Y285803D01*
X334629Y285951D01*
X334579Y285972D01*
X334538Y286010D01*
X334315Y286147D01*
X334264Y286166D01*
X334221Y286201D01*
X333991Y286326D01*
X333939Y286342D01*
X333895Y286375D01*
X333658Y286488D01*
X333605Y286501D01*
X333559Y286532D01*
X333317Y286632D01*
X333266Y286642D01*
X333001Y286819D01*
X331233Y287171D01*
X320233D01*
X319985Y287122D01*
X315733D01*
X314940Y286964D01*
X314268Y286515D01*
X313819Y285843D01*
X313661Y285050D01*
Y283806D01*
X313424Y283759D01*
X312122Y282889D01*
X305010Y275777D01*
X304139Y274474D01*
X303834Y272938D01*
Y259050D01*
X303276Y257703D01*
Y255885D01*
X301281Y254064D01*
X273329D01*
X232955Y294438D01*
X233095Y295463D01*
X233847Y296978D01*
X330733D01*
X331525Y297136D01*
X332198Y297585D01*
X332647Y298257D01*
X332804Y299050D01*
Y304800D01*
X444500D01*
Y0D01*
D02*
G37*
G36*
X330994Y285043D02*
X331255Y285023D01*
X331515Y284988D01*
X331772Y284941D01*
X332027Y284880D01*
X332278Y284805D01*
X332525Y284718D01*
X332766Y284618D01*
X333003Y284505D01*
X333233Y284380D01*
X333456Y284243D01*
X333672Y284095D01*
X333879Y283936D01*
X334078Y283766D01*
X334268Y283585D01*
X334448Y283396D01*
X334618Y283197D01*
X334778Y282989D01*
X334926Y282773D01*
X335063Y282550D01*
X335188Y282320D01*
X335300Y282084D01*
X335401Y281842D01*
X335488Y281595D01*
X335562Y281344D01*
X335624Y281090D01*
X335671Y280832D01*
X335705Y280573D01*
X335726Y280312D01*
X335733Y280050D01*
X335726Y279788D01*
X335705Y279527D01*
X335671Y279268D01*
X335624Y279010D01*
X335562Y278756D01*
X335488Y278505D01*
X335401Y278258D01*
X335300Y278016D01*
X335188Y277780D01*
X335063Y277550D01*
X334926Y277327D01*
X334778Y277111D01*
X334618Y276903D01*
X334448Y276704D01*
X334268Y276514D01*
X334078Y276334D01*
X333879Y276164D01*
X333672Y276005D01*
X333456Y275857D01*
X333233Y275720D01*
X333003Y275595D01*
X332766Y275482D01*
X332525Y275382D01*
X332278Y275295D01*
X332027Y275220D01*
X331772Y275159D01*
X331515Y275112D01*
X331255Y275077D01*
X330994Y275057D01*
X330733Y275050D01*
X315733D01*
Y285050D01*
X330733D01*
X330994Y285043D01*
D02*
G37*
G36*
X211733Y275050D02*
X205733D01*
X205471Y275057D01*
X205210Y275077D01*
X204951Y275112D01*
X204693Y275159D01*
X204439Y275220D01*
X204188Y275295D01*
X203941Y275382D01*
X203699Y275482D01*
X203463Y275595D01*
X203233Y275720D01*
X203009Y275857D01*
X202794Y276005D01*
X202586Y276164D01*
X202387Y276334D01*
X202197Y276514D01*
X202017Y276704D01*
X201847Y276903D01*
X201688Y277111D01*
X201539Y277327D01*
X201403Y277550D01*
X201278Y277780D01*
X201165Y278016D01*
X201065Y278258D01*
X200977Y278505D01*
X200903Y278756D01*
X200842Y279010D01*
X200794Y279268D01*
X200760Y279527D01*
X200740Y279788D01*
X200733Y280050D01*
X200740Y280312D01*
X200760Y280573D01*
X200794Y280832D01*
X200842Y281090D01*
X200903Y281344D01*
X200977Y281595D01*
X201065Y281842D01*
X201165Y282084D01*
X201278Y282320D01*
X201403Y282550D01*
X201539Y282773D01*
X201688Y282989D01*
X201847Y283197D01*
X202017Y283396D01*
X202197Y283585D01*
X202387Y283766D01*
X202586Y283936D01*
X202794Y284095D01*
X203009Y284243D01*
X203233Y284380D01*
X203463Y284505D01*
X203699Y284618D01*
X203941Y284718D01*
X204188Y284805D01*
X204439Y284880D01*
X204693Y284941D01*
X204951Y284988D01*
X205210Y285023D01*
X205471Y285043D01*
X205733Y285050D01*
X211733D01*
Y275050D01*
D02*
G37*
G36*
X330994Y270043D02*
X331255Y270023D01*
X331515Y269988D01*
X331772Y269941D01*
X332027Y269880D01*
X332278Y269805D01*
X332525Y269718D01*
X332766Y269618D01*
X333003Y269505D01*
X333233Y269380D01*
X333456Y269243D01*
X333672Y269095D01*
X333879Y268936D01*
X334078Y268766D01*
X334268Y268585D01*
X334448Y268396D01*
X334618Y268197D01*
X334778Y267989D01*
X334926Y267773D01*
X335063Y267550D01*
X335188Y267320D01*
X335300Y267084D01*
X335401Y266842D01*
X335488Y266595D01*
X335562Y266344D01*
X335624Y266090D01*
X335671Y265832D01*
X335705Y265573D01*
X335726Y265312D01*
X335733Y265050D01*
X335726Y264788D01*
X335705Y264527D01*
X335671Y264268D01*
X335624Y264010D01*
X335562Y263756D01*
X335488Y263505D01*
X335401Y263258D01*
X335300Y263016D01*
X335188Y262780D01*
X335063Y262550D01*
X334926Y262327D01*
X334778Y262111D01*
X334618Y261903D01*
X334448Y261704D01*
X334268Y261514D01*
X334078Y261334D01*
X333879Y261164D01*
X333672Y261005D01*
X333456Y260857D01*
X333233Y260720D01*
X333003Y260595D01*
X332766Y260482D01*
X332525Y260382D01*
X332278Y260295D01*
X332027Y260220D01*
X331772Y260159D01*
X331515Y260112D01*
X331255Y260077D01*
X330994Y260057D01*
X330733Y260050D01*
X315733D01*
Y270050D01*
X330733D01*
X330994Y270043D01*
D02*
G37*
G36*
X220733Y260050D02*
X205733D01*
X205471Y260057D01*
X205210Y260077D01*
X204951Y260112D01*
X204693Y260159D01*
X204439Y260220D01*
X204188Y260295D01*
X203941Y260382D01*
X203699Y260482D01*
X203463Y260595D01*
X203233Y260720D01*
X203009Y260857D01*
X202794Y261005D01*
X202586Y261164D01*
X202387Y261334D01*
X202197Y261514D01*
X202017Y261704D01*
X201847Y261903D01*
X201688Y262111D01*
X201539Y262327D01*
X201403Y262550D01*
X201278Y262780D01*
X201165Y263016D01*
X201065Y263258D01*
X200977Y263505D01*
X200903Y263756D01*
X200842Y264010D01*
X200794Y264268D01*
X200760Y264527D01*
X200740Y264788D01*
X200733Y265050D01*
X200740Y265312D01*
X200760Y265573D01*
X200794Y265832D01*
X200842Y266090D01*
X200903Y266344D01*
X200977Y266595D01*
X201065Y266842D01*
X201165Y267084D01*
X201278Y267320D01*
X201403Y267550D01*
X201539Y267773D01*
X201688Y267989D01*
X201847Y268197D01*
X202017Y268396D01*
X202197Y268585D01*
X202387Y268766D01*
X202586Y268936D01*
X202794Y269095D01*
X203009Y269243D01*
X203233Y269380D01*
X203463Y269505D01*
X203699Y269618D01*
X203941Y269718D01*
X204188Y269805D01*
X204439Y269880D01*
X204693Y269941D01*
X204951Y269988D01*
X205210Y270023D01*
X205471Y270043D01*
X205733Y270050D01*
X220733D01*
Y260050D01*
D02*
G37*
G36*
X353429Y268644D02*
Y264200D01*
X353781Y262432D01*
X354782Y260933D01*
X356282Y259931D01*
X358050Y259579D01*
X364050D01*
X365818Y259931D01*
X367317Y260933D01*
X369283D01*
X370782Y259931D01*
X372550Y259579D01*
X376994D01*
X384236Y252337D01*
Y248219D01*
X383482Y248069D01*
X381983Y247067D01*
X380017D01*
X378518Y248069D01*
X376750Y248421D01*
X370750D01*
X368982Y248069D01*
X367482Y247067D01*
X366481Y245568D01*
X366430Y245314D01*
X352706D01*
X351170Y245009D01*
X349868Y244138D01*
X344793Y239064D01*
X336553D01*
X336485Y239163D01*
X336446Y239201D01*
X336421Y239250D01*
X336262Y239458D01*
X336221Y239494D01*
X336194Y239542D01*
X336024Y239741D01*
X335981Y239775D01*
X335951Y239822D01*
X335771Y240012D01*
X335726Y240043D01*
X335695Y240088D01*
X335505Y240268D01*
X335458Y240298D01*
X335424Y240341D01*
X335225Y240511D01*
X335177Y240538D01*
X335141Y240579D01*
X334933Y240739D01*
X334883Y240763D01*
X334845Y240803D01*
X334629Y240951D01*
X334579Y240972D01*
X334538Y241010D01*
X334315Y241147D01*
X334131Y241588D01*
X333980Y242232D01*
X333951Y242550D01*
X333980Y242866D01*
X334131Y243513D01*
X334315Y243953D01*
X334538Y244090D01*
X334579Y244128D01*
X334629Y244149D01*
X334845Y244297D01*
X334883Y244337D01*
X334933Y244361D01*
X335141Y244521D01*
X335177Y244562D01*
X335225Y244589D01*
X335424Y244759D01*
X335458Y244802D01*
X335505Y244832D01*
X335694Y245012D01*
X335726Y245057D01*
X335771Y245088D01*
X335951Y245278D01*
X335981Y245325D01*
X336024Y245359D01*
X336194Y245558D01*
X336221Y245606D01*
X336262Y245642D01*
X336422Y245850D01*
X336446Y245899D01*
X336485Y245938D01*
X336633Y246153D01*
X336655Y246204D01*
X336693Y246244D01*
X336829Y246468D01*
X336848Y246519D01*
X336884Y246561D01*
X337008Y246791D01*
X337025Y246844D01*
X337058Y246888D01*
X337170Y247124D01*
X337184Y247178D01*
X337215Y247223D01*
X337315Y247465D01*
X337325Y247519D01*
X337354Y247567D01*
X337441Y247813D01*
X337449Y247868D01*
X337475Y247917D01*
X337549Y248167D01*
X337554Y248222D01*
X337577Y248272D01*
X337638Y248527D01*
X337640Y248582D01*
X337661Y248633D01*
X337708Y248890D01*
X337708Y248945D01*
X337725Y248997D01*
X337759Y249257D01*
X337756Y249312D01*
X337771Y249365D01*
X337791Y249626D01*
X337785Y249680D01*
X337797Y249734D01*
X337804Y249996D01*
X337794Y250050D01*
X337804Y250104D01*
X337797Y250366D01*
X337785Y250420D01*
X337791Y250474D01*
X337771Y250735D01*
X337756Y250788D01*
X337759Y250843D01*
X337725Y251103D01*
X337708Y251155D01*
X337708Y251210D01*
X337661Y251467D01*
X337640Y251518D01*
X337638Y251573D01*
X337577Y251828D01*
X337554Y251878D01*
X337549Y251933D01*
X337475Y252183D01*
X337449Y252232D01*
X337441Y252287D01*
X337354Y252533D01*
X337326Y252581D01*
X337315Y252635D01*
X337215Y252876D01*
X337184Y252922D01*
X337170Y252976D01*
X337058Y253212D01*
X337025Y253256D01*
X337008Y253309D01*
X336884Y253539D01*
X336848Y253581D01*
X336829Y253632D01*
X336693Y253856D01*
X336655Y253896D01*
X336633Y253947D01*
X336485Y254163D01*
X336446Y254201D01*
X336421Y254250D01*
X336262Y254458D01*
X336221Y254494D01*
X336194Y254542D01*
X336024Y254741D01*
X335981Y254775D01*
X335951Y254822D01*
X335771Y255012D01*
X335726Y255043D01*
X335694Y255088D01*
X335505Y255268D01*
X335458Y255298D01*
X335424Y255341D01*
X335225Y255511D01*
X335177Y255538D01*
X335141Y255579D01*
X334933Y255739D01*
X334883Y255763D01*
X334845Y255803D01*
X334629Y255951D01*
X334579Y255972D01*
X334538Y256010D01*
X334315Y256147D01*
X334131Y256588D01*
X333980Y257234D01*
X333951Y257550D01*
X333980Y257866D01*
X334131Y258512D01*
X334315Y258953D01*
X334538Y259090D01*
X334579Y259128D01*
X334629Y259149D01*
X334845Y259297D01*
X334883Y259337D01*
X334933Y259361D01*
X335141Y259521D01*
X335177Y259562D01*
X335225Y259589D01*
X335424Y259759D01*
X335458Y259802D01*
X335505Y259832D01*
X335695Y260012D01*
X335726Y260057D01*
X335771Y260088D01*
X335951Y260278D01*
X335981Y260325D01*
X336024Y260359D01*
X336194Y260558D01*
X336221Y260606D01*
X336262Y260642D01*
X336421Y260850D01*
X336446Y260899D01*
X336485Y260938D01*
X336633Y261153D01*
X336655Y261204D01*
X336693Y261245D01*
X336829Y261468D01*
X336848Y261519D01*
X336884Y261561D01*
X337008Y261791D01*
X337025Y261844D01*
X337058Y261888D01*
X337170Y262124D01*
X337184Y262178D01*
X337215Y262223D01*
X337315Y262465D01*
X337325Y262519D01*
X337354Y262567D01*
X337441Y262813D01*
X337449Y262868D01*
X337475Y262917D01*
X337549Y263167D01*
X337554Y263222D01*
X337577Y263272D01*
X337638Y263527D01*
X337640Y263582D01*
X337661Y263633D01*
X337708Y263890D01*
X337708Y263945D01*
X337725Y263997D01*
X337759Y264257D01*
X337756Y264312D01*
X337771Y264365D01*
X337791Y264626D01*
X337785Y264680D01*
X337797Y264734D01*
X337804Y264996D01*
X337794Y265050D01*
X337804Y265104D01*
X337797Y265366D01*
X337785Y265420D01*
X337791Y265474D01*
X337771Y265735D01*
X337756Y265788D01*
X337759Y265843D01*
X337725Y266103D01*
X337708Y266155D01*
X337708Y266210D01*
X337661Y266467D01*
X337640Y266518D01*
X337638Y266573D01*
X337577Y266828D01*
X337554Y266878D01*
X337549Y266933D01*
X337475Y267183D01*
X337449Y267232D01*
X337441Y267287D01*
X337354Y267533D01*
X337325Y267581D01*
X337315Y267635D01*
X337215Y267877D01*
X337184Y267922D01*
X337170Y267976D01*
X337058Y268212D01*
X337025Y268256D01*
X337008Y268309D01*
X336884Y268539D01*
X336848Y268581D01*
X336829Y268632D01*
X336693Y268856D01*
X336655Y268896D01*
X336633Y268947D01*
X336485Y269163D01*
X336446Y269201D01*
X336421Y269250D01*
X336262Y269458D01*
X336221Y269494D01*
X336194Y269542D01*
X336024Y269741D01*
X335981Y269775D01*
X335951Y269822D01*
X335771Y270012D01*
X335726Y270043D01*
X335694Y270088D01*
X335505Y270268D01*
X335458Y270298D01*
X335424Y270341D01*
X335225Y270511D01*
X335177Y270538D01*
X335141Y270579D01*
X334933Y270739D01*
X334883Y270763D01*
X334845Y270803D01*
X334629Y270951D01*
X334579Y270972D01*
X334538Y271010D01*
X334315Y271147D01*
X334131Y271587D01*
X333980Y272234D01*
X333951Y272550D01*
X333980Y272867D01*
X334131Y273512D01*
X334315Y273953D01*
X334538Y274090D01*
X334579Y274128D01*
X334629Y274149D01*
X334845Y274297D01*
X334883Y274337D01*
X334933Y274361D01*
X335141Y274521D01*
X335177Y274562D01*
X335225Y274589D01*
X335424Y274759D01*
X335458Y274802D01*
X335505Y274832D01*
X335695Y275012D01*
X335726Y275057D01*
X335771Y275088D01*
X335951Y275278D01*
X335981Y275325D01*
X336024Y275359D01*
X336194Y275558D01*
X336221Y275606D01*
X336262Y275642D01*
X336421Y275850D01*
X336446Y275899D01*
X336485Y275938D01*
X336553Y276036D01*
X346037D01*
X353429Y268644D01*
D02*
G37*
G36*
X142182Y259931D02*
X142936Y259781D01*
Y248219D01*
X142182Y248069D01*
X140683Y247067D01*
X138717D01*
X137218Y248069D01*
X135450Y248421D01*
X129450D01*
X127682Y248069D01*
X126182Y247067D01*
X125181Y245568D01*
X124829Y243800D01*
Y238800D01*
X125181Y237032D01*
X126182Y235533D01*
X127682Y234531D01*
X128436Y234381D01*
Y231140D01*
X128741Y229604D01*
X129611Y228302D01*
X130736Y227177D01*
Y196815D01*
X130579Y196784D01*
X129163Y195837D01*
X128337Y194602D01*
X127000Y194453D01*
X125663Y194602D01*
X124837Y195837D01*
X123421Y196784D01*
X121750Y197116D01*
X116750D01*
X115079Y196784D01*
X113663Y195837D01*
X112716Y194421D01*
X112384Y192750D01*
Y188250D01*
X112716Y186579D01*
X113663Y185163D01*
X115079Y184216D01*
X115883Y184056D01*
Y166376D01*
X116139Y165088D01*
X116869Y163995D01*
X118683Y162181D01*
Y146144D01*
X117879Y145984D01*
X116463Y145037D01*
X116017Y144369D01*
X115250Y144198D01*
X113507Y144269D01*
X113194Y144369D01*
X112503Y145403D01*
X110919Y146462D01*
X109050Y146834D01*
X107820D01*
Y139700D01*
X106550D01*
Y138430D01*
X99166D01*
Y137450D01*
X99538Y135581D01*
X100597Y133997D01*
X102181Y132938D01*
X102536Y132867D01*
Y114799D01*
X102412Y114176D01*
Y95708D01*
X102181Y95662D01*
X100597Y94603D01*
X99538Y93019D01*
X99166Y91150D01*
Y90170D01*
X106550D01*
Y87630D01*
X99166D01*
Y86650D01*
X99538Y84781D01*
X100597Y83197D01*
X102181Y82138D01*
X102536Y82067D01*
Y72304D01*
X102210Y71865D01*
X99996Y70466D01*
X99150Y70634D01*
X97920D01*
Y63500D01*
Y56366D01*
X99150D01*
X101019Y56738D01*
X102604Y57797D01*
X103662Y59381D01*
X103857Y60360D01*
X104308Y60662D01*
X109388Y65742D01*
X110259Y67044D01*
X110564Y68580D01*
Y82067D01*
X110919Y82138D01*
X112503Y83197D01*
X113194Y84231D01*
X113507Y84331D01*
X115250Y84403D01*
X116017Y84231D01*
X116463Y83563D01*
X117879Y82616D01*
X119550Y82284D01*
X124550D01*
X126221Y82616D01*
X127637Y83563D01*
X128521Y84886D01*
X132872D01*
X134219Y84328D01*
X136037D01*
X137718Y85024D01*
X139004Y86310D01*
X139700Y87991D01*
Y89809D01*
X139004Y91490D01*
X137718Y92776D01*
X136037Y93472D01*
X134219D01*
X132872Y92914D01*
X128521D01*
X127637Y94237D01*
X126221Y95184D01*
X124550Y95516D01*
X119550D01*
X117879Y95184D01*
X116463Y94237D01*
X116017Y93569D01*
X115250Y93398D01*
X113507Y93469D01*
X113194Y93569D01*
X112503Y94603D01*
X110919Y95662D01*
X110440Y95757D01*
Y113677D01*
X110564Y114300D01*
Y125220D01*
X111605Y126074D01*
X127603D01*
X134900Y118777D01*
X135992Y118048D01*
X137280Y117791D01*
X142272D01*
X142379Y117685D01*
X143681Y116814D01*
X145217Y116509D01*
X155083D01*
X156619Y116814D01*
X157921Y117685D01*
X161715Y121479D01*
X162586Y122781D01*
X162891Y124317D01*
Y135021D01*
X162586Y136557D01*
X161893Y137594D01*
Y149358D01*
X173209Y160674D01*
X173827Y160749D01*
X176206Y160280D01*
X176796Y159397D01*
X178381Y158338D01*
X180250Y157966D01*
X181480D01*
Y165100D01*
X184020D01*
Y157966D01*
X185250D01*
X187119Y158338D01*
X188703Y159397D01*
X189394Y160431D01*
X189707Y160531D01*
X191450Y160602D01*
X192217Y160431D01*
X192663Y159763D01*
X194079Y158816D01*
X194236Y158785D01*
Y153809D01*
X179911Y139484D01*
X179041Y138182D01*
X178736Y136646D01*
Y120615D01*
X178579Y120584D01*
X177163Y119637D01*
X176216Y118221D01*
X175884Y116550D01*
Y112050D01*
X176216Y110379D01*
X177163Y108963D01*
X178579Y108016D01*
X178736Y107985D01*
Y45596D01*
X179041Y44060D01*
X179911Y42758D01*
X186392Y36278D01*
X187694Y35407D01*
X189230Y35102D01*
X190561D01*
X190811Y32562D01*
X190098Y32420D01*
X188889Y31612D01*
X188723Y31364D01*
X93103D01*
X85164Y39303D01*
Y57185D01*
X85321Y57216D01*
X86737Y58163D01*
X87183Y58831D01*
X87950Y59002D01*
X89693Y58931D01*
X90006Y58831D01*
X90697Y57797D01*
X92281Y56738D01*
X94150Y56366D01*
X95380D01*
Y63500D01*
Y70634D01*
X94150D01*
X92281Y70262D01*
X90697Y69203D01*
X90006Y68169D01*
X89693Y68069D01*
X87950Y67997D01*
X87183Y68169D01*
X86737Y68837D01*
X85321Y69784D01*
X83650Y70116D01*
X78650D01*
X76979Y69784D01*
X75563Y68837D01*
X74679Y67514D01*
X42303D01*
X34364Y75453D01*
Y120685D01*
X34521Y120716D01*
X35937Y121663D01*
X36763Y122898D01*
X38100Y123047D01*
X39437Y122898D01*
X40263Y121663D01*
X41679Y120716D01*
X43350Y120384D01*
X48350D01*
X50021Y120716D01*
X51437Y121663D01*
X52384Y123079D01*
X52716Y124750D01*
Y129250D01*
X52384Y130921D01*
X51437Y132337D01*
X50021Y133284D01*
X49864Y133315D01*
Y177661D01*
X131782Y259579D01*
X135450D01*
X137218Y259931D01*
X138717Y260933D01*
X140683D01*
X142182Y259931D01*
D02*
G37*
G36*
X185166Y287832D02*
X200140D01*
X200336Y287563D01*
X200509Y286928D01*
X200694Y285012D01*
X200514Y284822D01*
X200485Y284775D01*
X200442Y284741D01*
X200272Y284542D01*
X200245Y284494D01*
X200203Y284458D01*
X200044Y284250D01*
X200020Y284201D01*
X199980Y284162D01*
X199832Y283947D01*
X199810Y283896D01*
X199773Y283856D01*
X199636Y283632D01*
X199617Y283581D01*
X199582Y283539D01*
X199457Y283309D01*
X199441Y283256D01*
X199408Y283212D01*
X199295Y282976D01*
X199282Y282922D01*
X199251Y282877D01*
X199151Y282635D01*
X199140Y282581D01*
X199112Y282533D01*
X199024Y282287D01*
X199016Y282232D01*
X198991Y282183D01*
X198917Y281933D01*
X198912Y281878D01*
X198888Y281828D01*
X198827Y281573D01*
X198825Y281518D01*
X198805Y281467D01*
X198757Y281210D01*
X198758Y281155D01*
X198740Y281103D01*
X198706Y280843D01*
X198710Y280788D01*
X198695Y280735D01*
X198674Y280474D01*
X198681Y280420D01*
X198668Y280366D01*
X198662Y280104D01*
X198671Y280050D01*
X198662Y279996D01*
X198668Y279734D01*
X198681Y279680D01*
X198674Y279626D01*
X198695Y279365D01*
X198710Y279312D01*
X198706Y279257D01*
X198740Y278997D01*
X198758Y278945D01*
X198757Y278890D01*
X198805Y278633D01*
X198825Y278582D01*
X198827Y278527D01*
X198888Y278272D01*
X198912Y278222D01*
X198917Y278167D01*
X198991Y277917D01*
X199016Y277868D01*
X199024Y277813D01*
X199112Y277567D01*
X199140Y277519D01*
X199151Y277465D01*
X199251Y277223D01*
X199281Y277178D01*
X199295Y277124D01*
X199408Y276888D01*
X199441Y276844D01*
X199457Y276791D01*
X199582Y276561D01*
X199617Y276519D01*
X199636Y276468D01*
X199773Y276245D01*
X199810Y276204D01*
X199832Y276153D01*
X199980Y275938D01*
X200020Y275899D01*
X200044Y275850D01*
X200203Y275642D01*
X200245Y275606D01*
X200271Y275558D01*
X200441Y275359D01*
X200485Y275325D01*
X200514Y275278D01*
X200694Y275088D01*
X200739Y275057D01*
X200771Y275012D01*
X200961Y274832D01*
X201007Y274802D01*
X201042Y274759D01*
X201241Y274589D01*
X201289Y274562D01*
X201325Y274521D01*
X201532Y274361D01*
X201582Y274337D01*
X201620Y274297D01*
X201836Y274149D01*
X201887Y274128D01*
X201927Y274090D01*
X202150Y273953D01*
X202335Y273512D01*
X202485Y272868D01*
X202520Y272493D01*
X202354Y271714D01*
X202150Y271147D01*
X201927Y271010D01*
X201887Y270972D01*
X201836Y270951D01*
X201620Y270803D01*
X201582Y270763D01*
X201532Y270739D01*
X201325Y270579D01*
X201289Y270538D01*
X201241Y270511D01*
X201042Y270341D01*
X201007Y270298D01*
X200961Y270268D01*
X200771Y270088D01*
X200739Y270043D01*
X200694Y270012D01*
X200514Y269822D01*
X200485Y269775D01*
X200442Y269741D01*
X200272Y269542D01*
X200245Y269494D01*
X200203Y269458D01*
X200044Y269250D01*
X200020Y269201D01*
X199980Y269163D01*
X199832Y268947D01*
X199810Y268896D01*
X199773Y268856D01*
X199636Y268632D01*
X199617Y268581D01*
X199582Y268539D01*
X199523Y268431D01*
X198712Y267888D01*
X176137Y245314D01*
X154270D01*
X154219Y245568D01*
X153218Y247067D01*
X151719Y248069D01*
X150964Y248219D01*
Y259781D01*
X151719Y259931D01*
X153218Y260933D01*
X154219Y262432D01*
X154571Y264200D01*
Y269200D01*
X154219Y270968D01*
X153218Y272467D01*
X151719Y273469D01*
X149950Y273821D01*
X143950D01*
X142182Y273469D01*
X140683Y272467D01*
X138717D01*
X137218Y273469D01*
X136464Y273619D01*
Y288086D01*
X183889D01*
X185166Y287832D01*
D02*
G37*
G36*
X330994Y255043D02*
X331255Y255023D01*
X331515Y254988D01*
X331772Y254941D01*
X332027Y254880D01*
X332278Y254805D01*
X332525Y254718D01*
X332766Y254618D01*
X333003Y254505D01*
X333233Y254380D01*
X333456Y254243D01*
X333672Y254095D01*
X333879Y253936D01*
X334078Y253766D01*
X334268Y253585D01*
X334448Y253396D01*
X334618Y253197D01*
X334778Y252989D01*
X334926Y252773D01*
X335063Y252550D01*
X335188Y252320D01*
X335300Y252084D01*
X335401Y251842D01*
X335488Y251595D01*
X335562Y251344D01*
X335624Y251090D01*
X335671Y250832D01*
X335705Y250573D01*
X335726Y250312D01*
X335733Y250050D01*
X335726Y249788D01*
X335705Y249527D01*
X335671Y249268D01*
X335624Y249010D01*
X335562Y248756D01*
X335488Y248505D01*
X335401Y248258D01*
X335300Y248016D01*
X335188Y247780D01*
X335063Y247550D01*
X334926Y247327D01*
X334778Y247111D01*
X334618Y246903D01*
X334448Y246704D01*
X334268Y246514D01*
X334078Y246334D01*
X333879Y246164D01*
X333672Y246005D01*
X333456Y245857D01*
X333233Y245720D01*
X333003Y245595D01*
X332766Y245482D01*
X332525Y245382D01*
X332278Y245295D01*
X332027Y245220D01*
X331772Y245159D01*
X331515Y245112D01*
X331255Y245077D01*
X330994Y245057D01*
X330733Y245050D01*
X315733D01*
Y255050D01*
X330733D01*
X330994Y255043D01*
D02*
G37*
G36*
X220733Y245050D02*
X205733D01*
X205471Y245057D01*
X205210Y245077D01*
X204951Y245112D01*
X204693Y245159D01*
X204439Y245220D01*
X204188Y245295D01*
X203941Y245382D01*
X203699Y245482D01*
X203463Y245595D01*
X203233Y245720D01*
X203009Y245857D01*
X202794Y246005D01*
X202586Y246164D01*
X202387Y246334D01*
X202197Y246514D01*
X202017Y246704D01*
X201847Y246903D01*
X201688Y247111D01*
X201539Y247327D01*
X201403Y247550D01*
X201278Y247780D01*
X201165Y248016D01*
X201065Y248258D01*
X200977Y248505D01*
X200903Y248756D01*
X200842Y249010D01*
X200794Y249268D01*
X200760Y249527D01*
X200740Y249788D01*
X200733Y250050D01*
X200740Y250312D01*
X200760Y250573D01*
X200794Y250832D01*
X200842Y251090D01*
X200903Y251344D01*
X200977Y251595D01*
X201065Y251842D01*
X201165Y252084D01*
X201278Y252320D01*
X201403Y252550D01*
X201539Y252773D01*
X201688Y252989D01*
X201847Y253197D01*
X202017Y253396D01*
X202197Y253585D01*
X202387Y253766D01*
X202586Y253936D01*
X202794Y254095D01*
X203009Y254243D01*
X203233Y254380D01*
X203463Y254505D01*
X203699Y254618D01*
X203941Y254718D01*
X204188Y254805D01*
X204439Y254880D01*
X204693Y254941D01*
X204951Y254988D01*
X205210Y255023D01*
X205471Y255043D01*
X205733Y255050D01*
X220733D01*
Y245050D01*
D02*
G37*
G36*
X198237Y254352D02*
X198256Y254326D01*
X198630Y253618D01*
X199025Y252287D01*
X199017Y252232D01*
X198991Y252183D01*
X198917Y251933D01*
X198912Y251878D01*
X198888Y251828D01*
X198827Y251573D01*
X198825Y251518D01*
X198805Y251467D01*
X198757Y251210D01*
X198758Y251155D01*
X198740Y251103D01*
X198706Y250843D01*
X198710Y250788D01*
X198695Y250735D01*
X198674Y250474D01*
X198681Y250420D01*
X198668Y250366D01*
X198662Y250104D01*
X198671Y250050D01*
X198662Y249996D01*
X198668Y249734D01*
X198681Y249681D01*
X198674Y249626D01*
X198695Y249365D01*
X198710Y249312D01*
X198706Y249257D01*
X198740Y248997D01*
X198758Y248945D01*
X198757Y248890D01*
X198805Y248633D01*
X198825Y248582D01*
X198827Y248527D01*
X198888Y248272D01*
X198912Y248222D01*
X198917Y248167D01*
X198991Y247917D01*
X199017Y247868D01*
X199025Y247813D01*
X199112Y247567D01*
X199140Y247519D01*
X199151Y247465D01*
X199251Y247223D01*
X199281Y247178D01*
X199295Y247124D01*
X199408Y246888D01*
X199441Y246844D01*
X199457Y246791D01*
X199582Y246561D01*
X199617Y246519D01*
X199636Y246468D01*
X199773Y246244D01*
X199810Y246204D01*
X199832Y246153D01*
X199980Y245938D01*
X200020Y245899D01*
X200044Y245850D01*
X200203Y245642D01*
X200245Y245606D01*
X200272Y245558D01*
X200442Y245359D01*
X200485Y245325D01*
X200514Y245278D01*
X200694Y245088D01*
X200739Y245057D01*
X200771Y245012D01*
X200961Y244832D01*
X201007Y244802D01*
X201042Y244759D01*
X201241Y244589D01*
X201289Y244562D01*
X201325Y244521D01*
X201532Y244361D01*
X201582Y244337D01*
X201620Y244297D01*
X201836Y244149D01*
X201887Y244128D01*
X201927Y244090D01*
X202150Y243953D01*
X202334Y243513D01*
X202485Y242866D01*
X202515Y242550D01*
X202485Y242232D01*
X202335Y241588D01*
X202150Y241147D01*
X201927Y241010D01*
X201887Y240972D01*
X201836Y240951D01*
X201620Y240803D01*
X201582Y240763D01*
X201532Y240739D01*
X201325Y240579D01*
X201289Y240538D01*
X201241Y240511D01*
X201042Y240341D01*
X201007Y240298D01*
X200961Y240268D01*
X200771Y240088D01*
X200739Y240043D01*
X200694Y240012D01*
X200514Y239822D01*
X200485Y239775D01*
X200441Y239741D01*
X200271Y239542D01*
X200245Y239494D01*
X200203Y239458D01*
X200044Y239250D01*
X200020Y239201D01*
X199980Y239163D01*
X199832Y238947D01*
X199810Y238896D01*
X199773Y238855D01*
X199636Y238632D01*
X199617Y238581D01*
X199582Y238539D01*
X199457Y238309D01*
X199441Y238256D01*
X199408Y238212D01*
X199295Y237976D01*
X199282Y237922D01*
X199251Y237876D01*
X199151Y237635D01*
X199140Y237581D01*
X199112Y237533D01*
X199024Y237287D01*
X199016Y237232D01*
X198991Y237183D01*
X198917Y236933D01*
X198912Y236878D01*
X198888Y236828D01*
X198827Y236573D01*
X198825Y236518D01*
X198805Y236467D01*
X198757Y236210D01*
X198758Y236155D01*
X198740Y236103D01*
X198706Y235843D01*
X198710Y235788D01*
X198695Y235735D01*
X198674Y235474D01*
X198681Y235420D01*
X198668Y235366D01*
X198662Y235104D01*
X198671Y235050D01*
X198662Y234996D01*
X198668Y234734D01*
X198681Y234681D01*
X198674Y234626D01*
X198695Y234365D01*
X198710Y234312D01*
X198706Y234257D01*
X198740Y233997D01*
X198758Y233945D01*
X198757Y233890D01*
X198805Y233633D01*
X198825Y233582D01*
X198827Y233527D01*
X198888Y233272D01*
X198912Y233222D01*
X198917Y233167D01*
X198991Y232917D01*
X199016Y232868D01*
X199024Y232813D01*
X199112Y232567D01*
X199140Y232519D01*
X199151Y232465D01*
X199251Y232223D01*
X199281Y232178D01*
X199295Y232124D01*
X199408Y231888D01*
X199441Y231844D01*
X199457Y231791D01*
X199582Y231561D01*
X199617Y231519D01*
X199636Y231468D01*
X199773Y231244D01*
X199810Y231204D01*
X199832Y231153D01*
X199980Y230938D01*
X200020Y230899D01*
X200044Y230850D01*
X200203Y230642D01*
X200245Y230606D01*
X200272Y230558D01*
X200442Y230359D01*
X200485Y230325D01*
X200514Y230278D01*
X200694Y230088D01*
X200739Y230057D01*
X200771Y230012D01*
X200961Y229832D01*
X201007Y229802D01*
X201042Y229759D01*
X201241Y229589D01*
X201289Y229562D01*
X201325Y229521D01*
X201532Y229361D01*
X201582Y229337D01*
X201620Y229297D01*
X201836Y229149D01*
X201887Y229128D01*
X201927Y229090D01*
X202150Y228953D01*
X202334Y228513D01*
X202485Y227866D01*
X202515Y227550D01*
X202485Y227234D01*
X202335Y226588D01*
X202150Y226147D01*
X201927Y226010D01*
X201887Y225972D01*
X201836Y225951D01*
X201620Y225802D01*
X201582Y225763D01*
X201533Y225739D01*
X201325Y225579D01*
X201289Y225538D01*
X201241Y225511D01*
X201042Y225341D01*
X201007Y225298D01*
X200961Y225268D01*
X200771Y225088D01*
X200739Y225043D01*
X200694Y225012D01*
X200514Y224822D01*
X200485Y224775D01*
X200441Y224741D01*
X200271Y224542D01*
X200245Y224494D01*
X200203Y224458D01*
X200044Y224250D01*
X200020Y224201D01*
X199980Y224162D01*
X199913Y224064D01*
X145203D01*
X137308Y231959D01*
X137278Y232807D01*
X137680Y234839D01*
X138717Y235533D01*
X140683D01*
X142182Y234531D01*
X143950Y234179D01*
X149950D01*
X151719Y234531D01*
X153218Y235533D01*
X154219Y237032D01*
X154270Y237286D01*
X177800D01*
X179336Y237591D01*
X180638Y238462D01*
X196820Y254643D01*
X198237Y254352D01*
D02*
G37*
G36*
X330994Y240043D02*
X331255Y240023D01*
X331515Y239988D01*
X331772Y239941D01*
X332027Y239880D01*
X332278Y239805D01*
X332525Y239718D01*
X332766Y239618D01*
X333003Y239505D01*
X333233Y239380D01*
X333456Y239243D01*
X333672Y239095D01*
X333879Y238936D01*
X334078Y238766D01*
X334268Y238585D01*
X334448Y238396D01*
X334618Y238197D01*
X334778Y237989D01*
X334926Y237773D01*
X335063Y237550D01*
X335188Y237320D01*
X335300Y237084D01*
X335401Y236842D01*
X335488Y236595D01*
X335562Y236344D01*
X335624Y236090D01*
X335671Y235832D01*
X335705Y235573D01*
X335726Y235312D01*
X335733Y235050D01*
X335726Y234788D01*
X335705Y234527D01*
X335671Y234268D01*
X335624Y234011D01*
X335562Y233756D01*
X335488Y233505D01*
X335401Y233258D01*
X335300Y233016D01*
X335188Y232780D01*
X335063Y232550D01*
X334926Y232327D01*
X334778Y232111D01*
X334618Y231903D01*
X334448Y231704D01*
X334268Y231514D01*
X334078Y231334D01*
X333879Y231164D01*
X333672Y231005D01*
X333456Y230857D01*
X333233Y230720D01*
X333003Y230595D01*
X332766Y230482D01*
X332525Y230382D01*
X332278Y230295D01*
X332027Y230220D01*
X331772Y230159D01*
X331515Y230112D01*
X331255Y230077D01*
X330994Y230057D01*
X330733Y230050D01*
X315733D01*
Y240050D01*
X330733D01*
X330994Y240043D01*
D02*
G37*
G36*
X220733Y230050D02*
X205733D01*
X205471Y230057D01*
X205210Y230077D01*
X204951Y230112D01*
X204693Y230159D01*
X204439Y230220D01*
X204188Y230295D01*
X203941Y230382D01*
X203699Y230482D01*
X203463Y230595D01*
X203233Y230720D01*
X203009Y230857D01*
X202794Y231005D01*
X202586Y231164D01*
X202387Y231334D01*
X202197Y231514D01*
X202017Y231704D01*
X201847Y231903D01*
X201688Y232111D01*
X201539Y232327D01*
X201403Y232550D01*
X201278Y232780D01*
X201165Y233016D01*
X201065Y233258D01*
X200977Y233505D01*
X200903Y233756D01*
X200842Y234011D01*
X200794Y234268D01*
X200760Y234527D01*
X200740Y234788D01*
X200733Y235050D01*
X200740Y235312D01*
X200760Y235573D01*
X200794Y235832D01*
X200842Y236090D01*
X200903Y236344D01*
X200977Y236595D01*
X201065Y236842D01*
X201165Y237084D01*
X201278Y237320D01*
X201403Y237550D01*
X201539Y237773D01*
X201688Y237989D01*
X201847Y238197D01*
X202017Y238396D01*
X202197Y238585D01*
X202387Y238766D01*
X202586Y238936D01*
X202794Y239095D01*
X203009Y239243D01*
X203233Y239380D01*
X203463Y239505D01*
X203699Y239618D01*
X203941Y239718D01*
X204188Y239805D01*
X204439Y239880D01*
X204693Y239941D01*
X204951Y239988D01*
X205210Y240023D01*
X205471Y240043D01*
X205733Y240050D01*
X220733D01*
Y230050D01*
D02*
G37*
G36*
X330994Y225043D02*
X331255Y225023D01*
X331515Y224988D01*
X331772Y224941D01*
X332027Y224880D01*
X332278Y224805D01*
X332525Y224718D01*
X332766Y224618D01*
X333003Y224505D01*
X333233Y224380D01*
X333456Y224243D01*
X333672Y224095D01*
X333879Y223936D01*
X334078Y223766D01*
X334268Y223585D01*
X334448Y223396D01*
X334618Y223197D01*
X334778Y222989D01*
X334926Y222773D01*
X335063Y222550D01*
X335188Y222320D01*
X335300Y222084D01*
X335401Y221842D01*
X335488Y221595D01*
X335562Y221344D01*
X335624Y221090D01*
X335671Y220832D01*
X335705Y220573D01*
X335726Y220312D01*
X335733Y220050D01*
X335726Y219788D01*
X335705Y219527D01*
X335671Y219268D01*
X335624Y219011D01*
X335562Y218756D01*
X335488Y218505D01*
X335401Y218258D01*
X335300Y218016D01*
X335188Y217780D01*
X335063Y217550D01*
X334926Y217327D01*
X334778Y217111D01*
X334618Y216903D01*
X334448Y216704D01*
X334268Y216514D01*
X334078Y216334D01*
X333879Y216164D01*
X333672Y216005D01*
X333456Y215857D01*
X333233Y215720D01*
X333003Y215595D01*
X332766Y215482D01*
X332525Y215382D01*
X332278Y215295D01*
X332027Y215220D01*
X331772Y215159D01*
X331515Y215112D01*
X331255Y215077D01*
X330994Y215057D01*
X330733Y215050D01*
X315733D01*
Y225050D01*
X330733D01*
X330994Y225043D01*
D02*
G37*
G36*
X220733Y215050D02*
X205733D01*
X205471Y215057D01*
X205210Y215077D01*
X204951Y215112D01*
X204693Y215159D01*
X204439Y215220D01*
X204188Y215295D01*
X203941Y215382D01*
X203699Y215482D01*
X203463Y215595D01*
X203233Y215720D01*
X203009Y215857D01*
X202794Y216005D01*
X202586Y216164D01*
X202387Y216334D01*
X202197Y216514D01*
X202017Y216704D01*
X201847Y216903D01*
X201688Y217111D01*
X201539Y217327D01*
X201403Y217550D01*
X201278Y217780D01*
X201165Y218016D01*
X201065Y218258D01*
X200977Y218505D01*
X200903Y218756D01*
X200842Y219011D01*
X200794Y219268D01*
X200760Y219527D01*
X200740Y219788D01*
X200733Y220050D01*
X200740Y220312D01*
X200760Y220573D01*
X200794Y220832D01*
X200842Y221090D01*
X200903Y221344D01*
X200977Y221595D01*
X201065Y221842D01*
X201165Y222084D01*
X201278Y222320D01*
X201403Y222550D01*
X201539Y222773D01*
X201688Y222989D01*
X201847Y223197D01*
X202017Y223396D01*
X202197Y223585D01*
X202387Y223766D01*
X202586Y223936D01*
X202794Y224095D01*
X203009Y224243D01*
X203233Y224380D01*
X203463Y224505D01*
X203699Y224618D01*
X203941Y224718D01*
X204188Y224805D01*
X204439Y224880D01*
X204693Y224941D01*
X204951Y224988D01*
X205210Y225023D01*
X205471Y225043D01*
X205733Y225050D01*
X220733D01*
Y215050D01*
D02*
G37*
G36*
X268828Y247211D02*
X270130Y246341D01*
X271666Y246036D01*
X313661D01*
Y245050D01*
X313819Y244257D01*
X313920Y244105D01*
X314268Y243375D01*
Y241725D01*
X313920Y240995D01*
X313819Y240843D01*
X313661Y240050D01*
Y230050D01*
X313819Y229257D01*
X313891Y229148D01*
X314268Y228364D01*
Y226736D01*
X313891Y225952D01*
X313819Y225843D01*
X313661Y225050D01*
Y216049D01*
X312188Y214956D01*
X311561Y214614D01*
X311174Y214534D01*
X310733Y214622D01*
X309171D01*
X308571Y215520D01*
X286202Y237889D01*
X284900Y238759D01*
X283364Y239064D01*
X226822D01*
X225286Y238759D01*
X222805Y239692D01*
Y240050D01*
X222647Y240843D01*
X222545Y240995D01*
X222198Y241725D01*
Y243375D01*
X222545Y244105D01*
X222647Y244257D01*
X222805Y245050D01*
Y255050D01*
X222647Y255843D01*
X222545Y255995D01*
X222198Y256725D01*
Y258375D01*
X222545Y259105D01*
X222647Y259257D01*
X222805Y260050D01*
Y270050D01*
X222647Y270843D01*
X222198Y271515D01*
X221525Y271964D01*
X220733Y272122D01*
X216479D01*
X216233Y272171D01*
X215305D01*
X214623Y273029D01*
X213737Y274711D01*
X213804Y275050D01*
Y277080D01*
X213848Y277300D01*
Y282800D01*
X213804Y283021D01*
Y285050D01*
X213756Y285292D01*
X214748Y287112D01*
X215373Y287832D01*
X228207D01*
X268828Y247211D01*
D02*
G37*
G36*
X295575Y217162D02*
X294523Y214622D01*
X285733D01*
X284940Y214464D01*
X284831Y214391D01*
X284047Y214015D01*
X282418D01*
X281635Y214391D01*
X281525Y214464D01*
X280733Y214622D01*
X270733D01*
X269940Y214464D01*
X269831Y214391D01*
X269047Y214015D01*
X267418D01*
X266635Y214391D01*
X266526Y214464D01*
X265733Y214622D01*
X255733D01*
X254940Y214464D01*
X254831Y214391D01*
X254047Y214015D01*
X252418D01*
X251635Y214391D01*
X251526Y214464D01*
X250733Y214622D01*
X240733D01*
X239940Y214464D01*
X239788Y214363D01*
X239058Y214015D01*
X237407D01*
X236678Y214363D01*
X236525Y214464D01*
X235733Y214622D01*
X234747D01*
Y231036D01*
X281701D01*
X295575Y217162D01*
D02*
G37*
G36*
X375019Y199656D02*
X373967Y197116D01*
X370750D01*
X369079Y196784D01*
X367663Y195837D01*
X366716Y194421D01*
X366384Y192750D01*
Y188250D01*
X366716Y186579D01*
X367663Y185163D01*
X369079Y184216D01*
X369236Y184185D01*
Y177504D01*
X369541Y175968D01*
X370411Y174665D01*
X387736Y157341D01*
Y154177D01*
X387488Y154011D01*
X386680Y152802D01*
X386396Y151375D01*
Y144125D01*
X386680Y142698D01*
X387488Y141488D01*
X388383Y140890D01*
Y113110D01*
X387488Y112512D01*
X386680Y111302D01*
X386396Y109875D01*
Y102625D01*
X386680Y101198D01*
X387488Y99989D01*
X387736Y99823D01*
Y91156D01*
X387178Y89809D01*
Y87991D01*
X387874Y86310D01*
X389160Y85024D01*
X390439Y84494D01*
X391104Y82946D01*
X391325Y81788D01*
X384417Y74880D01*
X327876D01*
X326904Y77227D01*
X329483Y79806D01*
X347820D01*
X349356Y80111D01*
X350658Y80982D01*
X368582Y98905D01*
X368625Y98897D01*
X371875D01*
X373302Y99180D01*
X374512Y99989D01*
X375320Y101198D01*
X375604Y102625D01*
Y109875D01*
X375320Y111302D01*
X374512Y112512D01*
X373617Y113110D01*
Y140890D01*
X374512Y141488D01*
X375320Y142698D01*
X375604Y144125D01*
Y151375D01*
X375320Y152802D01*
X374512Y154011D01*
X373302Y154820D01*
X371875Y155103D01*
X368625D01*
X367198Y154820D01*
X365989Y154011D01*
X365180Y152802D01*
X364897Y151375D01*
Y144125D01*
X365180Y142698D01*
X365989Y141488D01*
X366884Y140890D01*
Y113110D01*
X365989Y112512D01*
X365180Y111302D01*
X364897Y109875D01*
Y106573D01*
X346157Y87834D01*
X322998D01*
X320903Y89925D01*
Y97175D01*
X320620Y98602D01*
X319811Y99812D01*
X318916Y100410D01*
Y111572D01*
X319258Y112084D01*
X319564Y113620D01*
X319258Y115156D01*
X318916Y115668D01*
Y128190D01*
X319811Y128788D01*
X320620Y129998D01*
X320903Y131425D01*
Y138675D01*
X320620Y140102D01*
X319811Y141311D01*
X318602Y142120D01*
X317175Y142403D01*
X313925D01*
X312498Y142120D01*
X311288Y141311D01*
X310480Y140102D01*
X310196Y138675D01*
Y131425D01*
X310480Y129998D01*
X311288Y128788D01*
X312183Y128190D01*
Y115930D01*
X308129Y111876D01*
X306782Y111318D01*
X305496Y110032D01*
X304800Y108351D01*
Y106533D01*
X305496Y104852D01*
X306782Y103566D01*
X308463Y102870D01*
X310281D01*
X310679Y102460D01*
X311288Y99812D01*
X310480Y98602D01*
X310196Y97175D01*
Y89925D01*
X308101Y87834D01*
X305443D01*
X299404Y93873D01*
Y97175D01*
X299120Y98602D01*
X298312Y99812D01*
X297102Y100620D01*
X295675Y100904D01*
X292425D01*
X290998Y100620D01*
X289789Y99812D01*
X288980Y98602D01*
X288697Y97175D01*
Y91873D01*
X281269Y84446D01*
X264872Y100843D01*
Y108199D01*
X282199Y125526D01*
X294050D01*
X295586Y125831D01*
X296889Y126702D01*
X297759Y128004D01*
X297854Y128482D01*
X298312Y128788D01*
X299120Y129998D01*
X299404Y131425D01*
Y138675D01*
X299120Y140102D01*
X298312Y141311D01*
X298064Y141477D01*
Y146304D01*
Y171091D01*
X308571Y181598D01*
X309441Y182900D01*
X309747Y184436D01*
Y191730D01*
X309845Y191797D01*
X309883Y191837D01*
X309933Y191861D01*
X310141Y192021D01*
X310177Y192062D01*
X310225Y192089D01*
X310424Y192259D01*
X310458Y192302D01*
X310505Y192332D01*
X310694Y192512D01*
X310726Y192557D01*
X310771Y192588D01*
X310951Y192778D01*
X310981Y192825D01*
X311024Y192859D01*
X311194Y193058D01*
X311221Y193106D01*
X311262Y193142D01*
X311422Y193350D01*
X311446Y193399D01*
X311485Y193438D01*
X311633Y193653D01*
X311655Y193704D01*
X311693Y193744D01*
X311829Y193968D01*
X311848Y194019D01*
X311884Y194061D01*
X312008Y194291D01*
X312025Y194344D01*
X312058Y194388D01*
X312170Y194624D01*
X312184Y194678D01*
X312215Y194723D01*
X312315Y194965D01*
X312325Y195017D01*
X312502Y195282D01*
X312854Y197050D01*
Y208050D01*
X312805Y208296D01*
Y211551D01*
X314277Y212644D01*
X314905Y212986D01*
X315292Y213066D01*
X315733Y212978D01*
X319986D01*
X320233Y212929D01*
X331233D01*
X333001Y213281D01*
X333266Y213458D01*
X333317Y213468D01*
X333559Y213568D01*
X333605Y213599D01*
X333658Y213612D01*
X333895Y213725D01*
X333939Y213758D01*
X333991Y213774D01*
X334221Y213899D01*
X334264Y213934D01*
X334315Y213953D01*
X334538Y214090D01*
X334579Y214128D01*
X334629Y214149D01*
X334845Y214298D01*
X334884Y214337D01*
X334933Y214361D01*
X335141Y214521D01*
X335177Y214562D01*
X335225Y214589D01*
X335424Y214759D01*
X335458Y214802D01*
X335505Y214832D01*
X335694Y215012D01*
X335726Y215057D01*
X335771Y215088D01*
X335951Y215278D01*
X335981Y215325D01*
X336024Y215359D01*
X336194Y215558D01*
X336221Y215606D01*
X336262Y215642D01*
X336421Y215850D01*
X336446Y215899D01*
X336485Y215938D01*
X336633Y216153D01*
X336655Y216204D01*
X336693Y216244D01*
X336829Y216468D01*
X336848Y216519D01*
X336884Y216561D01*
X337008Y216791D01*
X337025Y216844D01*
X337058Y216888D01*
X337170Y217124D01*
X337184Y217178D01*
X337215Y217223D01*
X337315Y217465D01*
X337325Y217519D01*
X337354Y217567D01*
X337441Y217813D01*
X337449Y217868D01*
X337475Y217917D01*
X337549Y218167D01*
X337554Y218222D01*
X337577Y218272D01*
X337638Y218527D01*
X337640Y218582D01*
X337661Y218633D01*
X337708Y218890D01*
X337708Y218945D01*
X337725Y218997D01*
X337759Y219257D01*
X337756Y219312D01*
X337771Y219365D01*
X337791Y219626D01*
X337785Y219680D01*
X337797Y219734D01*
X337804Y219996D01*
X337794Y220050D01*
X337804Y220104D01*
X337797Y220366D01*
X337785Y220420D01*
X337791Y220474D01*
X337771Y220735D01*
X337756Y220788D01*
X337759Y220843D01*
X337725Y221103D01*
X337708Y221155D01*
X337708Y221210D01*
X337661Y221467D01*
X337640Y221518D01*
X337638Y221573D01*
X337577Y221828D01*
X337554Y221878D01*
X337549Y221933D01*
X337475Y222183D01*
X337449Y222232D01*
X337441Y222287D01*
X337354Y222533D01*
X337325Y222581D01*
X337315Y222635D01*
X337215Y222877D01*
X337184Y222922D01*
X337170Y222976D01*
X337058Y223212D01*
X337025Y223256D01*
X337008Y223309D01*
X336884Y223539D01*
X336848Y223581D01*
X336829Y223632D01*
X336693Y223856D01*
X336655Y223896D01*
X336633Y223947D01*
X336485Y224162D01*
X336446Y224201D01*
X336421Y224250D01*
X336262Y224458D01*
X336221Y224494D01*
X336194Y224542D01*
X336024Y224741D01*
X335981Y224775D01*
X335951Y224822D01*
X335771Y225012D01*
X335726Y225043D01*
X335694Y225088D01*
X335505Y225268D01*
X335458Y225298D01*
X335424Y225341D01*
X335225Y225511D01*
X335177Y225538D01*
X335140Y225579D01*
X334933Y225739D01*
X334883Y225763D01*
X334845Y225802D01*
X334629Y225951D01*
X334579Y225972D01*
X334538Y226010D01*
X334315Y226147D01*
X334131Y226588D01*
X333980Y227234D01*
X333951Y227550D01*
X333980Y227866D01*
X334131Y228513D01*
X334315Y228953D01*
X334538Y229090D01*
X334579Y229128D01*
X334629Y229149D01*
X334845Y229297D01*
X334883Y229337D01*
X334933Y229361D01*
X335141Y229521D01*
X335177Y229562D01*
X335225Y229589D01*
X335424Y229759D01*
X335458Y229802D01*
X335505Y229832D01*
X335694Y230012D01*
X335726Y230057D01*
X335771Y230088D01*
X335951Y230278D01*
X335981Y230325D01*
X336024Y230359D01*
X336194Y230558D01*
X336221Y230606D01*
X336262Y230642D01*
X336421Y230850D01*
X336446Y230899D01*
X336485Y230938D01*
X336553Y231036D01*
X343639D01*
X375019Y199656D01*
D02*
G37*
G36*
X366481Y237032D02*
X367482Y235533D01*
X368982Y234531D01*
X370750Y234179D01*
X376750D01*
X378518Y234531D01*
X380017Y235533D01*
X381983D01*
X383482Y234531D01*
X384236Y234381D01*
Y231764D01*
X384542Y230228D01*
X385412Y228925D01*
X396290Y218047D01*
Y197355D01*
X395774Y196954D01*
X393750Y196230D01*
X392921Y196784D01*
X391250Y197116D01*
X388913D01*
X351556Y234473D01*
X354369Y237286D01*
X366430D01*
X366481Y237032D01*
D02*
G37*
G36*
X310733Y197550D02*
X310726Y197288D01*
X310705Y197027D01*
X310671Y196768D01*
X310623Y196511D01*
X310562Y196256D01*
X310488Y196005D01*
X310401Y195758D01*
X310300Y195516D01*
X310188Y195280D01*
X310063Y195050D01*
X309926Y194827D01*
X309778Y194611D01*
X309618Y194403D01*
X309448Y194204D01*
X309268Y194014D01*
X309078Y193834D01*
X308879Y193664D01*
X308672Y193505D01*
X308456Y193357D01*
X308233Y193220D01*
X308003Y193095D01*
X307766Y192982D01*
X307525Y192882D01*
X307278Y192795D01*
X307027Y192720D01*
X306772Y192659D01*
X306515Y192612D01*
X306255Y192577D01*
X305994Y192557D01*
X305733Y192550D01*
X305471Y192557D01*
X305210Y192577D01*
X304951Y192612D01*
X304693Y192659D01*
X304439Y192720D01*
X304188Y192795D01*
X303941Y192882D01*
X303699Y192982D01*
X303463Y193095D01*
X303233Y193220D01*
X303009Y193357D01*
X302794Y193505D01*
X302586Y193664D01*
X302387Y193834D01*
X302197Y194014D01*
X302017Y194204D01*
X301847Y194403D01*
X301688Y194611D01*
X301539Y194827D01*
X301403Y195050D01*
X301278Y195280D01*
X301165Y195516D01*
X301065Y195758D01*
X300977Y196005D01*
X300903Y196256D01*
X300842Y196511D01*
X300794Y196768D01*
X300760Y197027D01*
X300740Y197288D01*
X300733Y197550D01*
Y212550D01*
X310733D01*
Y197550D01*
D02*
G37*
G36*
X295733D02*
X295726Y197288D01*
X295705Y197027D01*
X295671Y196768D01*
X295623Y196511D01*
X295562Y196256D01*
X295488Y196005D01*
X295401Y195758D01*
X295301Y195516D01*
X295188Y195280D01*
X295063Y195050D01*
X294926Y194827D01*
X294778Y194611D01*
X294618Y194403D01*
X294448Y194204D01*
X294268Y194014D01*
X294078Y193834D01*
X293879Y193664D01*
X293672Y193505D01*
X293456Y193357D01*
X293233Y193220D01*
X293003Y193095D01*
X292766Y192982D01*
X292525Y192882D01*
X292278Y192795D01*
X292027Y192720D01*
X291772Y192659D01*
X291515Y192612D01*
X291255Y192577D01*
X290994Y192557D01*
X290733Y192550D01*
X290471Y192557D01*
X290210Y192577D01*
X289951Y192612D01*
X289693Y192659D01*
X289439Y192720D01*
X289188Y192795D01*
X288941Y192882D01*
X288699Y192982D01*
X288463Y193095D01*
X288233Y193220D01*
X288009Y193357D01*
X287794Y193505D01*
X287586Y193664D01*
X287387Y193834D01*
X287197Y194014D01*
X287017Y194204D01*
X286847Y194403D01*
X286688Y194611D01*
X286539Y194827D01*
X286403Y195050D01*
X286278Y195280D01*
X286165Y195516D01*
X286065Y195758D01*
X285977Y196005D01*
X285903Y196256D01*
X285842Y196511D01*
X285794Y196768D01*
X285760Y197027D01*
X285740Y197288D01*
X285733Y197550D01*
Y212550D01*
X295733D01*
Y197550D01*
D02*
G37*
G36*
X280733D02*
X280726Y197288D01*
X280705Y197027D01*
X280671Y196768D01*
X280623Y196511D01*
X280562Y196256D01*
X280488Y196005D01*
X280401Y195758D01*
X280300Y195516D01*
X280188Y195280D01*
X280063Y195050D01*
X279926Y194827D01*
X279778Y194611D01*
X279618Y194403D01*
X279448Y194204D01*
X279268Y194014D01*
X279078Y193834D01*
X278879Y193664D01*
X278672Y193505D01*
X278456Y193357D01*
X278233Y193220D01*
X278003Y193095D01*
X277766Y192982D01*
X277525Y192882D01*
X277278Y192795D01*
X277027Y192720D01*
X276772Y192659D01*
X276515Y192612D01*
X276255Y192577D01*
X275994Y192557D01*
X275733Y192550D01*
X275471Y192557D01*
X275210Y192577D01*
X274951Y192612D01*
X274693Y192659D01*
X274439Y192720D01*
X274188Y192795D01*
X273941Y192882D01*
X273699Y192982D01*
X273463Y193095D01*
X273233Y193220D01*
X273009Y193357D01*
X272794Y193505D01*
X272586Y193664D01*
X272387Y193834D01*
X272197Y194014D01*
X272017Y194204D01*
X271847Y194403D01*
X271688Y194611D01*
X271539Y194827D01*
X271403Y195050D01*
X271278Y195280D01*
X271165Y195516D01*
X271065Y195758D01*
X270977Y196005D01*
X270903Y196256D01*
X270842Y196511D01*
X270794Y196768D01*
X270760Y197027D01*
X270740Y197288D01*
X270733Y197550D01*
Y212550D01*
X280733D01*
Y197550D01*
D02*
G37*
G36*
X265733D02*
X265726Y197288D01*
X265705Y197027D01*
X265671Y196768D01*
X265623Y196511D01*
X265562Y196256D01*
X265488Y196005D01*
X265401Y195758D01*
X265300Y195516D01*
X265188Y195280D01*
X265063Y195050D01*
X264926Y194827D01*
X264778Y194611D01*
X264618Y194403D01*
X264448Y194204D01*
X264268Y194014D01*
X264078Y193834D01*
X263879Y193664D01*
X263672Y193505D01*
X263456Y193357D01*
X263233Y193220D01*
X263003Y193095D01*
X262766Y192982D01*
X262525Y192882D01*
X262278Y192795D01*
X262027Y192720D01*
X261772Y192659D01*
X261515Y192612D01*
X261255Y192577D01*
X260994Y192557D01*
X260733Y192550D01*
X260471Y192557D01*
X260210Y192577D01*
X259951Y192612D01*
X259693Y192659D01*
X259439Y192720D01*
X259188Y192795D01*
X258941Y192882D01*
X258699Y192982D01*
X258463Y193095D01*
X258233Y193220D01*
X258009Y193357D01*
X257794Y193505D01*
X257586Y193664D01*
X257387Y193834D01*
X257197Y194014D01*
X257017Y194204D01*
X256847Y194403D01*
X256688Y194611D01*
X256539Y194827D01*
X256403Y195050D01*
X256278Y195280D01*
X256165Y195516D01*
X256065Y195758D01*
X255977Y196005D01*
X255903Y196256D01*
X255842Y196511D01*
X255794Y196768D01*
X255760Y197027D01*
X255740Y197288D01*
X255733Y197550D01*
Y212550D01*
X265733D01*
Y197550D01*
D02*
G37*
G36*
X250733D02*
X250726Y197288D01*
X250705Y197027D01*
X250671Y196768D01*
X250623Y196511D01*
X250562Y196256D01*
X250488Y196005D01*
X250401Y195758D01*
X250300Y195516D01*
X250188Y195280D01*
X250063Y195050D01*
X249926Y194827D01*
X249778Y194611D01*
X249618Y194403D01*
X249448Y194204D01*
X249268Y194014D01*
X249078Y193834D01*
X248879Y193664D01*
X248672Y193505D01*
X248456Y193357D01*
X248233Y193220D01*
X248003Y193095D01*
X247766Y192982D01*
X247525Y192882D01*
X247278Y192795D01*
X247027Y192720D01*
X246772Y192659D01*
X246515Y192612D01*
X246255Y192577D01*
X245994Y192557D01*
X245733Y192550D01*
X245471Y192557D01*
X245210Y192577D01*
X244951Y192612D01*
X244693Y192659D01*
X244439Y192720D01*
X244188Y192795D01*
X243941Y192882D01*
X243699Y192982D01*
X243463Y193095D01*
X243233Y193220D01*
X243009Y193357D01*
X242794Y193505D01*
X242586Y193664D01*
X242387Y193834D01*
X242197Y194014D01*
X242017Y194204D01*
X241847Y194403D01*
X241688Y194611D01*
X241539Y194827D01*
X241403Y195050D01*
X241278Y195280D01*
X241165Y195516D01*
X241065Y195758D01*
X240977Y196005D01*
X240903Y196256D01*
X240842Y196511D01*
X240794Y196768D01*
X240760Y197027D01*
X240740Y197288D01*
X240733Y197550D01*
Y212550D01*
X250733D01*
Y197550D01*
D02*
G37*
G36*
X235733D02*
X235726Y197288D01*
X235705Y197027D01*
X235671Y196768D01*
X235623Y196511D01*
X235562Y196256D01*
X235488Y196005D01*
X235401Y195758D01*
X235300Y195516D01*
X235188Y195280D01*
X235063Y195050D01*
X234926Y194827D01*
X234778Y194611D01*
X234618Y194403D01*
X234448Y194204D01*
X234268Y194014D01*
X234078Y193834D01*
X233879Y193664D01*
X233672Y193505D01*
X233456Y193357D01*
X233233Y193220D01*
X233003Y193095D01*
X232766Y192982D01*
X232525Y192882D01*
X232278Y192795D01*
X232027Y192720D01*
X231772Y192659D01*
X231515Y192612D01*
X231255Y192577D01*
X230994Y192557D01*
X230733Y192550D01*
X230471Y192557D01*
X230210Y192577D01*
X229951Y192612D01*
X229693Y192659D01*
X229439Y192720D01*
X229188Y192795D01*
X228941Y192882D01*
X228699Y192982D01*
X228463Y193095D01*
X228233Y193220D01*
X228009Y193357D01*
X227794Y193505D01*
X227586Y193664D01*
X227387Y193834D01*
X227197Y194014D01*
X227017Y194204D01*
X226847Y194403D01*
X226688Y194611D01*
X226539Y194827D01*
X226403Y195050D01*
X226278Y195280D01*
X226165Y195516D01*
X226065Y195758D01*
X225977Y196005D01*
X225903Y196256D01*
X225842Y196511D01*
X225794Y196768D01*
X225760Y197027D01*
X225740Y197288D01*
X225733Y197550D01*
Y212550D01*
X235733D01*
Y197550D01*
D02*
G37*
G36*
X268549Y194303D02*
X269195Y194152D01*
X269636Y193967D01*
X269773Y193744D01*
X269810Y193704D01*
X269832Y193653D01*
X269980Y193438D01*
X270020Y193399D01*
X270044Y193350D01*
X270203Y193142D01*
X270245Y193106D01*
X270272Y193058D01*
X270442Y192859D01*
X270485Y192825D01*
X270514Y192778D01*
X270694Y192588D01*
X270739Y192557D01*
X270771Y192512D01*
X270961Y192331D01*
X271007Y192302D01*
X271042Y192259D01*
X271241Y192089D01*
X271289Y192062D01*
X271325Y192021D01*
X271532Y191861D01*
X271582Y191837D01*
X271620Y191798D01*
X271836Y191649D01*
X271887Y191628D01*
X271927Y191590D01*
X272150Y191453D01*
X272202Y191434D01*
X272244Y191399D01*
X272474Y191274D01*
X272527Y191258D01*
X272571Y191225D01*
X272807Y191112D01*
X272861Y191099D01*
X272906Y191068D01*
X273148Y190968D01*
X273202Y190957D01*
X273249Y190929D01*
X273496Y190842D01*
X273550Y190834D01*
X273599Y190808D01*
X273850Y190734D01*
X273905Y190729D01*
X273955Y190706D01*
X274210Y190645D01*
X274265Y190643D01*
X274315Y190622D01*
X274573Y190574D01*
X274628Y190575D01*
X274680Y190557D01*
X274940Y190523D01*
X274995Y190527D01*
X275048Y190512D01*
X275309Y190491D01*
X275363Y190498D01*
X275417Y190486D01*
X275678Y190479D01*
X275733Y190488D01*
X275787Y190479D01*
X276049Y190486D01*
X276102Y190498D01*
X276157Y190491D01*
X276418Y190512D01*
X276471Y190527D01*
X276526Y190523D01*
X276785Y190557D01*
X276837Y190575D01*
X276893Y190574D01*
X277150Y190622D01*
X277201Y190643D01*
X277256Y190645D01*
X277510Y190706D01*
X277560Y190729D01*
X277615Y190734D01*
X277866Y190808D01*
X277915Y190834D01*
X277970Y190842D01*
X278216Y190929D01*
X278263Y190957D01*
X278317Y190968D01*
X278559Y191068D01*
X278605Y191099D01*
X278658Y191112D01*
X278895Y191225D01*
X278939Y191258D01*
X278991Y191274D01*
X279221Y191399D01*
X279264Y191434D01*
X279315Y191453D01*
X279538Y191590D01*
X279579Y191628D01*
X279629Y191649D01*
X279845Y191798D01*
X279883Y191837D01*
X279933Y191861D01*
X280140Y192021D01*
X280177Y192062D01*
X280225Y192089D01*
X280424Y192259D01*
X280458Y192302D01*
X280504Y192331D01*
X280694Y192512D01*
X280726Y192557D01*
X280771Y192588D01*
X280951Y192778D01*
X280981Y192825D01*
X281024Y192859D01*
X281194Y193058D01*
X281221Y193106D01*
X281262Y193142D01*
X281422Y193350D01*
X281446Y193399D01*
X281485Y193438D01*
X281633Y193653D01*
X281655Y193704D01*
X281693Y193744D01*
X281829Y193967D01*
X282270Y194152D01*
X282917Y194303D01*
X283232Y194332D01*
X283550Y194302D01*
X284195Y194152D01*
X284636Y193967D01*
X284773Y193744D01*
X284810Y193704D01*
X284832Y193653D01*
X284980Y193438D01*
X285020Y193399D01*
X285044Y193350D01*
X285203Y193142D01*
X285245Y193106D01*
X285272Y193058D01*
X285442Y192859D01*
X285485Y192825D01*
X285514Y192778D01*
X285694Y192588D01*
X285739Y192557D01*
X285771Y192512D01*
X285961Y192332D01*
X286007Y192302D01*
X286042Y192259D01*
X286241Y192089D01*
X286289Y192062D01*
X286325Y192021D01*
X286532Y191861D01*
X286582Y191837D01*
X286620Y191798D01*
X286836Y191649D01*
X286887Y191628D01*
X286927Y191590D01*
X287150Y191453D01*
X287202Y191434D01*
X287244Y191399D01*
X287474Y191274D01*
X287527Y191258D01*
X287571Y191225D01*
X287807Y191112D01*
X287861Y191099D01*
X287906Y191068D01*
X288148Y190968D01*
X288202Y190957D01*
X288249Y190929D01*
X288496Y190842D01*
X288550Y190834D01*
X288599Y190808D01*
X288850Y190734D01*
X288905Y190729D01*
X288955Y190706D01*
X289210Y190645D01*
X289265Y190643D01*
X289315Y190622D01*
X289573Y190574D01*
X289628Y190575D01*
X289680Y190557D01*
X289940Y190523D01*
X289995Y190527D01*
X290048Y190512D01*
X290309Y190491D01*
X290363Y190498D01*
X290417Y190486D01*
X290678Y190479D01*
X290733Y190488D01*
X290787Y190479D01*
X291049Y190486D01*
X291102Y190498D01*
X291157Y190491D01*
X291418Y190512D01*
X291471Y190527D01*
X291526Y190523D01*
X291785Y190557D01*
X291837Y190575D01*
X291893Y190574D01*
X292150Y190622D01*
X292201Y190643D01*
X292256Y190645D01*
X292510Y190706D01*
X292560Y190729D01*
X292615Y190734D01*
X292866Y190808D01*
X292915Y190834D01*
X292969Y190842D01*
X293216Y190929D01*
X293264Y190957D01*
X293317Y190968D01*
X293559Y191068D01*
X293605Y191099D01*
X293658Y191112D01*
X293895Y191225D01*
X293939Y191258D01*
X293991Y191274D01*
X294221Y191399D01*
X294264Y191434D01*
X294315Y191453D01*
X294538Y191590D01*
X294579Y191628D01*
X294629Y191649D01*
X294845Y191797D01*
X294883Y191837D01*
X294933Y191861D01*
X295141Y192021D01*
X295177Y192062D01*
X295225Y192089D01*
X295424Y192259D01*
X295458Y192302D01*
X295504Y192331D01*
X295694Y192512D01*
X295726Y192557D01*
X295771Y192588D01*
X295951Y192778D01*
X295981Y192825D01*
X296024Y192859D01*
X296194Y193058D01*
X296221Y193106D01*
X296262Y193142D01*
X296422Y193350D01*
X296446Y193399D01*
X296485Y193438D01*
X296633Y193653D01*
X296655Y193704D01*
X296693Y193744D01*
X296829Y193967D01*
X297270Y194152D01*
X297917Y194303D01*
X298233Y194332D01*
X298549Y194303D01*
X299196Y194151D01*
X299636Y193968D01*
X299773Y193744D01*
X299810Y193704D01*
X299832Y193653D01*
X299980Y193438D01*
X300020Y193399D01*
X300044Y193350D01*
X300203Y193142D01*
X300245Y193106D01*
X300272Y193058D01*
X300442Y192859D01*
X300485Y192825D01*
X300514Y192778D01*
X300694Y192588D01*
X300739Y192557D01*
X300771Y192512D01*
X300961Y192332D01*
X301007Y192302D01*
X301042Y192259D01*
X301241Y192089D01*
X301289Y192062D01*
X301325Y192021D01*
X301532Y191861D01*
X301582Y191837D01*
X301620Y191797D01*
X301719Y191730D01*
Y186099D01*
X291212Y175592D01*
X290342Y174290D01*
X290036Y172754D01*
Y158566D01*
X287954Y156414D01*
X268570D01*
X268519Y156668D01*
X267518Y158167D01*
X266019Y159169D01*
X264250Y159521D01*
X258250D01*
X256482Y159169D01*
X254983Y158167D01*
X252546Y159093D01*
X251716Y159648D01*
X250467Y159896D01*
X249747Y177881D01*
Y191730D01*
X249845Y191798D01*
X249884Y191837D01*
X249933Y191861D01*
X250141Y192021D01*
X250177Y192062D01*
X250225Y192089D01*
X250424Y192259D01*
X250458Y192302D01*
X250505Y192332D01*
X250694Y192512D01*
X250726Y192557D01*
X250771Y192588D01*
X250951Y192778D01*
X250980Y192824D01*
X251866Y193416D01*
X251998Y193613D01*
X252474Y193766D01*
X253047Y193918D01*
X253049Y193918D01*
X253272Y193896D01*
X254958Y193470D01*
X254980Y193438D01*
X255020Y193399D01*
X255044Y193350D01*
X255203Y193142D01*
X255245Y193106D01*
X255272Y193058D01*
X255442Y192859D01*
X255485Y192825D01*
X255514Y192778D01*
X255694Y192588D01*
X255739Y192557D01*
X255771Y192512D01*
X255961Y192331D01*
X256007Y192302D01*
X256042Y192259D01*
X256241Y192089D01*
X256289Y192062D01*
X256325Y192021D01*
X256533Y191861D01*
X256582Y191837D01*
X256620Y191798D01*
X256836Y191649D01*
X256887Y191628D01*
X256927Y191590D01*
X257150Y191453D01*
X257202Y191434D01*
X257244Y191399D01*
X257474Y191274D01*
X257527Y191258D01*
X257571Y191225D01*
X257807Y191112D01*
X257861Y191099D01*
X257906Y191068D01*
X258148Y190968D01*
X258202Y190957D01*
X258249Y190929D01*
X258496Y190842D01*
X258550Y190834D01*
X258599Y190808D01*
X258850Y190734D01*
X258905Y190729D01*
X258955Y190706D01*
X259210Y190645D01*
X259265Y190643D01*
X259315Y190622D01*
X259573Y190574D01*
X259628Y190575D01*
X259680Y190557D01*
X259940Y190523D01*
X259995Y190527D01*
X260048Y190512D01*
X260309Y190491D01*
X260363Y190498D01*
X260417Y190486D01*
X260678Y190479D01*
X260733Y190488D01*
X260787Y190479D01*
X261049Y190486D01*
X261102Y190498D01*
X261157Y190491D01*
X261418Y190512D01*
X261471Y190527D01*
X261526Y190523D01*
X261785Y190557D01*
X261837Y190575D01*
X261893Y190574D01*
X262150Y190622D01*
X262201Y190643D01*
X262256Y190645D01*
X262510Y190706D01*
X262560Y190729D01*
X262615Y190734D01*
X262866Y190808D01*
X262915Y190834D01*
X262970Y190842D01*
X263216Y190929D01*
X263263Y190957D01*
X263317Y190968D01*
X263559Y191068D01*
X263605Y191099D01*
X263658Y191112D01*
X263895Y191225D01*
X263939Y191258D01*
X263991Y191274D01*
X264221Y191399D01*
X264264Y191434D01*
X264315Y191453D01*
X264538Y191590D01*
X264579Y191628D01*
X264629Y191649D01*
X264845Y191798D01*
X264884Y191837D01*
X264933Y191861D01*
X265141Y192021D01*
X265177Y192062D01*
X265225Y192089D01*
X265424Y192259D01*
X265458Y192302D01*
X265504Y192331D01*
X265694Y192512D01*
X265726Y192557D01*
X265771Y192588D01*
X265951Y192778D01*
X265981Y192825D01*
X266024Y192859D01*
X266194Y193058D01*
X266221Y193106D01*
X266262Y193142D01*
X266422Y193350D01*
X266446Y193399D01*
X266485Y193438D01*
X266633Y193653D01*
X266655Y193704D01*
X266693Y193744D01*
X266829Y193967D01*
X267271Y194152D01*
X267917Y194303D01*
X268233Y194332D01*
X268549Y194303D01*
D02*
G37*
G36*
X142004Y216341D02*
X143540Y216036D01*
X199913D01*
X199980Y215938D01*
X200020Y215899D01*
X200044Y215850D01*
X200203Y215642D01*
X200245Y215606D01*
X200271Y215558D01*
X200441Y215359D01*
X200485Y215325D01*
X200514Y215278D01*
X200694Y215088D01*
X200739Y215057D01*
X200771Y215012D01*
X200961Y214832D01*
X201007Y214802D01*
X201042Y214759D01*
X201241Y214589D01*
X201289Y214562D01*
X201325Y214521D01*
X201532Y214361D01*
X201582Y214337D01*
X201620Y214298D01*
X201836Y214149D01*
X201887Y214128D01*
X201927Y214090D01*
X202150Y213953D01*
X202202Y213934D01*
X202244Y213899D01*
X202474Y213774D01*
X202527Y213758D01*
X202571Y213725D01*
X202807Y213612D01*
X202860Y213599D01*
X202906Y213568D01*
X203148Y213468D01*
X203200Y213458D01*
X203464Y213281D01*
X205233Y212929D01*
X216233D01*
X216480Y212978D01*
X220733D01*
X221174Y213066D01*
X221561Y212986D01*
X222188Y212644D01*
X223661Y211551D01*
Y208297D01*
X223612Y208050D01*
Y197050D01*
X223964Y195282D01*
X224140Y195017D01*
X224151Y194965D01*
X224251Y194723D01*
X224281Y194678D01*
X224295Y194624D01*
X224408Y194388D01*
X224441Y194344D01*
X224457Y194291D01*
X224582Y194061D01*
X224617Y194019D01*
X224636Y193968D01*
X224773Y193744D01*
X224810Y193704D01*
X224832Y193653D01*
X224980Y193438D01*
X225020Y193399D01*
X225044Y193350D01*
X225203Y193142D01*
X225245Y193106D01*
X225272Y193058D01*
X225442Y192859D01*
X225485Y192825D01*
X225514Y192778D01*
X225694Y192588D01*
X225739Y192557D01*
X225771Y192512D01*
X225961Y192332D01*
X226007Y192302D01*
X226042Y192259D01*
X226241Y192089D01*
X226289Y192062D01*
X226325Y192021D01*
X226532Y191861D01*
X226582Y191837D01*
X226620Y191797D01*
X226836Y191649D01*
X226887Y191628D01*
X226927Y191590D01*
X227150Y191453D01*
X227202Y191434D01*
X227244Y191399D01*
X227474Y191274D01*
X227527Y191258D01*
X227571Y191225D01*
X227807Y191112D01*
X227861Y191099D01*
X227906Y191068D01*
X228148Y190968D01*
X228202Y190957D01*
X228249Y190929D01*
X228496Y190842D01*
X228550Y190834D01*
X228599Y190808D01*
X228850Y190734D01*
X228905Y190729D01*
X228955Y190706D01*
X229210Y190645D01*
X229265Y190643D01*
X229315Y190622D01*
X229573Y190574D01*
X229628Y190575D01*
X229680Y190557D01*
X229940Y190523D01*
X229995Y190527D01*
X230048Y190512D01*
X230309Y190491D01*
X230363Y190498D01*
X230417Y190486D01*
X230678Y190479D01*
X230733Y190488D01*
X230787Y190479D01*
X231049Y190486D01*
X231102Y190498D01*
X231157Y190491D01*
X231418Y190512D01*
X231471Y190527D01*
X231526Y190523D01*
X231785Y190557D01*
X231838Y190575D01*
X231893Y190574D01*
X232150Y190622D01*
X232201Y190643D01*
X232256Y190645D01*
X232510Y190706D01*
X232560Y190729D01*
X232615Y190734D01*
X232866Y190808D01*
X232915Y190834D01*
X232969Y190842D01*
X233216Y190929D01*
X233264Y190957D01*
X233317Y190968D01*
X233559Y191068D01*
X233605Y191099D01*
X233658Y191112D01*
X233895Y191225D01*
X233939Y191258D01*
X233991Y191274D01*
X234221Y191399D01*
X234264Y191434D01*
X234315Y191453D01*
X234538Y191590D01*
X234579Y191628D01*
X234629Y191649D01*
X234845Y191797D01*
X234883Y191837D01*
X234933Y191861D01*
X235054Y191954D01*
X235281Y192088D01*
X237263Y192043D01*
X237391Y192022D01*
X237501Y191984D01*
X237701Y191881D01*
X238093Y191653D01*
X238210Y191558D01*
X238331Y191347D01*
X238330Y191321D01*
X238328Y191312D01*
X230986Y183970D01*
X193040D01*
X191504Y183664D01*
X190202Y182794D01*
X179911Y172504D01*
X179651Y172115D01*
X178381Y171862D01*
X176796Y170803D01*
X175738Y169219D01*
X173113Y168885D01*
X171958Y169114D01*
X170422Y168809D01*
X169120Y167938D01*
X155040Y153859D01*
X154170Y152557D01*
X153865Y151021D01*
Y136019D01*
X154170Y134483D01*
X154863Y133446D01*
Y125980D01*
X153420Y124537D01*
X146880D01*
X146638Y124778D01*
X145336Y125648D01*
X144410Y125833D01*
X144272Y126091D01*
Y127909D01*
X143714Y129256D01*
Y137468D01*
X143562Y138231D01*
X143409Y139004D01*
X143409Y139004D01*
X143409Y139004D01*
X142971Y139658D01*
X142539Y140306D01*
X140307Y142538D01*
X140307Y142538D01*
X140307Y142538D01*
X139659Y142971D01*
X139005Y143408D01*
X139005Y143408D01*
X139004Y143409D01*
X138233Y143562D01*
X137469Y143714D01*
X137469Y143714D01*
X137468Y143714D01*
X128521D01*
X127637Y145037D01*
X126221Y145984D01*
X125417Y146144D01*
Y163576D01*
X125161Y164864D01*
X124431Y165957D01*
X122617Y167771D01*
Y184056D01*
X123421Y184216D01*
X124837Y185163D01*
X125663Y186398D01*
X127000Y186547D01*
X128337Y186398D01*
X129163Y185163D01*
X130579Y184216D01*
X132250Y183884D01*
X137250D01*
X138921Y184216D01*
X140337Y185163D01*
X141284Y186579D01*
X141616Y188250D01*
Y192750D01*
X141284Y194421D01*
X140337Y195837D01*
X138921Y196784D01*
X138764Y196815D01*
Y215887D01*
X141304Y216809D01*
X142004Y216341D01*
D02*
G37*
G36*
X382337Y186398D02*
X383163Y185163D01*
X384579Y184216D01*
X386250Y183884D01*
X391250D01*
X392921Y184216D01*
X393750Y184770D01*
X395774Y184046D01*
X396290Y183645D01*
Y163733D01*
X393750Y162681D01*
X377264Y179167D01*
Y184185D01*
X377421Y184216D01*
X378837Y185163D01*
X379663Y186398D01*
X381000Y186547D01*
X382337Y186398D01*
D02*
G37*
G36*
X241719Y180030D02*
Y177801D01*
X241735Y177721D01*
X241722Y177640D01*
X242437Y159778D01*
X241783Y159648D01*
X240116Y158534D01*
X239002Y156867D01*
X238611Y154900D01*
Y153670D01*
X246750D01*
Y152400D01*
X248020D01*
Y144761D01*
X249750D01*
X251716Y145152D01*
X252546Y145707D01*
X254983Y146633D01*
X256482Y145631D01*
X258250Y145279D01*
X264250D01*
X266019Y145631D01*
X267518Y146633D01*
X268519Y148132D01*
X268570Y148386D01*
X287207D01*
X290036Y145557D01*
Y141477D01*
X289789Y141311D01*
X288980Y140102D01*
X288697Y138675D01*
Y133554D01*
X280536D01*
X279000Y133249D01*
X277698Y132378D01*
X258020Y112700D01*
X257149Y111398D01*
X256844Y109862D01*
Y99180D01*
X257149Y97644D01*
X258020Y96342D01*
X274322Y80039D01*
X274322Y77499D01*
X249687Y52864D01*
X243077D01*
X242911Y53111D01*
X241702Y53920D01*
X240275Y54203D01*
X233025D01*
X231598Y53920D01*
X230388Y53111D01*
X229790Y52217D01*
X202010D01*
X201412Y53111D01*
X200202Y53920D01*
X198775Y54203D01*
X191525D01*
X190098Y53920D01*
X189304Y53389D01*
X187749Y53858D01*
X186764Y54504D01*
Y107985D01*
X186921Y108016D01*
X188337Y108963D01*
X189163Y110198D01*
X190500Y110347D01*
X191837Y110198D01*
X192663Y108963D01*
X194079Y108016D01*
X195750Y107684D01*
X200750D01*
X202421Y108016D01*
X203837Y108963D01*
X204721Y110286D01*
X218724D01*
X220071Y109728D01*
X221889D01*
X223570Y110424D01*
X224856Y111710D01*
X225552Y113391D01*
Y115209D01*
X224856Y116890D01*
X223570Y118176D01*
X221889Y118872D01*
X220071D01*
X218724Y118314D01*
X204721D01*
X203837Y119637D01*
X202421Y120584D01*
X200750Y120916D01*
X195750D01*
X194079Y120584D01*
X192663Y119637D01*
X191837Y118402D01*
X190500Y118253D01*
X189163Y118402D01*
X188337Y119637D01*
X186921Y120584D01*
X186764Y120615D01*
Y134983D01*
X201089Y149308D01*
X201959Y150610D01*
X202264Y152146D01*
Y158785D01*
X202421Y158816D01*
X203837Y159763D01*
X204784Y161179D01*
X205116Y162850D01*
Y167350D01*
X204784Y169021D01*
X203837Y170437D01*
X202421Y171384D01*
X200750Y171716D01*
X195750D01*
X194079Y171384D01*
X193046Y170693D01*
X191427Y172666D01*
X194703Y175942D01*
X232649D01*
X234185Y176247D01*
X235487Y177118D01*
X239372Y181002D01*
X241719Y180030D01*
D02*
G37*
%LPC*%
G36*
X105280Y146834D02*
X104050D01*
X102181Y146462D01*
X100597Y145403D01*
X99538Y143819D01*
X99166Y141950D01*
Y140970D01*
X105280D01*
Y146834D01*
D02*
G37*
G36*
X245480Y151130D02*
X238611D01*
Y149900D01*
X239002Y147934D01*
X240116Y146266D01*
X241783Y145152D01*
X243750Y144761D01*
X245480D01*
Y151130D01*
D02*
G37*
%LPD*%
D12*
X210733Y235050D02*
Y250050D01*
Y265050D01*
X137280Y121158D02*
X143018D01*
X143800Y121940D01*
X210733Y235050D02*
X226822D01*
X287954Y152400D02*
X294050Y146304D01*
X106550Y134496D02*
Y139700D01*
Y134496D02*
X111605Y129441D01*
X128997D01*
X137280Y121158D01*
X171958Y165100D02*
X182750D01*
X195150Y48850D02*
X236650D01*
X302850Y17350D02*
Y58850D01*
X370250Y106250D02*
Y147750D01*
X195150Y27350D02*
X236650D01*
X122050Y139700D02*
Y163576D01*
X119250Y166376D02*
X122050Y163576D01*
X119250Y166376D02*
Y190500D01*
X315550Y93550D02*
Y113620D01*
Y135050D01*
X391750Y106250D02*
Y147750D01*
X281350Y17350D02*
Y45638D01*
Y58850D01*
D13*
X305733Y202550D02*
D03*
X290732D02*
D03*
X275733D02*
D03*
X260732D02*
D03*
X245733D02*
D03*
X230733D02*
D03*
D14*
X325733Y280050D02*
D03*
Y250050D02*
D03*
Y235050D02*
D03*
Y220050D02*
D03*
X210733D02*
D03*
Y235050D02*
D03*
Y250050D02*
D03*
Y265050D02*
D03*
X325733D02*
D03*
D15*
X132450Y266700D02*
D03*
X146950D02*
D03*
X246750Y152400D02*
D03*
X373750Y241300D02*
D03*
X388250D02*
D03*
X132450D02*
D03*
X146950D02*
D03*
X261250Y152400D02*
D03*
X361050Y266700D02*
D03*
X375550D02*
D03*
D16*
X182750Y165100D02*
D03*
X106550Y139700D02*
D03*
Y88900D02*
D03*
X96650Y63500D02*
D03*
X81150D02*
D03*
X198250Y165100D02*
D03*
X388750Y190500D02*
D03*
X373250D02*
D03*
X45850Y127000D02*
D03*
X30350D02*
D03*
X122050Y88900D02*
D03*
Y139700D02*
D03*
X134750Y190500D02*
D03*
X119250D02*
D03*
X198250Y114300D02*
D03*
X182750D02*
D03*
D17*
X315550Y135050D02*
D03*
X294050D02*
D03*
Y93550D02*
D03*
X315550D02*
D03*
X281350Y17350D02*
D03*
X302850D02*
D03*
Y58850D02*
D03*
X281350D02*
D03*
X391750Y147750D02*
D03*
X370250D02*
D03*
Y106250D02*
D03*
X391750D02*
D03*
D18*
X236650Y27350D02*
D03*
Y48850D02*
D03*
X195150D02*
D03*
Y27350D02*
D03*
D19*
X207232Y280050D02*
D03*
D25*
X375550Y266700D02*
X388250Y254000D01*
X347700Y280050D02*
X361050Y266700D01*
X325733Y280050D02*
X347700D01*
X314960D02*
X325733D01*
X388250Y241300D02*
Y254000D01*
X134682Y292100D02*
X184912D01*
X132450Y289868D02*
X134682Y292100D01*
X184912D02*
X185166Y291846D01*
X132450Y265924D02*
Y289868D01*
X146950Y241300D02*
Y266700D01*
X45850Y179324D02*
X132450Y265924D01*
X345302Y235050D02*
X389852Y190500D01*
X280536Y129540D02*
X294050D01*
X305733Y202550D02*
Y212681D01*
Y184436D02*
Y202550D01*
X106426Y88900D02*
Y114176D01*
X139700Y127000D02*
Y137468D01*
X122050Y139700D02*
X137468D01*
X139700Y137468D01*
X157879Y136019D02*
X158877Y135021D01*
Y124317D02*
Y135021D01*
X143800Y121940D02*
X145217Y120523D01*
X155083D02*
X158877Y124317D01*
X145217Y120523D02*
X155083D01*
X294050Y93550D02*
X303780Y83820D01*
X271666Y250050D02*
X325733D01*
X229870Y291846D02*
X271666Y250050D01*
X307848Y272938D02*
X314960Y280050D01*
X307848Y256794D02*
Y272938D01*
X245733Y193040D02*
Y202550D01*
Y177801D02*
Y193040D01*
X106550Y114300D02*
Y134496D01*
X294050Y146304D02*
Y172754D01*
X327820Y83820D02*
X347820D01*
X303780D02*
X327820D01*
X314866Y70866D02*
X386080D01*
X294558D02*
X314866D01*
X327820Y83820D01*
X302850Y58850D02*
X314866Y70866D01*
X294050Y71374D02*
Y91550D01*
X226822Y235050D02*
X283364D01*
X251350Y48850D02*
X281269Y78769D01*
X230733Y202550D02*
Y231140D01*
X134750Y228840D02*
X143540Y220050D01*
X132450Y231140D02*
X134750Y228840D01*
X345302Y235050D02*
X346456D01*
X325733D02*
X345302D01*
X245733Y177801D02*
X246750Y152400D01*
X347820Y83820D02*
X370250Y106250D01*
X294050Y91550D02*
Y93550D01*
X281269Y78769D02*
X294050Y91550D01*
X260858Y99180D02*
X281269Y78769D01*
X260858Y99180D02*
Y109862D01*
X280536Y129540D01*
X294050D02*
Y135050D01*
X143540Y220050D02*
X210733D01*
X132450Y231140D02*
Y241300D01*
X391750Y88900D02*
Y106250D01*
X122050Y88900D02*
X135128D01*
X309372Y107442D02*
X315550Y113620D01*
X134750Y190500D02*
Y228840D01*
X201550Y265050D02*
X210733D01*
X177800Y241300D02*
X201550Y265050D01*
X146950Y241300D02*
X177800D01*
X283364Y235050D02*
X305733Y212681D01*
X294050Y172754D02*
X305733Y184436D01*
X236650Y48850D02*
X251350D01*
X226822Y235050D02*
X230733Y231140D01*
X388250Y231764D02*
Y241300D01*
Y231764D02*
X400304Y219710D01*
Y85090D02*
Y219710D01*
X386080Y70866D02*
X400304Y85090D01*
X294050Y71374D02*
X294558Y70866D01*
X198250Y152146D02*
Y165100D01*
X182750Y136646D02*
X198250Y152146D01*
X182750Y114300D02*
Y136646D01*
X274828Y39116D02*
X281350Y45638D01*
X189230Y39116D02*
X274828D01*
X182750Y45596D02*
X189230Y39116D01*
X182750Y45596D02*
Y114300D01*
X198250D02*
X220980D01*
X45850Y127000D02*
Y179324D01*
X185166Y291846D02*
X229870D01*
X261250Y152400D02*
X287954D01*
X294050Y135050D02*
Y146304D01*
X391750Y147750D02*
Y159004D01*
X373250Y177504D02*
X391750Y159004D01*
X373250Y177504D02*
Y190500D01*
X232649Y179956D02*
X245733Y193040D01*
X193040Y179956D02*
X232649D01*
X182750Y169666D02*
X193040Y179956D01*
X182750Y165100D02*
Y169666D01*
X106426Y88900D02*
X106550D01*
X106426Y114176D02*
X106550Y114300D01*
X40640Y63500D02*
X81150D01*
X30350Y73790D02*
X40640Y63500D01*
X30350Y73790D02*
Y127000D01*
X388750Y190500D02*
X389852D01*
X96650Y63500D02*
X101470D01*
X106550Y68580D01*
Y88900D01*
X91440Y27350D02*
X195150D01*
X81150Y37640D02*
X91440Y27350D01*
X81150Y37640D02*
Y63500D01*
X352706Y241300D02*
X373750D01*
X346456Y235050D02*
X352706Y241300D01*
X157879Y136019D02*
Y151021D01*
X171958Y165100D01*
D26*
X139700Y127000D02*
D03*
X307848Y256794D02*
D03*
X391750Y88900D02*
D03*
X135128D02*
D03*
X309372Y107442D02*
D03*
X220980Y114300D02*
D03*
M02*
