G04*
G04 #@! TF.GenerationSoftware,Altium Limited,Altium Designer,25.4.2 (15)*
G04*
G04 Layer_Color=65535*
%FSLAX44Y44*%
%MOMM*%
G71*
G04*
G04 #@! TF.SameCoordinates,122F49FF-69CD-467C-8DFD-42ED72D14C47*
G04*
G04*
G04 #@! TF.FilePolarity,Positive*
G04*
G01*
G75*
%ADD10C,0.2000*%
%ADD11C,0.2500*%
%ADD12C,0.2540*%
D10*
X196733Y280050D02*
G03*
X196733Y280050I-1000J0D01*
G01*
X205733Y290050D02*
Y299050D01*
Y197550D02*
Y210050D01*
Y197550D02*
X221232D01*
X315233D02*
X330733D01*
Y210050D01*
Y290050D02*
Y299050D01*
X320800Y100800D02*
Y127800D01*
X288800Y100800D02*
Y127800D01*
X300800Y93300D02*
X308800D01*
X300800Y135300D02*
X308800D01*
X276100Y24600D02*
Y51600D01*
X308100Y24600D02*
Y51600D01*
X288100Y59100D02*
X296100D01*
X288100Y17100D02*
X296100D01*
X202400Y22100D02*
X229400D01*
X202400Y54100D02*
X229400D01*
X194900Y34100D02*
Y42100D01*
X236900Y34100D02*
Y42100D01*
X397000Y113500D02*
Y140500D01*
X365000Y113500D02*
Y140500D01*
X377000Y106000D02*
X385000D01*
X377000Y148000D02*
X385000D01*
D11*
X295300Y80550D02*
G03*
X295300Y80550I-1250J0D01*
G01*
X304100Y71850D02*
G03*
X304100Y71850I-1250J0D01*
G01*
X183400Y48850D02*
G03*
X183400Y48850I-1250J0D01*
G01*
X371500Y93250D02*
G03*
X371500Y93250I-1250J0D01*
G01*
D12*
X269243Y287017D02*
Y274322D01*
X271782Y271782D01*
X276861D01*
X279400Y274322D01*
Y287017D01*
X284478Y271782D02*
X289557D01*
X287018D01*
Y287017D01*
X284478Y284478D01*
X99061Y297178D02*
X96522Y299718D01*
X91443D01*
X88904Y297178D01*
Y287022D01*
X91443Y284482D01*
X96522D01*
X99061Y287022D01*
X114296Y284482D02*
X104139D01*
X114296Y294639D01*
Y297178D01*
X111757Y299718D01*
X106678D01*
X104139Y297178D01*
X416561Y271778D02*
X414022Y274317D01*
X408943D01*
X406404Y271778D01*
Y261622D01*
X408943Y259083D01*
X414022D01*
X416561Y261622D01*
X429257Y259083D02*
Y274317D01*
X421639Y266700D01*
X431796D01*
X86361Y259078D02*
X83822Y261618D01*
X78743D01*
X76204Y259078D01*
Y248922D01*
X78743Y246383D01*
X83822D01*
X86361Y248922D01*
X91439Y259078D02*
X93978Y261618D01*
X99057D01*
X101596Y259078D01*
Y256539D01*
X99057Y254000D01*
X96517D01*
X99057D01*
X101596Y251461D01*
Y248922D01*
X99057Y246383D01*
X93978D01*
X91439Y248922D01*
X53343Y68583D02*
Y83818D01*
X60961D01*
X63500Y81278D01*
Y76200D01*
X60961Y73661D01*
X53343D01*
X58422D02*
X63500Y68583D01*
X68578D02*
X73657D01*
X71118D01*
Y83818D01*
X68578Y81278D01*
X307343Y170178D02*
X304804Y172717D01*
X299726D01*
X297187Y170178D01*
Y167639D01*
X299726Y165100D01*
X304804D01*
X307343Y162561D01*
Y160022D01*
X304804Y157483D01*
X299726D01*
X297187Y160022D01*
X312422Y172717D02*
Y157483D01*
X317500Y162561D01*
X322578Y157483D01*
Y172717D01*
X337813Y157483D02*
X327657D01*
X337813Y167639D01*
Y170178D01*
X335274Y172717D01*
X330196D01*
X327657Y170178D01*
X228600D02*
X226061Y172717D01*
X220982D01*
X218443Y170178D01*
Y160022D01*
X220982Y157483D01*
X226061D01*
X228600Y160022D01*
X233678Y157483D02*
X238757D01*
X236218D01*
Y172717D01*
X233678Y170178D01*
X152404Y182882D02*
Y198118D01*
X160022D01*
X162561Y195578D01*
Y190500D01*
X160022Y187961D01*
X152404D01*
X157483D02*
X162561Y182882D01*
X175257D02*
Y198118D01*
X167639Y190500D01*
X177796D01*
X332743Y43179D02*
X330204Y45718D01*
X325126Y45718D01*
X322587Y43179D01*
X322587Y40639D01*
X325126Y38100D01*
X330204Y38100D01*
X332743Y35561D01*
X332743Y33022D01*
X330204Y30483D01*
X325126Y30483D01*
X322587Y33022D01*
X337822Y45718D02*
X337822Y30482D01*
X342900Y35561D01*
X347978Y30482D01*
X347979Y45718D01*
X360674Y30482D02*
X360674Y45717D01*
X353057Y38100D01*
X363213Y38100D01*
X192275Y77720D02*
X189736Y80259D01*
X184657D01*
X182118Y77720D01*
Y75181D01*
X184657Y72642D01*
X189736D01*
X192275Y70102D01*
Y67563D01*
X189736Y65024D01*
X184657D01*
X182118Y67563D01*
X197353Y80259D02*
Y65024D01*
X202431Y70102D01*
X207510Y65024D01*
Y80259D01*
X212588Y65024D02*
X217666D01*
X215127D01*
Y80259D01*
X212588Y77720D01*
X374393Y176526D02*
X371853Y179065D01*
X366775D01*
X364236Y176526D01*
Y173987D01*
X366775Y171448D01*
X371853D01*
X374393Y168908D01*
Y166369D01*
X371853Y163830D01*
X366775D01*
X364236Y166369D01*
X379471Y179065D02*
Y163830D01*
X384549Y168908D01*
X389628Y163830D01*
Y179065D01*
X394706Y176526D02*
X397245Y179065D01*
X402324D01*
X404863Y176526D01*
Y173987D01*
X402324Y171448D01*
X399785D01*
X402324D01*
X404863Y168908D01*
Y166369D01*
X402324Y163830D01*
X397245D01*
X394706Y166369D01*
X368300Y205486D02*
Y220721D01*
X375918D01*
X378457Y218182D01*
Y213104D01*
X375918Y210564D01*
X368300D01*
X373378D02*
X378457Y205486D01*
X383535Y220721D02*
X393692D01*
Y218182D01*
X383535Y208025D01*
Y205486D01*
X25400Y141986D02*
Y157221D01*
X33017D01*
X35557Y154682D01*
Y149604D01*
X33017Y147064D01*
X25400D01*
X30478D02*
X35557Y141986D01*
X50792Y157221D02*
X40635D01*
Y149604D01*
X45713Y152143D01*
X48253D01*
X50792Y149604D01*
Y144525D01*
X48253Y141986D01*
X43174D01*
X40635Y144525D01*
X101600Y103886D02*
Y119121D01*
X109218D01*
X111757Y116582D01*
Y111503D01*
X109218Y108964D01*
X101600D01*
X106678D02*
X111757Y103886D01*
X116835Y116582D02*
X119374Y119121D01*
X124453D01*
X126992Y116582D01*
Y114043D01*
X124453Y111503D01*
X121913D01*
X124453D01*
X126992Y108964D01*
Y106425D01*
X124453Y103886D01*
X119374D01*
X116835Y106425D01*
X101600Y154686D02*
Y169921D01*
X109218D01*
X111757Y167382D01*
Y162304D01*
X109218Y159764D01*
X101600D01*
X106678D02*
X111757Y154686D01*
X126992D02*
X116835D01*
X126992Y164843D01*
Y167382D01*
X124453Y169921D01*
X119374D01*
X116835Y167382D01*
X114300Y205486D02*
Y220721D01*
X121917D01*
X124457Y218182D01*
Y213104D01*
X121917Y210564D01*
X114300D01*
X119378D02*
X124457Y205486D01*
X139692Y220721D02*
X134613Y218182D01*
X129535Y213104D01*
Y208025D01*
X132074Y205486D01*
X137153D01*
X139692Y208025D01*
Y210564D01*
X137153Y213104D01*
X129535D01*
X365757Y294890D02*
X363218Y297429D01*
X358139D01*
X355600Y294890D01*
Y284733D01*
X358139Y282194D01*
X363218D01*
X365757Y284733D01*
X380992Y297429D02*
X370835D01*
Y289811D01*
X375913Y292351D01*
X378453D01*
X380992Y289811D01*
Y284733D01*
X378453Y282194D01*
X373374D01*
X370835Y284733D01*
X177800Y129286D02*
Y144521D01*
X185417D01*
X187957Y141982D01*
Y136903D01*
X185417Y134364D01*
X177800D01*
X182878D02*
X187957Y129286D01*
X193035Y141982D02*
X195574Y144521D01*
X200653D01*
X203192Y141982D01*
Y139443D01*
X200653Y136903D01*
X203192Y134364D01*
Y131825D01*
X200653Y129286D01*
X195574D01*
X193035Y131825D01*
Y134364D01*
X195574Y136903D01*
X193035Y139443D01*
Y141982D01*
X195574Y136903D02*
X200653D01*
M02*
