%TF.GenerationSoftware,KiCad,Pcbnew,9.0.0*%
%TF.CreationDate,2025-04-03T19:14:32+05:30*%
%TF.ProjectId,12i(overall),31326928-6f76-4657-9261-6c6c292e6b69,rev?*%
%TF.SameCoordinates,Original*%
%TF.FileFunction,Other,User*%
%FSLAX46Y46*%
G04 Gerber Fmt 4.6, Leading zero omitted, Abs format (unit mm)*
G04 Created by KiCad (PCBNEW 9.0.0) date 2025-04-03 19:14:32*
%MOMM*%
%LPD*%
G01*
G04 APERTURE LIST*
%ADD10C,0.050800*%
%ADD11C,0.050000*%
%ADD12C,0.152400*%
G04 APERTURE END LIST*
D10*
%TO.C,C76*%
X489017000Y-188127000D02*
X490983000Y-188127000D01*
X489017000Y-191873000D02*
X489017000Y-188127000D01*
X490983000Y-188127000D02*
X490983000Y-191873000D01*
X490983000Y-191873000D02*
X489017000Y-191873000D01*
D11*
%TO.C,D61*%
X382450000Y-248450000D02*
X382450000Y-251550000D01*
X382450000Y-251550000D02*
X384550000Y-251550000D01*
X384550000Y-248450000D02*
X382450000Y-248450000D01*
X384550000Y-251550000D02*
X384550000Y-248450000D01*
%TO.C,U1*%
X447890000Y-313287500D02*
X447890000Y-316712500D01*
X447890000Y-316712500D02*
X452110000Y-316712500D01*
X452110000Y-313287500D02*
X447890000Y-313287500D01*
X452110000Y-316712500D02*
X452110000Y-313287500D01*
D12*
%TO.C,C3*%
X483844300Y-222688600D02*
X486155700Y-222688600D01*
X483844300Y-227311400D02*
X483844300Y-222688600D01*
X486155700Y-222688600D02*
X486155700Y-227311400D01*
X486155700Y-227311400D02*
X483844300Y-227311400D01*
D11*
%TO.C,De3*%
X447450000Y-248450000D02*
X447450000Y-251550000D01*
X447450000Y-251550000D02*
X449550000Y-251550000D01*
X449550000Y-248450000D02*
X447450000Y-248450000D01*
X449550000Y-251550000D02*
X449550000Y-248450000D01*
%TO.C,D13*%
X459950000Y-248450000D02*
X459950000Y-251550000D01*
X459950000Y-251550000D02*
X462050000Y-251550000D01*
X462050000Y-248450000D02*
X459950000Y-248450000D01*
X462050000Y-251550000D02*
X462050000Y-248450000D01*
D12*
%TO.C,C18*%
X496344300Y-222688600D02*
X498655700Y-222688600D01*
X496344300Y-227311400D02*
X496344300Y-222688600D01*
X498655700Y-222688600D02*
X498655700Y-227311400D01*
X498655700Y-227311400D02*
X496344300Y-227311400D01*
D11*
%TO.C,Y1*%
X412475000Y-263050000D02*
X415725000Y-263050000D01*
X412475000Y-266950000D02*
X412475000Y-263050000D01*
X415725000Y-263050000D02*
X415725000Y-266950000D01*
X415725000Y-266950000D02*
X412475000Y-266950000D01*
%TO.C,R32*%
X486385000Y-292215000D02*
X486385000Y-287785000D01*
X488615000Y-287785000D02*
X486385000Y-287785000D01*
X488615000Y-292215000D02*
X486385000Y-292215000D01*
X488615000Y-292215000D02*
X488615000Y-287785000D01*
D12*
%TO.C,C106*%
X388844300Y-272715400D02*
X391155700Y-272715400D01*
X388844300Y-277338200D02*
X388844300Y-272715400D01*
X391155700Y-272715400D02*
X391155700Y-277338200D01*
X391155700Y-277338200D02*
X388844300Y-277338200D01*
D11*
%TO.C,D22*%
X467450000Y-248450000D02*
X467450000Y-251550000D01*
X467450000Y-251550000D02*
X469550000Y-251550000D01*
X469550000Y-248450000D02*
X467450000Y-248450000D01*
X469550000Y-251550000D02*
X469550000Y-248450000D01*
%TO.C,R39*%
X382669000Y-303815000D02*
X387331000Y-303815000D01*
X382669000Y-306085000D02*
X382669000Y-303815000D01*
X382669000Y-306085000D02*
X387331000Y-306085000D01*
X387331000Y-306085000D02*
X387331000Y-303815000D01*
%TO.C,R43*%
X411365000Y-292281000D02*
X411365000Y-287619000D01*
X413635000Y-287619000D02*
X411365000Y-287619000D01*
X413635000Y-292281000D02*
X411365000Y-292281000D01*
X413635000Y-292281000D02*
X413635000Y-287619000D01*
%TO.C,D25*%
X494950000Y-248450000D02*
X494950000Y-251550000D01*
X494950000Y-251550000D02*
X497050000Y-251550000D01*
X497050000Y-248450000D02*
X494950000Y-248450000D01*
X497050000Y-251550000D02*
X497050000Y-248450000D01*
D12*
%TO.C,C5*%
X461344300Y-222688600D02*
X463655700Y-222688600D01*
X461344300Y-227311400D02*
X461344300Y-222688600D01*
X463655700Y-222688600D02*
X463655700Y-227311400D01*
X463655700Y-227311400D02*
X461344300Y-227311400D01*
%TO.C,C85*%
X440188600Y-191344300D02*
X444811400Y-191344300D01*
X440188600Y-193655700D02*
X440188600Y-191344300D01*
X444811400Y-191344300D02*
X444811400Y-193655700D01*
X444811400Y-193655700D02*
X440188600Y-193655700D01*
D10*
%TO.C,C78*%
X486517000Y-183127000D02*
X488483000Y-183127000D01*
X486517000Y-186873000D02*
X486517000Y-183127000D01*
X488483000Y-183127000D02*
X488483000Y-186873000D01*
X488483000Y-186873000D02*
X486517000Y-186873000D01*
D12*
%TO.C,C9*%
X488844300Y-222661800D02*
X491155700Y-222661800D01*
X488844300Y-227284600D02*
X488844300Y-222661800D01*
X491155700Y-222661800D02*
X491155700Y-227284600D01*
X491155700Y-227284600D02*
X488844300Y-227284600D01*
D11*
%TO.C,R44*%
X458000000Y-316625000D02*
X458000000Y-318375000D01*
X458000000Y-318375000D02*
X462000000Y-318375000D01*
X462000000Y-316625000D02*
X458000000Y-316625000D01*
X462000000Y-318375000D02*
X462000000Y-316625000D01*
D12*
%TO.C,U10*%
X445916199Y-292046400D02*
X446220999Y-292046400D01*
X445916199Y-297953600D02*
X445916199Y-292046400D01*
X446220999Y-291220999D02*
X447046400Y-291220999D01*
X446220999Y-292046400D02*
X446220999Y-291220999D01*
X446220999Y-297953600D02*
X445916199Y-297953600D01*
X446220999Y-298779001D02*
X446220999Y-297953600D01*
X447046400Y-290916199D02*
X452953600Y-290916199D01*
X447046400Y-291220999D02*
X447046400Y-290916199D01*
X447046400Y-298779001D02*
X446220999Y-298779001D01*
X447046400Y-299083801D02*
X447046400Y-298779001D01*
X452953600Y-290916199D02*
X452953600Y-291220999D01*
X452953600Y-291220999D02*
X453779001Y-291220999D01*
X452953600Y-298779001D02*
X452953600Y-299083801D01*
X452953600Y-299083801D02*
X447046400Y-299083801D01*
X453779001Y-291220999D02*
X453779001Y-292046400D01*
X453779001Y-292046400D02*
X454083801Y-292046400D01*
X453779001Y-297953600D02*
X453779001Y-298779001D01*
X453779001Y-298779001D02*
X452953600Y-298779001D01*
X454083801Y-292046400D02*
X454083801Y-297953600D01*
X454083801Y-297953600D02*
X453779001Y-297953600D01*
%TO.C,C26*%
X503844300Y-222688600D02*
X506155700Y-222688600D01*
X503844300Y-227311400D02*
X503844300Y-222688600D01*
X506155700Y-222688600D02*
X506155700Y-227311400D01*
X506155700Y-227311400D02*
X503844300Y-227311400D01*
%TO.C,C8*%
X463844300Y-222661800D02*
X466155700Y-222661800D01*
X463844300Y-227284600D02*
X463844300Y-222661800D01*
X466155700Y-222661800D02*
X466155700Y-227284600D01*
X466155700Y-227284600D02*
X463844300Y-227284600D01*
D10*
%TO.C,C65*%
X473127000Y-189017000D02*
X476873000Y-189017000D01*
X473127000Y-190983000D02*
X473127000Y-189017000D01*
X476873000Y-189017000D02*
X476873000Y-190983000D01*
X476873000Y-190983000D02*
X473127000Y-190983000D01*
D11*
%TO.C,D74*%
X397450000Y-248450000D02*
X397450000Y-251550000D01*
X397450000Y-251550000D02*
X399550000Y-251550000D01*
X399550000Y-248450000D02*
X397450000Y-248450000D01*
X399550000Y-251550000D02*
X399550000Y-248450000D01*
%TO.C,R48*%
X387669000Y-288815000D02*
X387669000Y-291085000D01*
X392331000Y-288815000D02*
X387669000Y-288815000D01*
X392331000Y-288815000D02*
X392331000Y-291085000D01*
X392331000Y-291085000D02*
X387669000Y-291085000D01*
%TO.C,R18*%
X487785000Y-283885000D02*
X487785000Y-286115000D01*
X492215000Y-283885000D02*
X487785000Y-283885000D01*
X492215000Y-283885000D02*
X492215000Y-286115000D01*
X492215000Y-286115000D02*
X487785000Y-286115000D01*
%TO.C,R24*%
X507785000Y-288885000D02*
X507785000Y-291115000D01*
X512215000Y-288885000D02*
X507785000Y-288885000D01*
X512215000Y-288885000D02*
X512215000Y-291115000D01*
X512215000Y-291115000D02*
X507785000Y-291115000D01*
D12*
%TO.C,C16*%
X521344300Y-222661800D02*
X523655700Y-222661800D01*
X521344300Y-227284600D02*
X521344300Y-222661800D01*
X523655700Y-222661800D02*
X523655700Y-227284600D01*
X523655700Y-227284600D02*
X521344300Y-227284600D01*
D11*
%TO.C,D14*%
X484950000Y-248450000D02*
X484950000Y-251550000D01*
X484950000Y-251550000D02*
X487050000Y-251550000D01*
X487050000Y-248450000D02*
X484950000Y-248450000D01*
X487050000Y-251550000D02*
X487050000Y-248450000D01*
%TO.C,D66*%
X437450000Y-248450000D02*
X437450000Y-251550000D01*
X437450000Y-251550000D02*
X439550000Y-251550000D01*
X439550000Y-248450000D02*
X437450000Y-248450000D01*
X439550000Y-251550000D02*
X439550000Y-248450000D01*
D12*
%TO.C,C111*%
X413844300Y-272688600D02*
X416155700Y-272688600D01*
X413844300Y-277311400D02*
X413844300Y-272688600D01*
X416155700Y-272688600D02*
X416155700Y-277311400D01*
X416155700Y-277311400D02*
X413844300Y-277311400D01*
%TO.C,C38*%
X506161800Y-206344300D02*
X510784600Y-206344300D01*
X506161800Y-208655700D02*
X506161800Y-206344300D01*
X510784600Y-206344300D02*
X510784600Y-208655700D01*
X510784600Y-208655700D02*
X506161800Y-208655700D01*
D11*
%TO.C,D77*%
X424950000Y-248450000D02*
X424950000Y-251550000D01*
X424950000Y-251550000D02*
X427050000Y-251550000D01*
X427050000Y-248450000D02*
X424950000Y-248450000D01*
X427050000Y-251550000D02*
X427050000Y-248450000D01*
D10*
%TO.C,C63*%
X468127000Y-209017000D02*
X471873000Y-209017000D01*
X468127000Y-210983000D02*
X468127000Y-209017000D01*
X471873000Y-209017000D02*
X471873000Y-210983000D01*
X471873000Y-210983000D02*
X468127000Y-210983000D01*
D11*
%TO.C,D73*%
X429950000Y-248450000D02*
X429950000Y-251550000D01*
X429950000Y-251550000D02*
X432050000Y-251550000D01*
X432050000Y-248450000D02*
X429950000Y-248450000D01*
X432050000Y-251550000D02*
X432050000Y-248450000D01*
D12*
%TO.C,C11*%
X466344300Y-222715400D02*
X468655700Y-222715400D01*
X466344300Y-227338200D02*
X466344300Y-222715400D01*
X468655700Y-222715400D02*
X468655700Y-227338200D01*
X468655700Y-227338200D02*
X466344300Y-227338200D01*
D11*
%TO.C,D59*%
X414950000Y-248450000D02*
X414950000Y-251550000D01*
X414950000Y-251550000D02*
X417050000Y-251550000D01*
X417050000Y-248450000D02*
X414950000Y-248450000D01*
X417050000Y-251550000D02*
X417050000Y-248450000D01*
D12*
%TO.C,C94*%
X403844300Y-272688600D02*
X406155700Y-272688600D01*
X403844300Y-277311400D02*
X403844300Y-272688600D01*
X406155700Y-272688600D02*
X406155700Y-277311400D01*
X406155700Y-277311400D02*
X403844300Y-277311400D01*
D11*
%TO.C,D32*%
X421400000Y-312415000D02*
X423600000Y-312415000D01*
X421400000Y-317485000D02*
X421400000Y-312415000D01*
X423600000Y-312415000D02*
X423600000Y-317485000D01*
X423600000Y-317485000D02*
X421400000Y-317485000D01*
D12*
%TO.C,C103*%
X423844300Y-272688600D02*
X426155700Y-272688600D01*
X423844300Y-277311400D02*
X423844300Y-272688600D01*
X426155700Y-272688600D02*
X426155700Y-277311400D01*
X426155700Y-277311400D02*
X423844300Y-277311400D01*
%TO.C,C99*%
X398844300Y-272715400D02*
X401155700Y-272715400D01*
X398844300Y-277338200D02*
X398844300Y-272715400D01*
X401155700Y-272715400D02*
X401155700Y-277338200D01*
X401155700Y-277338200D02*
X398844300Y-277338200D01*
%TO.C,C44*%
X499121000Y-308390400D02*
X500879000Y-308390400D01*
X499121000Y-311609600D02*
X499121000Y-308390400D01*
X500879000Y-308390400D02*
X500879000Y-311609600D01*
X500879000Y-311609600D02*
X499121000Y-311609600D01*
D11*
%TO.C,R17*%
X492785000Y-278885000D02*
X497215000Y-278885000D01*
X492785000Y-281115000D02*
X492785000Y-278885000D01*
X492785000Y-281115000D02*
X497215000Y-281115000D01*
X497215000Y-281115000D02*
X497215000Y-278885000D01*
D12*
%TO.C,C48*%
X410836300Y-316522900D02*
X414163700Y-316522900D01*
X410836300Y-318377100D02*
X410836300Y-316522900D01*
X414163700Y-316522900D02*
X414163700Y-318377100D01*
X414163700Y-318377100D02*
X410836300Y-318377100D01*
%TO.C,SW1*%
X429746000Y-176748800D02*
X429746000Y-183251200D01*
X429746000Y-183251200D02*
X440254000Y-183251200D01*
X440254000Y-176748800D02*
X429746000Y-176748800D01*
X440254000Y-183251200D02*
X440254000Y-176748800D01*
%TO.C,C14*%
X468844300Y-222715400D02*
X471155700Y-222715400D01*
X468844300Y-227338200D02*
X468844300Y-222715400D01*
X471155700Y-222715400D02*
X471155700Y-227338200D01*
X471155700Y-227338200D02*
X468844300Y-227338200D01*
D10*
%TO.C,C71*%
X490127000Y-206517000D02*
X493873000Y-206517000D01*
X490127000Y-208483000D02*
X490127000Y-206517000D01*
X493873000Y-206517000D02*
X493873000Y-208483000D01*
X493873000Y-208483000D02*
X490127000Y-208483000D01*
D11*
%TO.C,R25*%
X506385000Y-197785000D02*
X506385000Y-202215000D01*
X506385000Y-197785000D02*
X508615000Y-197785000D01*
X506385000Y-202215000D02*
X508615000Y-202215000D01*
X508615000Y-197785000D02*
X508615000Y-202215000D01*
D12*
%TO.C,C126*%
X447688600Y-181344300D02*
X452311400Y-181344300D01*
X447688600Y-183655700D02*
X447688600Y-181344300D01*
X452311400Y-181344300D02*
X452311400Y-183655700D01*
X452311400Y-183655700D02*
X447688600Y-183655700D01*
D11*
%TO.C,D7*%
X454950000Y-248450000D02*
X454950000Y-251550000D01*
X454950000Y-251550000D02*
X457050000Y-251550000D01*
X457050000Y-248450000D02*
X454950000Y-248450000D01*
X457050000Y-251550000D02*
X457050000Y-248450000D01*
%TO.C,C125*%
X398250000Y-313950000D02*
X401750000Y-313950000D01*
X398250000Y-315950000D02*
X398250000Y-313950000D01*
X401750000Y-313950000D02*
X401750000Y-315950000D01*
X401750000Y-315950000D02*
X398250000Y-315950000D01*
D12*
%TO.C,C113*%
X381344300Y-272715400D02*
X383655700Y-272715400D01*
X381344300Y-277338200D02*
X381344300Y-272715400D01*
X383655700Y-272715400D02*
X383655700Y-277338200D01*
X383655700Y-277338200D02*
X381344300Y-277338200D01*
D11*
%TO.C,R38*%
X402669000Y-278815000D02*
X407331000Y-278815000D01*
X402669000Y-281085000D02*
X402669000Y-278815000D01*
X402669000Y-281085000D02*
X407331000Y-281085000D01*
X407331000Y-281085000D02*
X407331000Y-278815000D01*
D12*
%TO.C,C21*%
X498844300Y-222688600D02*
X501155700Y-222688600D01*
X498844300Y-227311400D02*
X498844300Y-222688600D01*
X501155700Y-222688600D02*
X501155700Y-227311400D01*
X501155700Y-227311400D02*
X498844300Y-227311400D01*
%TO.C,IC4*%
X374790399Y-231860999D02*
X376146000Y-231860999D01*
X374790399Y-238139001D02*
X374790399Y-231860999D01*
X376146000Y-231860999D02*
X376146000Y-231146000D01*
X376146000Y-238139001D02*
X374790399Y-238139001D01*
X376146000Y-238854000D02*
X376146000Y-238139001D01*
X376860999Y-229790399D02*
X376860999Y-231146000D01*
X376860999Y-231146000D02*
X376146000Y-231146000D01*
X376860999Y-238854000D02*
X376146000Y-238854000D01*
X376860999Y-240209601D02*
X376860999Y-238854000D01*
X383139001Y-229790399D02*
X376860999Y-229790399D01*
X383139001Y-231146000D02*
X383139001Y-229790399D01*
X383139001Y-238854000D02*
X383139001Y-240209601D01*
X383139001Y-240209601D02*
X376860999Y-240209601D01*
X383854000Y-231146000D02*
X383139001Y-231146000D01*
X383854000Y-231860999D02*
X383854000Y-231146000D01*
X383854000Y-238139001D02*
X385209601Y-238139001D01*
X383854000Y-238854000D02*
X383139001Y-238854000D01*
X383854000Y-238854000D02*
X383854000Y-238139001D01*
X385209601Y-231860999D02*
X383854000Y-231860999D01*
X385209601Y-238139001D02*
X385209601Y-231860999D01*
D11*
%TO.C,R41*%
X382681000Y-298815000D02*
X382681000Y-301085000D01*
X387343000Y-298815000D02*
X382681000Y-298815000D01*
X387343000Y-298815000D02*
X387343000Y-301085000D01*
X387343000Y-301085000D02*
X382681000Y-301085000D01*
%TO.C,R16*%
X497785000Y-283885000D02*
X497785000Y-286115000D01*
X502215000Y-283885000D02*
X497785000Y-283885000D01*
X502215000Y-283885000D02*
X502215000Y-286115000D01*
X502215000Y-286115000D02*
X497785000Y-286115000D01*
D12*
%TO.C,C87*%
X408844300Y-272688600D02*
X411155700Y-272688600D01*
X408844300Y-277311400D02*
X408844300Y-272688600D01*
X411155700Y-272688600D02*
X411155700Y-277311400D01*
X411155700Y-277311400D02*
X408844300Y-277311400D01*
%TO.C,C2*%
X458844300Y-222688600D02*
X461155700Y-222688600D01*
X458844300Y-227311400D02*
X458844300Y-222688600D01*
X461155700Y-222688600D02*
X461155700Y-227311400D01*
X461155700Y-227311400D02*
X458844300Y-227311400D01*
D11*
%TO.C,R30*%
X470285000Y-298885000D02*
X470285000Y-301115000D01*
X474715000Y-298885000D02*
X470285000Y-298885000D01*
X474715000Y-298885000D02*
X474715000Y-301115000D01*
X474715000Y-301115000D02*
X470285000Y-301115000D01*
%TO.C,R9*%
X422785000Y-188885000D02*
X427215000Y-188885000D01*
X422785000Y-191115000D02*
X422785000Y-188885000D01*
X422785000Y-191115000D02*
X427215000Y-191115000D01*
X427215000Y-191115000D02*
X427215000Y-188885000D01*
%TO.C,U3*%
X498000000Y-317000000D02*
X502000000Y-317000000D01*
X502000000Y-321000000D01*
X498000000Y-321000000D01*
X498000000Y-317000000D01*
%TO.C,D72*%
X399950000Y-248450000D02*
X399950000Y-251550000D01*
X399950000Y-251550000D02*
X402050000Y-251550000D01*
X402050000Y-248450000D02*
X399950000Y-248450000D01*
X402050000Y-251550000D02*
X402050000Y-248450000D01*
%TO.C,D69*%
X404950000Y-248450000D02*
X404950000Y-251550000D01*
X404950000Y-251550000D02*
X407050000Y-251550000D01*
X407050000Y-248450000D02*
X404950000Y-248450000D01*
X407050000Y-251550000D02*
X407050000Y-248450000D01*
D10*
%TO.C,C67*%
X468127000Y-199017000D02*
X471873000Y-199017000D01*
X468127000Y-200983000D02*
X468127000Y-199017000D01*
X471873000Y-199017000D02*
X471873000Y-200983000D01*
X471873000Y-200983000D02*
X468127000Y-200983000D01*
D11*
%TO.C,U2*%
X445340000Y-217110000D02*
X445340000Y-222890000D01*
X445340000Y-217110000D02*
X454660000Y-217110000D01*
X445340000Y-222890000D02*
X454660000Y-222890000D01*
X454660000Y-217110000D02*
X454660000Y-222890000D01*
D12*
%TO.C,C28*%
X506344300Y-222688600D02*
X508655700Y-222688600D01*
X506344300Y-227311400D02*
X506344300Y-222688600D01*
X508655700Y-222688600D02*
X508655700Y-227311400D01*
X508655700Y-227311400D02*
X506344300Y-227311400D01*
%TO.C,C98*%
X428844300Y-272715400D02*
X431155700Y-272715400D01*
X428844300Y-277338200D02*
X428844300Y-272715400D01*
X431155700Y-272715400D02*
X431155700Y-277338200D01*
X431155700Y-277338200D02*
X428844300Y-277338200D01*
D11*
%TO.C,R1*%
X491385000Y-197785000D02*
X491385000Y-202215000D01*
X491385000Y-197785000D02*
X493615000Y-197785000D01*
X491385000Y-202215000D02*
X493615000Y-202215000D01*
X493615000Y-197785000D02*
X493615000Y-202215000D01*
D10*
%TO.C,C57*%
X480627000Y-313517000D02*
X484373000Y-313517000D01*
X480627000Y-315483000D02*
X480627000Y-313517000D01*
X484373000Y-313517000D02*
X484373000Y-315483000D01*
X484373000Y-315483000D02*
X480627000Y-315483000D01*
D12*
%TO.C,C27*%
X481344300Y-222688600D02*
X483655700Y-222688600D01*
X481344300Y-227311400D02*
X481344300Y-222688600D01*
X483655700Y-222688600D02*
X483655700Y-227311400D01*
X483655700Y-227311400D02*
X481344300Y-227311400D01*
D11*
%TO.C,R37*%
X397669000Y-283815000D02*
X402331000Y-283815000D01*
X397669000Y-286085000D02*
X397669000Y-283815000D01*
X397669000Y-286085000D02*
X402331000Y-286085000D01*
X402331000Y-286085000D02*
X402331000Y-283815000D01*
D10*
%TO.C,C41*%
X490627000Y-314017000D02*
X494373000Y-314017000D01*
X490627000Y-315983000D02*
X490627000Y-314017000D01*
X494373000Y-314017000D02*
X494373000Y-315983000D01*
X494373000Y-315983000D02*
X490627000Y-315983000D01*
D12*
%TO.C,C95*%
X371344300Y-272715400D02*
X373655700Y-272715400D01*
X371344300Y-277338200D02*
X371344300Y-272715400D01*
X373655700Y-272715400D02*
X373655700Y-277338200D01*
X373655700Y-277338200D02*
X371344300Y-277338200D01*
D11*
%TO.C,R22*%
X377669000Y-283815000D02*
X382331000Y-283815000D01*
X377669000Y-286085000D02*
X377669000Y-283815000D01*
X377669000Y-286085000D02*
X382331000Y-286085000D01*
X382331000Y-286085000D02*
X382331000Y-283815000D01*
%TO.C,R2*%
X517785000Y-283885000D02*
X517785000Y-286115000D01*
X522215000Y-283885000D02*
X517785000Y-283885000D01*
X522215000Y-283885000D02*
X522215000Y-286115000D01*
X522215000Y-286115000D02*
X517785000Y-286115000D01*
D12*
%TO.C,C97*%
X401344300Y-272688600D02*
X403655700Y-272688600D01*
X401344300Y-277311400D02*
X401344300Y-272688600D01*
X403655700Y-272688600D02*
X403655700Y-277311400D01*
X403655700Y-277311400D02*
X401344300Y-277311400D01*
D11*
%TO.C,D78*%
X422450000Y-248450000D02*
X422450000Y-251550000D01*
X422450000Y-251550000D02*
X424550000Y-251550000D01*
X424550000Y-248450000D02*
X422450000Y-248450000D01*
X424550000Y-251550000D02*
X424550000Y-248450000D01*
D12*
%TO.C,XTAL1*%
X405337700Y-261532900D02*
X405642500Y-261532900D01*
X405337700Y-268467100D02*
X405337700Y-261532900D01*
X405337700Y-268467100D02*
X405642500Y-268467100D01*
X405642500Y-261139200D02*
X411357500Y-261139200D01*
X405642500Y-261532900D02*
X405642500Y-261139200D01*
X405642500Y-268860800D02*
X405642500Y-268467100D01*
X411357500Y-261139200D02*
X411357500Y-261532900D01*
X411357500Y-268467100D02*
X411357500Y-268860800D01*
X411357500Y-268860800D02*
X405642500Y-268860800D01*
X411662300Y-261532900D02*
X411357500Y-261532900D01*
X411662300Y-261532900D02*
X411662300Y-268467100D01*
X411662300Y-268467100D02*
X411357500Y-268467100D01*
D11*
%TO.C,R28*%
X505285000Y-296385000D02*
X505285000Y-298615000D01*
X509715000Y-296385000D02*
X505285000Y-296385000D01*
X509715000Y-296385000D02*
X509715000Y-298615000D01*
X509715000Y-298615000D02*
X505285000Y-298615000D01*
D12*
%TO.C,C23*%
X476344300Y-222661800D02*
X478655700Y-222661800D01*
X476344300Y-227284600D02*
X476344300Y-222661800D01*
X478655700Y-222661800D02*
X478655700Y-227284600D01*
X478655700Y-227284600D02*
X476344300Y-227284600D01*
D11*
%TO.C,D80*%
X419950000Y-248450000D02*
X419950000Y-251550000D01*
X419950000Y-251550000D02*
X422050000Y-251550000D01*
X422050000Y-248450000D02*
X419950000Y-248450000D01*
X422050000Y-251550000D02*
X422050000Y-248450000D01*
D12*
%TO.C,C79*%
X502688600Y-211344300D02*
X507311400Y-211344300D01*
X502688600Y-213655700D02*
X502688600Y-211344300D01*
X507311400Y-211344300D02*
X507311400Y-213655700D01*
X507311400Y-213655700D02*
X502688600Y-213655700D01*
%TO.C,C7*%
X513844300Y-222715400D02*
X516155700Y-222715400D01*
X513844300Y-227338200D02*
X513844300Y-222715400D01*
X516155700Y-222715400D02*
X516155700Y-227338200D01*
X516155700Y-227338200D02*
X513844300Y-227338200D01*
D11*
%TO.C,R14*%
X512785000Y-303885000D02*
X512785000Y-306115000D01*
X517215000Y-303885000D02*
X512785000Y-303885000D01*
X517215000Y-303885000D02*
X517215000Y-306115000D01*
X517215000Y-306115000D02*
X512785000Y-306115000D01*
D12*
%TO.C,C77*%
X499161800Y-206344300D02*
X503784600Y-206344300D01*
X499161800Y-208655700D02*
X499161800Y-206344300D01*
X503784600Y-206344300D02*
X503784600Y-208655700D01*
X503784600Y-208655700D02*
X499161800Y-208655700D01*
D11*
%TO.C,D71*%
X432450000Y-248450000D02*
X432450000Y-251550000D01*
X432450000Y-251550000D02*
X434550000Y-251550000D01*
X434550000Y-248450000D02*
X432450000Y-248450000D01*
X434550000Y-251550000D02*
X434550000Y-248450000D01*
%TO.C,D17*%
X487450000Y-248450000D02*
X487450000Y-251550000D01*
X487450000Y-251550000D02*
X489550000Y-251550000D01*
X489550000Y-248450000D02*
X487450000Y-248450000D01*
X489550000Y-251550000D02*
X489550000Y-248450000D01*
%TO.C,D3*%
X502450000Y-248450000D02*
X502450000Y-251550000D01*
X502450000Y-251550000D02*
X504550000Y-251550000D01*
X504550000Y-248450000D02*
X502450000Y-248450000D01*
X504550000Y-251550000D02*
X504550000Y-248450000D01*
D12*
%TO.C,L6*%
X426390400Y-291896000D02*
X428609600Y-291896000D01*
X426390400Y-293004000D02*
X426390400Y-291896000D01*
X428609600Y-291896000D02*
X428609600Y-293004000D01*
X428609600Y-293004000D02*
X426390400Y-293004000D01*
%TO.C,C49*%
X405836300Y-314022900D02*
X409163700Y-314022900D01*
X405836300Y-315877100D02*
X405836300Y-314022900D01*
X409163700Y-314022900D02*
X409163700Y-315877100D01*
X409163700Y-315877100D02*
X405836300Y-315877100D01*
%TO.C,C108*%
X386344300Y-272688600D02*
X388655700Y-272688600D01*
X386344300Y-277311400D02*
X386344300Y-272688600D01*
X388655700Y-272688600D02*
X388655700Y-277311400D01*
X388655700Y-277311400D02*
X386344300Y-277311400D01*
%TO.C,C51*%
X405836300Y-319022900D02*
X409163700Y-319022900D01*
X405836300Y-320877100D02*
X405836300Y-319022900D01*
X409163700Y-319022900D02*
X409163700Y-320877100D01*
X409163700Y-320877100D02*
X405836300Y-320877100D01*
%TO.C,C88*%
X378844300Y-272715400D02*
X381155700Y-272715400D01*
X378844300Y-277338200D02*
X378844300Y-272715400D01*
X381155700Y-272715400D02*
X381155700Y-277338200D01*
X381155700Y-277338200D02*
X378844300Y-277338200D01*
D10*
%TO.C,C74*%
X476517000Y-183127000D02*
X478483000Y-183127000D01*
X476517000Y-186873000D02*
X476517000Y-183127000D01*
X478483000Y-183127000D02*
X478483000Y-186873000D01*
X478483000Y-186873000D02*
X476517000Y-186873000D01*
%TO.C,C120*%
X425627000Y-298967000D02*
X429373000Y-298967000D01*
X425627000Y-300933000D02*
X425627000Y-298967000D01*
X429373000Y-298967000D02*
X429373000Y-300933000D01*
X429373000Y-300933000D02*
X425627000Y-300933000D01*
D12*
%TO.C,L5*%
X471390400Y-291946000D02*
X473609600Y-291946000D01*
X471390400Y-293054000D02*
X471390400Y-291946000D01*
X473609600Y-291946000D02*
X473609600Y-293054000D01*
X473609600Y-293054000D02*
X471390400Y-293054000D01*
%TO.C,C15*%
X493844300Y-222688600D02*
X496155700Y-222688600D01*
X493844300Y-227311400D02*
X493844300Y-222688600D01*
X496155700Y-222688600D02*
X496155700Y-227311400D01*
X496155700Y-227311400D02*
X493844300Y-227311400D01*
D11*
%TO.C,U6*%
X432870000Y-293455000D02*
X432870000Y-296445000D01*
X432870000Y-296445000D02*
X433950000Y-296445000D01*
X433950000Y-293250000D02*
X433950000Y-293455000D01*
X433950000Y-293455000D02*
X432870000Y-293455000D01*
X433950000Y-296445000D02*
X433950000Y-296650000D01*
X433950000Y-296650000D02*
X436050000Y-296650000D01*
X436050000Y-293250000D02*
X433950000Y-293250000D01*
X436050000Y-293455000D02*
X436050000Y-293250000D01*
X436050000Y-296445000D02*
X437130000Y-296445000D01*
X436050000Y-296650000D02*
X436050000Y-296445000D01*
X437130000Y-293455000D02*
X436050000Y-293455000D01*
X437130000Y-296445000D02*
X437130000Y-293455000D01*
D12*
%TO.C,C59*%
X510188600Y-211344300D02*
X514811400Y-211344300D01*
X510188600Y-213655700D02*
X510188600Y-211344300D01*
X514811400Y-211344300D02*
X514811400Y-213655700D01*
X514811400Y-213655700D02*
X510188600Y-213655700D01*
D10*
%TO.C,C40*%
X485627000Y-311017000D02*
X489373000Y-311017000D01*
X485627000Y-312983000D02*
X485627000Y-311017000D01*
X489373000Y-311017000D02*
X489373000Y-312983000D01*
X489373000Y-312983000D02*
X485627000Y-312983000D01*
D11*
%TO.C,U4*%
X445895000Y-200895000D02*
X454105000Y-200895000D01*
X445895000Y-209105000D02*
X445895000Y-200895000D01*
X445895000Y-209105000D02*
X454105000Y-209105000D01*
X454105000Y-209105000D02*
X454105000Y-200895000D01*
D10*
%TO.C,C66*%
X475627000Y-204017000D02*
X479373000Y-204017000D01*
X475627000Y-205983000D02*
X475627000Y-204017000D01*
X479373000Y-204017000D02*
X479373000Y-205983000D01*
X479373000Y-205983000D02*
X475627000Y-205983000D01*
D12*
%TO.C,C112*%
X411344300Y-272688600D02*
X413655700Y-272688600D01*
X411344300Y-277311400D02*
X411344300Y-272688600D01*
X413655700Y-272688600D02*
X413655700Y-277311400D01*
X413655700Y-277311400D02*
X411344300Y-277311400D01*
D11*
%TO.C,D24*%
X469950000Y-248450000D02*
X469950000Y-251550000D01*
X469950000Y-251550000D02*
X472050000Y-251550000D01*
X472050000Y-248450000D02*
X469950000Y-248450000D01*
X472050000Y-251550000D02*
X472050000Y-248450000D01*
D12*
%TO.C,C47*%
X405836300Y-309022900D02*
X409163700Y-309022900D01*
X405836300Y-310877100D02*
X405836300Y-309022900D01*
X409163700Y-309022900D02*
X409163700Y-310877100D01*
X409163700Y-310877100D02*
X405836300Y-310877100D01*
D10*
%TO.C,C61*%
X475627000Y-219017000D02*
X479373000Y-219017000D01*
X475627000Y-220983000D02*
X475627000Y-219017000D01*
X479373000Y-219017000D02*
X479373000Y-220983000D01*
X479373000Y-220983000D02*
X475627000Y-220983000D01*
D12*
%TO.C,C4*%
X511344300Y-222715400D02*
X513655700Y-222715400D01*
X511344300Y-227338200D02*
X511344300Y-222715400D01*
X513655700Y-222715400D02*
X513655700Y-227338200D01*
X513655700Y-227338200D02*
X511344300Y-227338200D01*
D11*
%TO.C,R3*%
X427785000Y-218885000D02*
X427785000Y-221115000D01*
X432215000Y-218885000D02*
X427785000Y-218885000D01*
X432215000Y-218885000D02*
X432215000Y-221115000D01*
X432215000Y-221115000D02*
X427785000Y-221115000D01*
%TO.C,R10*%
X427785000Y-208885000D02*
X427785000Y-211115000D01*
X432215000Y-208885000D02*
X427785000Y-208885000D01*
X432215000Y-208885000D02*
X432215000Y-211115000D01*
X432215000Y-211115000D02*
X427785000Y-211115000D01*
D12*
%TO.C,C110*%
X383844300Y-272715400D02*
X386155700Y-272715400D01*
X383844300Y-277338200D02*
X383844300Y-272715400D01*
X386155700Y-272715400D02*
X386155700Y-277338200D01*
X386155700Y-277338200D02*
X383844300Y-277338200D01*
D10*
%TO.C,C81*%
X496517000Y-183127000D02*
X498483000Y-183127000D01*
X496517000Y-186873000D02*
X496517000Y-183127000D01*
X498483000Y-183127000D02*
X498483000Y-186873000D01*
X498483000Y-186873000D02*
X496517000Y-186873000D01*
D11*
%TO.C,R6*%
X428000000Y-316575000D02*
X428000000Y-318325000D01*
X428000000Y-318325000D02*
X432000000Y-318325000D01*
X432000000Y-316575000D02*
X428000000Y-316575000D01*
X432000000Y-318325000D02*
X432000000Y-316575000D01*
D12*
%TO.C,IC1*%
X484790399Y-231860999D02*
X486146000Y-231860999D01*
X484790399Y-238139001D02*
X484790399Y-231860999D01*
X486146000Y-231860999D02*
X486146000Y-231146000D01*
X486146000Y-238139001D02*
X484790399Y-238139001D01*
X486146000Y-238854000D02*
X486146000Y-238139001D01*
X486860999Y-229790399D02*
X486860999Y-231146000D01*
X486860999Y-231146000D02*
X486146000Y-231146000D01*
X486860999Y-238854000D02*
X486146000Y-238854000D01*
X486860999Y-240209601D02*
X486860999Y-238854000D01*
X493139001Y-229790399D02*
X486860999Y-229790399D01*
X493139001Y-231146000D02*
X493139001Y-229790399D01*
X493139001Y-238854000D02*
X493139001Y-240209601D01*
X493139001Y-240209601D02*
X486860999Y-240209601D01*
X493854000Y-231146000D02*
X493139001Y-231146000D01*
X493854000Y-231860999D02*
X493854000Y-231146000D01*
X493854000Y-238139001D02*
X495209601Y-238139001D01*
X493854000Y-238854000D02*
X493139001Y-238854000D01*
X493854000Y-238854000D02*
X493854000Y-238139001D01*
X495209601Y-231860999D02*
X493854000Y-231860999D01*
X495209601Y-238139001D02*
X495209601Y-231860999D01*
%TO.C,C24*%
X501344300Y-222688600D02*
X503655700Y-222688600D01*
X501344300Y-227311400D02*
X501344300Y-222688600D01*
X503655700Y-222688600D02*
X503655700Y-227311400D01*
X503655700Y-227311400D02*
X501344300Y-227311400D01*
%TO.C,IC5*%
X462290399Y-261860999D02*
X462290399Y-268139001D01*
X462290399Y-268139001D02*
X463646000Y-268139001D01*
X463646000Y-261146000D02*
X463646000Y-261860999D01*
X463646000Y-261146000D02*
X464360999Y-261146000D01*
X463646000Y-261860999D02*
X462290399Y-261860999D01*
X463646000Y-268139001D02*
X463646000Y-268854000D01*
X463646000Y-268854000D02*
X464360999Y-268854000D01*
X464360999Y-259790399D02*
X470639001Y-259790399D01*
X464360999Y-261146000D02*
X464360999Y-259790399D01*
X464360999Y-268854000D02*
X464360999Y-270209601D01*
X464360999Y-270209601D02*
X470639001Y-270209601D01*
X470639001Y-259790399D02*
X470639001Y-261146000D01*
X470639001Y-261146000D02*
X471354000Y-261146000D01*
X470639001Y-268854000D02*
X471354000Y-268854000D01*
X470639001Y-270209601D02*
X470639001Y-268854000D01*
X471354000Y-261146000D02*
X471354000Y-261860999D01*
X471354000Y-261860999D02*
X472709601Y-261860999D01*
X471354000Y-268139001D02*
X471354000Y-268854000D01*
X472709601Y-261860999D02*
X472709601Y-268139001D01*
X472709601Y-268139001D02*
X471354000Y-268139001D01*
%TO.C,C100*%
X396344300Y-272688600D02*
X398655700Y-272688600D01*
X396344300Y-277311400D02*
X396344300Y-272688600D01*
X398655700Y-272688600D02*
X398655700Y-277311400D01*
X398655700Y-277311400D02*
X396344300Y-277311400D01*
%TO.C,C89*%
X436344300Y-272715400D02*
X438655700Y-272715400D01*
X436344300Y-277338200D02*
X436344300Y-272715400D01*
X438655700Y-272715400D02*
X438655700Y-277338200D01*
X438655700Y-277338200D02*
X436344300Y-277338200D01*
D10*
%TO.C,C80*%
X499017000Y-188127000D02*
X500983000Y-188127000D01*
X499017000Y-191873000D02*
X499017000Y-188127000D01*
X500983000Y-188127000D02*
X500983000Y-191873000D01*
X500983000Y-191873000D02*
X499017000Y-191873000D01*
D12*
%TO.C,C109*%
X416344300Y-272715400D02*
X418655700Y-272715400D01*
X416344300Y-277338200D02*
X416344300Y-272715400D01*
X418655700Y-272715400D02*
X418655700Y-277338200D01*
X418655700Y-277338200D02*
X416344300Y-277338200D01*
D11*
%TO.C,D67*%
X407450000Y-248450000D02*
X407450000Y-251550000D01*
X407450000Y-251550000D02*
X409550000Y-251550000D01*
X409550000Y-248450000D02*
X407450000Y-248450000D01*
X409550000Y-251550000D02*
X409550000Y-248450000D01*
%TO.C,C69*%
X448250000Y-189000000D02*
X451750000Y-189000000D01*
X448250000Y-191000000D02*
X448250000Y-189000000D01*
X451750000Y-189000000D02*
X451750000Y-191000000D01*
X451750000Y-191000000D02*
X448250000Y-191000000D01*
%TO.C,E1*%
X505150000Y-303950000D02*
X509850000Y-303950000D01*
X505150000Y-306050000D02*
X505150000Y-303950000D01*
X509850000Y-303950000D02*
X509850000Y-306050000D01*
X509850000Y-306050000D02*
X505150000Y-306050000D01*
D12*
%TO.C,IC6*%
X514790399Y-261860999D02*
X514790399Y-268139001D01*
X514790399Y-268139001D02*
X516146000Y-268139001D01*
X516146000Y-261146000D02*
X516146000Y-261860999D01*
X516146000Y-261146000D02*
X516860999Y-261146000D01*
X516146000Y-261860999D02*
X514790399Y-261860999D01*
X516146000Y-268139001D02*
X516146000Y-268854000D01*
X516146000Y-268854000D02*
X516860999Y-268854000D01*
X516860999Y-259790399D02*
X523139001Y-259790399D01*
X516860999Y-261146000D02*
X516860999Y-259790399D01*
X516860999Y-268854000D02*
X516860999Y-270209601D01*
X516860999Y-270209601D02*
X523139001Y-270209601D01*
X523139001Y-259790399D02*
X523139001Y-261146000D01*
X523139001Y-261146000D02*
X523854000Y-261146000D01*
X523139001Y-268854000D02*
X523854000Y-268854000D01*
X523139001Y-270209601D02*
X523139001Y-268854000D01*
X523854000Y-261146000D02*
X523854000Y-261860999D01*
X523854000Y-261860999D02*
X525209601Y-261860999D01*
X523854000Y-268139001D02*
X523854000Y-268854000D01*
X525209601Y-261860999D02*
X525209601Y-268139001D01*
X525209601Y-268139001D02*
X523854000Y-268139001D01*
%TO.C,C82*%
X497688600Y-216344300D02*
X502311400Y-216344300D01*
X497688600Y-218655700D02*
X497688600Y-216344300D01*
X502311400Y-216344300D02*
X502311400Y-218655700D01*
X502311400Y-218655700D02*
X497688600Y-218655700D01*
D10*
%TO.C,C70*%
X415627000Y-194017000D02*
X419373000Y-194017000D01*
X415627000Y-195983000D02*
X415627000Y-194017000D01*
X419373000Y-194017000D02*
X419373000Y-195983000D01*
X419373000Y-195983000D02*
X415627000Y-195983000D01*
D11*
%TO.C,R8*%
X433865000Y-192325000D02*
X433865000Y-187663000D01*
X436135000Y-187663000D02*
X433865000Y-187663000D01*
X436135000Y-192325000D02*
X433865000Y-192325000D01*
X436135000Y-192325000D02*
X436135000Y-187663000D01*
D12*
%TO.C,C10*%
X516344300Y-222688600D02*
X518655700Y-222688600D01*
X516344300Y-227311400D02*
X516344300Y-222688600D01*
X518655700Y-222688600D02*
X518655700Y-227311400D01*
X518655700Y-227311400D02*
X516344300Y-227311400D01*
%TO.C,C75*%
X482661800Y-213844300D02*
X487284600Y-213844300D01*
X482661800Y-216155700D02*
X482661800Y-213844300D01*
X487284600Y-213844300D02*
X487284600Y-216155700D01*
X487284600Y-216155700D02*
X482661800Y-216155700D01*
D11*
%TO.C,D2*%
X474950000Y-248450000D02*
X474950000Y-251550000D01*
X474950000Y-251550000D02*
X477050000Y-251550000D01*
X477050000Y-248450000D02*
X474950000Y-248450000D01*
X477050000Y-251550000D02*
X477050000Y-248450000D01*
%TO.C,D68*%
X434950000Y-248450000D02*
X434950000Y-251550000D01*
X434950000Y-251550000D02*
X437050000Y-251550000D01*
X437050000Y-248450000D02*
X434950000Y-248450000D01*
X437050000Y-251550000D02*
X437050000Y-248450000D01*
%TO.C,R4*%
X427785000Y-198885000D02*
X432215000Y-198885000D01*
X427785000Y-201115000D02*
X427785000Y-198885000D01*
X427785000Y-201115000D02*
X432215000Y-201115000D01*
X432215000Y-201115000D02*
X432215000Y-198885000D01*
%TO.C,D4*%
X452450000Y-248450000D02*
X452450000Y-251550000D01*
X452450000Y-251550000D02*
X454550000Y-251550000D01*
X454550000Y-248450000D02*
X452450000Y-248450000D01*
X454550000Y-251550000D02*
X454550000Y-248450000D01*
%TO.C,D9*%
X507450000Y-248450000D02*
X507450000Y-251550000D01*
X507450000Y-251550000D02*
X509550000Y-251550000D01*
X509550000Y-248450000D02*
X507450000Y-248450000D01*
X509550000Y-251550000D02*
X509550000Y-248450000D01*
D10*
%TO.C,C58*%
X480627000Y-318517000D02*
X484373000Y-318517000D01*
X480627000Y-320483000D02*
X480627000Y-318517000D01*
X484373000Y-318517000D02*
X484373000Y-320483000D01*
X484373000Y-320483000D02*
X480627000Y-320483000D01*
D11*
%TO.C,R29*%
X517785000Y-291385000D02*
X517785000Y-293615000D01*
X522215000Y-291385000D02*
X517785000Y-291385000D01*
X522215000Y-291385000D02*
X522215000Y-293615000D01*
X522215000Y-293615000D02*
X517785000Y-293615000D01*
%TO.C,D11*%
X482450000Y-248450000D02*
X482450000Y-251550000D01*
X482450000Y-251550000D02*
X484550000Y-251550000D01*
X484550000Y-248450000D02*
X482450000Y-248450000D01*
X484550000Y-251550000D02*
X484550000Y-248450000D01*
D12*
%TO.C,C101*%
X426344300Y-272715400D02*
X428655700Y-272715400D01*
X426344300Y-277338200D02*
X426344300Y-272715400D01*
X428655700Y-272715400D02*
X428655700Y-277338200D01*
X428655700Y-277338200D02*
X426344300Y-277338200D01*
D11*
%TO.C,R19*%
X420285000Y-203885000D02*
X424715000Y-203885000D01*
X420285000Y-206115000D02*
X420285000Y-203885000D01*
X420285000Y-206115000D02*
X424715000Y-206115000D01*
X424715000Y-206115000D02*
X424715000Y-203885000D01*
%TO.C,C119*%
X394000000Y-308200000D02*
X396000000Y-308200000D01*
X394000000Y-311700000D02*
X394000000Y-308200000D01*
X396000000Y-308200000D02*
X396000000Y-311700000D01*
X396000000Y-311700000D02*
X394000000Y-311700000D01*
%TO.C,R20*%
X420285000Y-218885000D02*
X424715000Y-218885000D01*
X420285000Y-221115000D02*
X420285000Y-218885000D01*
X420285000Y-221115000D02*
X424715000Y-221115000D01*
X424715000Y-221115000D02*
X424715000Y-218885000D01*
%TO.C,J3*%
X385834063Y-205992823D02*
X392754935Y-196808515D01*
X388717384Y-211139384D02*
X390146694Y-209242624D01*
X390146694Y-209242624D02*
X385834063Y-205992823D01*
X392754935Y-196808515D02*
X397067567Y-200058316D01*
X397067567Y-200058316D02*
X397970290Y-198860363D01*
X397970290Y-198860363D02*
X411786684Y-209271762D01*
X402533777Y-221550784D02*
X388717384Y-211139384D01*
X411786684Y-209271762D02*
X402533777Y-221550784D01*
D12*
%TO.C,C13*%
X518844300Y-222688600D02*
X521155700Y-222688600D01*
X518844300Y-227311400D02*
X518844300Y-222688600D01*
X521155700Y-222688600D02*
X521155700Y-227311400D01*
X521155700Y-227311400D02*
X518844300Y-227311400D01*
%TO.C,C115*%
X481344300Y-322188600D02*
X483655700Y-322188600D01*
X481344300Y-326811400D02*
X481344300Y-322188600D01*
X483655700Y-322188600D02*
X483655700Y-326811400D01*
X483655700Y-326811400D02*
X481344300Y-326811400D01*
D11*
%TO.C,D31*%
X419965000Y-306350000D02*
X425035000Y-306350000D01*
X419965000Y-308550000D02*
X419965000Y-306350000D01*
X425035000Y-306350000D02*
X425035000Y-308550000D01*
X425035000Y-308550000D02*
X419965000Y-308550000D01*
D12*
%TO.C,C107*%
X418844300Y-272715400D02*
X421155700Y-272715400D01*
X418844300Y-277338200D02*
X418844300Y-272715400D01*
X421155700Y-272715400D02*
X421155700Y-277338200D01*
X421155700Y-277338200D02*
X418844300Y-277338200D01*
%TO.C,C37*%
X482661800Y-206344300D02*
X487284600Y-206344300D01*
X482661800Y-208655700D02*
X482661800Y-206344300D01*
X487284600Y-206344300D02*
X487284600Y-208655700D01*
X487284600Y-208655700D02*
X482661800Y-208655700D01*
D11*
%TO.C,D63*%
X379950000Y-248450000D02*
X379950000Y-251550000D01*
X379950000Y-251550000D02*
X382050000Y-251550000D01*
X382050000Y-248450000D02*
X379950000Y-248450000D01*
X382050000Y-251550000D02*
X382050000Y-248450000D01*
%TO.C,R27*%
X512785000Y-298885000D02*
X512785000Y-301115000D01*
X517215000Y-298885000D02*
X512785000Y-298885000D01*
X517215000Y-298885000D02*
X517215000Y-301115000D01*
X517215000Y-301115000D02*
X512785000Y-301115000D01*
%TO.C,R47*%
X403865000Y-292281000D02*
X403865000Y-287619000D01*
X406135000Y-287619000D02*
X403865000Y-287619000D01*
X406135000Y-292281000D02*
X403865000Y-292281000D01*
X406135000Y-292281000D02*
X406135000Y-287619000D01*
D10*
%TO.C,C72*%
X490627000Y-214017000D02*
X494373000Y-214017000D01*
X490627000Y-215983000D02*
X490627000Y-214017000D01*
X494373000Y-214017000D02*
X494373000Y-215983000D01*
X494373000Y-215983000D02*
X490627000Y-215983000D01*
%TO.C,C117*%
X399017000Y-308077000D02*
X400983000Y-308077000D01*
X399017000Y-311823000D02*
X399017000Y-308077000D01*
X400983000Y-308077000D02*
X400983000Y-311823000D01*
X400983000Y-311823000D02*
X399017000Y-311823000D01*
%TO.C,C116*%
X415627000Y-313967000D02*
X419373000Y-313967000D01*
X415627000Y-315933000D02*
X415627000Y-313967000D01*
X419373000Y-313967000D02*
X419373000Y-315933000D01*
X419373000Y-315933000D02*
X415627000Y-315933000D01*
D11*
%TO.C,D21*%
X517450000Y-248450000D02*
X517450000Y-251550000D01*
X517450000Y-251550000D02*
X519550000Y-251550000D01*
X519550000Y-248450000D02*
X517450000Y-248450000D01*
X519550000Y-251550000D02*
X519550000Y-248450000D01*
D12*
%TO.C,C92*%
X433844300Y-272688600D02*
X436155700Y-272688600D01*
X433844300Y-277311400D02*
X433844300Y-272688600D01*
X436155700Y-272688600D02*
X436155700Y-277311400D01*
X436155700Y-277311400D02*
X433844300Y-277311400D01*
D11*
%TO.C,De1*%
X449950000Y-248450000D02*
X449950000Y-251550000D01*
X449950000Y-251550000D02*
X452050000Y-251550000D01*
X452050000Y-248450000D02*
X449950000Y-248450000D01*
X452050000Y-251550000D02*
X452050000Y-248450000D01*
%TO.C,R26*%
X498885000Y-197785000D02*
X498885000Y-202215000D01*
X498885000Y-197785000D02*
X501115000Y-197785000D01*
X498885000Y-202215000D02*
X501115000Y-202215000D01*
X501115000Y-197785000D02*
X501115000Y-202215000D01*
D12*
%TO.C,C20*%
X473844300Y-222661800D02*
X476155700Y-222661800D01*
X473844300Y-227284600D02*
X473844300Y-222661800D01*
X476155700Y-222661800D02*
X476155700Y-227284600D01*
X476155700Y-227284600D02*
X473844300Y-227284600D01*
D10*
%TO.C,C84*%
X419017000Y-288077000D02*
X420983000Y-288077000D01*
X419017000Y-291823000D02*
X419017000Y-288077000D01*
X420983000Y-288077000D02*
X420983000Y-291823000D01*
X420983000Y-291823000D02*
X419017000Y-291823000D01*
D11*
%TO.C,J1*%
X426050000Y-323487500D02*
X438950000Y-323487500D01*
X426050000Y-331917500D02*
X426050000Y-323487500D01*
X438950000Y-323487500D02*
X438950000Y-331917500D01*
X438950000Y-331917500D02*
X426050000Y-331917500D01*
%TO.C,D30*%
X476400000Y-312465000D02*
X478600000Y-312465000D01*
X476400000Y-317535000D02*
X476400000Y-312465000D01*
X478600000Y-312465000D02*
X478600000Y-317535000D01*
X478600000Y-317535000D02*
X476400000Y-317535000D01*
%TO.C,U8*%
X445340000Y-277110000D02*
X445340000Y-282890000D01*
X445340000Y-277110000D02*
X454660000Y-277110000D01*
X445340000Y-282890000D02*
X454660000Y-282890000D01*
X454660000Y-277110000D02*
X454660000Y-282890000D01*
D12*
%TO.C,C73*%
X506161800Y-216344300D02*
X510784600Y-216344300D01*
X506161800Y-218655700D02*
X506161800Y-216344300D01*
X510784600Y-216344300D02*
X510784600Y-218655700D01*
X510784600Y-218655700D02*
X506161800Y-218655700D01*
%TO.C,C46*%
X498390400Y-314121000D02*
X501609600Y-314121000D01*
X498390400Y-315879000D02*
X498390400Y-314121000D01*
X501609600Y-314121000D02*
X501609600Y-315879000D01*
X501609600Y-315879000D02*
X498390400Y-315879000D01*
D11*
%TO.C,U7*%
X462870000Y-293505000D02*
X462870000Y-296495000D01*
X462870000Y-296495000D02*
X463950000Y-296495000D01*
X463950000Y-293300000D02*
X463950000Y-293505000D01*
X463950000Y-293505000D02*
X462870000Y-293505000D01*
X463950000Y-296495000D02*
X463950000Y-296700000D01*
X463950000Y-296700000D02*
X466050000Y-296700000D01*
X466050000Y-293300000D02*
X463950000Y-293300000D01*
X466050000Y-293505000D02*
X466050000Y-293300000D01*
X466050000Y-296495000D02*
X467130000Y-296495000D01*
X466050000Y-296700000D02*
X466050000Y-296495000D01*
X467130000Y-293505000D02*
X466050000Y-293505000D01*
X467130000Y-296495000D02*
X467130000Y-293505000D01*
%TO.C,D29*%
X474965000Y-306400000D02*
X480035000Y-306400000D01*
X474965000Y-308600000D02*
X474965000Y-306400000D01*
X480035000Y-306400000D02*
X480035000Y-308600000D01*
X480035000Y-308600000D02*
X474965000Y-308600000D01*
D12*
%TO.C,C22*%
X526344300Y-222688600D02*
X528655700Y-222688600D01*
X526344300Y-227311400D02*
X526344300Y-222688600D01*
X528655700Y-222688600D02*
X528655700Y-227311400D01*
X528655700Y-227311400D02*
X526344300Y-227311400D01*
D10*
%TO.C,C54*%
X485627000Y-321017000D02*
X489373000Y-321017000D01*
X485627000Y-322983000D02*
X485627000Y-321017000D01*
X489373000Y-321017000D02*
X489373000Y-322983000D01*
X489373000Y-322983000D02*
X485627000Y-322983000D01*
D12*
%TO.C,C1*%
X508844300Y-222688600D02*
X511155700Y-222688600D01*
X508844300Y-227311400D02*
X508844300Y-222688600D01*
X511155700Y-222688600D02*
X511155700Y-227311400D01*
X511155700Y-227311400D02*
X508844300Y-227311400D01*
%TO.C,SW2*%
X459746000Y-176748800D02*
X459746000Y-183251200D01*
X459746000Y-183251200D02*
X470254000Y-183251200D01*
X470254000Y-176748800D02*
X459746000Y-176748800D01*
X470254000Y-183251200D02*
X470254000Y-176748800D01*
D11*
%TO.C,R5*%
X463865000Y-192331000D02*
X463865000Y-187669000D01*
X466135000Y-187669000D02*
X463865000Y-187669000D01*
X466135000Y-192331000D02*
X463865000Y-192331000D01*
X466135000Y-192331000D02*
X466135000Y-187669000D01*
D12*
%TO.C,L3*%
X483345200Y-293345200D02*
X496654800Y-293345200D01*
X483345200Y-297040900D02*
X483345200Y-293345200D01*
X483345200Y-297040900D02*
X483345200Y-297040900D01*
X483345200Y-302959100D02*
X483345200Y-297040900D01*
X483345200Y-302959100D02*
X483345200Y-302959100D01*
X483345200Y-306654800D02*
X483345200Y-302959100D01*
X496654800Y-293345200D02*
X496654800Y-297040900D01*
X496654800Y-297040900D02*
X496654800Y-297040900D01*
X496654800Y-297040900D02*
X496654800Y-302959100D01*
X496654800Y-302959100D02*
X496654800Y-302959100D01*
X496654800Y-302959100D02*
X496654800Y-306654800D01*
X496654800Y-306654800D02*
X483345200Y-306654800D01*
D11*
%TO.C,D1*%
X499950000Y-248450000D02*
X499950000Y-251550000D01*
X499950000Y-251550000D02*
X502050000Y-251550000D01*
X502050000Y-248450000D02*
X499950000Y-248450000D01*
X502050000Y-251550000D02*
X502050000Y-248450000D01*
%TO.C,R45*%
X468000000Y-316625000D02*
X468000000Y-318375000D01*
X468000000Y-318375000D02*
X472000000Y-318375000D01*
X472000000Y-316625000D02*
X468000000Y-316625000D01*
X472000000Y-318375000D02*
X472000000Y-316625000D01*
%TO.C,D81*%
X389950000Y-248450000D02*
X389950000Y-251550000D01*
X389950000Y-251550000D02*
X392050000Y-251550000D01*
X392050000Y-248450000D02*
X389950000Y-248450000D01*
X392050000Y-251550000D02*
X392050000Y-248450000D01*
D12*
%TO.C,IC7*%
X489790399Y-261860999D02*
X489790399Y-268139001D01*
X489790399Y-268139001D02*
X491146000Y-268139001D01*
X491146000Y-261146000D02*
X491146000Y-261860999D01*
X491146000Y-261146000D02*
X491860999Y-261146000D01*
X491146000Y-261860999D02*
X489790399Y-261860999D01*
X491146000Y-268139001D02*
X491146000Y-268854000D01*
X491146000Y-268854000D02*
X491860999Y-268854000D01*
X491860999Y-259790399D02*
X498139001Y-259790399D01*
X491860999Y-261146000D02*
X491860999Y-259790399D01*
X491860999Y-268854000D02*
X491860999Y-270209601D01*
X491860999Y-270209601D02*
X498139001Y-270209601D01*
X498139001Y-259790399D02*
X498139001Y-261146000D01*
X498139001Y-261146000D02*
X498854000Y-261146000D01*
X498139001Y-268854000D02*
X498854000Y-268854000D01*
X498139001Y-270209601D02*
X498139001Y-268854000D01*
X498854000Y-261146000D02*
X498854000Y-261860999D01*
X498854000Y-261860999D02*
X500209601Y-261860999D01*
X498854000Y-268139001D02*
X498854000Y-268854000D01*
X500209601Y-261860999D02*
X500209601Y-268139001D01*
X500209601Y-268139001D02*
X498854000Y-268139001D01*
D11*
%TO.C,R11*%
X483885000Y-197785000D02*
X483885000Y-202215000D01*
X483885000Y-197785000D02*
X486115000Y-197785000D01*
X483885000Y-202215000D02*
X486115000Y-202215000D01*
X486115000Y-197785000D02*
X486115000Y-202215000D01*
D10*
%TO.C,C53*%
X490627000Y-319017000D02*
X494373000Y-319017000D01*
X490627000Y-320983000D02*
X490627000Y-319017000D01*
X494373000Y-319017000D02*
X494373000Y-320983000D01*
X494373000Y-320983000D02*
X490627000Y-320983000D01*
D11*
%TO.C,D20*%
X489950000Y-248450000D02*
X489950000Y-251550000D01*
X489950000Y-251550000D02*
X492050000Y-251550000D01*
X492050000Y-248450000D02*
X489950000Y-248450000D01*
X492050000Y-251550000D02*
X492050000Y-248450000D01*
D10*
%TO.C,C114*%
X448127000Y-329017000D02*
X451873000Y-329017000D01*
X448127000Y-330983000D02*
X448127000Y-329017000D01*
X451873000Y-329017000D02*
X451873000Y-330983000D01*
X451873000Y-330983000D02*
X448127000Y-330983000D01*
D11*
%TO.C,C123*%
X398250000Y-317950000D02*
X401750000Y-317950000D01*
X398250000Y-319950000D02*
X398250000Y-317950000D01*
X401750000Y-317950000D02*
X401750000Y-319950000D01*
X401750000Y-319950000D02*
X398250000Y-319950000D01*
D12*
%TO.C,C50*%
X410836300Y-321522900D02*
X414163700Y-321522900D01*
X410836300Y-323377100D02*
X410836300Y-321522900D01*
X414163700Y-321522900D02*
X414163700Y-323377100D01*
X414163700Y-323377100D02*
X410836300Y-323377100D01*
D11*
%TO.C,J2*%
X461050000Y-323537500D02*
X473950000Y-323537500D01*
X461050000Y-331967500D02*
X461050000Y-323537500D01*
X473950000Y-323537500D02*
X473950000Y-331967500D01*
X473950000Y-331967500D02*
X461050000Y-331967500D01*
%TO.C,D8*%
X479950000Y-248450000D02*
X479950000Y-251550000D01*
X479950000Y-251550000D02*
X482050000Y-251550000D01*
X482050000Y-248450000D02*
X479950000Y-248450000D01*
X482050000Y-251550000D02*
X482050000Y-248450000D01*
%TO.C,R21*%
X420285000Y-211385000D02*
X424715000Y-211385000D01*
X420285000Y-213615000D02*
X420285000Y-211385000D01*
X420285000Y-213615000D02*
X424715000Y-213615000D01*
X424715000Y-213615000D02*
X424715000Y-211385000D01*
D12*
%TO.C,IC3*%
X399790399Y-231860999D02*
X401146000Y-231860999D01*
X399790399Y-238139001D02*
X399790399Y-231860999D01*
X401146000Y-231860999D02*
X401146000Y-231146000D01*
X401146000Y-238139001D02*
X399790399Y-238139001D01*
X401146000Y-238854000D02*
X401146000Y-238139001D01*
X401860999Y-229790399D02*
X401860999Y-231146000D01*
X401860999Y-231146000D02*
X401146000Y-231146000D01*
X401860999Y-238854000D02*
X401146000Y-238854000D01*
X401860999Y-240209601D02*
X401860999Y-238854000D01*
X408139001Y-229790399D02*
X401860999Y-229790399D01*
X408139001Y-231146000D02*
X408139001Y-229790399D01*
X408139001Y-238854000D02*
X408139001Y-240209601D01*
X408139001Y-240209601D02*
X401860999Y-240209601D01*
X408854000Y-231146000D02*
X408139001Y-231146000D01*
X408854000Y-231860999D02*
X408854000Y-231146000D01*
X408854000Y-238139001D02*
X410209601Y-238139001D01*
X408854000Y-238854000D02*
X408139001Y-238854000D01*
X408854000Y-238854000D02*
X408854000Y-238139001D01*
X410209601Y-231860999D02*
X408854000Y-231860999D01*
X410209601Y-238139001D02*
X410209601Y-231860999D01*
D10*
%TO.C,C62*%
X475627000Y-211517000D02*
X479373000Y-211517000D01*
X475627000Y-213483000D02*
X475627000Y-211517000D01*
X479373000Y-211517000D02*
X479373000Y-213483000D01*
X479373000Y-213483000D02*
X475627000Y-213483000D01*
D11*
%TO.C,D58*%
X384950000Y-248450000D02*
X384950000Y-251550000D01*
X384950000Y-251550000D02*
X387050000Y-251550000D01*
X387050000Y-248450000D02*
X384950000Y-248450000D01*
X387050000Y-251550000D02*
X387050000Y-248450000D01*
%TO.C,D75*%
X427450000Y-248450000D02*
X427450000Y-251550000D01*
X427450000Y-251550000D02*
X429550000Y-251550000D01*
X429550000Y-248450000D02*
X427450000Y-248450000D01*
X429550000Y-251550000D02*
X429550000Y-248450000D01*
%TO.C,D18*%
X514950000Y-248450000D02*
X514950000Y-251550000D01*
X514950000Y-251550000D02*
X517050000Y-251550000D01*
X517050000Y-248450000D02*
X514950000Y-248450000D01*
X517050000Y-251550000D02*
X517050000Y-248450000D01*
%TO.C,D57*%
X444950000Y-248450000D02*
X444950000Y-251550000D01*
X444950000Y-251550000D02*
X447050000Y-251550000D01*
X447050000Y-248450000D02*
X444950000Y-248450000D01*
X447050000Y-251550000D02*
X447050000Y-248450000D01*
D12*
%TO.C,C93*%
X373844300Y-272715400D02*
X376155700Y-272715400D01*
X373844300Y-277338200D02*
X373844300Y-272715400D01*
X376155700Y-272715400D02*
X376155700Y-277338200D01*
X376155700Y-277338200D02*
X373844300Y-277338200D01*
D11*
%TO.C,D26*%
X472450000Y-248450000D02*
X472450000Y-251550000D01*
X472450000Y-251550000D02*
X474550000Y-251550000D01*
X474550000Y-248450000D02*
X472450000Y-248450000D01*
X474550000Y-251550000D02*
X474550000Y-248450000D01*
D12*
%TO.C,C104*%
X391344300Y-272715400D02*
X393655700Y-272715400D01*
X391344300Y-277338200D02*
X391344300Y-272715400D01*
X393655700Y-272715400D02*
X393655700Y-277338200D01*
X393655700Y-277338200D02*
X391344300Y-277338200D01*
D11*
%TO.C,R15*%
X493885000Y-292235000D02*
X493885000Y-287805000D01*
X496115000Y-287805000D02*
X493885000Y-287805000D01*
X496115000Y-292235000D02*
X493885000Y-292235000D01*
X496115000Y-292235000D02*
X496115000Y-287805000D01*
%TO.C,R31*%
X478885000Y-292195000D02*
X478885000Y-287765000D01*
X481115000Y-287765000D02*
X478885000Y-287765000D01*
X481115000Y-292195000D02*
X478885000Y-292195000D01*
X481115000Y-292195000D02*
X481115000Y-287765000D01*
%TO.C,C124*%
X448250000Y-306500000D02*
X451750000Y-306500000D01*
X448250000Y-308500000D02*
X448250000Y-306500000D01*
X451750000Y-306500000D02*
X451750000Y-308500000D01*
X451750000Y-308500000D02*
X448250000Y-308500000D01*
%TO.C,D64*%
X439950000Y-248450000D02*
X439950000Y-251550000D01*
X439950000Y-251550000D02*
X442050000Y-251550000D01*
X442050000Y-248450000D02*
X439950000Y-248450000D01*
X442050000Y-251550000D02*
X442050000Y-248450000D01*
%TO.C,R42*%
X377669000Y-291315000D02*
X377669000Y-293585000D01*
X382331000Y-291315000D02*
X377669000Y-291315000D01*
X382331000Y-291315000D02*
X382331000Y-293585000D01*
X382331000Y-293585000D02*
X377669000Y-293585000D01*
D12*
%TO.C,C86*%
X438844300Y-272688600D02*
X441155700Y-272688600D01*
X438844300Y-277311400D02*
X438844300Y-272688600D01*
X441155700Y-272688600D02*
X441155700Y-277311400D01*
X441155700Y-277311400D02*
X438844300Y-277311400D01*
D11*
%TO.C,U9*%
X447890000Y-320787500D02*
X447890000Y-324212500D01*
X447890000Y-324212500D02*
X452110000Y-324212500D01*
X452110000Y-320787500D02*
X447890000Y-320787500D01*
X452110000Y-324212500D02*
X452110000Y-320787500D01*
%TO.C,D60*%
X442450000Y-248450000D02*
X442450000Y-251550000D01*
X442450000Y-251550000D02*
X444550000Y-251550000D01*
X444550000Y-248450000D02*
X442450000Y-248450000D01*
X444550000Y-251550000D02*
X444550000Y-248450000D01*
D12*
%TO.C,SW5*%
X429746000Y-306698800D02*
X429746000Y-313201200D01*
X429746000Y-313201200D02*
X440254000Y-313201200D01*
X440254000Y-306698800D02*
X429746000Y-306698800D01*
X440254000Y-313201200D02*
X440254000Y-306698800D01*
D11*
%TO.C,D23*%
X492450000Y-248450000D02*
X492450000Y-251550000D01*
X492450000Y-251550000D02*
X494550000Y-251550000D01*
X494550000Y-248450000D02*
X492450000Y-248450000D01*
X494550000Y-251550000D02*
X494550000Y-248450000D01*
D12*
%TO.C,IC2*%
X427290399Y-231860999D02*
X428646000Y-231860999D01*
X427290399Y-238139001D02*
X427290399Y-231860999D01*
X428646000Y-231860999D02*
X428646000Y-231146000D01*
X428646000Y-238139001D02*
X427290399Y-238139001D01*
X428646000Y-238854000D02*
X428646000Y-238139001D01*
X429360999Y-229790399D02*
X429360999Y-231146000D01*
X429360999Y-231146000D02*
X428646000Y-231146000D01*
X429360999Y-238854000D02*
X428646000Y-238854000D01*
X429360999Y-240209601D02*
X429360999Y-238854000D01*
X435639001Y-229790399D02*
X429360999Y-229790399D01*
X435639001Y-231146000D02*
X435639001Y-229790399D01*
X435639001Y-238854000D02*
X435639001Y-240209601D01*
X435639001Y-240209601D02*
X429360999Y-240209601D01*
X436354000Y-231146000D02*
X435639001Y-231146000D01*
X436354000Y-231860999D02*
X436354000Y-231146000D01*
X436354000Y-238139001D02*
X437709601Y-238139001D01*
X436354000Y-238854000D02*
X435639001Y-238854000D01*
X436354000Y-238854000D02*
X436354000Y-238139001D01*
X437709601Y-231860999D02*
X436354000Y-231860999D01*
X437709601Y-238139001D02*
X437709601Y-231860999D01*
D11*
%TO.C,C68*%
X390750000Y-303950000D02*
X394250000Y-303950000D01*
X390750000Y-305950000D02*
X390750000Y-303950000D01*
X394250000Y-303950000D02*
X394250000Y-305950000D01*
X394250000Y-305950000D02*
X390750000Y-305950000D01*
%TO.C,R46*%
X388865000Y-312281000D02*
X388865000Y-307619000D01*
X391135000Y-307619000D02*
X388865000Y-307619000D01*
X391135000Y-312281000D02*
X388865000Y-312281000D01*
X391135000Y-312281000D02*
X391135000Y-307619000D01*
D10*
%TO.C,C118*%
X415627000Y-318967000D02*
X419373000Y-318967000D01*
X415627000Y-320933000D02*
X415627000Y-318967000D01*
X419373000Y-318967000D02*
X419373000Y-320933000D01*
X419373000Y-320933000D02*
X415627000Y-320933000D01*
D11*
%TO.C,D65*%
X409950000Y-248450000D02*
X409950000Y-251550000D01*
X409950000Y-251550000D02*
X412050000Y-251550000D01*
X412050000Y-248450000D02*
X409950000Y-248450000D01*
X412050000Y-251550000D02*
X412050000Y-248450000D01*
D12*
%TO.C,C25*%
X478844300Y-222661800D02*
X481155700Y-222661800D01*
X478844300Y-227284600D02*
X478844300Y-222661800D01*
X481155700Y-222661800D02*
X481155700Y-227284600D01*
X481155700Y-227284600D02*
X478844300Y-227284600D01*
D11*
%TO.C,D16*%
X462450000Y-248450000D02*
X462450000Y-251550000D01*
X462450000Y-251550000D02*
X464550000Y-251550000D01*
X464550000Y-248450000D02*
X462450000Y-248450000D01*
X464550000Y-251550000D02*
X464550000Y-248450000D01*
%TO.C,D19*%
X464950000Y-248450000D02*
X464950000Y-251550000D01*
X464950000Y-251550000D02*
X467050000Y-251550000D01*
X467050000Y-248450000D02*
X464950000Y-248450000D01*
X467050000Y-251550000D02*
X467050000Y-248450000D01*
%TO.C,D70*%
X402450000Y-248450000D02*
X402450000Y-251550000D01*
X402450000Y-251550000D02*
X404550000Y-251550000D01*
X404550000Y-248450000D02*
X402450000Y-248450000D01*
X404550000Y-251550000D02*
X404550000Y-248450000D01*
D12*
%TO.C,SW4*%
X459746000Y-306748800D02*
X459746000Y-313251200D01*
X459746000Y-313251200D02*
X470254000Y-313251200D01*
X470254000Y-306748800D02*
X459746000Y-306748800D01*
X470254000Y-313251200D02*
X470254000Y-306748800D01*
%TO.C,C91*%
X406344300Y-272688600D02*
X408655700Y-272688600D01*
X406344300Y-277311400D02*
X406344300Y-272688600D01*
X408655700Y-272688600D02*
X408655700Y-277311400D01*
X408655700Y-277311400D02*
X406344300Y-277311400D01*
%TO.C,C17*%
X471344300Y-222661800D02*
X473655700Y-222661800D01*
X471344300Y-227284600D02*
X471344300Y-222661800D01*
X473655700Y-222661800D02*
X473655700Y-227284600D01*
X473655700Y-227284600D02*
X471344300Y-227284600D01*
%TO.C,C105*%
X421344300Y-272688600D02*
X423655700Y-272688600D01*
X421344300Y-277311400D02*
X421344300Y-272688600D01*
X423655700Y-272688600D02*
X423655700Y-277311400D01*
X423655700Y-277311400D02*
X421344300Y-277311400D01*
D11*
%TO.C,D12*%
X509950000Y-248450000D02*
X509950000Y-251550000D01*
X509950000Y-251550000D02*
X512050000Y-251550000D01*
X512050000Y-248450000D02*
X509950000Y-248450000D01*
X512050000Y-251550000D02*
X512050000Y-248450000D01*
D12*
%TO.C,C19*%
X523844300Y-222688600D02*
X526155700Y-222688600D01*
X523844300Y-227311400D02*
X523844300Y-222688600D01*
X526155700Y-222688600D02*
X526155700Y-227311400D01*
X526155700Y-227311400D02*
X523844300Y-227311400D01*
%TO.C,C96*%
X431344300Y-272688600D02*
X433655700Y-272688600D01*
X431344300Y-277311400D02*
X431344300Y-272688600D01*
X433655700Y-272688600D02*
X433655700Y-277311400D01*
X433655700Y-277311400D02*
X431344300Y-277311400D01*
D11*
%TO.C,R40*%
X409035000Y-284381000D02*
X410965000Y-284381000D01*
X409035000Y-285519000D02*
X409035000Y-284381000D01*
X409035000Y-285519000D02*
X410965000Y-285519000D01*
X410965000Y-285519000D02*
X410965000Y-284381000D01*
%TO.C,R23*%
X373865000Y-257669000D02*
X373865000Y-262331000D01*
X373865000Y-257669000D02*
X376135000Y-257669000D01*
X373865000Y-262331000D02*
X376135000Y-262331000D01*
X376135000Y-257669000D02*
X376135000Y-262331000D01*
D12*
%TO.C,L2*%
X403345200Y-293345200D02*
X416654800Y-293345200D01*
X403345200Y-297040900D02*
X403345200Y-293345200D01*
X403345200Y-297040900D02*
X403345200Y-297040900D01*
X403345200Y-302959100D02*
X403345200Y-297040900D01*
X403345200Y-302959100D02*
X403345200Y-302959100D01*
X403345200Y-306654800D02*
X403345200Y-302959100D01*
X416654800Y-293345200D02*
X416654800Y-297040900D01*
X416654800Y-297040900D02*
X416654800Y-297040900D01*
X416654800Y-297040900D02*
X416654800Y-302959100D01*
X416654800Y-302959100D02*
X416654800Y-302959100D01*
X416654800Y-302959100D02*
X416654800Y-306654800D01*
X416654800Y-306654800D02*
X403345200Y-306654800D01*
D11*
%TO.C,D6*%
X504950000Y-248450000D02*
X504950000Y-251550000D01*
X504950000Y-251550000D02*
X507050000Y-251550000D01*
X507050000Y-248450000D02*
X504950000Y-248450000D01*
X507050000Y-251550000D02*
X507050000Y-248450000D01*
D12*
%TO.C,C12*%
X491344300Y-222661800D02*
X493655700Y-222661800D01*
X491344300Y-227284600D02*
X491344300Y-222661800D01*
X493655700Y-222661800D02*
X493655700Y-227284600D01*
X493655700Y-227284600D02*
X491344300Y-227284600D01*
D10*
%TO.C,C39*%
X490627000Y-309017000D02*
X494373000Y-309017000D01*
X490627000Y-310983000D02*
X490627000Y-309017000D01*
X494373000Y-309017000D02*
X494373000Y-310983000D01*
X494373000Y-310983000D02*
X490627000Y-310983000D01*
D12*
%TO.C,C102*%
X393844300Y-272688600D02*
X396155700Y-272688600D01*
X393844300Y-277311400D02*
X393844300Y-272688600D01*
X396155700Y-272688600D02*
X396155700Y-277311400D01*
X396155700Y-277311400D02*
X393844300Y-277311400D01*
D10*
%TO.C,C60*%
X468127000Y-219017000D02*
X471873000Y-219017000D01*
X468127000Y-220983000D02*
X468127000Y-219017000D01*
X471873000Y-219017000D02*
X471873000Y-220983000D01*
X471873000Y-220983000D02*
X468127000Y-220983000D01*
D11*
%TO.C,R7*%
X438500000Y-316575000D02*
X438500000Y-318325000D01*
X438500000Y-318325000D02*
X442500000Y-318325000D01*
X442500000Y-316575000D02*
X438500000Y-316575000D01*
X442500000Y-318325000D02*
X442500000Y-316575000D01*
D10*
%TO.C,C121*%
X416517000Y-323077000D02*
X418483000Y-323077000D01*
X416517000Y-326823000D02*
X416517000Y-323077000D01*
X418483000Y-323077000D02*
X418483000Y-326823000D01*
X418483000Y-326823000D02*
X416517000Y-326823000D01*
D11*
%TO.C,D79*%
X392450000Y-248450000D02*
X392450000Y-251550000D01*
X392450000Y-251550000D02*
X394550000Y-251550000D01*
X394550000Y-248450000D02*
X392450000Y-248450000D01*
X394550000Y-251550000D02*
X394550000Y-248450000D01*
%TO.C,D76*%
X394950000Y-248450000D02*
X394950000Y-251550000D01*
X394950000Y-251550000D02*
X397050000Y-251550000D01*
X397050000Y-248450000D02*
X394950000Y-248450000D01*
X397050000Y-251550000D02*
X397050000Y-248450000D01*
%TO.C,R49*%
X390169000Y-296315000D02*
X394831000Y-296315000D01*
X390169000Y-298585000D02*
X390169000Y-296315000D01*
X390169000Y-298585000D02*
X394831000Y-298585000D01*
X394831000Y-298585000D02*
X394831000Y-296315000D01*
%TO.C,R13*%
X517785000Y-231385000D02*
X522215000Y-231385000D01*
X517785000Y-233615000D02*
X517785000Y-231385000D01*
X517785000Y-233615000D02*
X522215000Y-233615000D01*
X522215000Y-233615000D02*
X522215000Y-231385000D01*
%TO.C,R12*%
X523885000Y-239715000D02*
X523885000Y-235285000D01*
X526115000Y-235285000D02*
X523885000Y-235285000D01*
X526115000Y-239715000D02*
X523885000Y-239715000D01*
X526115000Y-239715000D02*
X526115000Y-235285000D01*
%TO.C,D27*%
X497450000Y-248450000D02*
X497450000Y-251550000D01*
X497450000Y-251550000D02*
X499550000Y-251550000D01*
X499550000Y-248450000D02*
X497450000Y-248450000D01*
X499550000Y-251550000D02*
X499550000Y-248450000D01*
%TO.C,D62*%
X412450000Y-248450000D02*
X412450000Y-251550000D01*
X412450000Y-251550000D02*
X414550000Y-251550000D01*
X414550000Y-248450000D02*
X412450000Y-248450000D01*
X414550000Y-251550000D02*
X414550000Y-248450000D01*
%TO.C,D15*%
X512450000Y-248450000D02*
X512450000Y-251550000D01*
X512450000Y-251550000D02*
X514550000Y-251550000D01*
X514550000Y-248450000D02*
X512450000Y-248450000D01*
X514550000Y-251550000D02*
X514550000Y-248450000D01*
%TO.C,D10*%
X457450000Y-248450000D02*
X457450000Y-251550000D01*
X457450000Y-251550000D02*
X459550000Y-251550000D01*
X459550000Y-248450000D02*
X457450000Y-248450000D01*
X459550000Y-251550000D02*
X459550000Y-248450000D01*
%TO.C,D55*%
X417450000Y-248450000D02*
X417450000Y-251550000D01*
X417450000Y-251550000D02*
X419550000Y-251550000D01*
X419550000Y-248450000D02*
X417450000Y-248450000D01*
X419550000Y-251550000D02*
X419550000Y-248450000D01*
%TO.C,D5*%
X477450000Y-248450000D02*
X477450000Y-251550000D01*
X477450000Y-251550000D02*
X479550000Y-251550000D01*
X479550000Y-248450000D02*
X477450000Y-248450000D01*
X479550000Y-251550000D02*
X479550000Y-248450000D01*
D12*
%TO.C,C90*%
X376344300Y-272715400D02*
X378655700Y-272715400D01*
X376344300Y-277338200D02*
X376344300Y-272715400D01*
X378655700Y-272715400D02*
X378655700Y-277338200D01*
X378655700Y-277338200D02*
X376344300Y-277338200D01*
%TO.C,C83*%
X455188600Y-191344300D02*
X459811400Y-191344300D01*
X455188600Y-193655700D02*
X455188600Y-191344300D01*
X459811400Y-191344300D02*
X459811400Y-193655700D01*
X459811400Y-193655700D02*
X455188600Y-193655700D01*
D11*
%TO.C,D56*%
X387450000Y-248450000D02*
X387450000Y-251550000D01*
X387450000Y-251550000D02*
X389550000Y-251550000D01*
X389550000Y-248450000D02*
X387450000Y-248450000D01*
X389550000Y-251550000D02*
X389550000Y-248450000D01*
D12*
%TO.C,C6*%
X486344300Y-222688600D02*
X488655700Y-222688600D01*
X486344300Y-227311400D02*
X486344300Y-222688600D01*
X488655700Y-222688600D02*
X488655700Y-227311400D01*
X488655700Y-227311400D02*
X486344300Y-227311400D01*
%TO.C,C52*%
X410836300Y-311522900D02*
X414163700Y-311522900D01*
X410836300Y-313377100D02*
X410836300Y-311522900D01*
X414163700Y-311522900D02*
X414163700Y-313377100D01*
X414163700Y-313377100D02*
X410836300Y-313377100D01*
D10*
%TO.C,C64*%
X480627000Y-194017000D02*
X484373000Y-194017000D01*
X480627000Y-195983000D02*
X480627000Y-194017000D01*
X484373000Y-194017000D02*
X484373000Y-195983000D01*
X484373000Y-195983000D02*
X480627000Y-195983000D01*
D12*
%TO.C,C56*%
X504022100Y-308290400D02*
X505977900Y-308290400D01*
X504022100Y-311709600D02*
X504022100Y-308290400D01*
X505977900Y-308290400D02*
X505977900Y-311709600D01*
X505977900Y-311709600D02*
X504022100Y-311709600D01*
D10*
%TO.C,C42*%
X485627000Y-316017000D02*
X489373000Y-316017000D01*
X485627000Y-317983000D02*
X485627000Y-316017000D01*
X489373000Y-316017000D02*
X489373000Y-317983000D01*
X489373000Y-317983000D02*
X485627000Y-317983000D01*
D11*
%TO.C,C122*%
X448290000Y-286886000D02*
X451710000Y-286886000D01*
X448290000Y-289114000D02*
X448290000Y-286886000D01*
X451710000Y-286886000D02*
X451710000Y-289114000D01*
X451710000Y-289114000D02*
X448290000Y-289114000D01*
D12*
%TO.C,C55*%
X509022100Y-308290400D02*
X510977900Y-308290400D01*
X509022100Y-311709600D02*
X509022100Y-308290400D01*
X510977900Y-308290400D02*
X510977900Y-311709600D01*
X510977900Y-311709600D02*
X509022100Y-311709600D01*
%TD*%
M02*
