%TF.GenerationSoftware,KiCad,Pcbnew,9.0.0*%
%TF.CreationDate,2025-04-03T19:14:32+05:30*%
%TF.ProjectId,12i(overall),31326928-6f76-4657-9261-6c6c292e6b69,rev?*%
%TF.SameCoordinates,Original*%
%TF.FileFunction,Legend,Bot*%
%TF.FilePolarity,Positive*%
%FSLAX46Y46*%
G04 Gerber Fmt 4.6, Leading zero omitted, Abs format (unit mm)*
G04 Created by KiCad (PCBNEW 9.0.0) date 2025-04-03 19:14:32*
%MOMM*%
%LPD*%
G01*
G04 APERTURE LIST*
%ADD10C,0.150000*%
%ADD11C,0.508000*%
%ADD12C,0.200000*%
G04 APERTURE END LIST*
D10*
X449681332Y-174901876D02*
X449681332Y-175359019D01*
X449681332Y-175359019D02*
X449711809Y-175450447D01*
X449711809Y-175450447D02*
X449772761Y-175511400D01*
X449772761Y-175511400D02*
X449864190Y-175541876D01*
X449864190Y-175541876D02*
X449925142Y-175541876D01*
X449102285Y-174901876D02*
X449224190Y-174901876D01*
X449224190Y-174901876D02*
X449285142Y-174932352D01*
X449285142Y-174932352D02*
X449315618Y-174962828D01*
X449315618Y-174962828D02*
X449376571Y-175054257D01*
X449376571Y-175054257D02*
X449407047Y-175176161D01*
X449407047Y-175176161D02*
X449407047Y-175419971D01*
X449407047Y-175419971D02*
X449376571Y-175480923D01*
X449376571Y-175480923D02*
X449346094Y-175511400D01*
X449346094Y-175511400D02*
X449285142Y-175541876D01*
X449285142Y-175541876D02*
X449163237Y-175541876D01*
X449163237Y-175541876D02*
X449102285Y-175511400D01*
X449102285Y-175511400D02*
X449071809Y-175480923D01*
X449071809Y-175480923D02*
X449041332Y-175419971D01*
X449041332Y-175419971D02*
X449041332Y-175267590D01*
X449041332Y-175267590D02*
X449071809Y-175206638D01*
X449071809Y-175206638D02*
X449102285Y-175176161D01*
X449102285Y-175176161D02*
X449163237Y-175145685D01*
X449163237Y-175145685D02*
X449285142Y-175145685D01*
X449285142Y-175145685D02*
X449346094Y-175176161D01*
X449346094Y-175176161D02*
X449376571Y-175206638D01*
X449376571Y-175206638D02*
X449407047Y-175267590D01*
X449681332Y-194901876D02*
X449681332Y-195359019D01*
X449681332Y-195359019D02*
X449711809Y-195450447D01*
X449711809Y-195450447D02*
X449772761Y-195511400D01*
X449772761Y-195511400D02*
X449864190Y-195541876D01*
X449864190Y-195541876D02*
X449925142Y-195541876D01*
X449071809Y-194901876D02*
X449376571Y-194901876D01*
X449376571Y-194901876D02*
X449407047Y-195206638D01*
X449407047Y-195206638D02*
X449376571Y-195176161D01*
X449376571Y-195176161D02*
X449315618Y-195145685D01*
X449315618Y-195145685D02*
X449163237Y-195145685D01*
X449163237Y-195145685D02*
X449102285Y-195176161D01*
X449102285Y-195176161D02*
X449071809Y-195206638D01*
X449071809Y-195206638D02*
X449041332Y-195267590D01*
X449041332Y-195267590D02*
X449041332Y-195419971D01*
X449041332Y-195419971D02*
X449071809Y-195480923D01*
X449071809Y-195480923D02*
X449102285Y-195511400D01*
X449102285Y-195511400D02*
X449163237Y-195541876D01*
X449163237Y-195541876D02*
X449315618Y-195541876D01*
X449315618Y-195541876D02*
X449376571Y-195511400D01*
X449376571Y-195511400D02*
X449407047Y-195480923D01*
D11*
%TO.C,SW1*%
X430174000Y-178000000D02*
G75*
G02*
X429412000Y-178000000I-381000J0D01*
G01*
X429412000Y-178000000D02*
G75*
G02*
X430174000Y-178000000I381000J0D01*
G01*
%TO.C,SW2*%
X460174000Y-178000000D02*
G75*
G02*
X459412000Y-178000000I-381000J0D01*
G01*
X459412000Y-178000000D02*
G75*
G02*
X460174000Y-178000000I381000J0D01*
G01*
%TO.C,SW5*%
X440588000Y-311950000D02*
G75*
G02*
X439826000Y-311950000I-381000J0D01*
G01*
X439826000Y-311950000D02*
G75*
G02*
X440588000Y-311950000I381000J0D01*
G01*
%TO.C,SW4*%
X470588000Y-312000000D02*
G75*
G02*
X469826000Y-312000000I-381000J0D01*
G01*
X469826000Y-312000000D02*
G75*
G02*
X470588000Y-312000000I381000J0D01*
G01*
D12*
%TO.C,J6*%
X448750000Y-177250000D02*
X448750000Y-178750000D01*
X448750000Y-178750000D02*
X449900000Y-178750000D01*
X448900000Y-177250000D02*
X448750000Y-177250000D01*
X451100000Y-178750000D02*
X451250000Y-178750000D01*
X451250000Y-177250000D02*
X450100000Y-177250000D01*
X451250000Y-178750000D02*
X451250000Y-177250000D01*
X448200000Y-176700000D02*
G75*
G02*
X448000000Y-176700000I-100000J0D01*
G01*
X448000000Y-176700000D02*
G75*
G02*
X448200000Y-176700000I100000J0D01*
G01*
%TO.C,J5*%
X448750000Y-197250000D02*
X448750000Y-198750000D01*
X448750000Y-198750000D02*
X449900000Y-198750000D01*
X448900000Y-197250000D02*
X448750000Y-197250000D01*
X451100000Y-198750000D02*
X451250000Y-198750000D01*
X451250000Y-197250000D02*
X450100000Y-197250000D01*
X451250000Y-198750000D02*
X451250000Y-197250000D01*
X448200000Y-196700000D02*
G75*
G02*
X448000000Y-196700000I-100000J0D01*
G01*
X448000000Y-196700000D02*
G75*
G02*
X448200000Y-196700000I100000J0D01*
G01*
%TD*%
M02*
