%TF.GenerationSoftware,KiCad,Pcbnew,9.0.0*%
%TF.CreationDate,2025-04-03T19:14:32+05:30*%
%TF.ProjectId,12i(overall),31326928-6f76-4657-9261-6c6c292e6b69,rev?*%
%TF.SameCoordinates,Original*%
%TF.FileFunction,Soldermask,Top*%
%TF.FilePolarity,Negative*%
%FSLAX46Y46*%
G04 Gerber Fmt 4.6, Leading zero omitted, Abs format (unit mm)*
G04 Created by KiCad (PCBNEW 9.0.0) date 2025-04-03 19:14:32*
%MOMM*%
%LPD*%
G01*
G04 APERTURE LIST*
G04 Aperture macros list*
%AMRoundRect*
0 Rectangle with rounded corners*
0 $1 Rounding radius*
0 $2 $3 $4 $5 $6 $7 $8 $9 X,Y pos of 4 corners*
0 Add a 4 corners polygon primitive as box body*
4,1,4,$2,$3,$4,$5,$6,$7,$8,$9,$2,$3,0*
0 Add four circle primitives for the rounded corners*
1,1,$1+$1,$2,$3*
1,1,$1+$1,$4,$5*
1,1,$1+$1,$6,$7*
1,1,$1+$1,$8,$9*
0 Add four rect primitives between the rounded corners*
20,1,$1+$1,$2,$3,$4,$5,0*
20,1,$1+$1,$4,$5,$6,$7,0*
20,1,$1+$1,$6,$7,$8,$9,0*
20,1,$1+$1,$8,$9,$2,$3,0*%
G04 Aperture macros list end*
%ADD10RoundRect,0.102000X0.750000X-0.650000X0.750000X0.650000X-0.750000X0.650000X-0.750000X-0.650000X0*%
%ADD11RoundRect,0.102000X0.250000X-0.425000X0.250000X0.425000X-0.250000X0.425000X-0.250000X-0.425000X0*%
%ADD12RoundRect,0.099250X0.607750X0.297750X-0.607750X0.297750X-0.607750X-0.297750X0.607750X-0.297750X0*%
%ADD13R,1.803400X1.168400*%
%ADD14RoundRect,0.102000X-0.250000X0.425000X-0.250000X-0.425000X0.250000X-0.425000X0.250000X0.425000X0*%
%ADD15RoundRect,0.102000X-0.550000X-0.650000X0.550000X-0.650000X0.550000X0.650000X-0.550000X0.650000X0*%
%ADD16RoundRect,0.102000X0.865000X-0.485000X0.865000X0.485000X-0.865000X0.485000X-0.865000X-0.485000X0*%
%ADD17RoundRect,0.102000X-0.585000X-0.885000X0.585000X-0.885000X0.585000X0.885000X-0.585000X0.885000X0*%
%ADD18RoundRect,0.102000X0.885000X-0.585000X0.885000X0.585000X-0.885000X0.585000X-0.885000X-0.585000X0*%
%ADD19R,1.168400X1.803400*%
%ADD20RoundRect,0.102000X-0.575000X-0.575000X0.575000X-0.575000X0.575000X0.575000X-0.575000X0.575000X0*%
%ADD21R,0.754800X0.199200*%
%ADD22R,0.199200X0.754800*%
%ADD23R,4.038600X4.038600*%
%ADD24RoundRect,0.102000X0.650000X0.750000X-0.650000X0.750000X-0.650000X-0.750000X0.650000X-0.750000X0*%
%ADD25RoundRect,0.102000X0.585000X0.885000X-0.585000X0.885000X-0.585000X-0.885000X0.585000X-0.885000X0*%
%ADD26RoundRect,0.102000X0.485000X0.865000X-0.485000X0.865000X-0.485000X-0.865000X0.485000X-0.865000X0*%
%ADD27RoundRect,0.102000X-0.365000X0.605000X-0.365000X-0.605000X0.365000X-0.605000X0.365000X0.605000X0*%
%ADD28R,1.250000X0.855600*%
%ADD29RoundRect,0.102000X-0.485000X-0.865000X0.485000X-0.865000X0.485000X0.865000X-0.485000X0.865000X0*%
%ADD30R,1.066800X1.346200*%
%ADD31R,3.200001X0.990600*%
%ADD32R,0.990600X0.990600*%
%ADD33RoundRect,0.102000X-0.650000X-0.750000X0.650000X-0.750000X0.650000X0.750000X-0.650000X0.750000X0*%
%ADD34RoundRect,0.102000X-0.865000X0.485000X-0.865000X-0.485000X0.865000X-0.485000X0.865000X0.485000X0*%
%ADD35RoundRect,0.102000X0.575000X0.725000X-0.575000X0.725000X-0.575000X-0.725000X0.575000X-0.725000X0*%
%ADD36R,0.270000X1.461200*%
%ADD37R,1.461200X0.270000*%
%ADD38R,3.500001X3.500001*%
%ADD39RoundRect,0.102000X-0.457200X-0.723900X0.457200X-0.723900X0.457200X0.723900X-0.457200X0.723900X0*%
%ADD40R,0.800001X0.549999*%
%ADD41RoundRect,0.098000X-0.809000X-0.294000X0.809000X-0.294000X0.809000X0.294000X-0.809000X0.294000X0*%
%ADD42R,1.397000X1.346200*%
%ADD43R,0.575600X0.600000*%
%ADD44RoundRect,0.099250X-0.727750X-0.297750X0.727750X-0.297750X0.727750X0.297750X-0.727750X0.297750X0*%
%ADD45RoundRect,0.045000X-0.455000X-0.135000X0.455000X-0.135000X0.455000X0.135000X-0.455000X0.135000X0*%
%ADD46RoundRect,0.045000X-0.135000X-0.455000X0.135000X-0.455000X0.135000X0.455000X-0.135000X0.455000X0*%
%ADD47RoundRect,0.102000X-1.550000X-1.550000X1.550000X-1.550000X1.550000X1.550000X-1.550000X1.550000X0*%
%ADD48RoundRect,0.102000X-0.575000X-0.725000X0.575000X-0.725000X0.575000X0.725000X-0.575000X0.725000X0*%
%ADD49RoundRect,0.102000X-0.400000X-0.800000X0.400000X-0.800000X0.400000X0.800000X-0.400000X0.800000X0*%
%ADD50RoundRect,0.102000X0.725000X-0.575000X0.725000X0.575000X-0.725000X0.575000X-0.725000X-0.575000X0*%
%ADD51RoundRect,0.102000X-0.268546X0.640611X-0.689817X0.081567X0.268546X-0.640611X0.689817X-0.081567X0*%
%ADD52RoundRect,0.102000X-0.178274X0.760407X-0.780089X-0.038229X0.178274X-0.760407X0.780089X0.038229X0*%
%ADD53RoundRect,0.102000X-0.817182X1.241859X-1.418997X0.443223X0.817182X-1.241859X1.418997X-0.443223X0*%
%ADD54RoundRect,0.102000X-0.367524X1.090837X-1.149883X0.052611X0.367524X-1.090837X1.149883X-0.052611X0*%
%ADD55RoundRect,0.102000X-0.018547X0.640044X-0.620362X-0.158592X0.018547X-0.640044X0.620362X0.158592X0*%
%ADD56RoundRect,0.102000X-0.605000X-0.365000X0.605000X-0.365000X0.605000X0.365000X-0.605000X0.365000X0*%
%ADD57C,0.650000*%
%ADD58RoundRect,0.080000X-0.300000X-0.575000X0.300000X-0.575000X0.300000X0.575000X-0.300000X0.575000X0*%
%ADD59RoundRect,0.080000X-0.150000X-0.575000X0.150000X-0.575000X0.150000X0.575000X-0.150000X0.575000X0*%
%ADD60RoundRect,0.102000X-1.090000X-1.000000X1.090000X-1.000000X1.090000X1.000000X-1.090000X1.000000X0*%
%ADD61R,0.855600X1.250000*%
%ADD62RoundRect,0.102000X0.605000X0.365000X-0.605000X0.365000X-0.605000X-0.365000X0.605000X-0.365000X0*%
%ADD63R,2.895600X5.410200*%
%ADD64RoundRect,0.102000X0.575000X0.575000X-0.575000X0.575000X-0.575000X-0.575000X0.575000X-0.575000X0*%
%ADD65RoundRect,0.080000X0.135000X0.730600X-0.135000X0.730600X-0.135000X-0.730600X0.135000X-0.730600X0*%
%ADD66RoundRect,0.102000X-0.280000X-0.320000X0.280000X-0.320000X0.280000X0.320000X-0.280000X0.320000X0*%
%ADD67RoundRect,0.102000X-0.885000X0.585000X-0.885000X-0.585000X0.885000X-0.585000X0.885000X0.585000X0*%
%ADD68RoundRect,0.102000X0.457200X0.723900X-0.457200X0.723900X-0.457200X-0.723900X0.457200X-0.723900X0*%
%ADD69RoundRect,0.102000X-0.750000X0.650000X-0.750000X-0.650000X0.750000X-0.650000X0.750000X0.650000X0*%
%ADD70R,1.447800X1.117600*%
%ADD71RoundRect,0.102000X-0.580000X-0.735000X0.580000X-0.735000X0.580000X0.735000X-0.580000X0.735000X0*%
G04 APERTURE END LIST*
D10*
%TO.C,C76*%
X490000000Y-190950000D03*
X490000000Y-189050000D03*
%TD*%
D11*
%TO.C,D61*%
X384000000Y-249125000D03*
X384000000Y-250875000D03*
X383000000Y-250875000D03*
X383000000Y-249125000D03*
%TD*%
D12*
%TO.C,U1*%
X451255000Y-315950000D03*
X451255000Y-315000000D03*
X451255000Y-314050000D03*
X448745000Y-314050000D03*
X448745000Y-315000000D03*
X448745000Y-315950000D03*
%TD*%
D13*
%TO.C,C3*%
X485000000Y-226473200D03*
X485000000Y-223526800D03*
%TD*%
D11*
%TO.C,De3*%
X449000000Y-249125000D03*
X449000000Y-250875000D03*
X448000000Y-250875000D03*
X448000000Y-249125000D03*
%TD*%
D14*
%TO.C,D13*%
X460500000Y-250875000D03*
X460500000Y-249125000D03*
X461500000Y-249125000D03*
X461500000Y-250875000D03*
%TD*%
D13*
%TO.C,C18*%
X497500000Y-226473200D03*
X497500000Y-223526800D03*
%TD*%
D15*
%TO.C,Y1*%
X413275000Y-263950000D03*
X413275000Y-266050000D03*
X414925000Y-266050000D03*
X414925000Y-263950000D03*
%TD*%
D16*
%TO.C,R32*%
X487500000Y-291480000D03*
X487500000Y-288520000D03*
%TD*%
D13*
%TO.C,C106*%
X390000000Y-276500000D03*
X390000000Y-273553600D03*
%TD*%
D14*
%TO.C,D22*%
X468000000Y-250875000D03*
X468000000Y-249125000D03*
X469000000Y-249125000D03*
X469000000Y-250875000D03*
%TD*%
D17*
%TO.C,R39*%
X383506000Y-304950000D03*
X386494000Y-304950000D03*
%TD*%
D18*
%TO.C,R43*%
X412500000Y-291444000D03*
X412500000Y-288456000D03*
%TD*%
D14*
%TO.C,D25*%
X495500000Y-250875000D03*
X495500000Y-249125000D03*
X496500000Y-249125000D03*
X496500000Y-250875000D03*
%TD*%
D13*
%TO.C,C5*%
X462500000Y-226473200D03*
X462500000Y-223526800D03*
%TD*%
D19*
%TO.C,C85*%
X441026800Y-192500000D03*
X443973200Y-192500000D03*
%TD*%
D10*
%TO.C,C78*%
X487500000Y-185950000D03*
X487500000Y-184050000D03*
%TD*%
D13*
%TO.C,C9*%
X490000000Y-226446400D03*
X490000000Y-223500000D03*
%TD*%
D20*
%TO.C,R44*%
X458825000Y-317500000D03*
X461175000Y-317500000D03*
%TD*%
D21*
%TO.C,U10*%
X446547599Y-292400000D03*
X446547599Y-292799999D03*
X446547599Y-293200001D03*
X446547599Y-293600000D03*
X446547599Y-293999999D03*
X446547599Y-294400001D03*
X446547599Y-294800000D03*
X446547599Y-295200000D03*
X446547599Y-295599999D03*
X446547599Y-296000001D03*
X446547599Y-296400000D03*
X446547599Y-296799999D03*
X446547599Y-297200001D03*
X446547599Y-297600000D03*
D22*
X447400000Y-298452401D03*
X447799999Y-298452401D03*
X448200001Y-298452401D03*
X448600000Y-298452401D03*
X448999999Y-298452401D03*
X449400001Y-298452401D03*
X449800000Y-298452401D03*
X450200000Y-298452401D03*
X450599999Y-298452401D03*
X451000001Y-298452401D03*
X451400000Y-298452401D03*
X451799999Y-298452401D03*
X452200001Y-298452401D03*
X452600000Y-298452401D03*
D21*
X453452401Y-297600000D03*
X453452401Y-297200001D03*
X453452401Y-296799999D03*
X453452401Y-296400000D03*
X453452401Y-296000001D03*
X453452401Y-295599999D03*
X453452401Y-295200000D03*
X453452401Y-294800000D03*
X453452401Y-294400001D03*
X453452401Y-293999999D03*
X453452401Y-293600000D03*
X453452401Y-293200001D03*
X453452401Y-292799999D03*
X453452401Y-292400000D03*
D22*
X452600000Y-291547599D03*
X452200001Y-291547599D03*
X451799999Y-291547599D03*
X451400000Y-291547599D03*
X451000001Y-291547599D03*
X450599999Y-291547599D03*
X450200000Y-291547599D03*
X449800000Y-291547599D03*
X449400001Y-291547599D03*
X448999999Y-291547599D03*
X448600000Y-291547599D03*
X448200001Y-291547599D03*
X447799999Y-291547599D03*
X447400000Y-291547599D03*
D23*
X450000000Y-295000000D03*
%TD*%
D13*
%TO.C,C26*%
X505000000Y-226473200D03*
X505000000Y-223526800D03*
%TD*%
%TO.C,C8*%
X465000000Y-226446400D03*
X465000000Y-223500000D03*
%TD*%
D24*
%TO.C,C65*%
X475950000Y-190000000D03*
X474050000Y-190000000D03*
%TD*%
D11*
%TO.C,D74*%
X399000000Y-249125000D03*
X399000000Y-250875000D03*
X398000000Y-250875000D03*
X398000000Y-249125000D03*
%TD*%
D25*
%TO.C,R48*%
X391494000Y-289950000D03*
X388506000Y-289950000D03*
%TD*%
D26*
%TO.C,R18*%
X491480000Y-285000000D03*
X488520000Y-285000000D03*
%TD*%
%TO.C,R24*%
X511480000Y-290000000D03*
X508520000Y-290000000D03*
%TD*%
D13*
%TO.C,C16*%
X522500000Y-226446400D03*
X522500000Y-223500000D03*
%TD*%
D14*
%TO.C,D14*%
X485500000Y-250875000D03*
X485500000Y-249125000D03*
X486500000Y-249125000D03*
X486500000Y-250875000D03*
%TD*%
D11*
%TO.C,D66*%
X439000000Y-249125000D03*
X439000000Y-250875000D03*
X438000000Y-250875000D03*
X438000000Y-249125000D03*
%TD*%
D13*
%TO.C,C111*%
X415000000Y-276473200D03*
X415000000Y-273526800D03*
%TD*%
D19*
%TO.C,C38*%
X507000000Y-207500000D03*
X509946400Y-207500000D03*
%TD*%
D11*
%TO.C,D77*%
X426500000Y-249125000D03*
X426500000Y-250875000D03*
X425500000Y-250875000D03*
X425500000Y-249125000D03*
%TD*%
D24*
%TO.C,C63*%
X470950000Y-210000000D03*
X469050000Y-210000000D03*
%TD*%
D11*
%TO.C,D73*%
X431500000Y-249125000D03*
X431500000Y-250875000D03*
X430500000Y-250875000D03*
X430500000Y-249125000D03*
%TD*%
D13*
%TO.C,C11*%
X467500000Y-226500000D03*
X467500000Y-223553600D03*
%TD*%
D11*
%TO.C,D59*%
X416500000Y-249125000D03*
X416500000Y-250875000D03*
X415500000Y-250875000D03*
X415500000Y-249125000D03*
%TD*%
D13*
%TO.C,C94*%
X405000000Y-276473200D03*
X405000000Y-273526800D03*
%TD*%
D27*
%TO.C,D32*%
X422500000Y-313270000D03*
X422500000Y-316630000D03*
%TD*%
D13*
%TO.C,C103*%
X425000000Y-276473200D03*
X425000000Y-273526800D03*
%TD*%
%TO.C,C99*%
X400000000Y-276500000D03*
X400000000Y-273553600D03*
%TD*%
D28*
%TO.C,C44*%
X500000000Y-310927800D03*
X500000000Y-309072200D03*
%TD*%
D29*
%TO.C,R17*%
X493520000Y-280000000D03*
X496480000Y-280000000D03*
%TD*%
D30*
%TO.C,C48*%
X411623700Y-317450000D03*
X413376300Y-317450000D03*
%TD*%
D31*
%TO.C,SW1*%
X431600002Y-177999999D03*
X438399998Y-177999999D03*
X431600002Y-182000001D03*
X438399998Y-182000001D03*
D32*
X431699999Y-180000000D03*
%TD*%
D13*
%TO.C,C14*%
X470000000Y-226500000D03*
X470000000Y-223553600D03*
%TD*%
D33*
%TO.C,C71*%
X491050000Y-207500000D03*
X492950000Y-207500000D03*
%TD*%
D34*
%TO.C,R25*%
X507500000Y-198520000D03*
X507500000Y-201480000D03*
%TD*%
D19*
%TO.C,C126*%
X448526800Y-182500000D03*
X451473200Y-182500000D03*
%TD*%
D14*
%TO.C,D7*%
X455500000Y-250875000D03*
X455500000Y-249125000D03*
X456500000Y-249125000D03*
X456500000Y-250875000D03*
%TD*%
D35*
%TO.C,C125*%
X400900000Y-314950000D03*
X399100000Y-314950000D03*
%TD*%
D13*
%TO.C,C113*%
X382500000Y-276500000D03*
X382500000Y-273553600D03*
%TD*%
D17*
%TO.C,R38*%
X403506000Y-279950000D03*
X406494000Y-279950000D03*
%TD*%
D13*
%TO.C,C21*%
X500000000Y-226473200D03*
X500000000Y-223526800D03*
%TD*%
D36*
%TO.C,IC4*%
X377250000Y-239225000D03*
X377749999Y-239225000D03*
X378250001Y-239225000D03*
X378750000Y-239225000D03*
X379249999Y-239225000D03*
X379750000Y-239225000D03*
X380250000Y-239225000D03*
X380750001Y-239225000D03*
X381250000Y-239225000D03*
X381749999Y-239225000D03*
X382250001Y-239225000D03*
X382750000Y-239225000D03*
D37*
X384225000Y-237750000D03*
X384225000Y-237250001D03*
X384225000Y-236749999D03*
X384225000Y-236250000D03*
X384225000Y-235750001D03*
X384225000Y-235250000D03*
X384225000Y-234750000D03*
X384225000Y-234249999D03*
X384225000Y-233750000D03*
X384225000Y-233250001D03*
X384225000Y-232749999D03*
X384225000Y-232250000D03*
D36*
X382750000Y-230775000D03*
X382250001Y-230775000D03*
X381749999Y-230775000D03*
X381250000Y-230775000D03*
X380750001Y-230775000D03*
X380250000Y-230775000D03*
X379750000Y-230775000D03*
X379249999Y-230775000D03*
X378750000Y-230775000D03*
X378250001Y-230775000D03*
X377749999Y-230775000D03*
X377250000Y-230775000D03*
D37*
X375775000Y-232250000D03*
X375775000Y-232749999D03*
X375775000Y-233250001D03*
X375775000Y-233750000D03*
X375775000Y-234249999D03*
X375775000Y-234750000D03*
X375775000Y-235250000D03*
X375775000Y-235750001D03*
X375775000Y-236250000D03*
X375775000Y-236749999D03*
X375775000Y-237250001D03*
X375775000Y-237750000D03*
D38*
X380000000Y-235000000D03*
%TD*%
D25*
%TO.C,R41*%
X386506000Y-299950000D03*
X383518000Y-299950000D03*
%TD*%
D26*
%TO.C,R16*%
X501480000Y-285000000D03*
X498520000Y-285000000D03*
%TD*%
D13*
%TO.C,C87*%
X410000000Y-276473200D03*
X410000000Y-273526800D03*
%TD*%
%TO.C,C2*%
X460000000Y-226473200D03*
X460000000Y-223526800D03*
%TD*%
D39*
%TO.C,C45*%
X461687200Y-287500000D03*
X463312800Y-287500000D03*
%TD*%
D26*
%TO.C,R30*%
X473980000Y-300000000D03*
X471020000Y-300000000D03*
%TD*%
D29*
%TO.C,R9*%
X423520000Y-190000000D03*
X426480000Y-190000000D03*
%TD*%
D40*
%TO.C,U3*%
X498900000Y-318049999D03*
X498900000Y-319949998D03*
X501100000Y-319000000D03*
%TD*%
D11*
%TO.C,D72*%
X401500000Y-249125000D03*
X401500000Y-250875000D03*
X400500000Y-250875000D03*
X400500000Y-249125000D03*
%TD*%
%TO.C,D69*%
X406500000Y-249125000D03*
X406500000Y-250875000D03*
X405500000Y-250875000D03*
X405500000Y-249125000D03*
%TD*%
D24*
%TO.C,C67*%
X470950000Y-200000000D03*
X469050000Y-200000000D03*
%TD*%
D41*
%TO.C,U2*%
X446395000Y-218095000D03*
X446395000Y-219365000D03*
X446395000Y-220635000D03*
X446395000Y-221905000D03*
X453605000Y-221905000D03*
X453605000Y-220635000D03*
X453605000Y-219365000D03*
X453605000Y-218095000D03*
%TD*%
D13*
%TO.C,C28*%
X507500000Y-226473200D03*
X507500000Y-223526800D03*
%TD*%
%TO.C,C98*%
X430000000Y-276500000D03*
X430000000Y-273553600D03*
%TD*%
D34*
%TO.C,R1*%
X492500000Y-198520000D03*
X492500000Y-201480000D03*
%TD*%
D33*
%TO.C,C57*%
X481550000Y-314500000D03*
X483450000Y-314500000D03*
%TD*%
D13*
%TO.C,C27*%
X482500000Y-226473200D03*
X482500000Y-223526800D03*
%TD*%
D17*
%TO.C,R37*%
X398506000Y-284950000D03*
X401494000Y-284950000D03*
%TD*%
D33*
%TO.C,C41*%
X491550000Y-315000000D03*
X493450000Y-315000000D03*
%TD*%
D13*
%TO.C,C95*%
X372500000Y-276500000D03*
X372500000Y-273553600D03*
%TD*%
D17*
%TO.C,R22*%
X378506000Y-284950000D03*
X381494000Y-284950000D03*
%TD*%
D26*
%TO.C,R2*%
X521480000Y-285000000D03*
X518520000Y-285000000D03*
%TD*%
D13*
%TO.C,C97*%
X402500000Y-276473200D03*
X402500000Y-273526800D03*
%TD*%
D11*
%TO.C,D78*%
X424000000Y-249125000D03*
X424000000Y-250875000D03*
X423000000Y-250875000D03*
X423000000Y-249125000D03*
%TD*%
D42*
%TO.C,XTAL1*%
X406290200Y-262460000D03*
X406290200Y-267540000D03*
X410709800Y-267540000D03*
X410709800Y-262460000D03*
%TD*%
D26*
%TO.C,R28*%
X508980000Y-297500000D03*
X506020000Y-297500000D03*
%TD*%
D13*
%TO.C,C23*%
X477500000Y-226446400D03*
X477500000Y-223500000D03*
%TD*%
D11*
%TO.C,D80*%
X421500000Y-249125000D03*
X421500000Y-250875000D03*
X420500000Y-250875000D03*
X420500000Y-249125000D03*
%TD*%
D19*
%TO.C,C79*%
X503526800Y-212500000D03*
X506473200Y-212500000D03*
%TD*%
D13*
%TO.C,C7*%
X515000000Y-226500000D03*
X515000000Y-223553600D03*
%TD*%
D26*
%TO.C,R14*%
X516480000Y-305000000D03*
X513520000Y-305000000D03*
%TD*%
D19*
%TO.C,C77*%
X500000000Y-207500000D03*
X502946400Y-207500000D03*
%TD*%
D11*
%TO.C,D71*%
X434000000Y-249125000D03*
X434000000Y-250875000D03*
X433000000Y-250875000D03*
X433000000Y-249125000D03*
%TD*%
D14*
%TO.C,D17*%
X488000000Y-250875000D03*
X488000000Y-249125000D03*
X489000000Y-249125000D03*
X489000000Y-250875000D03*
%TD*%
%TO.C,D3*%
X503000000Y-250875000D03*
X503000000Y-249125000D03*
X504000000Y-249125000D03*
X504000000Y-250875000D03*
%TD*%
D43*
%TO.C,L6*%
X428067800Y-292450000D03*
X426932200Y-292450000D03*
%TD*%
D30*
%TO.C,C49*%
X406623700Y-314950000D03*
X408376300Y-314950000D03*
%TD*%
D13*
%TO.C,C108*%
X387500000Y-276473200D03*
X387500000Y-273526800D03*
%TD*%
D30*
%TO.C,C51*%
X408376300Y-319950000D03*
X406623700Y-319950000D03*
%TD*%
D13*
%TO.C,C88*%
X380000000Y-276500000D03*
X380000000Y-273553600D03*
%TD*%
D10*
%TO.C,C74*%
X477500000Y-185950000D03*
X477500000Y-184050000D03*
%TD*%
D33*
%TO.C,C120*%
X426550000Y-299950000D03*
X428450000Y-299950000D03*
%TD*%
D43*
%TO.C,L5*%
X471932200Y-292500000D03*
X473067800Y-292500000D03*
%TD*%
D13*
%TO.C,C15*%
X495000000Y-226473200D03*
X495000000Y-223526800D03*
%TD*%
D44*
%TO.C,U6*%
X433845000Y-294000000D03*
X433845000Y-294950000D03*
X433845000Y-295900000D03*
X436155000Y-295900000D03*
X436155000Y-294950000D03*
X436155000Y-294000000D03*
%TD*%
D19*
%TO.C,C59*%
X511026800Y-212500000D03*
X513973200Y-212500000D03*
%TD*%
D33*
%TO.C,C40*%
X486550000Y-312000000D03*
X488450000Y-312000000D03*
%TD*%
D45*
%TO.C,U4*%
X446565000Y-202400000D03*
X446565000Y-202800000D03*
X446565000Y-203200000D03*
X446565000Y-203600000D03*
X446565000Y-204000000D03*
X446565000Y-204400000D03*
X446565000Y-204800000D03*
X446565000Y-205200000D03*
X446565000Y-205600000D03*
X446565000Y-206000000D03*
X446565000Y-206400000D03*
X446565000Y-206800000D03*
X446565000Y-207200000D03*
X446565000Y-207600000D03*
D46*
X447400000Y-208435000D03*
X447800000Y-208435000D03*
X448200000Y-208435000D03*
X448600000Y-208435000D03*
X449000000Y-208435000D03*
X449400000Y-208435000D03*
X449800000Y-208435000D03*
X450200000Y-208435000D03*
X450600000Y-208435000D03*
X451000000Y-208435000D03*
X451400000Y-208435000D03*
X451800000Y-208435000D03*
X452200000Y-208435000D03*
X452600000Y-208435000D03*
D45*
X453435000Y-207600000D03*
X453435000Y-207200000D03*
X453435000Y-206800000D03*
X453435000Y-206400000D03*
X453435000Y-206000000D03*
X453435000Y-205600000D03*
X453435000Y-205200000D03*
X453435000Y-204800000D03*
X453435000Y-204400000D03*
X453435000Y-204000000D03*
X453435000Y-203600000D03*
X453435000Y-203200000D03*
X453435000Y-202800000D03*
X453435000Y-202400000D03*
D46*
X452600000Y-201565000D03*
X452200000Y-201565000D03*
X451800000Y-201565000D03*
X451400000Y-201565000D03*
X451000000Y-201565000D03*
X450600000Y-201565000D03*
X450200000Y-201565000D03*
X449800000Y-201565000D03*
X449400000Y-201565000D03*
X449000000Y-201565000D03*
X448600000Y-201565000D03*
X448200000Y-201565000D03*
X447800000Y-201565000D03*
X447400000Y-201565000D03*
D47*
X450000000Y-205000000D03*
%TD*%
D24*
%TO.C,C66*%
X478450000Y-205000000D03*
X476550000Y-205000000D03*
%TD*%
D13*
%TO.C,C112*%
X412500000Y-276473200D03*
X412500000Y-273526800D03*
%TD*%
D14*
%TO.C,D24*%
X470500000Y-250875000D03*
X470500000Y-249125000D03*
X471500000Y-249125000D03*
X471500000Y-250875000D03*
%TD*%
D30*
%TO.C,C47*%
X406623700Y-309950000D03*
X408376300Y-309950000D03*
%TD*%
D24*
%TO.C,C61*%
X478450000Y-220000000D03*
X476550000Y-220000000D03*
%TD*%
D13*
%TO.C,C4*%
X512500000Y-226500000D03*
X512500000Y-223553600D03*
%TD*%
D26*
%TO.C,R3*%
X431480000Y-220000000D03*
X428520000Y-220000000D03*
%TD*%
%TO.C,R10*%
X431480000Y-210000000D03*
X428520000Y-210000000D03*
%TD*%
D13*
%TO.C,C110*%
X385000000Y-276500000D03*
X385000000Y-273553600D03*
%TD*%
D10*
%TO.C,C81*%
X497500000Y-185950000D03*
X497500000Y-184050000D03*
%TD*%
D20*
%TO.C,R6*%
X428825000Y-317450000D03*
X431175000Y-317450000D03*
%TD*%
D36*
%TO.C,IC1*%
X487250000Y-239225000D03*
X487749999Y-239225000D03*
X488250001Y-239225000D03*
X488750000Y-239225000D03*
X489249999Y-239225000D03*
X489750000Y-239225000D03*
X490250000Y-239225000D03*
X490750001Y-239225000D03*
X491250000Y-239225000D03*
X491749999Y-239225000D03*
X492250001Y-239225000D03*
X492750000Y-239225000D03*
D37*
X494225000Y-237750000D03*
X494225000Y-237250001D03*
X494225000Y-236749999D03*
X494225000Y-236250000D03*
X494225000Y-235750001D03*
X494225000Y-235250000D03*
X494225000Y-234750000D03*
X494225000Y-234249999D03*
X494225000Y-233750000D03*
X494225000Y-233250001D03*
X494225000Y-232749999D03*
X494225000Y-232250000D03*
D36*
X492750000Y-230775000D03*
X492250001Y-230775000D03*
X491749999Y-230775000D03*
X491250000Y-230775000D03*
X490750001Y-230775000D03*
X490250000Y-230775000D03*
X489750000Y-230775000D03*
X489249999Y-230775000D03*
X488750000Y-230775000D03*
X488250001Y-230775000D03*
X487749999Y-230775000D03*
X487250000Y-230775000D03*
D37*
X485775000Y-232250000D03*
X485775000Y-232749999D03*
X485775000Y-233250001D03*
X485775000Y-233750000D03*
X485775000Y-234249999D03*
X485775000Y-234750000D03*
X485775000Y-235250000D03*
X485775000Y-235750001D03*
X485775000Y-236250000D03*
X485775000Y-236749999D03*
X485775000Y-237250001D03*
X485775000Y-237750000D03*
D38*
X490000000Y-235000000D03*
%TD*%
D13*
%TO.C,C24*%
X502500000Y-226473200D03*
X502500000Y-223526800D03*
%TD*%
D36*
%TO.C,IC5*%
X470250000Y-260775000D03*
X469750001Y-260775000D03*
X469249999Y-260775000D03*
X468750000Y-260775000D03*
X468250001Y-260775000D03*
X467750000Y-260775000D03*
X467250000Y-260775000D03*
X466749999Y-260775000D03*
X466250000Y-260775000D03*
X465750001Y-260775000D03*
X465249999Y-260775000D03*
X464750000Y-260775000D03*
D37*
X463275000Y-262250000D03*
X463275000Y-262749999D03*
X463275000Y-263250001D03*
X463275000Y-263750000D03*
X463275000Y-264249999D03*
X463275000Y-264750000D03*
X463275000Y-265250000D03*
X463275000Y-265750001D03*
X463275000Y-266250000D03*
X463275000Y-266749999D03*
X463275000Y-267250001D03*
X463275000Y-267750000D03*
D36*
X464750000Y-269225000D03*
X465249999Y-269225000D03*
X465750001Y-269225000D03*
X466250000Y-269225000D03*
X466749999Y-269225000D03*
X467250000Y-269225000D03*
X467750000Y-269225000D03*
X468250001Y-269225000D03*
X468750000Y-269225000D03*
X469249999Y-269225000D03*
X469750001Y-269225000D03*
X470250000Y-269225000D03*
D37*
X471725000Y-267750000D03*
X471725000Y-267250001D03*
X471725000Y-266749999D03*
X471725000Y-266250000D03*
X471725000Y-265750001D03*
X471725000Y-265250000D03*
X471725000Y-264750000D03*
X471725000Y-264249999D03*
X471725000Y-263750000D03*
X471725000Y-263250001D03*
X471725000Y-262749999D03*
X471725000Y-262250000D03*
D38*
X467500000Y-265000000D03*
%TD*%
D13*
%TO.C,C100*%
X397500000Y-276473200D03*
X397500000Y-273526800D03*
%TD*%
%TO.C,C89*%
X437500000Y-276500000D03*
X437500000Y-273553600D03*
%TD*%
D10*
%TO.C,C80*%
X500000000Y-190950000D03*
X500000000Y-189050000D03*
%TD*%
D13*
%TO.C,C109*%
X417500000Y-276500000D03*
X417500000Y-273553600D03*
%TD*%
D11*
%TO.C,D67*%
X409000000Y-249125000D03*
X409000000Y-250875000D03*
X408000000Y-250875000D03*
X408000000Y-249125000D03*
%TD*%
D48*
%TO.C,C69*%
X449100000Y-190000000D03*
X450900000Y-190000000D03*
%TD*%
D49*
%TO.C,E1*%
X505800000Y-305000000D03*
X509200000Y-305000000D03*
%TD*%
D36*
%TO.C,IC6*%
X522750000Y-260775000D03*
X522250001Y-260775000D03*
X521749999Y-260775000D03*
X521250000Y-260775000D03*
X520750001Y-260775000D03*
X520250000Y-260775000D03*
X519750000Y-260775000D03*
X519249999Y-260775000D03*
X518750000Y-260775000D03*
X518250001Y-260775000D03*
X517749999Y-260775000D03*
X517250000Y-260775000D03*
D37*
X515775000Y-262250000D03*
X515775000Y-262749999D03*
X515775000Y-263250001D03*
X515775000Y-263750000D03*
X515775000Y-264249999D03*
X515775000Y-264750000D03*
X515775000Y-265250000D03*
X515775000Y-265750001D03*
X515775000Y-266250000D03*
X515775000Y-266749999D03*
X515775000Y-267250001D03*
X515775000Y-267750000D03*
D36*
X517250000Y-269225000D03*
X517749999Y-269225000D03*
X518250001Y-269225000D03*
X518750000Y-269225000D03*
X519249999Y-269225000D03*
X519750000Y-269225000D03*
X520250000Y-269225000D03*
X520750001Y-269225000D03*
X521250000Y-269225000D03*
X521749999Y-269225000D03*
X522250001Y-269225000D03*
X522750000Y-269225000D03*
D37*
X524225000Y-267750000D03*
X524225000Y-267250001D03*
X524225000Y-266749999D03*
X524225000Y-266250000D03*
X524225000Y-265750001D03*
X524225000Y-265250000D03*
X524225000Y-264750000D03*
X524225000Y-264249999D03*
X524225000Y-263750000D03*
X524225000Y-263250001D03*
X524225000Y-262749999D03*
X524225000Y-262250000D03*
D38*
X520000000Y-265000000D03*
%TD*%
D19*
%TO.C,C82*%
X498526800Y-217500000D03*
X501473200Y-217500000D03*
%TD*%
D33*
%TO.C,C70*%
X416550000Y-195000000D03*
X418450000Y-195000000D03*
%TD*%
D18*
%TO.C,R8*%
X435000000Y-191488000D03*
X435000000Y-188500000D03*
%TD*%
D13*
%TO.C,C10*%
X517500000Y-226473200D03*
X517500000Y-223526800D03*
%TD*%
D19*
%TO.C,C75*%
X483500000Y-215000000D03*
X486446400Y-215000000D03*
%TD*%
D14*
%TO.C,D2*%
X475500000Y-250875000D03*
X475500000Y-249125000D03*
X476500000Y-249125000D03*
X476500000Y-250875000D03*
%TD*%
D11*
%TO.C,D68*%
X436500000Y-249125000D03*
X436500000Y-250875000D03*
X435500000Y-250875000D03*
X435500000Y-249125000D03*
%TD*%
D29*
%TO.C,R4*%
X428520000Y-200000000D03*
X431480000Y-200000000D03*
%TD*%
D14*
%TO.C,D4*%
X453000000Y-250875000D03*
X453000000Y-249125000D03*
X454000000Y-249125000D03*
X454000000Y-250875000D03*
%TD*%
%TO.C,D9*%
X508000000Y-250875000D03*
X508000000Y-249125000D03*
X509000000Y-249125000D03*
X509000000Y-250875000D03*
%TD*%
D33*
%TO.C,C58*%
X481550000Y-319500000D03*
X483450000Y-319500000D03*
%TD*%
D26*
%TO.C,R29*%
X521480000Y-292500000D03*
X518520000Y-292500000D03*
%TD*%
D14*
%TO.C,D11*%
X483000000Y-250875000D03*
X483000000Y-249125000D03*
X484000000Y-249125000D03*
X484000000Y-250875000D03*
%TD*%
D13*
%TO.C,C101*%
X427500000Y-276500000D03*
X427500000Y-273553600D03*
%TD*%
D29*
%TO.C,R19*%
X421020000Y-205000000D03*
X423980000Y-205000000D03*
%TD*%
D50*
%TO.C,C119*%
X395000000Y-310850000D03*
X395000000Y-309050000D03*
%TD*%
D29*
%TO.C,R20*%
X421020000Y-220000000D03*
X423980000Y-220000000D03*
%TD*%
D51*
%TO.C,J3*%
X404699082Y-217015688D03*
X405361078Y-216137189D03*
X406023074Y-215258691D03*
X406685071Y-214380191D03*
X407347067Y-213501692D03*
X408009064Y-212623193D03*
X408671060Y-211744693D03*
X409333057Y-210866195D03*
D52*
X407042373Y-206760983D03*
D53*
X398776495Y-200532196D03*
D54*
X390292607Y-211042960D03*
D52*
X403766267Y-218253572D03*
D55*
X402090833Y-203029730D03*
D51*
X409904781Y-210107490D03*
%TD*%
D13*
%TO.C,C13*%
X520000000Y-226473200D03*
X520000000Y-223526800D03*
%TD*%
%TO.C,C115*%
X482500000Y-325973200D03*
X482500000Y-323026800D03*
%TD*%
D56*
%TO.C,D31*%
X420820000Y-307450000D03*
X424180000Y-307450000D03*
%TD*%
D13*
%TO.C,C107*%
X420000000Y-276500000D03*
X420000000Y-273553600D03*
%TD*%
D19*
%TO.C,C37*%
X483500000Y-207500000D03*
X486446400Y-207500000D03*
%TD*%
D11*
%TO.C,D63*%
X381500000Y-249125000D03*
X381500000Y-250875000D03*
X380500000Y-250875000D03*
X380500000Y-249125000D03*
%TD*%
D26*
%TO.C,R27*%
X516480000Y-300000000D03*
X513520000Y-300000000D03*
%TD*%
D18*
%TO.C,R47*%
X405000000Y-291444000D03*
X405000000Y-288456000D03*
%TD*%
D33*
%TO.C,C72*%
X491550000Y-215000000D03*
X493450000Y-215000000D03*
%TD*%
D10*
%TO.C,C117*%
X400000000Y-310900000D03*
X400000000Y-309000000D03*
%TD*%
D33*
%TO.C,C116*%
X416550000Y-314950000D03*
X418450000Y-314950000D03*
%TD*%
D14*
%TO.C,D21*%
X518000000Y-250875000D03*
X518000000Y-249125000D03*
X519000000Y-249125000D03*
X519000000Y-250875000D03*
%TD*%
D13*
%TO.C,C92*%
X435000000Y-276473200D03*
X435000000Y-273526800D03*
%TD*%
D14*
%TO.C,De1*%
X450500000Y-250875000D03*
X450500000Y-249125000D03*
X451500000Y-249125000D03*
X451500000Y-250875000D03*
%TD*%
D34*
%TO.C,R26*%
X500000000Y-198520000D03*
X500000000Y-201480000D03*
%TD*%
D13*
%TO.C,C20*%
X475000000Y-226446400D03*
X475000000Y-223500000D03*
%TD*%
D10*
%TO.C,C84*%
X420000000Y-290900000D03*
X420000000Y-289000000D03*
%TD*%
D57*
%TO.C,J1*%
X429500000Y-325887500D03*
X435500000Y-325887500D03*
D58*
X429300000Y-324312500D03*
X430100000Y-324312500D03*
D59*
X431250000Y-324312500D03*
X432250000Y-324312500D03*
X432750000Y-324312500D03*
X433750000Y-324312500D03*
D58*
X435700000Y-324312500D03*
X434900000Y-324312500D03*
D59*
X434250000Y-324312500D03*
X433250000Y-324312500D03*
X431750000Y-324312500D03*
X430750000Y-324312500D03*
D60*
X427390000Y-324887500D03*
X437610000Y-324887500D03*
X427390000Y-328817500D03*
X437610000Y-328817500D03*
%TD*%
D27*
%TO.C,D30*%
X477500000Y-313320000D03*
X477500000Y-316680000D03*
%TD*%
D41*
%TO.C,U8*%
X446395000Y-278095000D03*
X446395000Y-279365000D03*
X446395000Y-280635000D03*
X446395000Y-281905000D03*
X453605000Y-281905000D03*
X453605000Y-280635000D03*
X453605000Y-279365000D03*
X453605000Y-278095000D03*
%TD*%
D19*
%TO.C,C73*%
X507000000Y-217500000D03*
X509946400Y-217500000D03*
%TD*%
D61*
%TO.C,C46*%
X499072200Y-315000000D03*
X500927800Y-315000000D03*
%TD*%
D44*
%TO.C,U7*%
X463845000Y-294050000D03*
X463845000Y-295000000D03*
X463845000Y-295950000D03*
X466155000Y-295950000D03*
X466155000Y-295000000D03*
X466155000Y-294050000D03*
%TD*%
D62*
%TO.C,D29*%
X479180000Y-307500000D03*
X475820000Y-307500000D03*
%TD*%
D13*
%TO.C,C22*%
X527500000Y-226473200D03*
X527500000Y-223526800D03*
%TD*%
D33*
%TO.C,C54*%
X486550000Y-322000000D03*
X488450000Y-322000000D03*
%TD*%
D13*
%TO.C,C1*%
X510000000Y-226473200D03*
X510000000Y-223526800D03*
%TD*%
D31*
%TO.C,SW2*%
X461600002Y-177999999D03*
X468399998Y-177999999D03*
X461600002Y-182000001D03*
X468399998Y-182000001D03*
D32*
X461699999Y-180000000D03*
%TD*%
D18*
%TO.C,R5*%
X465000000Y-191494000D03*
X465000000Y-188506000D03*
%TD*%
D63*
%TO.C,L3*%
X485148600Y-300000000D03*
X494851400Y-300000000D03*
%TD*%
D14*
%TO.C,D1*%
X500500000Y-250875000D03*
X500500000Y-249125000D03*
X501500000Y-249125000D03*
X501500000Y-250875000D03*
%TD*%
D64*
%TO.C,R45*%
X471175000Y-317500000D03*
X468825000Y-317500000D03*
%TD*%
D11*
%TO.C,D81*%
X391500000Y-249125000D03*
X391500000Y-250875000D03*
X390500000Y-250875000D03*
X390500000Y-249125000D03*
%TD*%
D36*
%TO.C,IC7*%
X497750000Y-260775000D03*
X497250001Y-260775000D03*
X496749999Y-260775000D03*
X496250000Y-260775000D03*
X495750001Y-260775000D03*
X495250000Y-260775000D03*
X494750000Y-260775000D03*
X494249999Y-260775000D03*
X493750000Y-260775000D03*
X493250001Y-260775000D03*
X492749999Y-260775000D03*
X492250000Y-260775000D03*
D37*
X490775000Y-262250000D03*
X490775000Y-262749999D03*
X490775000Y-263250001D03*
X490775000Y-263750000D03*
X490775000Y-264249999D03*
X490775000Y-264750000D03*
X490775000Y-265250000D03*
X490775000Y-265750001D03*
X490775000Y-266250000D03*
X490775000Y-266749999D03*
X490775000Y-267250001D03*
X490775000Y-267750000D03*
D36*
X492250000Y-269225000D03*
X492749999Y-269225000D03*
X493250001Y-269225000D03*
X493750000Y-269225000D03*
X494249999Y-269225000D03*
X494750000Y-269225000D03*
X495250000Y-269225000D03*
X495750001Y-269225000D03*
X496250000Y-269225000D03*
X496749999Y-269225000D03*
X497250001Y-269225000D03*
X497750000Y-269225000D03*
D37*
X499225000Y-267750000D03*
X499225000Y-267250001D03*
X499225000Y-266749999D03*
X499225000Y-266250000D03*
X499225000Y-265750001D03*
X499225000Y-265250000D03*
X499225000Y-264750000D03*
X499225000Y-264249999D03*
X499225000Y-263750000D03*
X499225000Y-263250001D03*
X499225000Y-262749999D03*
X499225000Y-262250000D03*
D38*
X495000000Y-265000000D03*
%TD*%
D34*
%TO.C,R11*%
X485000000Y-198520000D03*
X485000000Y-201480000D03*
%TD*%
D33*
%TO.C,C53*%
X491550000Y-320000000D03*
X493450000Y-320000000D03*
%TD*%
D14*
%TO.C,D20*%
X490500000Y-250875000D03*
X490500000Y-249125000D03*
X491500000Y-249125000D03*
X491500000Y-250875000D03*
%TD*%
D33*
%TO.C,C114*%
X449050000Y-330000000D03*
X450950000Y-330000000D03*
%TD*%
D35*
%TO.C,C123*%
X400900000Y-318950000D03*
X399100000Y-318950000D03*
%TD*%
D30*
%TO.C,C50*%
X411623700Y-322450000D03*
X413376300Y-322450000D03*
%TD*%
D57*
%TO.C,J2*%
X464610000Y-325937500D03*
X470390000Y-325937500D03*
D58*
X464300000Y-324362500D03*
X465100000Y-324362500D03*
D59*
X466250000Y-324362500D03*
X467250000Y-324362500D03*
X467750000Y-324362500D03*
X468750000Y-324362500D03*
D58*
X470700000Y-324362500D03*
X469900000Y-324362500D03*
D59*
X469250000Y-324362500D03*
X468250000Y-324362500D03*
X466750000Y-324362500D03*
X465750000Y-324362500D03*
D60*
X462390000Y-324937500D03*
X472610000Y-324937500D03*
X462390000Y-328867500D03*
X472610000Y-328867500D03*
%TD*%
D14*
%TO.C,D8*%
X480500000Y-250875000D03*
X480500000Y-249125000D03*
X481500000Y-249125000D03*
X481500000Y-250875000D03*
%TD*%
D29*
%TO.C,R21*%
X421020000Y-212500000D03*
X423980000Y-212500000D03*
%TD*%
D36*
%TO.C,IC3*%
X402250000Y-239225000D03*
X402749999Y-239225000D03*
X403250001Y-239225000D03*
X403750000Y-239225000D03*
X404249999Y-239225000D03*
X404750000Y-239225000D03*
X405250000Y-239225000D03*
X405750001Y-239225000D03*
X406250000Y-239225000D03*
X406749999Y-239225000D03*
X407250001Y-239225000D03*
X407750000Y-239225000D03*
D37*
X409225000Y-237750000D03*
X409225000Y-237250001D03*
X409225000Y-236749999D03*
X409225000Y-236250000D03*
X409225000Y-235750001D03*
X409225000Y-235250000D03*
X409225000Y-234750000D03*
X409225000Y-234249999D03*
X409225000Y-233750000D03*
X409225000Y-233250001D03*
X409225000Y-232749999D03*
X409225000Y-232250000D03*
D36*
X407750000Y-230775000D03*
X407250001Y-230775000D03*
X406749999Y-230775000D03*
X406250000Y-230775000D03*
X405750001Y-230775000D03*
X405250000Y-230775000D03*
X404750000Y-230775000D03*
X404249999Y-230775000D03*
X403750000Y-230775000D03*
X403250001Y-230775000D03*
D65*
X402749999Y-230775000D03*
X402250000Y-230775000D03*
D37*
X400775000Y-232250000D03*
X400775000Y-232749999D03*
X400775000Y-233250001D03*
X400775000Y-233750000D03*
X400775000Y-234249999D03*
X400775000Y-234750000D03*
X400775000Y-235250000D03*
X400775000Y-235750001D03*
X400775000Y-236250000D03*
X400775000Y-236749999D03*
X400775000Y-237250001D03*
X400775000Y-237750000D03*
D38*
X405000000Y-235000000D03*
%TD*%
D24*
%TO.C,C62*%
X478450000Y-212500000D03*
X476550000Y-212500000D03*
%TD*%
D11*
%TO.C,D58*%
X386500000Y-249125000D03*
X386500000Y-250875000D03*
X385500000Y-250875000D03*
X385500000Y-249125000D03*
%TD*%
%TO.C,D75*%
X429000000Y-249125000D03*
X429000000Y-250875000D03*
X428000000Y-250875000D03*
X428000000Y-249125000D03*
%TD*%
D14*
%TO.C,D18*%
X515500000Y-250875000D03*
X515500000Y-249125000D03*
X516500000Y-249125000D03*
X516500000Y-250875000D03*
%TD*%
D11*
%TO.C,D57*%
X446500000Y-249125000D03*
X446500000Y-250875000D03*
X445500000Y-250875000D03*
X445500000Y-249125000D03*
%TD*%
D13*
%TO.C,C93*%
X375000000Y-276500000D03*
X375000000Y-273553600D03*
%TD*%
D14*
%TO.C,D26*%
X473000000Y-250875000D03*
X473000000Y-249125000D03*
X474000000Y-249125000D03*
X474000000Y-250875000D03*
%TD*%
D13*
%TO.C,C104*%
X392500000Y-276500000D03*
X392500000Y-273553600D03*
%TD*%
D16*
%TO.C,R15*%
X495000000Y-291500000D03*
X495000000Y-288540000D03*
%TD*%
%TO.C,R31*%
X480000000Y-291460000D03*
X480000000Y-288500000D03*
%TD*%
D48*
%TO.C,C124*%
X449100000Y-307500000D03*
X450900000Y-307500000D03*
%TD*%
D11*
%TO.C,D64*%
X441500000Y-249125000D03*
X441500000Y-250875000D03*
X440500000Y-250875000D03*
X440500000Y-249125000D03*
%TD*%
D25*
%TO.C,R42*%
X381494000Y-292450000D03*
X378506000Y-292450000D03*
%TD*%
D13*
%TO.C,C86*%
X440000000Y-276473200D03*
X440000000Y-273526800D03*
%TD*%
D12*
%TO.C,U9*%
X451255000Y-323450000D03*
X451255000Y-322500000D03*
X451255000Y-321550000D03*
X448745000Y-321550000D03*
X448745000Y-322500000D03*
X448745000Y-323450000D03*
%TD*%
D11*
%TO.C,D60*%
X444000000Y-249125000D03*
X444000000Y-250875000D03*
X443000000Y-250875000D03*
X443000000Y-249125000D03*
%TD*%
D31*
%TO.C,SW5*%
X438399998Y-311950001D03*
X431600002Y-311950001D03*
X438399998Y-307949999D03*
X431600002Y-307949999D03*
D32*
X438300001Y-309950000D03*
%TD*%
D14*
%TO.C,D23*%
X493000000Y-250875000D03*
X493000000Y-249125000D03*
X494000000Y-249125000D03*
X494000000Y-250875000D03*
%TD*%
D36*
%TO.C,IC2*%
X429750000Y-239225000D03*
X430249999Y-239225000D03*
X430750001Y-239225000D03*
X431250000Y-239225000D03*
X431749999Y-239225000D03*
X432250000Y-239225000D03*
X432750000Y-239225000D03*
X433250001Y-239225000D03*
X433750000Y-239225000D03*
X434249999Y-239225000D03*
X434750001Y-239225000D03*
X435250000Y-239225000D03*
D37*
X436725000Y-237750000D03*
X436725000Y-237250001D03*
X436725000Y-236749999D03*
X436725000Y-236250000D03*
X436725000Y-235750001D03*
X436725000Y-235250000D03*
X436725000Y-234750000D03*
X436725000Y-234249999D03*
X436725000Y-233750000D03*
X436725000Y-233250001D03*
X436725000Y-232749999D03*
X436725000Y-232250000D03*
D36*
X435250000Y-230775000D03*
X434750001Y-230775000D03*
X434249999Y-230775000D03*
X433750000Y-230775000D03*
X433250001Y-230775000D03*
X432750000Y-230775000D03*
X432250000Y-230775000D03*
X431749999Y-230775000D03*
X431250000Y-230775000D03*
X430750001Y-230775000D03*
X430249999Y-230775000D03*
X429750000Y-230775000D03*
D37*
X428275000Y-232250000D03*
X428275000Y-232749999D03*
X428275000Y-233250001D03*
X428275000Y-233750000D03*
X428275000Y-234249999D03*
X428275000Y-234750000D03*
X428275000Y-235250000D03*
X428275000Y-235750001D03*
X428275000Y-236250000D03*
X428275000Y-236749999D03*
X428275000Y-237250001D03*
X428275000Y-237750000D03*
D38*
X432500000Y-235000000D03*
%TD*%
D48*
%TO.C,C68*%
X391600000Y-304950000D03*
X393400000Y-304950000D03*
%TD*%
D18*
%TO.C,R46*%
X390000000Y-311444000D03*
X390000000Y-308456000D03*
%TD*%
D33*
%TO.C,C118*%
X416550000Y-319950000D03*
X418450000Y-319950000D03*
%TD*%
D11*
%TO.C,D65*%
X411500000Y-249125000D03*
X411500000Y-250875000D03*
X410500000Y-250875000D03*
X410500000Y-249125000D03*
%TD*%
D13*
%TO.C,C25*%
X480000000Y-226446400D03*
X480000000Y-223500000D03*
%TD*%
D14*
%TO.C,D16*%
X463000000Y-250875000D03*
X463000000Y-249125000D03*
X464000000Y-249125000D03*
X464000000Y-250875000D03*
%TD*%
%TO.C,D19*%
X465500000Y-250875000D03*
X465500000Y-249125000D03*
X466500000Y-249125000D03*
X466500000Y-250875000D03*
%TD*%
D11*
%TO.C,D70*%
X404000000Y-249125000D03*
X404000000Y-250875000D03*
X403000000Y-250875000D03*
X403000000Y-249125000D03*
%TD*%
D31*
%TO.C,SW4*%
X468399998Y-312000001D03*
X461600002Y-312000001D03*
X468399998Y-307999999D03*
X461600002Y-307999999D03*
D32*
X468300001Y-310000000D03*
%TD*%
D13*
%TO.C,C91*%
X407500000Y-276473200D03*
X407500000Y-273526800D03*
%TD*%
%TO.C,C17*%
X472500000Y-226446400D03*
X472500000Y-223500000D03*
%TD*%
%TO.C,C105*%
X422500000Y-276473200D03*
X422500000Y-273526800D03*
%TD*%
D14*
%TO.C,D12*%
X510500000Y-250875000D03*
X510500000Y-249125000D03*
X511500000Y-249125000D03*
X511500000Y-250875000D03*
%TD*%
D13*
%TO.C,C19*%
X525000000Y-226473200D03*
X525000000Y-223526800D03*
%TD*%
%TO.C,C96*%
X432500000Y-276473200D03*
X432500000Y-273526800D03*
%TD*%
D66*
%TO.C,R40*%
X409565000Y-284950000D03*
X410435000Y-284950000D03*
%TD*%
D67*
%TO.C,R23*%
X375000000Y-258506000D03*
X375000000Y-261494000D03*
%TD*%
D63*
%TO.C,L2*%
X405148600Y-300000000D03*
X414851400Y-300000000D03*
%TD*%
D14*
%TO.C,D6*%
X505500000Y-250875000D03*
X505500000Y-249125000D03*
X506500000Y-249125000D03*
X506500000Y-250875000D03*
%TD*%
D13*
%TO.C,C12*%
X492500000Y-226446400D03*
X492500000Y-223500000D03*
%TD*%
D33*
%TO.C,C39*%
X491550000Y-310000000D03*
X493450000Y-310000000D03*
%TD*%
D68*
%TO.C,C43*%
X433312800Y-287450000D03*
X431687200Y-287450000D03*
%TD*%
D13*
%TO.C,C102*%
X395000000Y-276473200D03*
X395000000Y-273526800D03*
%TD*%
D24*
%TO.C,C60*%
X470950000Y-220000000D03*
X469050000Y-220000000D03*
%TD*%
D64*
%TO.C,R7*%
X441675000Y-317450000D03*
X439325000Y-317450000D03*
%TD*%
D69*
%TO.C,C121*%
X417500000Y-324000000D03*
X417500000Y-325900000D03*
%TD*%
D11*
%TO.C,D79*%
X394000000Y-249125000D03*
X394000000Y-250875000D03*
X393000000Y-250875000D03*
X393000000Y-249125000D03*
%TD*%
%TO.C,D76*%
X396500000Y-249125000D03*
X396500000Y-250875000D03*
X395500000Y-250875000D03*
X395500000Y-249125000D03*
%TD*%
D17*
%TO.C,R49*%
X391006000Y-297450000D03*
X393994000Y-297450000D03*
%TD*%
D29*
%TO.C,R13*%
X518520000Y-232500000D03*
X521480000Y-232500000D03*
%TD*%
D16*
%TO.C,R12*%
X525000000Y-238980000D03*
X525000000Y-236020000D03*
%TD*%
D14*
%TO.C,D27*%
X498000000Y-250875000D03*
X498000000Y-249125000D03*
X499000000Y-249125000D03*
X499000000Y-250875000D03*
%TD*%
D11*
%TO.C,D62*%
X414000000Y-249125000D03*
X414000000Y-250875000D03*
X413000000Y-250875000D03*
X413000000Y-249125000D03*
%TD*%
D14*
%TO.C,D15*%
X513000000Y-250875000D03*
X513000000Y-249125000D03*
X514000000Y-249125000D03*
X514000000Y-250875000D03*
%TD*%
%TO.C,D10*%
X458000000Y-250875000D03*
X458000000Y-249125000D03*
X459000000Y-249125000D03*
X459000000Y-250875000D03*
%TD*%
D11*
%TO.C,D55*%
X419000000Y-249125000D03*
X419000000Y-250875000D03*
X418000000Y-250875000D03*
X418000000Y-249125000D03*
%TD*%
D14*
%TO.C,D5*%
X478000000Y-250875000D03*
X478000000Y-249125000D03*
X479000000Y-249125000D03*
X479000000Y-250875000D03*
%TD*%
D13*
%TO.C,C90*%
X377500000Y-276500000D03*
X377500000Y-273553600D03*
%TD*%
D19*
%TO.C,C83*%
X456026800Y-192500000D03*
X458973200Y-192500000D03*
%TD*%
D11*
%TO.C,D56*%
X389000000Y-249125000D03*
X389000000Y-250875000D03*
X388000000Y-250875000D03*
X388000000Y-249125000D03*
%TD*%
D13*
%TO.C,C6*%
X487500000Y-226473200D03*
X487500000Y-223526800D03*
%TD*%
D30*
%TO.C,C52*%
X411623700Y-312450000D03*
X413376300Y-312450000D03*
%TD*%
D24*
%TO.C,C64*%
X483450000Y-195000000D03*
X481550000Y-195000000D03*
%TD*%
D70*
%TO.C,C56*%
X505000000Y-310896800D03*
X505000000Y-309103200D03*
%TD*%
D33*
%TO.C,C42*%
X486550000Y-317000000D03*
X488450000Y-317000000D03*
%TD*%
D71*
%TO.C,C122*%
X449125000Y-288000000D03*
X450875000Y-288000000D03*
%TD*%
D70*
%TO.C,C55*%
X510000000Y-310896800D03*
X510000000Y-309103200D03*
%TD*%
M02*
